<svg xmlns="http://www.w3.org/2000/svg" width="665" height="478" viewBox="0 0 665 478"><defs><style>.a{fill:#fff;}.b{fill:#a9ae37;}.c{fill:#414827;}</style></defs><title>GOT_logo_white_bg</title><path class="a" d="M497.68,505.16s-30.95-57.64-36.66-66.7-7.75-18.49-5.42-22.25,8.53-6.19,22.27-8.53,130.81-28,198.69-90.62c111.42-101.5,30.6-254.5-91.78-279.2S152.8,26,90.36,132s-4.89,196,97.53,244.32,114.33,34.06,151.78,49.16,156,78.72,156,78.72" transform="translate(-64.48 -27.16)"/><path class="b" d="M469.49,475.42c-24.84-46.59-21.39-42.48-26.88-53.71-4.21-8.61-6.68-16.81-4.67-20.23s9.35-5.62,21.2-7.75,112.78-25.47,171.31-82.36c96.06-92.25,26.38-231.3-79.14-253.75S178.87,46.86,125,143.14s-4.22,178.18,84.08,222.06S314.7,393.42,347,407.14s123.51,70.28,123.51,70.28" transform="translate(-64.48 -27.16)"/><path class="a" d="M192.49,162.71s9-43,47.66-57.21,94.32,1.22,94.32,1.22,23.52-45,92.23-44.15,96.84,37.05,96.84,37.05,63.47-9.54,86,49.72-7.34,63.41-7.34,63.41,16,59.79-23.57,99.4-112.85,34.26-112.85,34.26S444.28,372.75,396.21,381s-79.76-11.69-79.76-11.69-34.72,7.38-72.77-6.21S204.1,317.2,204.1,317.2s-56-11.41-63.25-77.8,51.64-76.69,51.64-76.69" transform="translate(-64.48 -27.16)"/><path class="c" d="M548.67,435c-9.72,0-15.43-3-18.6-5.7a15.06,15.06,0,0,1-5.48-9.84v-.06c-.31-5.92,10-12.87,22.16-14.88,12.57-2.1,28.82,3,30.51,9.56a13.51,13.51,0,0,1-2.48,10.81c-2.74,3.89-8.68,8.75-21.42,9.89-1.66.15-3.22.22-4.69.22m-20.1-15.83a11,11,0,0,0,4.09,7.1c3.07,2.63,9.1,5.55,20.35,4.55s16.27-5,18.52-8.23a9.6,9.6,0,0,0,1.87-7.52c-.84-3.28-14-8.62-26-6.62-11.75,1.94-18.94,8.11-18.83,10.72" transform="translate(-64.48 -27.16)"/><path class="c" d="M544.29,396.38c-9.38,0-17.17-1.48-23.17-4.38-6.8-3.31-9.93-8.57-8.58-14.43,2-8.72,13.24-15.81,25.06-15.81h.29c4.24,0,41.42.75,43.13,13.31a17.71,17.71,0,0,1-3.67,13.24,14,14,0,0,1-9.6,5.42,111.31,111.31,0,0,1-23.46,2.65m-6.69-30.64c-10.92,0-19.77,6.58-21.19,12.73-1.16,5.06,2.87,8.2,6.45,9.94,5.45,2.65,12.66,4,21.43,4A109,109,0,0,0,567,389.83l.3-.05a10.14,10.14,0,0,0,7-3.95,13.7,13.7,0,0,0,2.83-10.22c-.72-5.24-18.31-9.67-39.23-9.87Z" transform="translate(-64.48 -27.16)"/><path class="c" d="M554.5,462.66c-8.77,0-15.58-4.26-16.57-10.35a6,6,0,0,1,1.47-5c2.62-3.08,8.68-5,15.8-5l.77,0c3.7.49,15.82,2.53,16.63,8.4a7.36,7.36,0,0,1-1.93,5.81c-3,3.53-9,5.92-15.42,6.09h-.75m.7-16.35c-5.8,0-10.94,1.45-12.77,3.6a2.07,2.07,0,0,0-.57,1.76c.58,3.58,5.35,7.22,13.28,7,6-.16,10.61-2.48,12.5-4.7a3.46,3.46,0,0,0,1-2.69c-.25-1.88-7.09-4.16-13.09-5Z" transform="translate(-64.48 -27.16)"/><path class="c" d="M391.06,397.1c-38.31,0-62.72-12.41-68-15.39-3.83,2.15-17.63,8.82-41.39,8.82-15.73,0-32.71-2.95-50.46-8.76-29.12-8.84-45.31-46-48.09-52.94a120.5,120.5,0,0,1-37-14.86c-25.07-15.5-38.39-38.43-38.51-66.31-.15-35.25,20.41-54.75,37.68-64.89a113.5,113.5,0,0,1,36.35-13.41,144.92,144.92,0,0,1,13.89-31.3c13.28-22.3,30.67-36.4,50.28-40.76a176.12,176.12,0,0,1,41.77-5.42c36.45,0,56.11,13.78,62.44,19.2A90.36,90.36,0,0,1,370,82.26c14.55-14.34,41.37-31.45,86.56-31.45h.39c45.18.1,73.43,12.9,89.17,23.63C560.19,84,567,93.59,569.15,97a180.87,180.87,0,0,1,33.6-3.16c22.55,0,53,4.67,70.19,26.9,14,17,20,34.08,17.87,50.78-2.69,21.09-17.46,34.87-22.32,38.89a88.7,88.7,0,0,1,12.79,33.66c3,19.09.21,47.5-29.94,74.46-30.58,27.36-69.55,33.1-96.86,33.1a207.46,207.46,0,0,1-47.15-5.41c-4.23,6.91-25.59,37-82.12,47.64a185.76,185.76,0,0,1-34.15,3.24M323,377.05l1.08.66c.25.15,25.58,15.41,67,15.41a181.15,181.15,0,0,0,33.41-3.18c60.81-11.43,79.94-46.6,80.12-46.95l.75-1.42,1.56.43a197.91,197.91,0,0,0,47.58,5.65c26.61,0,64.57-5.57,94.21-32.08,23.14-20.7,32.77-44.54,28.65-70.88a84,84,0,0,0-13.14-33.51L663,209.57l1.62-1.18c.19-.14,19.32-14.36,22.24-37.41,2-15.56-3.77-31.63-17-47.76-16.2-21-45.42-25.4-67.08-25.4a175.06,175.06,0,0,0-34.14,3.36l-1.48.33-.71-1.33c-.06-.11-6.29-11.42-22.79-22.61-15.27-10.34-42.7-22.69-86.71-22.77h-.38c-43.84,0-69.75,16.47-83.76,30.3-15.12,14.91-20,29.91-20,30.06l-1,3.26-2.33-2.51c-.18-.2-19.24-20-61.79-20a172.63,172.63,0,0,0-40.87,5.31c-45,10-61.42,69.86-61.58,70.47l-.34,1.28-1.31.18a110,110,0,0,0-36.28,13.16c-23.74,14-35.72,34.64-35.61,61.39s12.4,47.92,36.52,62.87a117,117,0,0,0,36.76,14.6l1.12.2.4,1.07c.16.42,16.38,42.6,46,51.58,17.4,5.7,34,8.58,49.27,8.58,26.42,0,40.15-8.73,40.29-8.81Z" transform="translate(-64.48 -27.16)"/><polygon class="c" points="138.55 165.64 138.55 247.27 114.5 247.27 114.5 165.64 83.37 165.64 83.37 143.57 169.67 143.57 169.67 165.64 138.55 165.64"/><rect class="c" x="240.91" y="158.49" width="24.05" height="103.7"/><polygon class="c" points="358.06 269.15 295.53 212.98 295.53 267.17 271.48 267.17 271.48 162.05 274.74 161.49 336.42 217.23 336.42 163.47 360.47 163.47 360.47 268.72 358.06 269.15"/><path class="c" d="M515.89,224.91v49.51a83.44,83.44,0,0,1-18,7.71,75.63,75.63,0,0,1-21.29,2.76A58,58,0,0,1,455.2,281a52,52,0,0,1-17.26-11,51.39,51.39,0,0,1-11.61-16.91,57.41,57.41,0,0,1,.08-43.5,51.05,51.05,0,0,1,11.81-17,53.07,53.07,0,0,1,17.68-11,61,61,0,0,1,21.93-3.89,67.8,67.8,0,0,1,18.61,2.41,84.19,84.19,0,0,1,16.19,6.51l-10,19.38a49.72,49.72,0,0,0-23.2-5.8,38,38,0,0,0-13.65,2.26,26.62,26.62,0,0,0-16,16.34,39.4,39.4,0,0,0,.28,25.89,28.22,28.22,0,0,0,16.06,16.48A31,31,0,0,0,478,263.53a50.5,50.5,0,0,0,9.13-.64,20.73,20.73,0,0,0,6.16-2.19V245.42h-20.8V224.91Z" transform="translate(-64.48 -27.16)"/><path class="c" d="M586.21,276.76a32.72,32.72,0,0,1-2.26,12,29.43,29.43,0,0,1-6.86,10.33,33.38,33.38,0,0,1-11.53,7.22A45,45,0,0,1,549.29,309a52.38,52.38,0,0,1-9.13-.84,78.3,78.3,0,0,1-9.33-2.27,75.8,75.8,0,0,1-8.85-3.32,53.62,53.62,0,0,1-7.63-4.18L521,276.62a58.19,58.19,0,0,0,14,7.28,43.94,43.94,0,0,0,15,2.76q6.36,0,9-2.62a8.63,8.63,0,0,0,2.69-6.43,10.86,10.86,0,0,0-.64-3.75,9.28,9.28,0,0,0-2.69-3.61,29,29,0,0,0-5.65-3.75q-3.62-1.9-9.56-4.31A60.66,60.66,0,0,1,531.68,256a33.63,33.63,0,0,1-7.64-7.14,25.12,25.12,0,0,1-4.18-8.14,31.49,31.49,0,0,1-1.27-9,27.36,27.36,0,0,1,2.34-11,28.07,28.07,0,0,1,6.85-9.55,34,34,0,0,1,11.39-6.72,45.6,45.6,0,0,1,15.92-2.55,50.34,50.34,0,0,1,8.41.71,66.82,66.82,0,0,1,8,1.84,61.22,61.22,0,0,1,7.07,2.54,34.11,34.11,0,0,1,5.52,3L578,231.49a51.29,51.29,0,0,0-5.1-3.05,61.44,61.44,0,0,0-5.87-2.68,51.24,51.24,0,0,0-6.08-2,23.65,23.65,0,0,0-5.87-.78c-4.44,0-7.59.85-9.48,2.55a7.62,7.62,0,0,0-2.83,5.8,9.11,9.11,0,0,0,1,4.38,10.08,10.08,0,0,0,3.25,3.4,36.64,36.64,0,0,0,5.74,3.11c2.3,1,5.06,2.26,8.27,3.68a73.33,73.33,0,0,1,12.1,6.43,34,34,0,0,1,7.78,7.08,23.41,23.41,0,0,1,4.1,8.06,34.51,34.51,0,0,1,1.2,9.27" transform="translate(-64.48 -27.16)"/><path class="c" d="M591.48,295.09a13.11,13.11,0,0,1,4-9.63,12.91,12.91,0,0,1,9.47-4,13.6,13.6,0,1,1,0,27.19,12.91,12.91,0,0,1-9.47-4,13.1,13.1,0,0,1-4-9.64" transform="translate(-64.48 -27.16)"/><path class="c" d="M625.74,295.09a13.11,13.11,0,0,1,4-9.63,12.93,12.93,0,0,1,9.47-4,13.6,13.6,0,1,1,0,27.19,12.93,12.93,0,0,1-9.47-4,13.1,13.1,0,0,1-4-9.64" transform="translate(-64.48 -27.16)"/><path class="c" d="M659.14,295.09a13.11,13.11,0,0,1,4-9.63,12.93,12.93,0,0,1,9.47-4,13.6,13.6,0,1,1,0,27.19,12.93,12.93,0,0,1-9.47-4,13.1,13.1,0,0,1-4-9.64" transform="translate(-64.48 -27.16)"/><polygon class="c" points="209.64 276.69 209.64 235.09 169.75 235.09 169.75 276.69 145.69 276.69 145.69 172.99 169.75 172.99 169.75 213.59 209.64 213.59 209.64 172.99 233.69 172.99 233.69 276.69 209.64 276.69"/><polygon class="c" points="234.91 135.28 234.91 150.06 231.92 150.06 231.92 135.28 226.36 135.28 226.36 132.56 240.45 132.56 240.45 135.28 234.91 135.28"/><polygon class="c" points="253.55 150.06 253.55 142.54 245.5 142.54 245.5 150.06 242.52 150.06 242.52 132.56 245.5 132.56 245.5 139.87 253.55 139.87 253.55 132.56 256.53 132.56 256.53 150.06 253.55 150.06"/><polygon class="c" points="260.21 150.06 260.21 132.56 270.89 132.56 270.89 135.28 263.2 135.28 263.2 139.87 270.15 139.87 270.15 142.5 263.2 142.5 263.2 147.34 270.89 147.34 270.89 150.06 260.21 150.06"/><path class="c" d="M358.46,168v7.64a12.62,12.62,0,0,1-3,1.41,11.71,11.71,0,0,1-3.55.5,9.68,9.68,0,0,1-3.55-.66,9,9,0,0,1-3-1.83,9.21,9.21,0,0,1-2-10.25,8.94,8.94,0,0,1,5-4.69,9.77,9.77,0,0,1,3.52-.65,11,11,0,0,1,3.41.49,13,13,0,0,1,2.8,1.33l-1.36,2.38a9.5,9.5,0,0,0-2.28-1.07,8.09,8.09,0,0,0-2.42-.38,6.68,6.68,0,0,0-2.66.49,5.37,5.37,0,0,0-1.95,1.35,5.89,5.89,0,0,0-1.21,2,7.14,7.14,0,0,0-.42,2.46,6.76,6.76,0,0,0,.48,2.57,5.88,5.88,0,0,0,1.33,2,6.39,6.39,0,0,0,2,1.31,6.11,6.11,0,0,0,2.42.48,8.45,8.45,0,0,0,2-.2,6.86,6.86,0,0,0,1.58-.63v-3.44h-4.08V168Z" transform="translate(-64.48 -27.16)"/><path class="c" d="M373.08,177.22l-1.7-4h-6.93l-1.69,4h-3.08l8.07-17.74h.43l8.05,17.74ZM367.92,165l-2.49,5.85h5Z" transform="translate(-64.48 -27.16)"/><polygon class="c" points="328.19 150.06 327.95 139.58 322.43 147.94 322.07 147.94 316.51 139.56 316.32 150.06 313.38 150.06 314.12 132.34 314.57 132.3 322.33 143.9 329.91 132.3 330.38 132.34 331.13 150.06 328.19 150.06"/><polygon class="c" points="334.53 150.06 334.53 132.56 345.2 132.56 345.2 135.28 337.51 135.28 337.51 139.87 344.46 139.87 344.46 142.5 337.51 142.5 337.51 147.34 345.2 147.34 345.2 150.06 334.53 150.06"/><path class="c" d="M434.66,168.48a9.3,9.3,0,0,1-.68,3.6,8.58,8.58,0,0,1-4.71,4.75,9.15,9.15,0,0,1-3.54.68,9,9,0,0,1-3.5-.68,8.26,8.26,0,0,1-2.78-1.89,8.48,8.48,0,0,1-1.82-2.86,9.68,9.68,0,0,1-.66-3.6,9.28,9.28,0,0,1,.68-3.61,8.44,8.44,0,0,1,1.89-2.87,8.82,8.82,0,0,1,2.84-1.89,9.12,9.12,0,0,1,3.52-.68,9,9,0,0,1,3.51.68,8.41,8.41,0,0,1,4.6,4.76,9.86,9.86,0,0,1,.65,3.61m-3.2,0A7.46,7.46,0,0,0,431,166a6.31,6.31,0,0,0-1.15-2,5.17,5.17,0,0,0-1.78-1.33,5.35,5.35,0,0,0-2.28-.48,5.43,5.43,0,0,0-2.29.48,5.06,5.06,0,0,0-1.8,1.33,6.73,6.73,0,0,0-1.16,2,7.71,7.71,0,0,0-.41,2.53,7.63,7.63,0,0,0,.41,2.53,6.44,6.44,0,0,0,1.16,2,5.21,5.21,0,0,0,1.8,1.34,5.29,5.29,0,0,0,2.29.49,5.21,5.21,0,0,0,2.28-.49,5.33,5.33,0,0,0,1.78-1.34,6.05,6.05,0,0,0,1.15-2,7.38,7.38,0,0,0,.42-2.53" transform="translate(-64.48 -27.16)"/><polygon class="c" points="376.07 135.28 376.07 140.39 382.82 140.39 382.82 143.04 376.07 143.04 376.07 150.06 373.08 150.06 373.08 132.56 383.76 132.56 383.76 135.28 376.07 135.28"/><path class="c" d="M592.81,230.83a4.74,4.74,0,0,1-6.73,0,4.76,4.76,0,0,1,6.73-6.73,4.77,4.77,0,0,1,0,6.73Zm-6.26-6.26a4,4,0,0,0-1.19,2.89,4,4,0,0,0,1.18,2.92,4.09,4.09,0,0,0,5.79,0,4,4,0,0,0,1.2-2.92,4.08,4.08,0,0,0-7-2.89Zm2.8.26a4,4,0,0,1,1.42.19,1.31,1.31,0,0,1,.81,1.33,1.15,1.15,0,0,1-.51,1,2.05,2.05,0,0,1-.75.25,1.24,1.24,0,0,1,.9.51,1.52,1.52,0,0,1,.28.81v.38c0,.12,0,.25,0,.39a.84.84,0,0,0,0,.27l0,.07h-.86l0-.06a.11.11,0,0,0,0-.05l0-.17v-.42a1.26,1.26,0,0,0-.49-1.19,2.2,2.2,0,0,0-1-.17h-.73v2.06h-.92v-5.23Zm1,.83a2.36,2.36,0,0,0-1.11-.2h-.79v1.89h.83a2.51,2.51,0,0,0,.88-.11.81.81,0,0,0,.54-.82A.79.79,0,0,0,590.34,225.66Z" transform="translate(-64.48 -27.16)"/><polygon class="c" points="180.48 304.95 180.48 297.54 175.9 297.54 175.9 304.95 167.22 304.95 167.22 285 175.9 285 175.9 292.43 180.48 292.43 180.48 285 189.12 285 189.12 304.95 180.48 304.95"/><path class="c" d="M267.81,332.62c-5.45,0-10.62-2.79-10.62-8.93V312.16h8.64v12.67a2.81,2.81,0,0,0,5.61,0V312.16h6.26v11.72c0,6.38-4.39,8.74-9.89,8.74" transform="translate(-64.48 -27.16)"/><polygon class="c" points="235.94 304.95 235.94 292.57 231.14 304.95 227.59 304.95 222.85 292.57 222.85 304.95 216.61 304.95 216.61 285 227.4 285 230.84 292.95 234.23 285 244.42 285 244.42 304.95 235.94 304.95"/><path class="c" d="M322.46,332.6c-6.29,0-10.84-4-10.84-10.48s4.55-10.48,10.81-10.48,10.84,4,10.84,10.48-4.55,10.48-10.81,10.48m1.89-13c0-1.69-.57-3-1.92-3s-1.87,1.28-1.87,3v5.13c0,1.68.51,3,1.9,3s1.89-1.28,1.89-3Z" transform="translate(-64.48 -27.16)"/><path class="c" d="M354.25,332.46c-3.85,0-5.42-.95-5.58-4.37-.14-2.41-.62-3.15-1.87-3.15h-1.49v7.17h-8.65V312.16h13.93c4.34,0,7,2.09,7,5.13,0,2.63-1.68,4.42-4.85,5.32,3.31.29,4.28,2,4.47,5.51.11,2,.38,2.49,1.52,3v.74c-.33.27-1.71.62-4.5.62M347,317.29h-1.65v4H347c1.36,0,1.9-.87,1.9-2a1.76,1.76,0,0,0-1.9-2" transform="translate(-64.48 -27.16)"/><rect class="c" x="302.86" y="285" width="8.7" height="19.95"/><polygon class="c" points="328.72 304.95 321.62 295.77 321.62 304.95 315.35 304.95 315.35 285 322.75 285 329.86 293.79 329.86 285 336.12 285 336.12 304.95 328.72 304.95"/><path class="c" d="M423,332.11l-1.09-3h-6l-1.09,3h-6.45l8.32-19.95h6.89l7.86,19.95ZM419,321l-1.55,4.13h3Z" transform="translate(-64.48 -27.16)"/><path class="c" d="M453.32,332.11h-14V312.16h13.19c4.37,0,7.05,2.09,7,5.13,0,2.52-1.32,3.82-3.71,4.5a4.78,4.78,0,0,1,4.45,4.62c0,2.41-2,5.7-7,5.7m-3.68-14.82H448v3.31h1.63c1.38,0,1.89-.71,1.89-1.69s-.51-1.62-1.89-1.62m0,6.4H448V327h1.63c1.38,0,1.89-.7,1.89-1.68s-.51-1.63-1.89-1.63" transform="translate(-64.48 -27.16)"/><path class="c" d="M472.59,332.6c-6.29,0-10.84-4-10.84-10.48s4.55-10.48,10.81-10.48,10.85,4,10.85,10.48-4.56,10.48-10.82,10.48m1.9-13c0-1.69-.57-3-1.93-3s-1.87,1.28-1.87,3v5.13c0,1.68.52,3,1.9,3s1.9-1.28,1.9-3Z" transform="translate(-64.48 -27.16)"/><polygon class="c" points="432.31 304.95 429.25 300.06 425.92 304.95 418.74 304.95 426 295.58 418.74 285 428.82 285 431.91 289.88 435.24 285 442.43 285 435.13 294.36 442.43 304.95 432.31 304.95"/><path class="c" d="M512.54,325.38h-2.76l-1.9-8.26v-5h6.94v5Zm-4.09,1.68h5.8v5.05h-5.8Z" transform="translate(-64.48 -27.16)"/></svg>