<svg id="Layer_1" data-name="Layer 1" xmlns="http://www.w3.org/2000/svg" viewBox="0 0 126.91 51.23"><defs><style>.cls-1{fill:#fff;}.cls-2,.cls-3{fill:none;stroke-miterlimit:10;}.cls-2{stroke:#fff;}.cls-3{stroke:#000;}</style></defs><title>Untitled-1</title><path class="cls-1" d="M91.55,38.9a15.67,15.67,0,0,0,10.11-5.47c1.22-1.37,5.58-6.26,4.2-11.36-1.57-5.85-9.59-8.06-14.73-8-2,0-9.62.1-13,6.31a12.8,12.8,0,0,0,1.69,14.31C83.71,39.23,89.51,39.1,91.55,38.9Z" transform="translate(-0.95 -1.06)"/><path class="cls-1" d="M14.52,36.8c-1.35-4.65-2.38-8.22-5-8.84S4,30,2.73,31.75c-2.91,4.08-1.77,9.44,0,12.63.85,1.52,2.54,4.57,5.89,5a6.88,6.88,0,0,0,6.32-2.53C16.73,44.47,15.85,41.41,14.52,36.8Z" transform="translate(-0.95 -1.06)"/><path class="cls-2" d="M43.14,31.75c.94,1.2,5,6.4,9.26,5.47,3.24-.71,4.83-4.56,5.9-7.16.83-2,2.71-6.6.84-11.78-.3-.82-3.06-8.1-9.68-8.84-.22,0-5.2-.51-8.42,2.94C36.33,17.42,39.21,26.72,43.14,31.75Z" transform="translate(-0.95 -1.06)"/><path class="cls-3" d="M11.57,27.12c4.91.17,7.4,7.85,7.58,8.42.53,1.7,2,6.26-.84,10.1-1.77,2.42-5.13,4.45-8.42,3.79-4.84-1-7.1-7.23-6.74-11.79C3.55,32.7,7.25,27,11.57,27.12Z" transform="translate(-0.95 -1.06)"/><path class="cls-3" d="M125.23,2.28c-2.94-2-7.3.65-9.26,2.53-.51.48-4.46,4.35-3,7.57,1.24,2.63,5.23,3,7.58,2.53.44-.08,4.9-1,6.31-5.05C127.77,7.39,127.48,3.84,125.23,2.28Z" transform="translate(-0.95 -1.06)"/><path class="cls-3" d="M100,32.62a14.73,14.73,0,0,1-11,.84c-3.83-1.37-7.85-4.93-7.16-7.16s6-2.45,8-2.52a23.69,23.69,0,0,1,10.53,2.1c3.06,1.38,11.17,5,11.79,11,.69,6.51-8,13.45-16,14.73-12.28,2-25.51-8.94-26.53-20.21-.09-1-.63-8.06,4.21-12.63,4.39-4.14,10.51-3.68,14.74-3.36a34,34,0,0,1,19,8" transform="translate(-0.95 -1.06)"/></svg>
				