<?xml version="1.0" encoding="utf-8"?>
<!-- Generator: Adobe Illustrator 22.1.0, SVG Export Plug-In . SVG Version: 6.00 Build 0)  -->
<svg version="1.1" id="Layer_1" xmlns="http://www.w3.org/2000/svg" xmlns:xlink="http://www.w3.org/1999/xlink" x="0px" y="0px"
	 width="256px" height="67.9px" viewBox="0 0 256 67.9" style="enable-background:new 0 0 256 67.9;" xml:space="preserve">
<style type="text/css">
	.st0{fill:#FFFFFF;}
</style>
<g>
	<path class="st0" d="M15.7,13.5H2V3.1h38.1v10.4H25.9v36.7H15.7V13.5z"/>
	<path class="st0" d="M42.6,17.4v18.1h17.5V17.4h10.6v47.1H60.1V44.8H42.6v19.7H32V17.4H42.6z"/>
	<path class="st0" d="M85.7,12v45.3H75.5V12H85.7z"/>
	<path class="st0" d="M174.6,51.1c-3.1,1.1-9,2.5-14.8,2.5c-8.1,0-14-2-18-5.9c-4-3.9-6.3-9.7-6.3-16.2
		c0.1-14.8,10.8-23.2,25.4-23.2c5.7,0,10.1,1.1,12.3,2.1l-2.1,8.1c-2.4-1.1-5.4-1.9-10.3-1.9c-8.4,0-14.8,4.7-14.8,14.4
		c0,9.2,5.8,14.6,14,14.6c2.2,0,4.1-0.3,4.9-0.6v-9.4H158v-7.8h16.5V51.1z"/>
	<path class="st0" d="M180.4,54.9c2.7,1.4,7.1,2.9,11.5,2.9c4.8,0,7.3-2,7.3-5c0-2.9-2.2-4.5-7.7-6.4c-7.6-2.7-12.7-6.9-12.7-13.6
		c0-7.8,6.6-13.8,17.4-13.8c5.2,0,9,1,11.7,2.3l-2.3,8.3c-1.8-0.9-5.1-2.2-9.5-2.2c-4.5,0-6.7,2.1-6.7,4.4c0,2.9,2.5,4.2,8.5,6.5
		c8.1,3,11.9,7.2,11.9,13.7c0,7.7-5.9,14.2-18.5,14.2c-5.2,0-10.4-1.4-13-2.9L180.4,54.9z"/>
	<path class="st0" d="M211,60c0-3.8,2.5-6.3,6.1-6.3c3.5,0,6,2.5,6.1,6.3c0,3.6-2.5,6.3-6.2,6.3C213.5,66.3,211,63.6,211,60z"/>
	<path class="st0" d="M227.3,60c0-3.8,2.5-6.3,6.1-6.3c3.5,0,6,2.5,6.1,6.3c0,3.6-2.5,6.3-6.2,6.3C229.8,66.3,227.3,63.6,227.3,60z"
		/>
	<path class="st0" d="M241.8,60c0-3.8,2.5-6.3,6.1-6.3c3.5,0,6,2.5,6.1,6.3c0,3.6-2.5,6.3-6.2,6.3C244.3,66.3,241.8,63.6,241.8,60z"
		/>
	<polygon class="st0" points="91.2,11.9 91.2,59.1 102.1,59.1 102.1,35.5 131.1,60.9 131.1,60.9 132.9,60.9 132.9,13.7 122,13.7 
		122,37.3 93,11.9 	"/>
</g>
</svg>
