<svg xmlns="http://www.w3.org/2000/svg" width="554.53" height="346.72" viewBox="0 0 554.53 346.72"><title>things-bubble.vsg</title><path d="M76,100.22c-100.09,18.77-99.09,132.49,1,170,18.77,56.31,112.6,56.31,131.37,43.8,40.66,34.4,150.14,12.51,172-28.16,56.3,6.26,190.8-3.12,159.52-134.5C577.41,107.59,546.13,26.27,439.79,45,396-17.52,252.11-5,233.34,63.8,164.53,20,88.47,37.66,76,100.22Z" transform="translate(-1.38 -4.46)" style="fill:#b5cd70"/><ellipse cx="536.17" cy="338.85" rx="13.11" ry="7.87" style="fill:#b5cd70"/><ellipse cx="533.55" cy="312.1" rx="20.98" ry="12.59" style="fill:#b5cd70"/><ellipse cx="528.31" cy="278.52" rx="26.23" ry="15.74" style="fill:#b5cd70"/></svg>