<?xml version="1.0" encoding="utf-8"?>
<!-- Generator: Adobe Illustrator 22.1.0, SVG Export Plug-In . SVG Version: 6.00 Build 0)  -->
<svg version="1.1" id="Layer_1" xmlns="http://www.w3.org/2000/svg" xmlns:xlink="http://www.w3.org/1999/xlink" x="0px" y="0px"
	 width="400px" height="400px" viewBox="0 0 400 400" style="enable-background:new 0 0 400 400;" xml:space="preserve">
<style type="text/css">
	.st0{fill:#FFFFFF;}
	.st1{fill:#7C91A6;}
	.st2{fill:#4C6073;}
	.st3{fill:#F8F9FA;}
	.st4{fill:#F3BBAA;}
	.st5{fill:#060606;}
</style>
<circle class="st0" cx="200.5" cy="199.6" r="200"/>
<g>
	<path class="st1" d="M166.9,266.1c-6.8-1.7-13.9-2.8-20.5-5.3c-10.4-3.9-21.2-7.6-30.6-13.4c-27.1-16.6-33.9-40.4-20-69
		c3.9-8,9.1-15.5,14.1-22.9c1.9-2.8,1.8-3.9-1-5.8c-27.3-19.2-32.9-45-23.2-74.3c1-3.2,2.3-6,6.6-5.9c15,0.6,29.3,3.4,42,11.9
		c11.5,7.7,16.8,19.3,19.2,32.3c0.7,3.9,1.6,4,4.7,2.5c12.7-6,26.1-9.6,40.2-10c16.2-0.6,31.7,3,46.3,9.8c3.2,1.5,4.3,1.6,5.1-2.5
		c4.7-24.1,18.4-37.2,43.7-42c5.5-1,11.1-1.4,16.6-2c3.6-0.4,5.8,1.2,6.9,4.6c3.9,12.2,6,24.1,3.3,37.2c-3.5,17.2-12.9,29.3-27,38.5
		c-2.8,1.8-1.4,3-0.2,4.9c5.1,8.2,10.8,16.1,14.9,24.8c13.1,27.9,6.4,50.9-19.6,67.6c-15.8,10.1-33.3,15.7-51.9,18
		c-1.6,1.7-3.6,2.4-5.9,2.7c-14.7,2.2-29.4,2.6-44.2,1.3c-4.9-0.4-9.8-0.4-14.7-1.3C170,267.4,168.2,267.3,166.9,266.1z"/>
	<path class="st1" d="M236,271.1c0.1,5.4,0.1,10.8,0.2,16.2c0.6,0.8,1.2,1.7,1.2,2.8c0.4,10,0.3,20,0,30c-0.1,2.9-1.8,4.2-4.6,4.5
		c-11.6,1.3-21.7,5.4-28.6,15.4c-1.5,2.2-3.3,2.1-5.1,0.3c-0.5-0.5-1-1-1.4-1.5c-6.1-8.1-14.4-12.1-24.2-13.5
		c-8-1.2-8.2-1.6-8.3-9.7c0-7.3,0-14.6,0-21.9c0-2.2-0.1-4.4,1.4-6.3c0.1-5.4,0.1-10.8,0.2-16.2c1.8-1.5,3.8-0.9,5.8-0.7
		c9.6,1,19.1,2.2,28.7,2.3c9.3,0,18.5-1.2,27.7-2.4C231.6,269.9,233.9,269.2,236,271.1z"/>
	<path class="st2" d="M166.8,287.3c0,10.5-0.1,21.1,0.2,31.6c0,1.5,1.6,4.1,2.6,4.2c13.3,1.3,24.6,6.1,32,18.7
		c7.2-12.5,18.2-17.5,31.4-18.4c3.4-0.2,3.2-2.2,3.2-4.4c0-10.5,0-21.1,0-31.6c13,1.2,17.6,6.6,18.5,22.1c10.4-2.3,19-6.9,23.9-16.8
		c2.4-4.7,4.9-9.3,7-14.1c5.9-13.3,16.6-19,30.6-19.8c5.9-0.3,11.8-1,17.7-1.9c13.1-2.1,19.4-10.7,17.7-23.8
		c-0.1-0.8-0.6-1.7-0.4-2.5c0.3-1.4,0.9-2.8,1.3-4.2c0.3,1.3,0.8,2.6,0.9,3.9c0.4,3.4,0.9,6.8,1,10.2c0.3,11.5-4.1,18.3-15.2,21.6
		c-7.7,2.3-15.8,3.7-23.8,4.8c-10.1,1.4-17.3,6.1-21.2,15.8c-2.1,5-4.5,9.9-7,14.7c-6.4,11.9-14.4,18.1-28.4,21.6
		c1.6,1.3,3.1,2.1,4,3.2c3.2,4.4,6.4,8.9,9.3,13.6c0.2,0.3-1.2,2.5-1.9,2.5c-3.5,0.3-7.1,0.1-10.7,0.1c-2.4,1.6-3.7-0.6-5.3-1.7
		c-14.7-10.4-30.4-9.7-44,1.9c-2.5,2.2-4.1,5-5.8,7.7c-2.3,3.7-4,3.8-6.1,0c-6.8-12.5-17.7-17.2-31.3-16.7c-6.9,0.3-12.7,3.2-18.3,7
		c-1.5,1-2.8,3.2-5.2,1.7c-2.9,0-5.8-0.2-8.6,0.1c-5.1,0.6-4.7-1.9-3.3-5.2c2.9-6.9,7.8-11.9,14.8-14.4c3.8-1.4,4.7-2.5,3.4-6.7
		C145.6,298.6,152.9,288.4,166.8,287.3z"/>
	<path class="st1" d="M143.6,338.3c3.8-2.4,7.5-5,11.6-7c15.5-7.6,37.9-1.6,44.9,15.3c0.2,0.6,0.7,1.1,1,1.5
		c3.5-4.1,6.5-8.5,10.4-11.9c12.2-10.8,31.3-10.7,43.9-0.4c1.3,1,2.8,1.8,4.2,2.6c1.7,3.6,3.7,7.1,5.1,10.9c2,5.1,1.6,5.4-3.8,5.4
		c-35.5,0-71,0-106.4,0c-4.1,0-8.2-0.3-12.2,0.1c-5,0.5-5.5-1.7-3.8-5.5C140.1,345.5,141.8,341.9,143.6,338.3z"/>
	<path class="st2" d="M236,271.1c-10.7,1-21.5,2.9-32.2,2.8c-12.3-0.1-24.5-1.8-36.8-2.8c0-1.7-0.1-3.3-0.1-5
		c14.5,0.7,28.9,1.8,43.4,1.8c8.7,0,17.4-1.8,26-2.8C236.2,267.1,236.1,269.1,236,271.1z"/>
	<path class="st3" d="M242.8,138.4c21.4-0.2,38.7,16.9,39,38.5c0.3,20.3-17.3,38.1-37.7,38.3c-22.1,0.1-39.4-16.3-39.5-37.8
		C204.4,155.5,221,138.6,242.8,138.4z"/>
	<path class="st3" d="M121.8,176.6c0.1-21.7,16.7-38.2,38.5-38.2c21.6,0,38.3,16.8,38.3,38.5c0,21.6-16.9,38.3-38.5,38.2
		C138.4,215.1,121.8,198.3,121.8,176.6z"/>
	<path class="st4" d="M145.2,120.5c-1.1,1.5-2.2,3.7-3.9,5.2c-6.2,5.3-12.8,10-18.7,15.5c-2.7,2.5-5.1,2.7-7.6,0.9
		c-13.6-9.8-23.9-21.8-23.6-39.7c0.1-6.4,1.3-12.7,2.3-19c0.5-2.9,2.6-4.2,5.6-3.8c18.3,2.2,34.4,8.1,42.3,26.7
		C143.4,110.3,143.9,115,145.2,120.5z"/>
	<path class="st4" d="M312.3,100.1c0.6,19.1-10.6,31.2-24.1,41.8c-2.6,2.1-5.1,1.9-8-0.7c-6.2-5.7-12.8-10.9-19.4-16.1
		c-4.2-3.3-2.4-7.4-1.6-11.1c4.1-20.1,18.2-29.4,37-33.4c1.7-0.4,3.3-0.7,5-0.9c6.2-0.7,7.2,0,8.5,6.2
		C310.7,90.6,311.5,95.4,312.3,100.1z"/>
	<path class="st4" d="M201.5,247.5c-3.2-1-6.6-1.5-9.4-3.1c-7.9-4.5-7.9-13.5-0.2-18.4c6.3-4.1,13-3.6,19.3-0.2
		c4.3,2.3,6.6,6.3,5.5,11.5c-0.9,4.3-5.8,8.7-10.4,9.3c-1.5,0.2-3,0-4.6,0C201.6,246.9,201.6,247.2,201.5,247.5z"/>
	<path class="st2" d="M125.1,229.3c9.5,5.1,18.5,11.4,28.6,15c10.7,3.8,22.3,5.1,33.5,7.4c2.3,0.5,4.7,0.6,7,0.8
		c2.4,0.2,5.4,1.2,5.4-3.1c0-0.5,1.3-1.4,2.1-1.5c0.5-0.1,1.7,0.9,1.7,1.3c-0.1,4.5,3.2,3.7,5.7,3.5c22-1.7,43.3-5.7,61.9-18.7
		c0.3-0.2,0.9-0.1,2.1,0.7c-2.6,2-5.1,4.3-7.9,6.1c-15.2,9.8-32.3,13.3-50,15.1c-21.1,2.2-41.7-0.5-61.3-7.7
		c-9.5-3.5-17.9-10.1-26.7-15.5c-1-0.6-1.4-2.2-2.1-3.3C124.9,229.5,125.1,229.3,125.1,229.3z"/>
	<path class="st2" d="M282,225.3c-2.1,2.9-4.2,5.8-6.3,8.7c-0.6-0.6-1.3-1.1-1.9-1.7C276.5,229.9,279.3,227.6,282,225.3
		C282.1,225.3,282,225.3,282,225.3z"/>
	<path class="st2" d="M282.1,225.3c0.1-0.1,0.2-0.3,0.2-0.4C282.2,225,282.1,225.1,282.1,225.3C282,225.3,282.1,225.3,282.1,225.3z"
		/>
	<path class="st2" d="M124.9,229.5c-0.1-0.2-0.3-0.4-0.4-0.6c0.2,0.1,0.4,0.3,0.6,0.4C125.1,229.3,124.9,229.5,124.9,229.5z"/>
	<path class="st5" d="M264,176.9c0,13.5-11.2,24.7-24.6,24.6c-13.4-0.1-24.6-11.3-24.7-24.7c-0.1-13.6,11.5-25.1,25-24.9
		C253.3,152.2,264,163.3,264,176.9z"/>
	<path class="st5" d="M188.3,177c-0.1,13.5-11.2,24.6-24.6,24.6c-13.6,0-24.6-11.3-24.5-25.2c0.1-13.2,11.1-24.2,24.4-24.3
		C177.2,152,188.4,163.2,188.3,177z"/>
	<path class="st3" d="M252.7,175.4c-7.7,0-14.5-6.2-14.4-11.7c0.1-4.1,2.6-6,6.6-6c6.1,0,12.7,6.1,12.6,11.7
		C257.4,173.5,255,175.3,252.7,175.4z"/>
	<path class="st3" d="M181.8,170.9c-1,0.9-2.5,3.5-4.6,4.2c-6.4,2.1-15.1-5.1-14.3-11.8c0.2-1.9,2.4-4.6,4.2-5.2
		C173.2,156.1,181.6,162.8,181.8,170.9z"/>
</g>
</svg>
