<?xml version="1.0" encoding="utf-8"?>
<!-- Generator: Adobe Illustrator 22.1.0, SVG Export Plug-In . SVG Version: 6.00 Build 0)  -->
<svg version="1.1" id="Layer_1" xmlns="http://www.w3.org/2000/svg" xmlns:xlink="http://www.w3.org/1999/xlink" x="0px" y="0px"
	 width="400px" height="400px" viewBox="0 0 400 400" style="enable-background:new 0 0 400 400;" xml:space="preserve">
<style type="text/css">
	.st0{fill:#FFFFFF;}
	.st1{fill:#7F7F7F;}
	.st2{fill:#4E4E4E;}
	.st3{fill:#CCCCCC;}
	.st4{fill:#F9F9F9;}
	.st5{fill:#050505;}
</style>
<circle class="st0" cx="200.5" cy="199.6" r="200"/>
<g>
	<path class="st1" d="M159.9,277.4c-6.2-2.4-12.4-4.5-18.5-7.2c-13-5.7-24-13.8-31.8-26c-0.7-1.1-3.1-2.1-4.5-1.8
		c-13.7,2.1-27.4,1.2-41.1-0.3c-6-0.7-10.6-3.7-12.4-9c-3.3-9.4-6.8-19-8.1-28.8c-4.3-32.3-3-64.5,5.5-96c2.1-7.6,6.1-14.8,9.9-21.7
		c2.6-4.7,7.4-6.6,13-6.7c13.4-0.2,26.5,0.7,39.4,4.6c23.8,7.2,39.6,22.6,47.3,46.2c1,3.2,1.5,4.2,5.1,2.4
		c24.2-12.6,48.6-12.4,72.8,0.2c2.6,1.3,3.5,1.4,4.4-1.7c10.2-32.3,34-47.1,66.1-50.8c6.3-0.7,12.6-0.5,19-1
		c8.4-0.7,13.7,3.6,17.6,10.4c6.1,10.6,9,22.3,11,34.2c4.5,26.3,5.3,52.8,1.8,79.3c-0.9,6.7-2.2,13.4-4.2,19.9
		c-4.7,15.4-9.1,18.9-25.1,19.3c-10.9,0.3-21.9-0.5-32.8-0.6c-1.3,0-3.3,0.4-3.9,1.3c-11.2,18.3-28.9,26.7-48.3,32.7
		c-0.7,0.2-1.4,0.6-2.1,0.9c-1.3,1.5-3.2,1.8-5,2.2c-23.4,5.2-46.7,5.2-70.1,0.1C163.2,279,161.4,278.6,159.9,277.4z"/>
	<path class="st1" d="M160,291.6c0-2.9,0.1-5.8,0.1-8.7c1.6-1.4,3.4-1.1,5.3-0.7c10.5,2.6,21.3,3.5,32.1,3.8c12,0.3,24-1.1,35.8-3.3
		c2.2-0.4,4.5-1.4,6.7,0.2c0.3,3,0.7,6,1,9c0.4,10.8,0.2,21.6,0.1,32.4c0,4.4-1.2,5.6-6.1,5.4c-7.9-0.3-15.2,1.7-22.2,5.4
		c-3.6,2-6.2,5-9.1,7.7c-2.2,2.1-4.5,2.8-6.8,0.2c-8.9-9.9-20.2-13.8-33.1-13.8c-3.6,0-5-1.6-5-5c0-9.4,0-18.8,0-28.2
		C158.7,294.4,159.2,293,160,291.6z"/>
	<path class="st1" d="M264.6,346.7c1.3,3.2,2.7,6.5,4,9.7c1.3,3.1,0.9,5.1-3.2,4.5c-1.1-0.2-2.2,0-3.2,0c-42.3,0-84.5,0-126.8,0
		c-5.4,0-5.5,0-3.8-5.3c1-3,2.4-5.9,3.6-8.9c4.7-7.7,12-12,20.3-14.1c14.8-3.8,27.7,0,38.5,11c2.4,2.5,3.9,5.5,5.4,8.4
		c1.7-0.1,1.8-1.4,2.2-2.3c5.4-12.1,25.4-20.7,37.2-18.1c8.9,1.9,16.9,4.6,23.2,11.5C263.1,344.1,264.4,345.1,264.6,346.7z"/>
	<path class="st2" d="M264.6,346.7c-6.1-5.7-12.2-10.8-20.7-13.2c-17.3-4.9-37.9,5.4-42.6,19.8c-0.2,0.6-0.6,1-0.5,0.9
		c-4.4-4.9-8.2-10.4-13.2-14.6c-12.2-10-31.3-9.8-43.7-0.1c-2.9,2.3-5.6,4.8-8.4,7.2c-3.1,0-6.2-0.1-9.3,0.1c-2.8,0.2-3.1-1-2.4-3.3
		c2.8-9.5,9.3-15.5,18.4-18.7c3.2-1.1,3.5-2.1,2.4-5.1c-5-14.2,1.5-25.7,15.6-28.1c0,10.8,0,21.6,0,32.4c0,2.5-0.3,3.7,3.5,3.8
		c13.3,0.1,25.5,3.7,34.4,14.6c2,2.5,3.3,1.1,4.7-0.5c5.7-6.7,13-10.9,21.5-12.6c3.9-0.8,7.9-0.9,11.9-0.9c3,0,4-0.9,4-4
		c-0.2-9.3-0.1-18.5,0-27.8c0-1.6,0.7-3.2,1-4.8c12.9,2.3,19.4,13.8,14.8,27c-1.4,4-0.4,4.9,3.1,6.3c8.5,3.1,14.5,9,17.3,17.9
		c1,3.1,0.1,3.8-2.8,3.7C270.5,346.6,267.5,346.7,264.6,346.7z"/>
	<path class="st2" d="M239.9,282.9c-13.4,1.5-26.8,4.2-40.2,4.3c-11.8,0.1-23.7-2.5-35.6-3.9c-1.4-0.2-2.8-0.2-4.1-0.4
		c-0.1-1.8-0.1-3.7-0.2-5.5c7.1,1.1,14.2,2.7,21.3,3c12.4,0.5,24.8,0.6,37.1,0.1c7.3-0.3,14.5-2.2,21.8-3.4
		C240.1,279,240,281,239.9,282.9z"/>
	<path class="st3" d="M311.5,229.1c-4,0-8-0.1-12.1,0c-2.4,0.1-3.2-0.9-3.2-3.3c0.3-33.3-16.6-57.9-40.1-79.1
		c-7.2-6.5-7.5-6.6-3.6-15.8c8.6-20.2,24.4-31.3,45.5-35.3c6.6-1.2,13.5-1.5,20.2-2c10.9-0.8,15.4,2.1,19.5,13.2
		c4,10.7,6.7,22.1,8.4,33.5c1.7,11.5,2,23.4,1.9,35.1c-0.1,12.9-1.5,25.8-5.3,38.3c-3.3,10.7-8.1,14.7-19.7,15.2
		C319.2,229.2,315.4,229.1,311.5,229.1z"/>
	<path class="st3" d="M87.8,229.6c-4.9-0.4-9.8-1.1-14.7-1.1c-9.8,0-13.8-6.7-15.7-14.4c-2.5-9.9-4-20.2-5-30.4
		c-1.9-19.7-0.1-39.4,3.7-58.8c1.8-9.1,4.2-18.2,10.2-25.5c2.1-2.6,5.9-5.2,9.1-5.4c16.4-1.1,32.4,0.8,47,8.9
		c13.9,7.7,22.8,19.4,27.1,34.8c0.8,3-0.4,4.4-2.6,6.2c-20.7,16.8-35.4,37.6-41.9,63.7c-1.4,5.4-1.6,11.3-1.5,16.9
		c0.1,3.9-1.2,4.9-4.7,4.7c-3.7-0.2-7.4,0-11.1,0C87.8,229.3,87.8,229.4,87.8,229.6z"/>
	<path class="st4" d="M237.8,222.6c-19.5,0-35.1-15.5-35.1-34.8c0-19.5,15.4-35.3,34.7-35.4c19.3-0.2,35.8,16.1,35.6,35.1
		C272.7,206.9,257.1,222.6,237.8,222.6z"/>
	<path class="st4" d="M197.2,188c-0.1,19.4-15.7,34.6-35.4,34.5c-19.3-0.1-34.6-15.8-34.4-35.5c0.1-19.4,16-35,35.4-34.7
		C182,152.6,197.3,168.5,197.2,188z"/>
	<path class="st5" d="M216.7,239.1c-0.1,7-1.8,13.4-6.6,18.8c-5.6,6.3-13.6,6.5-19.6,0.6c-9.8-9.6-9.9-30.1-0.2-39.9
		c6-6,13.8-5.9,19.6,0.3C214.4,223.8,216.8,230.8,216.7,239.1z"/>
	<path class="st5" d="M131.4,246.4c15.8,12.8,34.5,18.5,54.3,20.3c21.3,2,42.4,0.8,62.3-8c6.9-3,13.1-7.5,19.6-11.3
		c0.9,0,1.3,0.4,1.2,1.3c-13.5,12.3-29.8,18.5-47.5,20.9c-23.9,3.3-47.5,2-69.7-8.2c-7.6-3.5-14.2-9-21.3-13.7
		C130.1,246.8,130.5,246.4,131.4,246.4z"/>
	<path class="st2" d="M268.7,248.7c-0.4-0.4-0.8-0.9-1.2-1.3c1.9-1.8,3.8-3.6,5.6-5.5c0.4,0.4,0.8,0.8,1.2,1.2
		C272.5,244.9,270.6,246.8,268.7,248.7z"/>
	<path class="st2" d="M131.4,246.4c-0.4,0.4-0.7,0.8-1.1,1.3c-1.6-1.5-3.2-3-4.8-4.5c0.4-0.4,0.7-0.8,1.1-1.2
		C128.1,243.4,129.8,244.9,131.4,246.4z"/>
	<path class="st5" d="M233.9,209.8c-12.4-0.3-22.2-10.4-21.9-22.7c0.2-12.4,10.7-22.3,23.2-22c12,0.3,21.7,10.5,21.6,22.6
		C256.6,200.5,246.7,210.1,233.9,209.8z"/>
	<path class="st5" d="M165.5,209.8c-12.5,0.1-22.3-9.7-22.3-22.2c0-12.5,9.7-22.4,22.1-22.6c12.3-0.1,22.5,9.8,22.6,22.1
		C187.9,200,178.3,209.8,165.5,209.8z"/>
	<path class="st4" d="M250.9,180.6c0,3.7-2.8,6.2-6.7,5.8c-4.6-0.5-9.5-4.8-10.6-9.3c-0.8-3.5,1.2-6.5,4.8-7.1
		C243.7,169.2,250.8,175.2,250.9,180.6z"/>
	<path class="st4" d="M181.9,182.5c-1.2,0.9-3,3.2-5.2,3.7c-5.2,1.2-11.9-4.8-12.2-10.2c-0.2-3.7,1.7-5.5,5-6
		C174.8,169.2,182,175.5,181.9,182.5z"/>
</g>
</svg>
