<?xml version="1.0" encoding="utf-8"?>
<!-- Generator: Adobe Illustrator 22.1.0, SVG Export Plug-In . SVG Version: 6.00 Build 0)  -->
<svg version="1.1" id="Layer_1" xmlns="http://www.w3.org/2000/svg" xmlns:xlink="http://www.w3.org/1999/xlink" x="0px" y="0px"
	 width="400px" height="400px" viewBox="0 0 400 400" style="enable-background:new 0 0 400 400;" xml:space="preserve">
<style type="text/css">
	.st0{fill:#FFFFFF;}
	.st1{fill:#D52E10;}
	.st2{fill:#D32E11;}
	.st3{fill:#9D2C19;}
	.st4{fill:#F9F7F5;}
	.st5{fill:#060606;}
</style>
<circle class="st0" cx="200.5" cy="199.6" r="200"/>
<g>
	<path class="st1" d="M274.5,97.3c5.8-8.7,5.7-8.7,12.1-0.5c11.4,14.5,22.9,29,35.1,43.3c-0.6-4.3-1.2-8.7-1.9-13
		c-2.9-19-5.8-37.9-8.8-56.9c-0.1-0.8-0.1-1.7-0.3-2.5c-1-3.6,0.8-4.2,3.9-3.9c12.8,1.3,22.3,8,29.3,18.3c4.2,6.2,7,13,8.6,20.6
		c1.5,7.2,2.3,14.3,1.2,21.4c-1.6,10.6-4.3,21.7-13.4,27.5c-9.7,6.2-9.5,15.2-11.2,24.1c-2,10.7-3.6,21.5-5.2,32.2
		c-0.5,3.4-2,5.8-5.2,7.2c-17.1,7.1-34.1,14.3-51.2,21.2c-2.9,1.2-4.8,2.3-5.9,5.4c-4.1,11.3-12.2,19.3-21.5,26.4
		c-1.2,0.9-2.2,2.1-3.4,3.2c1.6,1.1,3.3,2.2,4.9,3.3c0.5,1.9,2.1,3.2,2.6,5.1c1.7,6,0.4,11.7-1.6,17.3c-2.3,6.4-6.8,11.1-11.7,15.4
		c-2.5,1.7-5.1,3.4-8.2,5.6c8.7,4.2,15.6,9.7,20.1,17.4c2.6,4.4,4.7,9.4,5.7,14.4c2.5,12.6-6.7,21.7-19.5,20
		c-10.1-1.4-18.4-6.3-25-13.7c-3-3.4-4.2-2.8-6.9,0.2c-6.1,6.7-13.6,11.3-22.8,13.1c-15.5,3.1-25.6-7.8-21.1-23.1
		c3.4-11.6,10.9-20.1,21.3-26c3.4-2,3.4-3,0.1-4.8c-1.4-0.8-2.6-2-3.8-3.1c-4.9-1.8-6.6-6.7-10-10.1c-0.2-1.7-1-3.1-1.9-4.5
		c-3.1-4.9-2.6-10.4-2.4-15.8c0.1-2.9,1.5-5.8,4.4-7.5c0.3-0.2,0.7-0.5,1-0.7c3.2-2.1,2.8-3.4-0.4-5.6
		c-10.2-7.2-18.5-16.2-22.9-28.3c-0.5-1.5-2.8-2.8-4.5-3.4c-17.6-6.2-35.1-12.5-51.5-21.4c-3-1.6-4.7-3.7-5.2-7.2
		c-2.5-15.7-5.1-31.4-7.9-47c-0.2-1.4-1.1-3.2-2.2-3.9c-11.9-7.5-17.8-18.8-19.7-32.2C45.3,109.7,48,95.2,57,82.3
		c7-10.1,16.1-17,28.7-18.4c4.9-0.5,5.2-0.3,4.4,4.6c-3.5,22.6-7.1,45.2-10.6,67.7c-0.1,0.8,0.4,1.7,0.6,2.6c0.7-0.4,1.5-0.7,2-1.2
		c3.7-4.5,7.4-9.1,11.1-13.7c8.1-10.3,16.3-20.6,24.4-31c3-3.8,3.1-3.9,6,0c0.9,1.2,1.8,2.4,2.7,3.6c0.8,0.8,1.4,1.8,1.5,3l0.1,0.3
		c2,2.3,2.6,5,2.6,8c-0.1,5.9,0.7,12-2.2,17.6c-0.1,0.5-0.2,1-0.3,1.5c-0.7,1.3-0.1,3.2-1.6,4.2l0,0c-0.9,3.1-2,6.1-3.9,8.8
		c-0.2,0.3-0.4,0.6-0.7,0.9c-1,1-1.9,2.1-2.7,3.3c-0.2,0.3-0.4,0.6-0.7,0.8c-0.2,0.3-0.4,0.5-0.7,0.8c-0.4,0.6-0.8,1.1-1.4,1.6
		c-1.5,1.1-2.7,2.4-3.8,3.9c-0.7,0.6-1.6,1.1-2.4,1.6c-2.8,2.2-5.7,4.1-8.9,5.7c-2.9,1.5-6,2.7-9.2,3.3c-2.5,0.5-3.2,1.9-3,4.4
		c0.9,11.3,1.8,22.6,2.9,33.9c0.2,2.6,1.3,4.2,3.5,5.5c12.6,7.3,26.1,12.6,39.7,17.6c2.1,0.8,4,1,5.4-1.2c0.5-0.8,1.4-1.3,2.4-1.4
		c2.7,0.1,5,1.4,7.3,2.6c11.4,5.9,23.6,8.3,36.2,9.8c19.1,2.3,37.6-0.2,55.8-5.9c3.6-1.1,7-3.1,10.5-4.6c1.8-0.7,3.4-1.7,5.5-1.5
		c2.6,5.1,6.4,4.4,10.7,2.4c12.6-5.8,25.2-11.4,37.8-17.1c2.4-1.1,3.4-2.7,3.5-5.4c0.8-12,2-24,2.8-36.1c0.1-1.2-1.1-3.4-2-3.5
		c-8.2-1.5-15.1-5.6-21.7-10.3c-0.6-0.4-1.2-1-1.7-1.5l-0.1-0.1c-0.5-0.5-1-1-1.6-1.5c-0.4-0.3-0.7-0.6-1.1-1
		c-0.1-0.3-0.3-0.6-0.6-0.8l0-0.1c-2.2-1.5-3.8-3.6-4.8-6c-0.5-0.8-1-1.5-1.6-2.3c-1.4-0.7-1.1-2.2-1.8-3.3l0,0
		c-0.6-0.4-0.8-1-0.8-1.7c-0.3-0.6-0.5-1.1-0.8-1.7c-1.6-1.2-0.8-3.4-1.8-4.8c0-0.3-0.1-0.6-0.1-0.9c-2.9-5.8-2.5-12.1-2.2-18.3
		c0.1-2,0.5-4.1,2.1-5.6c0.1-0.3,0.1-0.6,0.2-1c0.9-0.5,0.1-1.8,0.9-2.3l0,0C274.1,97.9,274.3,97.6,274.5,97.3z"/>
	<path class="st2" d="M277.9,148.5c-0.1,0.3,0,0.5,0.2,0.7c0.9,1,0.9,2.3,1.4,3.4c1.1,5.2,2.7,10.3,3.4,15.5
		c2.4,17.9-5,31.6-19,42.2c-3,2.3-6.2,4.4-9.3,6.5c-0.5,1.4-1.6,2.1-3,2.6c-11.5,4.4-23.3,7.9-35.7,9.1c-11.1,1.1-22,0.9-33.2-0.4
		c-12.7-1.5-24.5-5.5-36.1-10.3c-8.2-5.3-16.3-10.7-21.9-18.9c-1.4-2-2.6-4.2-3.7-6.4c-0.3-0.7-0.6-1.4-0.9-2.1
		c-0.2-0.5-0.4-1-0.5-1.6c-0.6-2.1-1.3-4.1-1.8-6.2c-0.1-0.4-0.2-0.7-0.3-1.1c-0.1-0.6-0.2-1.2-0.2-1.8c-0.1-0.8-0.1-1.7-0.1-2.5
		c0-2.7,0-5.3,0-8c0-1.1,0.1-2.2,0.3-3.3c0.5-2,1.2-3.9,1.4-6c0.1-0.6,0.2-1.2,0.4-1.8c1.1-2.9,1.8-5.9,3.1-8.7
		c0.1-0.4,0.3-0.7,0.5-1c1.9-3.7,2.8-7.9,5.9-10.9c0.4-0.6,0.7-1.2,1.1-1.9c0.9-0.8,0.6-2.3,1.7-3.1l0,0c0.3-0.2,0.4-0.5,0.5-0.9
		l0.2-0.1l-0.1-0.2c1.9-4.4,5-8,8.3-11.3c9.4-10.3,19.4-19.7,32.3-25.7c24-11.2,46.8-8.1,67.8,7.2c8.3,6,15.1,14.1,22.5,21.3
		c1.8,1.1,2.6,3,3.6,4.7c0.5,0.6,0.9,1.3,1.4,1.9c0,0-0.1,0.4-0.1,0.4l0.4,0.2l0,0.1c0.2,0.3,0.5,0.6,0.7,0.9l0,0
		c1.6,0.9,1.6,2.8,2.5,4.1c0.1,0.2,0.2,0.5,0.3,0.7c0.9,0.6,0.8,1.7,1.5,2.4l0,0.1c0.2,0.4,0.6,0.6,0.6,1l0,0
		C275.8,142.1,277.3,145.1,277.9,148.5z"/>
	<path class="st3" d="M230.9,312.5c1.6-2.1,2.9-4.5,4.7-6.4c4.6-4.9,7-10.6,7.9-17.4c0.7-4.9,0.5-9.1-2.8-12.9
		c-0.1-0.1,0.6-0.8,0.9-1.2c11.4-1.2,22.8-1.2,33.5,3.6c4.5,2,8.4,5.2,12.3,8.6c-14.4-1.4-28.5-4-43.1,1.5c4.8,1.9,9,3.3,13,5.1
		c8.7,4,16.5,9.2,21.6,17.7c0.5,0.8,1.1,1.6,1.3,2.5c0.2,0.7-0.1,1.4-0.2,2.2c-0.7-0.1-1.4-0.1-2-0.4c-5.2-2.7-10.4-5.4-15.6-8.1
		c-0.4-0.5-1.2-0.3-1.7-0.7l-0.2-0.2l-0.3,0c-0.4-0.1-0.7-0.4-1.1-0.6c-0.3-0.1-0.5-0.1-0.8-0.2c-1.6-0.8-3.6-0.3-5-1.6l-0.1,0
		c-0.6-0.8-1.6-0.2-2.4-0.7c-0.8-0.1-1.6-0.3-2.4-0.4c-0.7,0.2-1.2-0.1-1.7-0.4c-1.6-0.1-3.2-0.2-4.8-0.2c0,0-0.1,1.1-0.1,1.7
		c0.2,0.3,0.4,0.5,0.8,0.5c1,0.9,1.9,1.9,2.9,2.8l0,0.4l0.3-0.1c4.3,6.6,9.3,13,12.8,20c2.1,4.1,2.1,9.3,2.3,14.2
		C252.3,330.5,243.7,319.4,230.9,312.5z"/>
	<path class="st3" d="M160.8,274.7c-5.3,8.6-5.3,16.9,0.6,25.2c0.3,0.5-0.3,1.7-0.5,2.5c-0.1,0.1-0.2,0.3-0.3,0.4
		c-0.5,0.2-1,0.2-1.4-0.3c-1.9,0.1-3.9,0.2-5.8,0.3c-0.4,0.1-0.7,0.2-1,0.4c-0.5,0.1-0.9,0.1-1.4,0.2c-2.7,1-5.5,1.7-8.2,2.4
		c-0.6,0.2-1.1,0.4-1.7,0.6c-0.5,1-1.8,0.2-2.4,1c-6.2,3.1-12.4,6.2-19.3,9.6c7-16.8,21.4-23,37.5-28.6c-14.9-5.6-28.9-3-42.9-0.7
		c-0.3-0.5-0.7-0.9-1-1.4c1.6-1.2,3.2-2.3,4.8-3.5c10.5-7.8,22.6-9.1,35.2-8.8C155.7,274.1,158.2,274.5,160.8,274.7z"/>
	<path class="st3" d="M146.5,216.8c7,2.6,13.8,5.6,21,7.5c6.2,1.7,12.8,2.7,19.2,3c10.2,0.4,20.4,0.2,30.6-0.5
		c6.4-0.4,12.9-1.8,19.1-3.5c6.2-1.7,12.1-4.2,18.1-6.4c1.2,1.3,2.5,2.6,3.7,3.9c-7.4,3.7-14.9,7.1-23.1,9.3
		c-12.7,3.4-25.5,5-38.5,4.6c-7.8-0.3-15.6-1.8-23.3-3.1c-3.9-0.6-8-1.3-11.7-2.7c-6.4-2.4-12.6-5.3-18.9-8
		C142.7,218.4,144.1,217.2,146.5,216.8z"/>
	<path class="st3" d="M161,302.4c2.2,2.2,4.3,4.3,6.5,6.5c1.1,1.1,2.2,2.3,3.3,3.5c-13.2,6.5-21.6,17.8-30.7,29.3
		c0.3-3.2,0.4-6.4,1.1-9.6c2-9.1,7.4-16.4,13.3-23.3c0.3-0.1,0.5-0.3,0.6-0.6l0.1-0.2c0.3-0.1,0.6-0.3,0.7-0.6
		c0.9-0.9,1.7-1.7,2.6-2.6c0.3-0.2,0.6-0.4,0.8-0.7l0,0C159.8,303.5,160.3,302.9,161,302.4L161,302.4z"/>
	<path class="st4" d="M233.9,185.5c-17.8,0.4-31.2-15.6-30.9-31.3c0.3-17.1,14.1-31.1,31.2-31c17.1,0.1,31.2,14.2,31.1,31.2
		C265.2,171.7,251.2,185.6,233.9,185.5z"/>
	<path class="st4" d="M136,154.3c-0.4-17,13.5-30.9,31-31.1c17.1-0.2,31.2,14,31.1,31.2c0,17.5-13.9,31.2-31.4,31.2
		C150.5,185.5,135.5,172,136,154.3z"/>
	<path class="st5" d="M263.1,195.4c-7.7,7.8-17,12.9-27.3,16.4c-14.2,4.8-29,5.8-43.8,4.9c-16.8-1.1-32.9-5.4-47-15.1
		c-1.3-0.9-2.5-2.1-3.7-3.1c0.2-0.3,0.3-0.6,0.5-0.9c3.2,1.7,6.5,3.2,9.7,5.1c12.3,7.1,25.8,9.7,39.6,10.8
		c13.6,1.1,27.2,0.2,40.4-3.2c9.8-2.5,18.9-7,27.1-12.9c1-0.7,1.8-1.8,2.7-2.7C262.2,194.5,262.8,194.7,263.1,195.4z"/>
	<path class="st3" d="M263.1,195.4c-0.5-0.3-1.1-0.6-1.6-0.9c1.4-1.5,2.9-3,4.3-4.4c0.4,0.4,0.8,0.8,1.3,1.2
		C265.8,192.6,264.5,194,263.1,195.4z"/>
	<path class="st3" d="M134.7,191.1c1.7,1.3,3.4,2.5,5.1,3.8c-0.4,0.5-0.9,0.9-1.3,1.4c-1.3-1.7-2.6-3.3-3.9-5L134.7,191.1z"/>
	<path class="st3" d="M134.5,191.3c-0.1-0.1-0.2-0.3-0.3-0.4c0.1,0.1,0.3,0.2,0.4,0.3C134.7,191.1,134.5,191.3,134.5,191.3z"/>
	<path class="st5" d="M251,154.9c-0.4,11.1-9.3,19.7-20.3,19.4c-11.1-0.3-19.9-9.6-19.5-20.6c0.4-10.8,9.8-19.6,20.6-19.3
		C242.7,134.8,251.4,144,251,154.9z"/>
	<path class="st5" d="M150.1,154.2c0.1-10.9,9.2-19.9,20-19.7c11.1,0.2,19.8,9.2,19.7,20.4c-0.1,10.7-9.1,19.5-19.8,19.5
		C158.8,174.3,150.1,165.4,150.1,154.2z"/>
	<path class="st4" d="M240.4,153.3c-4.8-0.1-10.3-5.2-10.1-9.6c0.1-3.4,2.4-4.8,5.5-4.8c4.8,0,10.2,5.2,10.1,9.7
		C245.7,151.5,243.7,153.4,240.4,153.3z"/>
	<path class="st4" d="M179.2,153.3c-4.9,0-10.1-4.9-10.1-9.5c0-3.6,2.2-4.9,5.2-5c4.7-0.1,10.2,5.1,10.3,9.5
		C184.6,151.2,182.3,153.3,179.2,153.3z"/>
</g>
</svg>
