<?xml version="1.0" encoding="utf-8"?>
<!-- Generator: Adobe Illustrator 22.1.0, SVG Export Plug-In . SVG Version: 6.00 Build 0)  -->
<svg version="1.1" id="Layer_1" xmlns="http://www.w3.org/2000/svg" xmlns:xlink="http://www.w3.org/1999/xlink" x="0px" y="0px"
	 width="400px" height="400px" viewBox="0 0 400 400" style="enable-background:new 0 0 400 400;" xml:space="preserve">
<style type="text/css">
	.st0{fill:#FFFFFF;}
	.st1{fill:#D5681C;}
	.st2{fill:#D7C41E;}
	.st3{fill:#7F441C;}
	.st4{fill:#060606;}
</style>
<circle class="st0" cx="200.5" cy="200.6" r="200"/>
<g>
	<path class="st1" d="M145.8,330.6c-14.9-2.3-29.5-5.7-43.6-11c-21.9-8.2-42.1-19-57.1-37.7c-5.2-6.5-7.6-13.6-7.8-21.9
		c-0.8-31.4,7.4-60.1,23.8-86.7c1.1-1.8,2-3.8,4-4.9c0.6-0.1,1.3-0.1,1.9-0.5c10.1-6.1,21.1-10,32.3-13.2
		c15.5-4.5,31.4-4.7,47.2-3.9c9.4,0.5,18.6,2.3,27.7,5c9.7,2.9,18.6,7.4,27.6,11.9c9.4,4.7,17.2,11.2,24.3,18.4
		c10.4,10.6,18,23,21.2,37.9c2.8,13.2,2.5,26.2-1.9,39c-4.8,14-13,25.8-24.1,35.7c-15.2,13.6-32.8,22.6-52.6,27.1
		C161,327.5,153.4,329,145.8,330.6z M56.8,217.7c-0.5,20.4,16,37.7,36.4,38.3c20.6,0.5,38.2-16.1,38.7-36.6
		c0.5-20.9-15.8-38.4-36.2-38.9C74.3,179.9,57.3,196.2,56.8,217.7z M212.8,218.5c0.1-20.9-16.4-37.9-37.1-38.1
		c-20.7-0.2-37.9,16.6-38,37.2c-0.1,21.1,16.5,38.2,37.3,38.3C195.7,256.2,212.7,239.3,212.8,218.5z"/>
	<path class="st2" d="M257.7,152.8c-1.9,7-2.5,14.3-2.4,21.5c0.1,9.9,0,19.8,0.8,29.7c0.9,12.2,4.1,23.8,7.5,35.4
		c2.4,8.2,6,15.9,9.7,23.6c1.7,2.6,2.5,5.8,5,8c11,19.9,26.8,35.4,44.9,48.7c1,0.8,2.8,1.2,2.6,2.6c-0.2,1.7-2.1,1.1-3.3,1.4
		c-21.8,4.5-43.9,7.6-66.1,9.4c-26.5,2.1-53.1,4.1-79.8,1.1c-9.1-1-18.3-2.4-27.6-2.6c-1.2,0-2.2-0.5-3.2-1.1
		c7.6-1.6,15.2-3.1,22.8-4.8c19.9-4.5,37.4-13.5,52.6-27.1c11.1-9.9,19.3-21.7,24.1-35.7c4.3-12.7,4.7-25.8,1.9-39
		c-3.2-14.9-10.9-27.3-21.2-37.9c-7.1-7.2-14.9-13.7-24.3-18.4c-9-4.5-17.9-9-27.6-11.9c-9-2.7-18.3-4.5-27.7-5
		c-15.9-0.8-31.8-0.6-47.2,3.9c-11.2,3.2-22.2,7.1-32.3,13.2c-0.5,0.3-1.2,0.3-1.9,0.5c1.1-4.5,4.5-7.6,7.3-11
		c21.4-26.1,48.5-44.4,79-58.1c4.8-2.1,9.7-3.9,14.6-5.9c1.7,10.5,3.6,21,10.1,29.9c-0.9-10.8-3.8-21.3-3.3-32.1
		c2.4-1.8,5.2-2.6,8.2-2.8c-0.8,12.8,1.3,25.1,5.6,37.2c0-12.3,0.7-24.5,2.3-36.6c0.2-1.4,1-3.1-1.6-2.9c4.1-1.2,7.9-3.2,12.3-3.2
		c-3.9,15.6-5,31.3-1.4,47.2c1.5-0.5,1.6-1.6,1.6-2.6c1.3-15.1,3.2-30.1,9-44.3c0.3-0.8,0.6-1.6-0.1-2.3c3.1-3,7.3-2.7,11-3.6
		c-8.2,17.9-9,36.6-7.5,56.5c2-2,2.1-3.8,2.5-5.5c1.7-7.9,3.4-15.7,5.2-23.6c2.4-10.5,7.2-20.1,11.9-29.7c3.8-1.5,7.8-2.2,11.9-1.9
		c-0.1,2.1-1.3,3.7-2.3,5.4c-11,18.6-14.3,38.9-13.6,61.3c4.8-11.1,6.6-21.8,10.5-31.9c5.4-13.7,11.9-26.4,22.7-36.5
		c1.1-1,0.5-1.1-0.2-1.5c12.1-2.3,24.4-2.8,37.8-4.4c-7.8,9.4-15.3,17.5-20,27.6L258,153"/>
	<path class="st1" d="M262,142.6c14.9-26.2,43.6-44.6,76.1-38.4c5.2,1,10.3,2.6,15.2,4.5c1.9,0.7,3.9,1.5,5.8,3.9
		c-11.9,0.2-22.6,2.6-32.2,8.4c-16.4,9.8-26.8,24.6-32.3,42.5c-9.2,29.8-5.3,58.4,11.5,84.7c11.2,17.6,27.1,29.2,47.9,33.3
		c3.2,0.6,6.7-0.5,9.8,2c-2.2,2.5-5.3,3.2-8.1,4.1c-23.8,7.8-45.6,3.3-65.9-10.9c-3.8-2.7-6.9-6.1-10.6-8.8c-1.7-2-2.8-4.7-6-4.9
		c-3.7-7.7-7.4-15.4-9.7-23.6c-3.3-11.6-6.6-23.2-7.5-35.4c-0.7-9.9-0.7-19.8-0.8-29.7c-0.1-7.3,0.5-14.5,2.4-21.5L262,142.6z"/>
	<path class="st1" d="M260.4,69.8c0.7,0.4,1.3,0.5,0.2,1.5c-10.8,10.1-17.3,22.8-22.7,36.5c-4,10.1-5.7,20.8-10.5,31.9
		c-0.7-22.5,2.6-42.7,13.6-61.3c1-1.7,2.2-3.3,2.3-5.4C248.8,70.7,254.7,70.7,260.4,69.8z"/>
	<path class="st1" d="M231.5,74.9c-4.7,9.6-9.5,19.2-11.9,29.7c-1.8,7.9-3.5,15.7-5.2,23.6c-0.4,1.7-0.5,3.5-2.5,5.5
		c-1.5-19.9-0.7-38.6,7.5-56.5C223.5,76.3,227.3,74.7,231.5,74.9z"/>
	<path class="st1" d="M208.5,80.8c0.7,0.7,0.4,1.5,0.1,2.3c-5.8,14.2-7.7,29.2-9,44.3c-0.1,1-0.1,2-1.6,2.6
		c-3.6-15.9-2.6-31.6,1.4-47.2c0,0,0.1-0.1,0.1-0.1c0.3-0.2,0.6-0.3,0.9-0.5C202.8,80.3,205.7,80.9,208.5,80.8z"/>
	<path class="st1" d="M187,85.9c2.6-0.2,1.8,1.5,1.6,2.9c-1.6,12.1-2.3,24.3-2.3,36.6c-4.3-12-6.4-24.4-5.6-37.2
		C182.5,86.5,184.9,86.7,187,85.9z"/>
	<path class="st1" d="M172.6,91c-0.5,10.9,2.4,21.3,3.3,32.1c-6.5-8.9-8.4-19.4-10.1-29.9C168.1,92.5,170,90.9,172.6,91z"/>
	<path class="st2" d="M200.3,82.1c-0.3,0.2-0.6,0.4-0.9,0.5C199.7,82.4,200,82.3,200.3,82.1z"/>
	<path class="st3" d="M59.3,262.2c38,35.1,119.9,36.8,158.9-0.1c-1.3,4.1-4.7,6.8-7.9,9.3c-8.6,6.7-17.9,14.4-28.5,17.4
		c-18.4,5.3-37.1,7.3-56.3,5.5c-14.4-1.4-28.1-5-41.2-10.5c-8.9-3.7-16.6-11.4-23.2-18.6C60.3,264.3,59.8,263.2,59.3,262.2z"/>
	<path class="st4" d="M73.9,218.2c0-13.4,10.4-23.9,23.8-24c13.4,0,24.1,10.4,24.2,23.7c0.1,13.5-10.6,24.2-24.1,24.2
		C84.4,242.1,74,231.7,73.9,218.2z M102.2,199.3c-3,0.2-5.5,1.9-5.4,6.1c0.1,5.6,6.4,11.7,12.3,11.5c3.8-0.1,6.3-2,6.3-6.1
		C115.3,205.3,108.8,199.3,102.2,199.3z"/>
	<path class="st4" d="M195.7,218.4c-0.1,13.4-10.6,23.8-24,23.8c-13.5,0-24.1-10.8-24-24.4c0.1-13.2,10.9-23.6,24.3-23.5
		C185.5,194.3,195.8,204.9,195.7,218.4z M189.5,211.3c0.2-6.3-8.4-13.4-14.2-11.8c-3.6,1-5.1,3.5-4.5,7.2c0.9,5,7,10.4,12.1,10.3
		C186.5,216.9,189.2,215.1,189.5,211.3z"/>
</g>
</svg>
