<?xml version="1.0" encoding="utf-8"?>
<!-- Generator: Adobe Illustrator 22.1.0, SVG Export Plug-In . SVG Version: 6.00 Build 0)  -->
<svg version="1.1" id="Layer_1" xmlns="http://www.w3.org/2000/svg" xmlns:xlink="http://www.w3.org/1999/xlink" x="0px" y="0px"
	 width="400px" height="400px" viewBox="0 0 400 400" style="enable-background:new 0 0 400 400;" xml:space="preserve">
<style type="text/css">
	.st0{fill:#FFFFFF;}
	.st1{fill:#D42E11;}
	.st2{fill:#D52E11;}
	.st3{fill:#9D2B18;}
	.st4{fill:#F9F7F5;}
	.st5{fill:#060606;}
</style>
<circle class="st0" cx="200.5" cy="199.6" r="200"/>
<g>
	<path class="st1" d="M103.4,271.5c-0.2-2.2-0.3-4.4-0.5-6.7c-2.6-6.1-0.7-17.6,3.7-21.7c2-5.3,3.6-10.8,6-15.9
		c1.2-2.5,0.9-3.8-1-5.5c-8.9-8.4-16.8-17.6-22.6-28.4c0.8-0.9,1.7-0.6,3.8,0.2c-2.7-1.8-3.6-3.4-3.9-5.4c-0.1-1,0-2,0.9-2.5
		c0.9-0.6,1.8-0.1,2.6,0.5c1.7,1.2,2.6,3.1,4,4.7c0.4-1-0.4-1.4-0.7-2.1c-0.7-1.3-1.4-2.7,0.4-3.6c1.4-0.7,2.8-0.2,3.7,1.2
		c1.3,2,2.1,4.3,3.3,6.3c0.2,0.4,0.4,0.8,0.6,1.2c0.3,0.7,0.2,2,1.6,0.9c1.4-1.1,1.6-2.1,0.5-3.4c-1.5-1.8-3-3.7-0.4-5.9
		c1,0,0.7-0.6,0.6-1.2c0.2-1.6,0.4-3.2,2.7-2.2c3.6,8.4,9.1,15.4,15.6,21.7c1.9,1.8,3.2,0.4,4.5-1.2c9.5-11.4,20.4-21.1,33.4-28.4
		c27.4-15.2,54.6-14.5,81.7,1.1c0.8,0.5,1.7,0.8,2.5,1.2c4.5,2.7,9.5,4.8,12.7,9.3c5.6,5.8,11.2,11.7,16.9,17.4
		c0.6,0.6,2.8,1,3.1,0.5c5.1-6.2,10.1-12.5,15.1-18.9c2-2.5,0.2-2.9-1.9-3.5c-22.3-6.1-38.6-19.4-47.3-41
		c-4.4-10.9-4.8-22.2,0.1-33.3c1.6-3.7,2.8-4.4,6.3-1.8c19.3,14.7,38.7,29.1,58.2,43.6c1.2,0.9,3,1.1,4.5,1.7
		c-0.3-1.6-0.2-3.4-0.8-4.9C301.6,118.2,289.8,91,277.8,64c-1.6-3.6-0.4-4.3,2.5-5c16.3-3.5,30.4,1.4,43,11.4
		c22,17.4,35.7,51.7,25.1,81.6c-4.1,11.7-11.7,20.5-22.8,26.2c-1.9,1-4,2.7-4.9,4.6c-6.6,14.4-15.8,27-27.3,37.9
		c-2.6,2.4-3.3,4.2-1.5,7.6c2.3,4.3,3.6,9.1,5.3,13.6c0,0.2,0.1,0.3,0.1,0.5c0.6,0.6,1.1,1.2,1.7,1.8c2.5,6.7,4.9,13.4,2.1,20.6
		c-0.1,2.2-0.2,4.4-0.3,6.7c0,5.4-2.3,10.1-4.2,14.9c-0.7,1.7-1.7,3-3.2,3.9c-0.9,0.6-1.9,1.2-2.8,1.7c-0.9,0.1-1.7,0.7-1.8,1.3
		c-1.2,7.2-8,9.3-12.1,13.7c-1.6,1.7-3.9,1-5.8,1.6c-11.6,7.5-24.7,11.4-38.1,13.7c-25.6,4.4-51.1,3.9-76.1-3.7
		c-8.1-2.5-15.6-6.7-23.4-10.1c-2.6,0.1-4.8-0.8-6.8-2.6c-3.4-3.2-7.9-5-10.4-9.3c-1.2-2.1-2.5-4.2-3.7-6.3
		c-6.7-2.7-6.5-9.5-8.7-14.8C103.2,274.4,103.8,272.9,103.4,271.5z"/>
	<path class="st2" d="M108.7,181.8c-0.6,1.3-1.2,2.5-1.9,3.8c0,0,0,0,0,0c-0.3,1.3-1.3,3.2-0.8,3.7c2.5,2.7,4.4,4.9-0.7,6.7
		c-0.6,0.2-0.7,1.6-2,2.4c-0.1-1.7-0.2-3.5-0.3-5.2l0,0c-1.3-2-2.5-4-3.9-5.9c-0.5-0.7-1.6-1.1-2.4-1.6c0.1,0.8,0.1,1.7,0.4,2.4
		c0.2,0.7,0.9,1.4,1.1,2.1c0.1,0.9-0.1,1.8-0.2,2.7c-0.9-0.5-1.9-0.7-2.5-1.4c-1.6-1.9-3.1-4-4.6-6c-0.5,0.3-1,0.6-1.4,1
		c1.5,2.7,2.9,5.4,4.9,9c-2.5-1.2-3.9-1.8-5.3-2.5c-3.9-6-5.7-12.9-13.2-16.8c-15-7.8-22-21.8-23.2-38.1
		c-2.4-30.1,8.8-54.5,33.8-71.8c11.1-7.7,23.6-10.5,37.1-7.5c3,0.7,4.6,1.2,2.8,5.2c-12.9,28.9-25.4,57.9-38.7,88.2
		c3.1-1.8,5.5-3,7.6-4.5c19.2-14.2,38.3-28.6,57.5-42.8c1.1-0.9,2.3-1.6,3.5-2.4c3,1.3,2.3,4.6,3.8,6.7l0.1,0.1
		c1.4,1.7,0.8,4,1.8,5.8c1.5,13.9-2,26.7-9.5,38.3c-0.7,0.3-0.4,1.3-1.2,1.6c-0.3,0-0.6,0.2-0.6,0.5c-3.4,5-7.7,9.1-12.5,12.9l0,0
		c-0.3,0.4-0.6,0.7-1.1,0.9l0.1-0.1c-0.3,0.6-0.7,0.9-1.3,1C127.4,175.5,118.6,179.9,108.7,181.8z"/>
	<path class="st3" d="M106.6,243.1c-1.2,7.2-2.5,14.5-3.7,21.7c-21.2-2.5-41.3,3.4-62.6,9.4c5.7-8.6,12.1-14.1,19.6-18.3
		c12.1-6.8,25.2-10,38.9-11.4C101.4,244.3,104,243.6,106.6,243.1z"/>
	<path class="st3" d="M301.2,264.8c-0.7-6.9-1.4-13.7-2.1-20.6c19.6,1,38.2,5.3,54,17.8c2.7,2.1,5,4.8,7.4,7.4
		c0.8,0.8,1,2.2,1.5,3.3c-1.3,0-2.7,0.3-3.9,0.1c-10.6-2.4-21.1-5.6-31.8-7.2C318.1,264.3,309.6,265,301.2,264.8z"/>
	<path class="st3" d="M103.4,271.5c1,2.7,1.9,5.4,3,8.1c1.6,3.8,2.4,8.2,6,10.9c-14.8,2.8-27.3,10.6-39.4,19.1
		c-5.3,3.7-10.4,7.6-16.2,12c1.6-9.5,5.7-16.8,11.1-23.5C77.5,286.2,89.9,278,103.4,271.5z"/>
	<path class="st3" d="M293.4,290.4c1.1-2.5,2.4-5,3.3-7.6c1-3.1,1.6-6.3,2.6-9.4c0.2-0.7,1.1-1.3,1.6-1.9
		c16.4,8.1,31.3,18.1,40.7,34.3c2.6,4.6,4.3,9.7,5.9,15C330.5,308.5,313.8,296.1,293.4,290.4z"/>
	<path class="st3" d="M270.9,308.8c4.5-3.1,9.3-5.8,13.4-9.3c2.4-2.1,3.8-5.5,5.6-8.3c0-0.1,0.4,0,0.4,0c0.1,0.3,0.2,0.6,0.3,0.9
		c-0.3,0.4-0.7,0.8-1,1.1c-0.3,0.3-0.6,0.7-0.8,1c0.5,1.6,0.7,3.5,1.7,4.8c8.9,11.7,16.1,24.2,18.7,38.9c1.2,6.6,1.4,13.3-0.3,19.9
		c-7-11-13.3-22.2-20.9-32.4C283.2,319.2,276.6,314.3,270.9,308.8z"/>
	<path class="st3" d="M116.2,296.8c4,2.9,7.9,5.9,12,8.8c1.6,1.2,3.4,2.1,5.2,3.1c-2.8,2.7-5.7,5.3-8.5,8c-1.2,2.4-3.2,3.9-5.5,5.1
		c-7.3,11.3-14.6,22.5-21.8,33.8c-0.5,0.8-0.9,1.6-1.4,2.6C89.8,341.5,100.6,313.7,116.2,296.8z"/>
	<path class="st3" d="M297.4,242.5c0-0.2-0.1-0.3-0.1-0.5c0,0,0.3,0.2,0.3,0.2L297.4,242.5z"/>
	<path class="st1" d="M288.7,294.3c0.3-0.3,0.6-0.7,0.8-1C289.3,293.6,289,294,288.7,294.3z"/>
	<path class="st4" d="M276.9,239.6c0.2,19.7-15.8,36.1-35.6,36.4c-19.9,0.3-36.2-15.8-36.3-36c-0.1-19.8,15.9-36,35.7-36.1
		C260.4,203.7,276.7,219.8,276.9,239.6z"/>
	<path class="st4" d="M127.6,239.5c0.1-19.7,16.1-35.8,35.6-35.8c20.1,0,36.2,16.3,36.1,36.4c-0.2,19.9-16.4,35.9-36.2,35.8
		C143.2,275.8,127.5,259.6,127.6,239.5z"/>
	<path class="st5" d="M194.6,311.8c-15.1-1.2-30-3.4-43.8-10.1c-8.4-4.1-16.6-8.7-22.7-16.4c46.7,30.4,94.1,30.6,142.4,5.2
		c-16.6,14.4-36.5,20-58.1,21.2C206.5,312,200.5,311.8,194.6,311.8z"/>
	<path class="st3" d="M194.6,311.8c6,0,11.9-0.1,17.9-0.1C206.5,311.7,200.5,311.7,194.6,311.8z"/>
	<path class="st2" d="M106.9,185.6c0.5,0.4,1,0.8,1.4,1.1c-0.1,0.1-0.2,0.2-0.3,0.3C107.6,186.6,107.2,186.1,106.9,185.6
		C106.9,185.7,106.9,185.6,106.9,185.6z"/>
	<path class="st1" d="M103,193.3c0.4-0.5,0.8-1,1.1-1.4c0.1,0.1,0.2,0.2,0.3,0.3C104,192.5,103.5,192.9,103,193.3
		C103,193.3,103,193.3,103,193.3z"/>
	<path class="st5" d="M237.3,262.8c-12.6,0-22.9-10.3-22.9-23c0-12.6,10.3-22.9,23-22.9c12.8,0,23,10.1,23.1,22.8
		C260.6,252.7,250.3,262.8,237.3,262.8z"/>
	<path class="st5" d="M166.5,262.8c-12.8-0.1-22.8-10.2-22.7-23c0.1-13,10.3-23,23.4-22.8c12.7,0.2,22.6,10.4,22.5,23.3
		C189.6,253,179.4,262.9,166.5,262.8z"/>
	<path class="st4" d="M241.9,221.8c6-0.1,12.3,5.7,12.5,10.9c0.1,4-2.4,5.8-5.9,6c-5.3,0.3-12-5.8-12-10.9
		C236.4,223.9,238.9,222.2,241.9,221.8z"/>
	<path class="st4" d="M171.2,221.8c6.2,0.2,12.6,6.2,12.3,11.2c-0.2,3.9-2.7,5.7-6.3,5.7c-5.6,0-11.6-6-11.6-11.2
		C165.8,223.3,168.3,222.1,171.2,221.8z"/>
</g>
</svg>
