<?xml version="1.0" encoding="utf-8"?>
<!-- Generator: Adobe Illustrator 22.1.0, SVG Export Plug-In . SVG Version: 6.00 Build 0)  -->
<svg version="1.1" id="Layer_1" xmlns="http://www.w3.org/2000/svg" xmlns:xlink="http://www.w3.org/1999/xlink" x="0px" y="0px"
	 width="400px" height="400px" viewBox="0 0 400 400" style="enable-background:new 0 0 400 400;" xml:space="preserve">
<style type="text/css">
	.st0{fill:#FFFFFF;}
	.st1{fill:#999999;}
	.st2{fill:#CCCCCC;}
	.st3{fill:#060606;}
	.st4{fill:#6B6B6B;}
	.st5{fill:#FAFAFA;}
</style>
<circle class="st0" cx="200.5" cy="199.6" r="200"/>
<g>
	<path class="st1" d="M257.9,93.7c15.4,8.3,31.1,16.3,46.3,25.2c7.1,4.2,13.4,9.9,19.9,15.1c2.2,1.7,4,4,5.6,6.3
		c2.9,4.1,2.4,5.9-2.5,6.8c-7.9,1.3-15.8,2.4-23.8,3.1c-3.6,0.3-3.7,1.1-3.4,4.5c1.2,10.7,2.8,21.6,2,32.3
		c-1,13.6-8.7,24.3-19.2,32.9c-1.7,1.4-3.4,2.8-5.1,4.1c-1.5,2.1-3.8,3.1-5.7,4.5c-3.8,2.1-7.8,4-12,5.4c-3.6,1.2-5.6,3.3-6.8,7
		c-4,13.5-12.9,23-25.3,29.4c-15.9,5.7-31.8,5.8-47.7-0.1c-8-4.4-14.8-9.9-19.9-17.6c-2.2-3.3-4-6.8-4.7-10.7
		c-0.8-4.4-3.3-6.8-7.5-8.1c-4.3-1.4-8.6-3-12.1-6.1c-3.6-2.7-7.2-5.5-10.8-8.3c-16.1-12.7-21.4-29.7-19.1-49.4
		c0.6-5.3,1.4-10.6,2.4-15.8c0.6-3.2-0.5-3.9-3.6-4.1c-7.7-0.6-15.3-1.6-22.9-2.8c-5.5-0.9-6.8-3.6-2.9-7.5
		c6.3-6.3,12.9-12.4,20.1-17.6c12.5-9.1,25.7-17,40.4-22.1c4-1.4,7.6-4.3,11.3-6.5c0.9-0.2,1.6,0.3,1.9,1c1.9,4.9,6.1,5.6,10.5,5.2
		c5.8-0.6,11.5-1.7,16.8-4.3c3.8-1.9,6.3-4.1,5.1-8.7c-0.3-1.2-0.3-2.5,0.8-3.5c12,0,23.9,0,35.9,0c1.1,1,1.1,2.3,0.8,3.5
		c-1.3,4.7,1.2,6.8,5,8.6c5.3,2.5,10.9,3.9,16.6,4.5c4.3,0.5,8.5,0.1,10.7-4.7C255.6,94.1,256.5,93.3,257.9,93.7z"/>
	<path class="st1" d="M279.7,265.5c0.7,9.8-2.8,18.6-5.9,27.6c-2,4.2-4.8,7.8-8.3,10.7c-3.4,2.8-4.4,6-4.3,10.3
		c0.2,8.8,0.2,17.6,0,26.4c-1.2,5.3-0.4,10.7-1.2,16c-0.2,1.4-0.4,2.7-0.6,4.1c-3.1,1.8-6.5,1.3-9.7,1c-6.9-0.7-13.8-0.8-20.7-0.8
		c-1.7,0-3.5,0-4.9-1.3c-0.1-11-0.2-22-0.1-33c0-3.7-0.3-4.8-4.8-4.5c-10,0.8-20.1,0.8-30,0c-4.6-0.4-4.9,0.8-4.8,4.5
		c0.1,11-0.1,22-0.1,33c-0.8,0.8-1.9,1.2-3,1.2c-9-0.3-18,1.4-27.1,1.1c-1.7-0.1-3.5,0-4.8-1.5c0-1.3,0-2.5,0-3.8
		c-2.7-4.9-1-10.2-1.4-15.4c0-9.1-0.1-18.2,0.1-27.3c0.1-4-1.2-7-4.4-9.3c-4-2.8-6.8-6.7-8.8-11.2c-1.8-6.3-4.5-12.4-5.3-18.8
		c-1.7-13.2,0.4-26.2,4.4-38.9c1.6-1.2,3-0.2,4.4,0.3c8,2.5,13.7,6.4,16.8,15.4c4.2,12,14.1,19.8,25.5,25.3c1.7,1.3,2.2,3.4,3,5.2
		c3.5,7.6,9.2,12.9,16.3,17c3.1,1.8,5.8,1.6,8.8-0.2c7.4-4.5,13.2-10.5,16.7-18.5c0.6-1.3,1.1-2.6,2.2-3.5c14-6.7,24.1-16.8,28.6-32
		c0.4-1.4,1-2.8,2.3-3.5c4.5-2.5,9.4-4.4,14.2-6.2c1.1-0.4,2.2,0,2.9,1C279.1,245.3,280.8,255.2,279.7,265.5z"/>
	<path class="st2" d="M257.9,93.7c-0.5,0.4-1.3,0.7-1.4,1.2c-1.6,6.6-6.9,7-11.8,6c-7.1-1.5-14-3.9-20.8-6.6
		c-1.4-0.6-2.3-3.6-2.7-5.7c-0.3-1.7,0.5-3.7,0.7-5.5c2.3-13.2,5.2-26.2,12-37.9c4.9-8.5,14.7-12.6,24.3-11.5
		c25.9,3,46.5,16.9,66.9,31.4c2.3,1.6,4.5,3.4,6.6,5.8c-1.1-0.1-2.1-0.3-3.2-0.4c-12.4-1.7-24.8-3.5-37.2-5.1
		c-5.1-0.7-10.2-1.3-15.4-1.6c-1.8-0.1-4.9,0.2-5.4,1.3C266.1,74.5,262.1,84.1,257.9,93.7z"/>
	<path class="st2" d="M186.2,83.2c0.9,10.5,1.1,10.8-9,14.8c-4.8,1.9-10.2,2.5-15.5,3.1c-5.4,0.6-9-2.2-10.6-7.5
		c-4.3-9.2-8.5-18.5-13-27.6c-0.7-1.3-3.3-2.6-4.8-2.4c-18.6,2.3-37.5,2-55.7,7.3c-0.3,0.1-0.8-0.2-2.8-0.7
		c12-7.7,22.8-15.1,34-21.8c10.5-6.3,21.7-11.4,33.9-13.7c6.5-1.2,13.3-2.5,19.3,0.4c4.6,2.2,9.1,5.8,11.9,10
		C181.5,56.5,184,69.8,186.2,83.2z"/>
	<path class="st3" d="M224.1,359.2c10.2,0.2,20.4,0.4,30.6,0.6c1.5,0,3.1,0.4,4.6,0.5c1.4,5.1,2.7,10.2,4.2,15.6
		c-12.6,0-24.8,0.1-37-0.1c-0.9,0-2.4-1.6-2.5-2.5C223.8,368.6,224,363.9,224.1,359.2z"/>
	<path class="st3" d="M149.3,360c11.6-0.3,23.2-0.5,34.8-0.8c0.1,4.7,0.3,9.4,0.1,14.1c0,0.9-1.6,2.5-2.5,2.5
		c-11.5,0.2-22.9,0.2-34.4,0.1c-0.6,0-1.9-1.7-1.7-2.3C146.7,369,148,364.5,149.3,360z"/>
	<path class="st4" d="M259.8,340c0-9.9-0.1-19.7,0.1-29.6c0.1-2,1.4-4.2,2.8-5.7c3.5-4,7.4-7.8,11.1-11.7c0,14.8,0.1,29.7,0.1,44.5
		c0,0.9-0.3,1.8-0.5,2.7C268.8,342.4,264.2,342.6,259.8,340z"/>
	<path class="st4" d="M134.8,293c4.4,4.4,8.8,8.7,13,13.2c0.9,0.9,1.4,2.5,1.4,3.7c0.1,10.2-0.1,20.3-0.1,30.5
		c-4.7,1.8-9.4,2.1-14-0.3C135,324.4,134.9,308.7,134.8,293z"/>
	<path class="st3" d="M279.7,265.5c-1.6-10-3.3-20-4.9-30c-2.5-2-3.5-4.5-2.7-7.7c1.9-1.2,3.8-2.4,5.7-3.7c1.7,4.2,3.8,8.3,4.9,12.6
		c3.1,12.6,11.2,21.1,21.7,27.8c1.2,0.8,2.5,1.4,3.7,2.1c0.1,0.1,0.2,0.3,0.5,0.7C298.6,268.7,289.1,267.6,279.7,265.5z"/>
	<path class="st4" d="M180.6,276.9c-11.4-3.8-19.2-12-25.1-21.9c-2-3.4-2.9-7.5-4.5-11.2c-0.4-1-1.3-2.3-2.3-2.7
		c-4.9-2-9.9-3.9-14.8-5.8c0.7-2.5,1.5-5,2.2-7.5c5.9,2.4,11.9,4.5,17.6,7.3c1.4,0.7,2.2,3.3,2.6,5.2c3,12.1,10.4,20.7,21.1,26.8
		c0.8,0.5,1.4,1.2,2.1,1.9C181.1,271.4,182.5,273.9,180.6,276.9z"/>
	<path class="st3" d="M135.1,340.1c4.7,0.1,9.3,0.2,14,0.3c0.1,5.3,0.1,10.5,0.2,15.8c-5.3,0.1-10.6,0-15.8,0.2
		c-2.5,0.1-2.9-0.6-2.2-2.9C132.7,349.1,133.8,344.6,135.1,340.1z"/>
	<path class="st3" d="M259.8,340c4.5,0.1,9,0.1,13.6,0.2c1.2,4.4,2.3,8.9,3.8,13.3c0.8,2.5,0.1,2.9-2.2,2.9c-5-0.1-10-0.1-15-0.1
		C259.8,350.9,259.8,345.4,259.8,340z"/>
	<path class="st5" d="M242.4,187.2c-19.9,0-35.4-15.6-35.4-35.7c0-19.9,15.8-35.6,36.1-35.7c18.7-0.1,35.5,16.8,35.5,35.7
		C278.5,171.3,262.4,187.2,242.4,187.2z"/>
	<path class="st5" d="M130.3,151.9c-0.2-19.6,15.4-36.1,34.6-36.1c22.5,0,36.5,17.7,36.5,35.3c0,20.3-15.1,35.9-35.4,36.1
		C146,187.4,130.5,172,130.3,151.9z"/>
	<path class="st3" d="M180.6,276.9c-0.3-2.6-0.7-5.3-1-7.9c16.4,6.2,32.8,6,49.2,0.1c1.8,2.9,0.7,5.4-1,7.8
		c-3.7,10.4-10.4,18.2-20.3,23c-1.9,0.9-4.9,0.9-6.8,0.1C190.7,295.2,184,287.3,180.6,276.9z"/>
	<path class="st3" d="M172.6,246.3c1.5,0.6,2.9,1.4,4.4,1.9c7.5,2.3,14.9,4.5,22.4,6.6c0.7,0.2,2.6-1.5,2.6-2.3
		c0.2-8.2,0.3-16.4,0-24.5c0-1.1-1.7-2.6-3-3.3c-9.7-5.1-19.4-10-29.1-14.9c0.3-0.6,0.5-1.3,0.8-1.9c2,0.4,4,0.7,5.8,1.3
		c7.4,2.7,14.7,5.5,22,8.5c3.6,1.5,6.7,1.7,10.3,0.1c7.4-3.1,14.9-5.8,22.5-8.5c2-0.7,4.1-1,6.1-1.5c0.2,0.5,0.4,0.9,0.6,1.4
		c-4.8,2.9-9.4,5.9-14.3,8.5c-4.8,2.6-10,4.5-14.9,7.1c-1.3,0.7-2.7,2.5-2.8,3.8c-0.3,7.7,0,15.4-0.2,23.1c-0.1,3.1,1,3.7,3.8,3.3
		c8-1.1,15.8-2.7,22.7-7.3c0.7-0.5,1.6-0.7,2.8-1.2C227.9,260.1,188.7,264.8,172.6,246.3z"/>
	<path class="st4" d="M227.7,276.9c0.3-2.6,0.7-5.2,1-7.8c12.3-7.4,21.2-17.4,24.5-31.8c0.2-1,1.4-2.1,2.3-2.6
		c5.4-2.4,10.9-4.7,16.4-6.9c0.9,2.6,1.8,5.1,2.7,7.7c-5.2,2-10.5,3.8-15.6,6.2c-1.2,0.5-1.6,2.9-2.2,4.4
		C251.7,260.6,242.5,271.4,227.7,276.9z"/>
	<path class="st2" d="M285.2,116.5c10.9,6.4,22.2,12.2,31,21.7c2.2,2.4,1.5,4.1-1.6,4.4c-4.8,0.5-9.7,0.8-14.5,0.9
		c-1.3,0-3.3-0.8-3.7-1.8C292.5,133.5,289,125.1,285.2,116.5z"/>
	<path class="st2" d="M106,143.6c-4.1-0.3-8.1-0.6-12.2-1c-1-0.1-2.6-0.8-2.6-1.4c-0.1-1,0.4-2.6,1.2-3.2
		c5.8-4.7,11.7-9.4,17.8-13.8c2.8-2,5.8-3.7,8.8-5.3c0.7-0.4,1.7-0.1,2.5-0.1c-0.1,0.7-0.1,1.5-0.4,2.2c-3.1,7-6,14.2-9.4,21
		c-0.7,1.4-3.6,1.7-5.5,2.4C106.1,144.1,106.1,143.9,106,143.6z"/>
	<path class="st3" d="M262,151.7c-0.2,12.9-10.7,23.1-23.3,22.7c-12.6-0.4-22.6-10.8-22.4-23.3c0.2-12.4,10.8-22.7,23.2-22.5
		C252.1,128.9,262.2,139.2,262,151.7z"/>
	<path class="st3" d="M191.8,151.8c-0.1,12.6-10.4,22.7-22.9,22.6c-12.7-0.1-22.7-10.4-22.6-23.4c0.1-12.3,10.3-22.4,22.6-22.4
		C181.7,128.7,191.9,139,191.8,151.8z"/>
	<path class="st5" d="M256,146.5c-1.1,0.8-3,3.2-5.2,3.6c-5.2,1.1-11.9-4.4-12.5-9.8c-0.4-3.2,0.9-5.5,4.3-6.3
		C248.3,132.6,256.1,138.7,256,146.5z"/>
	<path class="st5" d="M185.8,146.2c-1.1,0.9-2.7,3.3-4.8,3.9c-5.7,1.5-12.9-4.8-13-10.7c0-3.2,1.6-4.9,4.6-5.5
		C178.3,132.8,185.8,138.9,185.8,146.2z"/>
</g>
</svg>
