<?xml version="1.0" encoding="utf-8"?>
<!-- Generator: Adobe Illustrator 22.1.0, SVG Export Plug-In . SVG Version: 6.00 Build 0)  -->
<svg version="1.1" id="Layer_1" xmlns="http://www.w3.org/2000/svg" xmlns:xlink="http://www.w3.org/1999/xlink" x="0px" y="0px"
	 width="400px" height="400px" viewBox="0 0 400 400" style="enable-background:new 0 0 400 400;" xml:space="preserve">
<style type="text/css">
	.st0{fill:#FFFFFF;}
	.st1{fill:#7A7A7A;}
	.st2{fill:#3F3F3F;}
	.st3{fill:#5B5B5B;}
	.st4{fill:#F9F9F9;}
	.st5{fill:#060606;}
	.st6{fill:#FEFEFE;}
</style>
<circle class="st0" cx="200.5" cy="199.6" r="200"/>
<g>
	<path class="st1" d="M162.7,245.7c-18.6-3.4-36-9.8-50.9-21.8c-21.2-16.9-28-40.2-17.9-66.6c5.3-13.8,6.5-27.6,7.1-41.8
		c1-22.8,2.3-45.6,3.5-68.5c0.1-1.2,0.4-2.3,0.7-4.4c7.1,6.7,13.7,12.8,20.2,19c7.3,7,14.7,13.9,21.9,21c2.1,2.1,3.6,2.3,6.3,0.8
		c29.8-16.9,59.7-17.1,89.5-0.2c3.1,1.7,4.8,1.2,7.2-1.1c12.4-12,25-23.9,37.5-35.8c1.2-1.2,2.5-2.2,4.4-3.9
		c0.5,7.6,1,14.4,1.4,21.3c1.2,23.5,2.2,47,3.5,70.5c0.3,4.8,1.4,9.7,3.2,14.1c4.9,12.1,8.2,24.5,6.9,37.7
		c-1.6,16.3-10.3,28.7-22.9,38.5c-14.8,11.4-31.8,17.8-50.1,21.1c-1.3,0.6-2-0.2-2.6-1.2c-0.2-1.9,1-3.3,1.9-4.7c0.6-1,1.4-2,2-3.1
		c10.8-17,5.6-31.8-13.5-38.1c-1.7-0.6-3.4-0.8-5-1.5c-5-4.5-10.4-7.6-17.6-7.8c-7.9-0.2-14.2,2.5-19.7,7.8
		c-5.5,1.6-10.9,3.6-15.6,7.1c-7.4,5.5-9.9,12.6-7.7,21.6c1.4,5.5,4,10.3,7.2,14.9c1.1,1.6,3.2,3,1.9,5.4
		C164.7,246.6,163.6,246.4,162.7,245.7z"/>
	<path class="st2" d="M234.1,279c12.6-5,25.4-9.5,37.8-15.1c10.4-4.7,18.5-12.6,24.7-22.6c0.2,22.5,0.8,45-7.9,66.3
		c-5.6,13.6-15.4,23.9-27.3,32.3c-2.3,1.8-4.5,1.3-6.6-0.4c-2-1.7-2-3.8-1.4-6.2c2.8-12.3-2.3-19.1-15-20.3c-1.9-0.2-3.9-0.1-5.1-2
		c-1.6-9.7-0.7-19.5-0.5-29.3C232.7,280.7,233.2,279.7,234.1,279z"/>
	<path class="st1" d="M234.1,279c0,10.8,0.1,21.7,0.1,32.5c1.8,2.2,1.5,4.9,1.6,7.4c0,4,0,7.9,0,11.9c-0.1,9.3-2.8,11.2-11.9,8.6
		c-2.2-2-1.8-4.8-1.9-7.3c-0.1-12.4,0-24.7-0.1-37.1c-0.1-9.9-3.4-13.2-13.2-13.2c-7.1,0-14.3-0.1-21.4,0c-8.5,0.1-12.2,3.6-12.3,12
		c-0.2,12.5,0,25.1-0.1,37.6c0,2.7,0.5,5.6-1.7,7.9c-2.4,1.3-5,1.2-7.6,0.8c-1.8-0.3-3.6-1.2-3.7-3.1c-0.6-8.6-2.2-17.3,1-25.7
		c0.1-19.5,0.2-39,0.3-58.5c2.9-2.2,5.3-0.7,7.5,1.2c3.6,3.2,7.5,5.7,11.8,7.7c16.1,7.3,30.5,3.6,43.6-7.4c2.3-1.9,4.3-5,8-2.6
		C234,261,234,270,234.1,279z"/>
	<path class="st3" d="M223.4,338.8c10.6,0.1,10.6,0.1,10.6-10.6c0-5.5,0.1-11.1,0.1-16.6c9.1-0.8,17.1,1.2,20.7,10.7
		c1.1,2.9,1.4,6.6,0.7,9.6c-1.8,7.1-1.5,8,5.8,8.2c1.3,1.5,2.7,2.9,4,4.4c1.5,1.7,3.3,3.3,4.2,5.2c1.1,2.2,1.5,4.8,2.2,7.2
		c-2.1,0.3-4.3,0.7-6.4,0.7c-4.5,0.1-9,0-13.5,0c-2.3,0.3-3.4-1.4-4.7-2.8c-12.1-13.4-34.2-12.2-43.9,1.8c-0.8,1.1-1.6,2.3-2.5,3.4
		c-1.8,2.3-3.6,1.9-5.1-0.2c-1.7-2.4-3.3-4.9-5.4-7c-11-10.8-29.8-9.4-40.4,2c-1.2,1.3-2.1,3.3-4.5,2.9c-5.7,0-11.5-0.1-17.2,0.1
		c-3.1,0.1-3.6-1.3-2.7-3.8c2.5-7.3,7.8-11.7,14.7-14.6c1.1-0.5,2.7-2.2,2.6-3.1c-3-18.7,1.8-24.6,20.1-24.6c0,7.3,0.3,14.6,0,21.9
		c-0.2,4.3,1.1,6.2,5.5,5.5c1.7-0.2,3.5-0.1,5.2-0.1c6.5-2.3,12.6,0.6,16.8,4.3c6,5.4,10.1,6.9,16,0.3c2.8-3.1,7.6-4,11.8-5.2
		C219.9,337.7,221.8,337.4,223.4,338.8z"/>
	<path class="st1" d="M145.4,357.5c5.1-5.5,10.2-11,17.9-12.6c13.6-2.8,25.1-0.3,33.2,13.8c1.7,2.9,2.5,1.9,3.8-0.2
		c8.4-13.7,21.2-17,34.6-13.1c5,1.5,9.2,5.8,13.7,8.9c1.2,0.9,2.2,2.1,3.3,3.2c0.4,2.8,0.9,5.6,1.3,8.4c-3.1,0.1-6.2,0.4-9.3,0.4
		c-31.2,0-62.5,0-93.7,0c-7.1,0-7.1,0-5-6.7C145.3,358.9,145.3,358.2,145.4,357.5z"/>
	<path class="st3" d="M233.9,251.9c-2,0.8-4.5,1.1-5.9,2.5c-10.6,10.3-23.4,14.7-37.5,11.8c-7.1-1.5-13.3-6.9-20.1-10.3
		c-2.3-1.2-4.9-2-7.4-2.9c-0.1-2.4-0.2-4.8-0.4-7.2c1.1,0,2.2,0,3.2,0c2.8-0.6,4,1.7,5.6,3.1c8.1,7.1,17.2,11.5,28.4,11.3
		c10.4-0.2,18.5-5.2,26-11.7c1.8-1.6,3-4.6,6.3-3.7c0.7,0.3,1.4,0.7,2.1,1C234.1,247.8,234,249.8,233.9,251.9z"/>
	<path class="st4" d="M232.1,244.7c-2.4,2.2-4.8,4.4-7.3,6.5c-16,13.6-35.5,13.8-51.9,0.7c-2.4-2-4.7-4.1-7-6.2
		c-3.5-6.5-7.8-12.7-10.4-19.5c-3.5-9-0.3-17.1,7.3-22.4c4.9-3.4,11.1-4.9,16.8-7.3c0,9.1,4.9,14,13.4,15.9c3.4,0.7,4.7,3.2,4.7,6.5
		c0,6.1,0.2,12.2-0.1,18.3c-0.2,4.7-1.7,6.1-6.1,5.5c-7.5-1-14.7-2.9-20.3-8.5c-0.5-0.5,0.2,0-0.4-0.3c-0.5-0.3-0.6-1.2-1.5-0.9
		c0.7-0.2,0.9,0.4,1.3,0.7c13.6,12.9,35.9,14.7,51.2,4c1.3-0.9,2.5-1.8,3.9-2.7c0.5-0.4,0.8-1,1.8-1.3c-1.3,0.3-1.5,1.4-2.3,1.7
		c-5.6,4.3-12,6.4-18.8,7.3c-5.4,0.8-7.1-0.7-7.3-6.1c-0.2-5.6,0.1-11.2-0.1-16.8c-0.1-4.3,1.5-7,5.8-7.9
		c8.2-1.8,12.6-6.8,12.5-15.4c19,0.6,30.2,18.2,22.4,35.3C237.7,236.3,234.7,240.4,232.1,244.7z"/>
	<path class="st4" d="M241.3,113.4c21.9,0,39.6,17.7,39.6,39.6c0.1,21.6-18.1,39.4-39.9,39.3c-22.1-0.1-39.4-17.4-39.4-39.6
		C201.6,130.8,219.1,113.4,241.3,113.4z"/>
	<path class="st4" d="M116.5,152.8c0-22.2,17.4-39.5,39.5-39.4c22.2,0.1,39.5,17.4,39.4,39.5c0,22.3-17.5,39.5-40.1,39.4
		C133.7,192.3,116.5,174.8,116.5,152.8z"/>
	<path class="st5" d="M227,234.4c-9.6,11.1-22.3,12.3-35.6,10.7c-8.5-1-16.5-4.1-22-11.4c-0.1-0.7,0.3-1,1-0.9
		c6.8,4.7,14.2,7.8,22.5,8.6c2.6,0.3,3.6-0.4,3.5-3.3c-0.2-6.4-0.3-12.9,0-19.3c0.2-3.6-0.8-5.1-4.5-5.8c-3.1-0.6-6.2-2.1-8.9-4
		c-4.6-3.2-5.5-7.3-3.4-12.7c8.9-11.7,28.9-11.7,37.7,0.1c2.7,7.7-1.4,14.6-10.9,16.3c-5.5,1-6.5,3.3-6.1,8.2
		c0.4,5.7,0.3,11.5,0,17.2c-0.1,2.9,0.9,3.5,3.6,3.3c8.2-0.7,15.5-3.5,22.2-8.2C226.7,233.4,227,233.7,227,234.4z"/>
	<path class="st4" d="M107.4,126.6c1.1-21.7,2.3-43.3,3.5-66.4c2.8,2.6,4.7,4.4,6.6,6.3c7.4,7.2,14.7,14.4,22.1,21.6
		c1.3,1.3,3.3,2.4,0.6,4.4C127.6,102.1,117.2,113.8,107.4,126.6z"/>
	<path class="st4" d="M286.2,60c1.2,23.3,2.4,44.9,3.6,67.5c-5.8-7.1-10.5-13.5-15.8-19.3c-5.1-5.5-11-10.2-16.3-15.4
		c-0.8-0.8-1.6-3-1.2-3.3C265.9,79.9,275.5,70.4,286.2,60z"/>
	<path class="st6" d="M223.4,338.8c-10.1,1.1-18.9,4.7-24.9,14.1c-6-9.3-14.9-13-25.1-14.1c-0.1-15.8-0.3-31.7-0.2-47.5
		c0-6.4,4.9-11.1,11.4-11.2c9.4-0.2,18.8-0.2,28.2,0c6,0.1,10.7,4.7,10.8,10.6C223.8,306.8,223.5,322.8,223.4,338.8z"/>
	<path class="st5" d="M169.4,233.7c-0.3-0.5-0.6-1-1-1.4c0.7,0.2,1.3,0.4,2,0.6C170,233.2,169.7,233.4,169.4,233.7z"/>
	<path class="st5" d="M226.1,233.3c0.5-0.3,0.9-0.6,1.4-0.9c-0.2,0.7-0.4,1.3-0.5,2C226.7,234,226.4,233.6,226.1,233.3z"/>
	<path class="st5" d="M262.6,153.6c-0.4,14-12.2,25.3-25.8,24.7c-14-0.6-25-12.2-24.8-25.9c0.3-13.7,12.1-25.2,25.7-25
		C251.9,127.7,263,139.4,262.6,153.6z"/>
	<path class="st5" d="M184.8,153c0,13.8-11.4,25.3-25.2,25.3c-13.8,0-25.2-11.4-25.2-25.4c0-14,11.1-25.4,25-25.5
		C173.4,127.3,184.8,138.8,184.8,153z"/>
	<path class="st4" d="M249.9,151.4c-7-0.1-13.9-6.6-13.6-12.3c0.2-4.3,2.9-6.1,7-6c6.3,0.1,13,6.5,12.7,12.2
		C255.8,149.8,253.1,151.4,249.9,151.4z"/>
	<path class="st4" d="M164.6,133.2c6.9,0.1,13.6,6.3,13.4,12.2c-0.2,4.2-2.8,6.1-6.9,6.1c-6.3-0.1-12.7-6.3-12.7-12.2
		C158.5,134.7,161.3,133.3,164.6,133.2z"/>
</g>
</svg>
