<?xml version="1.0" encoding="utf-8"?>
<!-- Generator: Adobe Illustrator 22.1.0, SVG Export Plug-In . SVG Version: 6.00 Build 0)  -->
<svg version="1.1" id="Layer_1" xmlns="http://www.w3.org/2000/svg" xmlns:xlink="http://www.w3.org/1999/xlink" x="0px" y="0px"
	 width="400px" height="400px" viewBox="0 0 400 400" style="enable-background:new 0 0 400 400;" xml:space="preserve">
<style type="text/css">
	.st0{fill:#FFFFFF;}
	.st1{fill:#A26F2B;}
	.st2{fill:#A26D29;}
	.st3{fill:#725429;}
	.st4{fill:#060606;}
	.st5{fill:#DDB78A;}
	.st6{fill:#FDFDFD;}
</style>
<circle class="st0" cx="200.5" cy="199.6" r="200"/>
<g>
	<path class="st1" d="M124.9,236.1c-0.7-1-1.3-2-2.1-2.9c-8.4-8.7-12.5-19-12.1-31.1c0.4-10.9,1.8-21.5,5.5-31.8
		c1.1-2.9,0.4-3.5-2.5-3.9c-7.1-0.9-14.2-2.1-21.3-3.3c-1.4-0.3-2.8-1.3-4.1-2c0.9-1.5,1.5-3.6,2.8-4.5c6.1-4,12.2-8.3,18.9-11.2
		c9.8-4.2,20.2-7.1,30.3-10.7c1.5-0.5,3-1.1,4.4-1.8c5.2-2.4,10.3-4.9,15.5-7.4c4.7-3.4,10.1-3.7,15.6-4.1
		c5.5-0.2,11.1-0.7,16.6-0.7c6.7,0,13.4,0.5,20.2,0.7c5.5,0,10.7,1.4,15.7,3.4c3.6,1.8,7.2,3.8,11,5.5c4.7,2,9.4,4.2,14.3,5.6
		c13.5,3.9,26.4,9.3,38.3,16.7c2.4,1.5,4.6,3.2,6.6,5.2c2.5,2.5,2.1,4.1-1.3,4.8c-7.4,1.5-14.9,2.8-22.4,3.8c-3.1,0.4-3.7,1-2.6,4.1
		c3.8,10.8,5.2,21.9,5.4,33.3c0.1,11.3-4.1,20.7-11.5,29c-1.1,1.2-1.6,2.8-2.3,4.2c-6.2,3.7-11.7,8.4-18.4,11.1
		c-2.1,0.9-4.2,2.6-6.7,0.7c-0.3-0.6-0.6-1.2-0.6-1.9c0.4-9.5-5.4-15.2-12.6-19.4c-11.8-6.8-24.7-8.9-38.2-7.4
		c-9.4,1.1-18.4,3.2-26.3,8.7c-6.2,4.4-11,9.8-10.6,18.1c0,0.7-0.2,1.3-0.6,1.9c-1.1,1.1-2.5,1.1-3.7,0.5
		C138.5,245.8,130.8,242.4,124.9,236.1z"/>
	<path class="st2" d="M266.4,241.8c6.2,9.5,8.1,20.3,9.3,31.4c1.5,12.8-3,23.2-12.1,31.9c-3.3,4.5-8,6.9-12.8,9.2
		c-3.2,1.5-4.6,3.5-4.4,7.1c0.2,6.2,0,12.5,0.1,18.7c-0.3,4.3,1.1,8.8-1.1,13c-0.1,1.1-0.2,2.2-0.2,3.2c-4.1,2-8.3,1.6-12.5,0.3
		c1.1-1.8,1.1-1.8,5-0.9c-1.6-1.1-3.2-0.8-4.5-0.5c-4.8,1.1-9.5,0.4-14.3,0.6c-2.6,0.1-3.8-1-3.7-3.8c0.3-8.2-0.3-16.5,0.3-24.7
		c0.1-1.3,0.3-2.7-0.8-3.8c-12.6,0.2-25.3,0.6-37.9,0.3c-3.3-0.1-3.7,0.6-3.7,3.5c0.1,9.5-0.1,18.9-0.1,28.4c-1,1-2.4,1.1-3.7,1.3
		c-7.9,1-15.9,0.5-23.9,0.4c-0.9,0-1.8-0.3-2.5-1.1c-0.1-1.1-0.2-2.2-0.2-3.2c-2.2-4.2-0.8-8.6-1.1-12.9c0.1-6.5,0-13,0.1-19.6
		c0.1-2.9-1.1-4.6-3.7-5.9c-4.9-2.6-10.1-4.8-13.5-9.6c-5.3-6-10.7-12-11.6-20.4c-1.5-15.2,1-29.6,9-42.9c1.6-1.1,2.8,0,3.9,0.9
		c5.1,3.7,10.2,7.3,16.2,9.3c1.9,0.6,2.9,2.1,3.6,4c6.7,18.9,20.6,28.2,40.1,30.6c12.6,1.5,24.7,0,36.1-5.7
		c9.4-4.8,16-12.3,19.6-22.2c1.4-3.9,3.5-6.5,7.7-7.9c4.8-1.6,8.7-5,13-7.8C263.4,242.1,264.6,240.8,266.4,241.8z"/>
	<path class="st3" d="M228.2,125c-2.1-0.3-4.2-0.5-6.3-0.9c-3.1-0.7-6.2-1.6-9.4-2.5c0-10.8-0.3-21.6,0.1-32.3
		c0.2-5.5,2.1-10.7,6.5-14.6c5.6-4.9,10.5-4.3,14.3,2c2.4,4,4.1,8.4,6.2,12.5c0.6,1.1,1.5,2,2.3,3.1c1-1,2.3-1.8,2.9-3
		c1.9-3.7,3.4-7.5,5.3-11.2c4.5-8.6,10.3-9.2,16-1.3c2.3,3.1,3.9,6.7,5.8,10c0.6,1.1,1.3,2.2,2.3,3.7c2.1-4.3,3.8-8.2,5.9-11.8
		c2.2-3.8,4.5-8.1,9.6-8c5.1,0.1,7.7,4.4,9.9,8.4c1.3,2.3,2.4,4.8,3.2,7.3c1,2.9,1.8,4.2,4.4,1.2c3.9-4.4,8-8.5,12.3-12.5
		c6-5.6,10.7-4.8,13.8,2.9c5.2,13.2,5.9,26.9,3.4,40.9c-0.7,3.7-3.2,6.1-6.6,6.8c-7.6,1.4-15.2,3.2-22.8,3c-16.5-0.4-33-2-49.5-3.2
		c-8.8-0.6-17.5-1.4-26.3-1.9C230.6,123.3,229.4,124.4,228.2,125z"/>
	<path class="st3" d="M175.8,121.6c-5.2,1.4-10.4,2.7-15.6,4.1c-0.2-2.5-2-2.5-3.8-2.3c-8.6,0.7-17.3,1.3-25.9,2
		c-20.2,1.7-40.3,4.5-60.6,2.7c-3.7-0.3-7.3-1.2-10.9-2.1c-4.8-1.2-7.4-4.5-8-9.3c-1.5-12.2-0.8-24.2,2.8-36
		c0.4-1.1,0.8-2.3,1.3-3.3c3.3-6.8,7.5-7.6,13.2-2.7c5.5,4.8,11.1,9.6,16.6,14.4c-0.3,0.5-0.7,1-1,1.5c0.9-2.5,1.7-5.2,2.9-7.5
		c1.5-3,3.1-6,5.1-8.5c4.3-5.3,9.6-5.1,13.6,0.4c1.7,2.3,3.2,4.9,4.6,7.5c1.3,2.5,2.4,5.1,3.9,8.3c0.9-1.4,1.6-2.4,2.2-3.5
		c2.4-4,4.5-8.2,7.3-11.9c4.4-5.7,10-5.2,13.5,1c2.4,4.1,4.2,8.6,6.2,12.9c1.3,2.8,2.8,3.5,4.8,0.5c0.6-1,1.4-1.9,1.9-2.9
		c1.6-3.1,3-6.2,4.6-9.3c4.4-8.6,11.3-6.5,16.1-1.3c4.7,5.1,5.6,11.8,5.8,18.3C176.5,103.4,176,112.5,175.8,121.6z"/>
	<path class="st3" d="M266.4,241.8c-4.6,2.8-8.9,6.5-13.9,8.3c-6.6,2.4-9.1,7.2-11.9,12.9c-7.5,15.4-21,22.4-37.5,24.5
		c-9.9,1.3-19.6,0.6-29.1-2.4c-14.8-4.6-24.4-14.5-29.5-29c-0.4-1.2-1.5-2.4-2.6-3.1c-5.7-3.4-11.4-6.6-17.2-9.9
		c-0.9-0.5-1.9-0.9-2.8-1.4c1-1.9,2-3.8,3-5.7c4.7,2.9,9.3,6,14.1,8.6c3.2,1.8,6.7,2.9,10,4.3c1.5,0.9,1.5,2.5,1.9,3.8
		c4.4,14.5,14.6,22.8,28.9,25.8c13.3,2.7,26.6,2.5,39.1-3.7c9.2-4.6,15.3-11.8,18.2-21.7c0.4-1.5,0.4-3.3,2-4.1
		c7.9-1.8,14.3-6.5,20.8-11.1c0.9-0.7,2.4-0.7,3.6-1C264.6,238.7,265.5,240.2,266.4,241.8z"/>
	<path class="st3" d="M124.5,305.1c5.7,3.4,11.5,6.8,17.2,10.4c0.8,0.5,1.1,2.3,1.1,3.4c0.1,6.9,0,13.8,0,20.6
		c-6.1,1.9-12.2,2.1-18.2-0.1C124.6,328.1,124.6,316.6,124.5,305.1z"/>
	<path class="st3" d="M245.4,339.6c0-6.9-0.1-13.8,0-20.6c0-1.2,0.3-2.9,1.1-3.4c5.6-3.6,11.4-6.9,17.2-10.4
		c0,11.5-0.1,22.9-0.1,34.4C257.5,341.7,251.5,341.5,245.4,339.6z"/>
	<path class="st4" d="M232.7,356.1c4.2,0.1,8.4,0.2,12.6,0.3c1,3.7,2.1,7.4,3.1,11.1c0.5,1.8,0.2,2.6-1.9,2.6
		c-9.7-0.1-19.4-0.1-29.1-0.1c-1.9,0-2.5-0.6-2.4-2.5c0.2-3.7,0.1-7.4,0.1-11.1c0.4-0.6,0.8-1.1,1.6-1
		C221.9,356,227.4,355,232.7,356.1z"/>
	<path class="st4" d="M143,356.4c10-0.2,20.1-0.4,30.1-0.6c0.1,4,0.2,8,0.1,11.9c0,0.8-1.4,2.1-2.2,2.1c-9.7,0.2-19.4,0.1-29.1,0.2
		c-2,0-2.5-0.5-1.9-2.5C141.1,363.8,142,360.1,143,356.4z"/>
	<path class="st4" d="M245.4,339.6c6.1,0,12.1,0,18.2-0.1c1,3.4,1.7,7,2.9,10.3c1.2,3.2-0.1,3.4-2.8,3.4c-6.1-0.1-12.2,0-18.3-0.1
		C245.4,348.6,245.4,344.1,245.4,339.6z"/>
	<path class="st4" d="M124.6,339.5c6.1,0,12.1,0,18.2,0.1c0,4.5,0,9-0.1,13.6c-7.1,0-14.3,0-21.7,0
		C122.3,348.4,123.5,343.9,124.6,339.5z"/>
	<path class="st1" d="M232.7,356.1c-5.9,0.1-11.7,0.1-17.6,0.2c-0.1-10.9-0.2-21.8-0.2-32.7c0.5,1.4,1.5,2.7,1.5,4.1
		c-0.1,8.1-0.3,16.2-0.6,24.2c-0.1,2.4,1.1,2.9,3.1,2.9c6.4-0.1,12.7,0,19.2,0.4C236.2,355.5,234.5,355.8,232.7,356.1z"/>
	<path class="st5" d="M239.2,249.1c-3.4,20-19.2,30.2-38.1,31.9c-8.5,0.7-17,0.5-25.3-2.2c-14.7-4.7-23.9-14.3-26.8-29.7
		c-0.8-13.5,7.6-20.6,18.5-25.1c19-7.9,38.2-7.5,56.8,1.8c3.8,1.9,7.1,5.1,10.3,8.1C238.9,238,239.4,243.5,239.2,249.1z"/>
	<path class="st6" d="M226.5,215.6c-17.2-0.2-30.1-13.7-29.9-31.2c0.2-16.3,14-29.3,30.9-29.1c16.5,0.2,29.9,14,29.6,30.4
		C256.8,202.5,243.2,215.8,226.5,215.6z"/>
	<path class="st6" d="M161.9,215.6c-16.5,0.2-30.1-12.8-30.4-29.1c-0.3-17.6,12.6-31.1,29.8-31.2c16.7-0.2,30.2,12.9,30.4,29.5
		C192,202,179,215.4,161.9,215.6z"/>
	<path class="st5" d="M256.5,142.1c10.6,3.6,20.7,7.5,29.7,13.9c0.8,0.6,1.1,2,1.7,3c-0.9,0.4-1.7,1.1-2.7,1.3
		c-4.8,0.8-9.7,1.5-14.6,2c-0.7,0.1-1.8-0.5-2.2-1.2C264.4,155,260.6,148.8,256.5,142.1z"/>
	<path class="st5" d="M131.6,142.8c-3.8,6-7.6,12.1-11.5,18.1c-0.4,0.7-1.4,1.5-2.1,1.4c-5.1-0.6-10.3-1.3-15.4-2.1
		c-2.7-0.4-2.7-2.1-1-3.5c2.5-2,5.1-3.9,8-5.2c7.2-3.4,14.5-6.4,21.7-9.6C131.5,142.1,131.5,142.5,131.6,142.8z"/>
	<path class="st3" d="M220,240c-0.3,1.9-0.4,3.1-0.8,4.2c-1,3.1-2,6.4-6.1,6.3c-4-0.1-5.5-3.5-5.8-6.6c-0.3-3.4,0.1-7.1,1.2-10.4
		c0.5-1.6,3-3.4,4.7-3.5c1.6,0,3.8,1.8,4.7,3.4C219.2,235.6,219.5,238.3,220,240z"/>
	<path class="st3" d="M182.1,240.6c-1,2.6-1.7,5.5-3.1,7.9c-1.9,3-5.4,2.9-7.7,0.2c-3.3-3.9-3.4-12-0.4-16.1
		c2.8-3.8,6.6-3.7,8.8,0.5C180.8,235.3,181.2,237.8,182.1,240.6z"/>
	<path class="st3" d="M222.3,265.1c-9.7,11.7-45.4,11.3-55,1.1C186,272.3,203.9,273.2,222.3,265.1z"/>
	<path class="st4" d="M243.2,185.6c-0.2,10.8-8.8,19.3-19.4,19.3c-10.7-0.1-19.5-9.2-19.3-19.9c0.2-10.5,9.3-19.3,19.7-19
		C235,166.3,243.4,175.1,243.2,185.6z"/>
	<path class="st4" d="M145.2,185.3c0-10.7,8.8-19.4,19.3-19.3c10.7,0.1,19.2,8.7,19.2,19.4c0,10.7-8.6,19.4-19.2,19.5
		C153.8,205,145.1,196.2,145.2,185.3z"/>
	<path class="st6" d="M232.8,184.3c-4.7-0.1-10-5-9.8-9.3c0.2-3.2,2.2-4.6,5.3-4.5c4.8,0.1,9.8,4.9,9.7,9.3
		C238.1,182.7,236.1,184.3,232.8,184.3z"/>
	<path class="st6" d="M178.6,180.9c-0.9,0.7-2.1,2.6-3.8,3.1c-4.8,1.4-11-3.6-11.2-8.7c-0.1-3.1,1.3-4.7,4.4-4.9
		C173,170.1,178.7,175.1,178.6,180.9z"/>
</g>
</svg>
