<?xml version="1.0" encoding="utf-8"?>
<!-- Generator: Adobe Illustrator 22.1.0, SVG Export Plug-In . SVG Version: 6.00 Build 0)  -->
<svg version="1.1" id="Layer_1" xmlns="http://www.w3.org/2000/svg" xmlns:xlink="http://www.w3.org/1999/xlink" x="0px" y="0px"
	 width="400px" height="400px" viewBox="0 0 400 400" style="enable-background:new 0 0 400 400;" xml:space="preserve">
<style type="text/css">
	.st0{fill:#FFFFFF;}
	.st1{fill:#BC7D2B;}
	.st2{fill:#73562D;}
	.st3{fill:#060606;}
	.st4{fill:#FAF9F5;}
	.st5{fill:#DEB78A;}
</style>
<circle class="st0" cx="200.5" cy="199.6" r="200"/>
<g>
	<path class="st1" d="M274.8,234c-2.7,2.3-5.4,4.6-8.1,6.9c-2.9,4.4-7.8,6-12.2,8.3c-5.5,2.8-11.3,4.7-17.1,6.6
		c-2.8,0.9-5.8,1.6-8.7,0c-0.9-1.1-1-2.4-1-3.6c0.2-7.4-3.9-12.2-9.3-16.5c-10.2-7.9-31.9-8.1-42.7,1.2c-4.6,4-7.9,8.7-7.7,15.1
		c0,1.6,0.1,3.2-0.9,4.5c-2.7,1.7-5.3,0.1-7.8-0.6c-9.5-2.6-18.6-6.1-26.8-11.5c-0.6-0.7-1-1.7-1.8-2.2
		c-20.1-13.5-25.4-32.8-21.2-55.5c1.3-7,3.1-13.9,5-20.8c0.7-2.5,0.4-3-2.2-3.4c-8.2-1.1-16.4-2.3-24.5-3.9c-4.3-0.8-4.9-3-1.4-5.6
		c5.7-4.3,11.5-8.7,17.9-11.5c11.4-4.9,23.3-8.4,34.9-12.9c5.2-2,10-4.7,15-7.1c1-0.5,2.1-0.8,3.2-1.2c4.1-3.8,9.2-4.6,14.4-5
		c11.5-0.6,23-1.5,34.6-1.7c5.9-0.1,11.9,0.9,17.8,1.5c5,0.9,10.3,1.2,14.1,5.2c0.1,0,0.3,0,0.4,0.1c15,9,32.8,10.9,48.3,18.7
		c1.5,0.8,3.1,1.3,4.7,2c4.3,2.4,9.1,3.9,12.7,7.4c1.9,1.7,4,3.2,5.7,5.1c2.1,2.2,1.9,4.2-1.5,4.8c-8.3,1.4-16.5,3-24.9,4.1
		c-3.1,0.4-3.4,1.2-2.4,3.8c4.8,13.3,7,27.2,5.5,41.2c-0.8,6.8-4.4,13.4-6.7,20C279,230.1,276.8,232,274.8,234z"/>
	<path class="st1" d="M136.6,313.2c-0.7-1.2-1.1-2.6-2.1-3.6c-8.2-9.2-10.8-20.2-9.7-32.2c0.9-10.2,2-20.4,6.5-29.8
		c1.2,0,2.3,0.4,3.3,1c6.9,4.1,14.4,7.1,22,9.7c3.2,1.1,5.5,2.9,6.6,6.2c4.8,14.1,23.2,24.4,38,22.4c13.9-1.8,25.4-7.9,31.1-21.8
		c1.4-3.4,3.5-5.9,7.1-7c6.9-2.1,13.3-5.2,19.7-8.5c5.2-2.7,6.8-2.2,8.6,3.4c3.9,12.3,5.8,24.8,3.6,37.6c-1.6,4.8-2.9,9.7-6,13.8
		c-0.3,0.1-0.4,0.4-0.4,0.7c-0.8,1.8-2.3,3-3.4,4.4c-0.6,1.9-1.7,3.8-1.8,5.7c-0.2,11.3-0.2,22.5-0.3,33.8c-0.5-0.1-0.9-0.4-1.1-0.9
		c-1.3-8.2-0.3-16.5-0.6-24.7c-0.1-2.4,0.5-4.8-0.6-7.3c-3,1.4-5.4,3.4-8,5.2c-1.3,0.9-1.8,2.3-1.7,3.8c0.7,12.3-1.6,24.5-0.8,36.7
		c0,0.5-0.2,1-0.4,1.4c-0.2,1.1-0.5,2.2-0.7,3.3c-0.6,0.7-1.4,1-2.3,1.1c-6.1,0.2-12.3,0.6-18.4-0.3c-1.3-0.2-2.5-0.5-3.5-1.5
		c-0.1-10-0.1-20-0.1-30c0-5.2,0-4.8-5.2-4.7c-12.5,0.3-25,0.2-37.5-0.3c-3.2-0.1-3.7,0.6-3.7,3.2c0,10.6-0.1,21.1-0.1,31.7
		c-2.9,1.7-6.2,1.8-9.5,1.9c-4.9,0.2-9.9,0.3-14.8,0c-0.2-1.4-0.4-2.8-0.6-4.3c-0.2-11.9-1.8-23.8-1.2-35.8c0.2-3.7-1-6.3-4.2-8.1
		C141.4,317.8,139,315.5,136.6,313.2z"/>
	<path class="st2" d="M171.8,115.3c-4.8,1.7-9.6,3.3-14.4,5c-2.5-9.5-2.5-9.1-12.1-8.8c-22.6,0.8-42.8-5.2-58.2-22.8
		c-7.2-8.3-10.6-18.2-11.2-30.3c1.5,2,2.3,3.1,3.1,4.3c5.4,7.7,12.4,13.8,20.3,18.9c2.2,1.4,2.8,1.4,3.3-1.6
		c0.9-5.8,2.6-11.4,4.8-16.7c1.6,6.3,3.3,12.6,4.9,18.8c1.4,5.3,4.3,8.8,10.1,9.4c1.5,0.2,3,0.7,4.5,1c-1.2-7.1-2.4-14.2-3.6-21.2
		c0.4-0.1,0.8-0.3,1.2-0.4c0.6,0.8,1.1,1.7,1.7,2.4c5.1,6.3,10,12.8,15.5,18.8c3.9,4.2,12.8,2.9,15.6-2c4.2-7.4,7.9-15.1,12-23.2
		c0.5,6.9,1.1,13.7,1.7,21c9.4-4.6,15.1-12.4,18.4-22.4c1.7,11.7-0.6,22.1-8.6,30.8c-2.6,2.8-5.7,5.3-8.9,7.3
		c-2.6,1.6-3.3,3-2.1,5.7C170.7,111.2,171.2,113.3,171.8,115.3z"/>
	<path class="st2" d="M238.4,120.3c-4.7-1.7-9.4-3.5-14.1-5.2c3.7-6.8,1.4-10.5-4.9-15c-12.1-8.7-14.9-21.9-13.1-36.3
		c2.7,10.8,8.7,18.9,18.6,24.2c0.6-7.2,1.1-14.1,1.7-21.1c4.2,8.2,7.9,15.9,12.2,23.4c2.6,4.7,11.6,5.9,15.3,2
		c6.3-6.5,12.1-13.6,17.7-20.1c0.9,6.2-0.7,13.2-3.6,20.8c4.1-1.2,7.6-2,11-3.3c1.2-0.5,2.3-2.1,2.8-3.4c2.5-7.6,4.7-15.2,7.4-24
		c1.5,6.4,3,11.9,3.9,17.6c0.5,3,1.2,3.8,3.4,1.8c6.6-5.9,13.1-11.8,19.6-17.8c0.8-0.7,1.4-1.7,2.1-2.6c0.4,0.1,0.9,0.2,1.3,0.3
		c-0.6,3.7-0.8,7.6-2,11.2c-6.2,19-20.5,29.5-38.6,35.3c-10.1,3.3-20.6,4.8-31.3,3.2c-6-0.9-6-0.8-7.9,5
		C239.2,117.6,238.8,119,238.4,120.3z"/>
	<path class="st2" d="M270.1,290.4c2-13.4,0.1-26.4-4.4-39.1c-0.9-2.4-2.1-2.9-4.4-1.8c-7.5,3.4-15.1,6.4-22.5,10
		c-2.1,1-4.4,3.1-5.1,5.2c-6.7,19.8-35,29.6-53.7,18.9c-8-4.6-14.6-10-17.7-18.8c-1.3-3.6-3.9-4.7-7-6.1
		c-8.1-3.5-15.9-7.5-23.9-11.3c0.4-1.1,0.8-2.1,1.1-3.2c1.2,0.4,2.4,0.5,3.5,1.1c9.8,4.9,19.8,9.2,30.6,11c1.7,0.8,1.8,2.4,2.2,3.9
		c3.7,14,13.4,21.9,28.5,22.1c12.8,0.2,23.8-5.5,28.8-19.6c0.9-2.5,0.6-5.4,3-7.3c8.6,0.3,16.1-3.5,23.6-6.9
		c4.8-2.2,9.3-5.2,13.9-7.8c8.7,12.4,13,26.2,14,41.2c1,4.6,0.8,9.2,0.1,13.8c-0.1,1.1-0.1,2.3-0.2,3.4c0.7,1.2,0.8,2.4-0.3,3.4
		c-1-1.1-1.9-2.3-2.9-3.4c0-0.4-0.2-0.6-0.5-0.7c-0.2-0.4-0.5-0.7-0.7-1.1c-0.5-0.3-0.8-0.7-0.9-1.3c-0.5-0.5-0.9-0.9-1.4-1.4
		C273.3,292.9,270.5,292.7,270.1,290.4z"/>
	<path class="st2" d="M136.6,313.2c2.9,1.8,5.7,3.9,8.8,5.4c3.7,1.9,4.5,4.7,4.5,8.6c0,10.5,0.5,21.1,0.7,31.6
		c0,1.5-0.6,2.9-0.9,4.4c0,0-0.1-0.2-0.1-0.2c-1.8-2.7-1.2-5.8-1.1-8.7c0.1-3.4-1.1-5-4.7-4.8c-2.4,0.1-4.9,0.5-7-1.2
		C136.7,336.7,136.7,324.9,136.6,313.2z"/>
	<path class="st3" d="M221.2,365.7c8.1,0.2,16.1,0.5,24.2,0.7c1,4.7,2,9.4,3.1,14.4c-8.7,0-17.1,0.1-25.5-0.1
		c-0.7,0-1.9-1.5-1.9-2.3C220.9,374.2,221.1,370,221.2,365.7z"/>
	<path class="st3" d="M150.2,367.6c1.1-0.4,2.2-1.2,3.3-1.3c7-0.3,14-0.4,21-0.6c0.1,4.1,0,8.3,0.2,12.4c0.1,2.4-0.9,2.8-3,2.8
		c-7.2-0.1-14.3-0.1-21.5,0.1c-2.6,0.1-2.8-1-2.4-3C148.7,374.5,149.5,371,150.2,367.6z"/>
	<path class="st3" d="M258.8,348.5c0.2,0.2,0.4,0.4,0.6,0.6c0.8,3.9,1.4,7.9,2.3,11.7c0.5,2.1,0,2.5-1.9,2.4
		c-4.6-0.1-9.1-0.1-13.7-0.1c-0.2-0.4-0.3-0.8-0.5-1.1c-0.1-3.8,0-7.7-0.1-11.5c0-1.7,0.5-2.9,2.2-3.1
		C251.5,347,255.3,345.9,258.8,348.5z"/>
	<path class="st3" d="M136.8,348.4c14.4-0.3,14.4-0.3,12.8,14.7c-4.3,0-8.5-0.1-12.8,0.2c-2.8,0.2-3.1-1-2.6-3.2
		C135.1,356.2,135.9,352.3,136.8,348.4z"/>
	<path class="st4" d="M261.4,309.6c1.1-1.5,2.3-3,3.4-4.4C263.7,306.7,262.6,308.1,261.4,309.6z"/>
	<path class="st4" d="M275.4,296.3c0.3,0.4,0.6,0.8,0.9,1.3C275.9,297.1,275.6,296.7,275.4,296.3z"/>
	<path class="st4" d="M276.9,298.7c0.2,0.2,0.4,0.5,0.5,0.7C277.3,299.1,277.1,298.9,276.9,298.7z"/>
	<path class="st5" d="M229.2,255.6c-2.7,17-11.8,26.5-28.9,28c-14.9,1.3-28.2-6.3-32.5-23c-0.4-1.4-0.7-2.8-1-4.2
		c-0.6-7.8,1.3-14.8,7.6-19.9c5.5-4.6,11.9-7.6,19.1-7.6c5.6,0,11.5,0.2,16.9,1.6C222.5,233.7,227.8,241.3,229.2,255.6z"/>
	<path class="st4" d="M232.4,215.1c-18.5-0.3-32.3-14.8-32-33.6c0.3-17.3,15.2-31.5,32.7-31.4c17.9,0.1,32.8,15.4,32.3,33.2
		C265,201.2,250.3,215.4,232.4,215.1z"/>
	<path class="st4" d="M130.6,182.5c-1-15.4,12.8-32.3,32-32.4c18.2-0.1,32.7,14.4,32.7,32.7c0,18.3-14.3,32.3-32.9,32.3
		C145.7,215.2,129.8,201.1,130.6,182.5z"/>
	<path class="st5" d="M132.2,135.3c-4.9,7.3-8.9,13.6-13.2,19.7c-0.8,1.2-2.6,2.4-3.9,2.4c-4.8-0.2-9.6-0.9-14.4-1.5
		c-1.1-0.2-2.2-1-3.2-1.6c0.8-1.1,1.3-2.6,2.3-3.3c3.7-2.4,7.4-4.9,11.3-6.8C117.8,141.1,124.6,138.4,132.2,135.3z"/>
	<path class="st5" d="M264.1,136.1c11.6,3.5,22.2,8.2,32,14.6c1,0.7,1.5,2.2,2.2,3.4c-1.2,0.6-2.3,1.6-3.5,1.8
		c-3.3,0.7-6.7,1-10.1,1.5c-4.5,0.7-7.4-0.5-9.7-5.1C272.3,146.6,268,141.8,264.1,136.1z"/>
	<path class="st2" d="M258.8,348.5c-3.9,0-9-1.5-11.5,0.5c-2.1,1.6-1,7.2-1.4,11c-0.1,0.7-0.2,1.4-0.3,2.1c-0.2-4-0.5-7.9-0.5-11.9
		c0.1-8.2,0.6-16.5,0.7-24.7c0-2.6,0.4-4.5,3.1-5.8c2.5-1.2,4.6-3.3,7-4.9c0.7-0.5,1.6-0.8,2.5-1.2c0.2,0.8,0.5,1.6,0.5,2.4
		C258.9,326.8,258.8,337.7,258.8,348.5z"/>
	<path class="st2" d="M198.6,231.3c3.7,1.1,7.9,1.9,11.8,3.5c3.8,1.6,4.1,5.4,1.1,8.2c-5.4,5.2-20.9,5.4-26.6,0.4
		c-3.9-3.4-3.4-7.4,1.5-9.3C190,232.8,194,232.3,198.6,231.3z"/>
	<path class="st2" d="M178.7,268.9c12.8,7.7,25.5,8,38.3-0.5c-2.2,5.2-9,8.9-16.2,9.3C192,278.2,184.3,276.3,178.7,268.9z"/>
	<path class="st3" d="M250.6,182.6c0.1,11.4-9.1,20.7-20.6,20.9c-11.2,0.2-20.9-9.2-21-20.5c-0.2-11.5,9.3-21.1,20.8-21.1
		C241.2,161.8,250.5,171.1,250.6,182.6z"/>
	<path class="st3" d="M186.7,182.8c0,11.4-9.4,20.8-20.7,20.8c-11.4,0-20.7-9.3-20.7-20.7c0-11.7,9.4-21.1,20.9-21
		C177.5,162,186.7,171.3,186.7,182.8z"/>
	<path class="st4" d="M234.3,166.5c4.5-0.1,9.7,4.1,10.6,8.5c0.8,3.8-1.4,6.5-5.3,6.5c-4.7,0.1-9.9-4.3-10.7-8.9
		C228.4,169.1,230.6,166.6,234.3,166.5z"/>
	<path class="st4" d="M170.5,166.5c5.2,0.1,10.9,5.6,10.6,10.2c-0.2,3.4-2.3,5-5.8,4.9c-5.3-0.2-10.4-5.3-10.3-10.1
		C165.1,167.5,167.6,166.7,170.5,166.5z"/>
</g>
</svg>
