<?xml version="1.0" encoding="utf-8"?>
<!-- Generator: Adobe Illustrator 22.1.0, SVG Export Plug-In . SVG Version: 6.00 Build 0)  -->
<svg version="1.1" id="Layer_1" xmlns="http://www.w3.org/2000/svg" xmlns:xlink="http://www.w3.org/1999/xlink" x="0px" y="0px"
	 width="400px" height="400px" viewBox="0 0 400 400" style="enable-background:new 0 0 400 400;" xml:space="preserve">
<style type="text/css">
	.st0{fill:#FFFFFF;}
	.st1{fill:#382E2B;}
	.st2{fill:#99694B;}
	.st3{fill:#6B4E3D;}
	.st4{fill:#FEFEFE;}
	.st5{fill:#DAA775;}
	.st6{fill:#060606;}
</style>
<circle class="st0" cx="200.5" cy="199.6" r="200"/>
<g>
	<path class="st1" d="M165.9,101.9c0.1-7.7-0.2-15.4,0.2-23.1c1.2-21.2,18.7-38.3,40-38.6c27.2-0.3,54.5-0.3,81.7,0
		c21.6,0.3,39.8,18.8,39.8,40.4c0.1,75.9,0.1,151.8,0,227.7c0,23.1-18.5,41.2-41.5,41.5c-4.3,0-8.6-0.1-12.8-0.2
		c-0.9-0.8-1.6-1.8-1.9-3c-2.5-10.1-9.9-15.7-18.7-19.7c-4.1-1.9-5.2-3.9-3.8-8.3c4.8-15.4-2.8-26.7-18.9-28.9
		c-3.2-0.4-6.7-0.1-8-4.2c-0.7-2.8-0.5-5.7-0.5-8.6c0-2-0.1-4,0.7-5.9c1.9-2.7,5-2.8,7.7-3.5c15.5-3.8,29.8-9.9,42.6-19.6
		c16.3-12.3,24.6-34.5,20-54.3c-4.9-20.8-15-38.8-29-54.8c-0.7-0.8-1.4-1.5-2-2.3c-4.6-5.8-4.3-6.7,0.8-11.8
		c6.7-6.8,12.1-14.5,14.1-24c1.2-5.8,1.2-11.5-3.6-15.6c-5.2-4.5-11.2-3.6-16.9-0.8c-9.3,4.6-16.5,11.6-21.1,21
		c-2.9,5.8-4,6.3-9.9,3.4c-17.3-8.2-35.2-10.6-54-6.5C169.2,102.4,167.5,103.2,165.9,101.9z"/>
	<path class="st2" d="M165.9,101.9c20.3-5.7,39.9-3.8,58.9,5.2c6,2.8,5.8,2.8,9.1-3.3c5.7-10.6,13.8-18.6,25.5-22.4
		c11.3-3.7,21.2,4.2,18.6,18.1c-2.1,11.3-8,20.6-17,27.8c-2.3,1.8-2.5,3.2-0.6,5.9c8.3,11.3,17.2,22.2,23.9,34.4
		c8.4,15.3,13.4,31.9,9.5,49.8c-2.9,13.3-10.5,23.5-21,31.9c-14.7,11.7-32,17.2-49.9,21.5c-6.3,3.5-13.5,3.8-20.4,4.2
		c-14.5,1-29,0.6-43.4-2c-2.2-0.4-4.4-0.7-6.1-2.3c-12.1-4.2-24.7-7.3-36.1-12.9c-16.7-8.3-29.8-20.7-34.4-39.9
		c-3.6-15.1,0.2-29.2,5.8-43c6.3-15.3,15.4-29,26.9-40.9c2.7-2.8,3.1-4.1-0.2-7c-10-8.5-16.9-18.9-16.8-32.6
		c0.1-10.2,7.8-16,17.7-13.2c13.4,3.7,21.8,13,27.4,25.1c1.5,3.2,2.4,3.7,5.7,2C154.6,105.7,160.3,104,165.9,101.9z"/>
	<path class="st2" d="M262,349.9c1,2.9,2.2,5.8,2.7,8.8c0.2,0.9-1.3,2.6-2.4,3.1c-1.3,0.5-3,0.1-4.6,0.1c-46.5,0-93.1,0-139.6,0
		c-7.7,0-8-0.4-5.3-7.7c0.5-1.4,0.8-2.9,1.1-4.4c4-10.3,12.5-15.8,22.3-18.8c15.6-4.9,30.1-1.9,42.8,8.6c4,3.3,6.2,8.1,9.1,13
		c5.9-12.3,15.3-20.2,28.3-22.7c17-3.3,31.9,0.8,43.2,14.7C260.9,346.1,262.7,347.5,262,349.9z"/>
	<path class="st3" d="M262,349.9c-8.9-13.5-21.2-20.2-37.5-19.7c-15.3,0.5-26.6,7.4-34.1,20.7c-0.6,1.2-1.3,2.3-2.5,4.4
		c-1.5-3-2.3-5.4-3.6-7.4c-7.1-10.4-17-16.4-29.6-17.7c-11.9-1.2-22.8,1.6-31.9,9.6c-3.3,2.9-5.9,6.6-8.8,9.9c-1.5,0-3.1,0-4.6,0
		c-7.1,0-7.4-0.4-4.6-6.9c3.8-8.9,10.7-14.5,19.7-17.5c2.6-0.9,3.6-1.4,2.6-4.5c-6.8-20.5,4.4-34.2,26.1-32.1
		c1.7,1.8,1.4,4.1,1.4,6.3c0.1,8,0,16,0,24c0,2.7,0.2,5.2,3.7,5.7c0.5,0.1,1.1,0.2,1.6,0.4c0.7,0.2,1.5,0.4,2.2,0.6
		c10.7,2.9,19.8,8.1,26.3,18.1c7.1-11.4,17.8-16.4,29.9-19.1c3.3-0.9,3.1-3.6,3.2-6.2c0.1-8.7,0-17.3,0.1-26c0-2.3-0.4-4.8,1.6-6.7
		c3.6,1,7.1,2.5,10.8,3c13.9,1.7,21,17.4,16.8,28.5c-1.5,4-2.2,6.4,3.3,8.6c10.3,4.2,18,11.6,19.4,23.5
		C269.6,349.7,265.8,349.8,262,349.9z"/>
	<path class="st2" d="M159.9,326.3c-6.9-0.3-6.9-0.3-6.9-7.4c0-10,0-20,0-30.1c0.1-4,0.2-8,0.2-12c1.6-1.5,3.4-1.2,5.3-0.9
		c19.2,2.5,38.4,2,57.5-0.1c2.4-0.3,4.8-0.7,6.8,1c0,3.1,0,6.1,0.1,9.2c0,11.4-0.3,22.7,0,34.1c0.2,5-1.4,6.9-6.2,6.1
		c-2.8-3.8-1.3-8.3-1.5-12.4c-0.3-8.3-3.4-14.8-10.4-19.5c-12.3-8.3-34.1-4.1-41.1,7.8c-2.6,4.4-2.1,9.2-2.4,13.9
		C161.4,319.5,162.9,323.3,159.9,326.3z"/>
	<path class="st3" d="M223,276.8c-15.8,0.7-31.6,1.7-47.4,2c-7.4,0.1-14.8-1.3-22.3-2c-0.1-2-0.1-4.1-0.2-6.1
		c15.1,1,30.1,2.5,45.2,2.8c8.2,0.2,16.5-1.8,24.7-2.8C223,272.8,223,274.8,223,276.8z"/>
	<path class="st4" d="M230.1,220.4c-21.5,0-39.1-17.4-39-38.7c0-21.5,17.3-38.7,38.9-38.7c21.7,0,38.9,17,39.1,38.6
		C269.1,202.7,251.5,220.3,230.1,220.4z"/>
	<path class="st4" d="M146.1,142.9c21.7-0.2,38.9,16.7,39,38.4c0.1,21.7-16.7,38.7-38.4,39c-21.1,0.2-38.8-16.7-39-37.4
		C107.5,160.2,123.8,143.2,146.1,142.9z"/>
	<path class="st5" d="M271.2,101.8c-1.3,8.9-6.9,17-16.1,22.7c-1,0.6-3.3,0.3-4.4-0.5c-3.9-2.7-7.8-5.5-11.3-8.7
		c-1.2-1-2.1-3.1-2-4.7c0.7-8.5,13.4-21.1,21.9-22C267.5,87.8,271.4,91.4,271.2,101.8z"/>
	<path class="st5" d="M105,97.8c0-6.2,5-10.3,12.4-9c10.8,1.9,19.7,14,21.8,22.4c0.3,1.1-0.9,3.1-2,4c-2.4,2.1-5.2,3.8-7.7,5.8
		c-6.3,5.2-7.1,5.5-13.1,0.2C110,115.3,105.8,108,105,97.8z"/>
	<path class="st3" d="M174.8,249.2c-6.4-2.2-12.9-4.3-19.3-6.6c-1.5-0.5-2.8-1.7-4.1-2.6c0.1-0.4,0.3-0.8,0.4-1.3
		c2,0.5,3.9,1,5.9,1.4c8.4,1.9,16.9,3.8,25.3,5.6c0.5,0.1,1.4,0,1.5-0.1c0.5-3.4,1.3-6.7,1.3-10.1c0-1.3-1.4-3.4-2.5-3.8
		c-6.6-2.1-10.2-5.2-9.6-8.9c0.5-3.3,6-6.6,11.7-6.7c3.4,0,7.2-0.4,10.1,0.9c2.8,1.3,6.9,5.1,6.5,6.9c-0.7,2.9-4.5,5.2-7.2,7.5
		c-1.2,1-4.3,1.3-4.4,2.1c-0.3,3.9,0,7.8,0.5,11.6c0,0.4,3.2,0.7,4.7,0.4c10.3-2.3,20.7-4.8,30.3-7c-0.3,1.3-3.6,4.3-9,6.2
		c-5.1,1.7-10.4,3-15.7,4.4C192.4,253.1,183.6,252,174.8,249.2z"/>
	<path class="st4" d="M174.8,249.2c8.8,0,17.6,0,26.4,0c0.1,4.1,0.2,8.2,0.3,12.3c0.1,3.5-1.9,4.9-5.1,4.9c-5.5,0.1-10.9,0.1-16.4,0
		c-3.4-0.1-5.4-1.7-5.2-5.4C174.9,257,174.8,253.1,174.8,249.2z"/>
	<path class="st5" d="M159.9,326.3c0.1-4.6,0.5-9.3,0.1-13.8c-1-11.1,9.4-23.9,23.7-23.3c5.4,0.2,11-0.1,16.2,1.2
		c10.2,2.6,16.6,11.9,16.7,22.5c0,4.4,0.1,8.9,0.1,13.3c-4,1.5-8.1,2.6-11.9,4.4c-7.4,3.4-11,7-16.7,15.9c-6-10.8-15.2-16.9-27-19.3
		c-0.3-0.3-0.7-0.6-1.1-0.7L159.9,326.3z"/>
	<path class="st2" d="M160.1,326.5c0.4,0.2,0.7,0.5,1.1,0.7C160.9,326.9,160.5,326.7,160.1,326.5z"/>
	<path class="st6" d="M201.4,181.9c-0.2-13.7,11.4-25.3,25.1-25.3c13.4,0,24.8,11.5,24.9,24.9c0,13.5-11.2,24.9-24.8,25
		C213.2,206.7,201.6,195.4,201.4,181.9z"/>
	<path class="st6" d="M174.7,182.2c-0.2,13.6-11.8,24.8-25.2,24.4c-14-0.5-24.7-11.8-24.4-25.8c0.3-13.3,11.7-24.3,25-24.1
		C164,156.8,175,168.2,174.7,182.2z"/>
	<path class="st4" d="M231.8,162.2c5.1,0,11.3,4.8,12.5,9.8c1.2,5-1.6,8.4-6.8,8.2c-5.4-0.2-11.3-5.4-12.2-10.8
		C224.6,165.4,227.5,162.2,231.8,162.2z"/>
	<path class="st4" d="M161.6,180.2c-6.1,0.1-12.7-6.1-12.8-11.7c0-4.4,2.6-6.1,6.5-6.2c5.9-0.1,12.8,6.2,12.9,11.8
		C168.3,177.6,165.6,180.1,161.6,180.2z"/>
</g>
</svg>
