<?xml version="1.0" encoding="utf-8"?>
<!-- Generator: Adobe Illustrator 22.1.0, SVG Export Plug-In . SVG Version: 6.00 Build 0)  -->
<svg version="1.1" id="Layer_1" xmlns="http://www.w3.org/2000/svg" xmlns:xlink="http://www.w3.org/1999/xlink" x="0px" y="0px"
	 width="400px" height="400px" viewBox="0 0 400 400" style="enable-background:new 0 0 400 400;" xml:space="preserve">
<style type="text/css">
	.st0{fill:#FFFFFF;}
	.st1{fill:#858585;}
	.st2{fill:#656565;}
	.st3{fill:#F9F9F9;}
	.st4{fill:#060606;}
</style>
<circle class="st0" cx="200" cy="200" r="200"/>
<g>
	<path class="st1" d="M151,235c-1.4-1.4-5.9-10.8-6.2-12.9c-1-3.5-2.1-3.8-5.2-1.7c-20.9,15-42.2,30.3-63.5,45
		c-2.8,1.7-2.8,3.1-1.7,5.9c12.9,30,24.8,60.7,35.9,91.4c0.3,1.4,1.4,2.4,0.7,4.5c-3.5-6.6-6.6-12.6-9.8-18.8
		c-12.9-25.8-25.1-51.6-37.3-77.8c-2.8-5.9-2.4-7,2.8-10.8c23.4-17.1,46.8-34.2,70.5-51.3c2.4-1.7,2.8-3.5,2.8-6.3
		c-0.7-9.8-0.7-9.8-9.8-7.3c-14,3.5-27.9,7.3-42.2,10.8c-4.9,1-7,0-8-4.5c-10.8-38.4-20.6-77.1-29.3-116.1c0-0.7,0-1.4-0.3-2.4
		c1.7,0.7,1.7,2.1,2.1,2.8c12.9,34.9,24.1,70.1,34.9,105.7c1,3.5,2.4,3.8,5.6,3.1c14.7-3.8,29-7.7,43.6-11.5
		c2.8-0.7,4.5-1.7,4.9-5.2c0.3-3.8,1.7-7.3,2.8-10.8c0.7-2.4,0.3-3.5-2.4-4.5c-15-5.9-29.7-12.2-44.3-18.5c-5.2-2.4-6.3-5.2-2.8-9.8
		c16-22.3,32.8-44.6,50.2-65.9c0.7-0.7,1-2.1,2.4-2.1c1,1.7-0.3,2.4-1,3.5c-11.9,21.3-25.1,41.8-38.4,62.1c-2.8,4.2-2.8,4.2,1.7,5.9
		c11.9,4.9,23.7,9.4,35.6,14.3c2.8,1,3.8,0.7,4.9-2.1c7.3-17.1,16.4-33.1,28.6-47.1c3.8-4.5,8.4-8.4,13.3-11.5
		c5.9-3.8,12.2-3.8,18.1,0c9.4,5.9,16,14.6,22.3,23.4c7.7,10.8,14,22.7,18.8,34.9c1,2.4,2.1,3.1,4.5,2.1c12.2-5.2,24.4-10.1,37-15
		c3.1-1,2.8-2.4,1.4-4.9c-14.7-21.6-28.3-43.9-41.5-67c-0.3-0.3-1-0.7-0.3-1.7c2.8,1.4,4.5,4.5,6.3,7c16.4,20.2,32.1,41.1,47.4,62.1
		c4.2,5.9,3.5,8-2.8,10.8c-14.7,6.3-29,12.2-43.6,18.1c-2.4,1-3.5,1.7-2.4,4.5c1,3.1,2.1,6.6,2.4,10.1c0.3,4.2,2.4,5.2,6.3,6.3
		c14,3.5,27.9,7.3,41.9,11.2c3.5,1,4.9,0.3,6.3-3.5c10.5-34.5,21.3-69,33.8-102.9c0.3-1,0.7-1.7,1.4-3.1c1,2.1,0.3,3.8,0.3,5.2
		c-8.4,37.3-17.8,74.3-28.3,111.2c-1.4,4.9-3.1,5.9-8.4,4.5c-15.7-4.2-31.7-8-47.4-12.2c-3.1-0.7-3.1,0.3-3.8,2.8
		c-2.4,8.7,2.4,12.9,8.7,17.1c21.3,15,42.2,30.7,63.1,46c5.9,4.5,6.3,4.9,3.1,11.5c-14.3,31-29,61.7-44.7,91.7
		c-0.3,1-0.7,2.1-2.4,2.1c4.9-13.3,9.8-26.2,15-39.1c7.3-18.5,15-37,22.3-55.4c0.7-1.7,1.4-3.1-1-4.9c-21.6-15.3-42.9-30.3-64.5-46
		c-2.8-1.7-4.2-2.1-4.9,1.4c-0.7,2.1-7,18.9-8.4,20.6L151,235z"/>
	<path class="st1" d="M250.5,232.6c4.9,5.9,10.8,10.8,15.7,16.7c10.5,13.3,18.1,27.5,20.9,44.6c2.4,16.7-3.5,30-16.4,40.8
		c-13.3,11.2-28.6,16.4-45.4,19.2c-24.1,3.8-48.1,2.8-71.2-5.6c-11.9-4.2-22.7-10.5-31.1-20.6c-10.1-12.6-11.9-26.5-7.7-41.8
		c5.6-19.2,16.4-35.2,30.7-48.8c1.4-1.4,3.1-2.4,3.8-4.2c1-0.3,2.1-0.3,2.8-1c6.3-5.2,13.3-9.4,20.9-12.9c17.8-7.7,35.6-7.3,53.4,0
		C235.8,222.1,242.8,227.7,250.5,232.6z M234.4,312.1c17.4,0,31.7-13.9,31.7-31.4c0-16.7-14.3-31.4-30.7-31.4
		c-18.1,0-32.4,13.3-32.4,30.7C202.7,298.5,216.6,312.1,234.4,312.1z M135,280.7c0,18.1,13.6,31.7,31.4,31.7
		c18.1,0,31.7-13.6,31.7-31.7c0-17.8-14-31.4-32.4-31C148.6,249.3,135,263.3,135,280.7z"/>
	<path class="st2" d="M249.5,233.6c-7.7-4.9-14-9.5-22.4-12.9c-17.8-7.3-30.1-11.7-53.4,1c-7.7,3.1-12.7,4.3-18.9,9.9
		c-0.7,0.7-2.7,1.7-3.8,2c-1-1.4-4.4-6.1-4.8-7.9c4.2-2.8,9-6.6,13.2-9.7c7.7-5.6,16-10.4,25.1-12.5c17.8-4.2,35.5-1.4,51.6,7.7
		c6.3,3.5,11.9,9,17.8,13.2C253.9,226.5,250.9,232.2,249.5,233.6z"/>
	<path class="st3" d="M234.4,312.1c-18.1,0-31.7-13.9-31.7-32.1c0-17.4,14.3-31,32.4-30.7c16.7,0,31.1,14.6,30.7,31.4
		C266.2,298.2,252.2,312.1,234.4,312.1z M251.9,281.1c0.3-11.2-8.7-20.2-19.9-20.6c-10.8-0.3-20.2,8.7-20.6,19.9
		c-0.3,11.2,9.1,20.6,20.2,20.9C242.5,301.3,251.5,292.2,251.9,281.1z"/>
	<path class="st3" d="M135,280.7c0-17.4,13.6-31.4,30.7-31.4c18.1,0,32.4,13.6,32.4,31c0,18.1-13.6,31.7-31.7,31.7
		C148.6,312.1,135,298.5,135,280.7z M189.4,280.7c0-11.2-9.1-20.2-20.2-20.2c-11.2,0-20.2,9.1-20.2,20.6c0,11.2,9.4,20.2,20.2,20.2
		C180.7,301,189.4,291.9,189.4,280.7z"/>
	<path class="st4" d="M264.4,320.8c-21.6,28.9-97.7,32.8-128,0.3c18.8,14.6,40.8,15.5,64.2,15.9C224,337.1,245.9,336.2,264.4,320.8z
		"/>
	<path class="st4" d="M251.9,281.1c-0.3,11.2-9.4,20.2-20.2,20.2c-11.2,0-20.2-9.8-20.2-20.9c0.3-11.2,9.8-20.2,20.6-19.9
		C243.1,260.9,251.9,269.9,251.9,281.1z M241.8,279.7c2.4,0,4.9-1.4,4.9-4.9c0-4.5-5.2-9.8-10.5-9.8c-3.1,0-5.2,1.4-5.6,4.9
		C230.6,274.5,236.2,279.7,241.8,279.7z"/>
	<path class="st4" d="M189.4,280.7c0,11.2-8.7,20.2-19.9,20.6c-10.8,0.3-20.2-9.1-20.2-20.2c0-11.5,8.7-20.6,20.2-20.6
		C180.3,260.5,189.4,269.6,189.4,280.7z M174.1,265c-3.1,0-5.6,1-5.6,4.5c0,4.9,4.9,9.8,10.1,9.8c3.5,0,5.6-1.4,5.6-4.9
		C184.5,270.3,179,265,174.1,265z"/>
	<path class="st3" d="M241.8,279.7c-5.6,0-11.2-5.2-11.2-9.8c0-3.5,2.1-4.9,5.6-4.9c4.9,0,10.5,4.9,10.5,9.8
		C246.3,278.3,244.2,279.3,241.8,279.7z"/>
	<path class="st3" d="M174.1,265c4.9,0,10.5,5.2,10.1,9.8c-0.3,3.1-2.4,4.9-5.6,4.9c-5.2-0.3-10.1-5.2-10.1-9.8
		C168.5,266.1,170.9,265,174.1,265z"/>
</g>
</svg>
