<?xml version="1.0" encoding="utf-8"?>
<!-- Generator: Adobe Illustrator 22.1.0, SVG Export Plug-In . SVG Version: 6.00 Build 0)  -->
<svg version="1.1" id="Layer_1" xmlns="http://www.w3.org/2000/svg" xmlns:xlink="http://www.w3.org/1999/xlink" x="0px" y="0px"
	 width="400px" height="400px" viewBox="0 0 400 400" style="enable-background:new 0 0 400 400;" xml:space="preserve">
<style type="text/css">
	.st0{fill:#FFFFFF;}
	.st1{fill:#C18936;}
	.st2{fill:#805E2A;}
	.st3{fill:#EECB98;}
	.st4{fill:#FEFEFD;}
	.st5{fill:#AA782E;}
	.st6{fill:#060606;}
</style>
<circle class="st0" cx="200.5" cy="199.6" r="200"/>
<g>
	<path class="st1" d="M153.7,283.6c2.2-11.3,6.6-21.8,15.2-29.5c5.2-4.7,5.1-9.1,3.3-14.6c-0.2-0.6-0.3-1.3-0.4-1.9
		c-1.2-7.3-4.5-11.8-12.6-14c-13-3.4-24.4-10.4-32.8-21.2c-9.3-12-10.5-25.4-6-39.5c2.1-6.4,5-12.5,7.7-18.7
		c0.9-1.9,0.7-2.9-1.1-3.7c-28.3-13-41.7-37.3-50-65.5c-1.1-3.7-2-7.4-2.7-11.2c-0.1-0.5,1.1-2,1.4-1.9c18.6,4.3,37.3,8,53.6,18.7
		c10.7,7,17,17.2,22.3,28.3c2.1,4.4,2,4.4,6,1.5c11.6-8.5,24.3-14.4,38.9-15.4c15.6-1.1,29.5,3.4,42.4,11.8c1.1,0.7,2.2,1.4,3.3,2.1
		c5.9,4,6.2,4.2,8.9-2.2c8.8-20.7,25.7-31.3,46.1-37.5c9.1-2.8,18.5-4.7,27.7-7.1c2.1-0.5,3.3-0.6,2.6,2.3
		c-4.7,19.7-11.5,38.5-24.4,54.6c-7.5,9.4-17.2,15.6-27.5,21c-2.6,1.3-3.7,1.9-1.7,5.3c5.9,10.2,9.8,21.1,9.7,33.1
		c-0.1,12.3-5.2,22.2-14.1,30.3c-8.8,8-19.2,13.1-30.6,16.2c-3.9,1-6.3,2.8-7.1,6.8c-1,4.9-2.5,9.7-3.4,14.7
		c-0.2,1.4,0.4,3.6,1.5,4.5c9.6,8.1,14.9,18.7,17.8,30.6c0.2,0.7,0.6,1.4,0.9,2.1c2.1,4.1,1.8,8.6,1.7,12.8
		c-0.2,10.3-2.5,20.2-7.5,29.4c-2.6,4.7-3.6,5.2-8.9,4.3c-11.1-2.1-21.1,0.4-29.5,8c-2.5,2.2-4.4,2.2-6.9,0
		c-8.5-7.6-18.4-10-29.5-7.9c-5.1,0.9-6,0.5-8.6-4.1c-6.9-12.1-8-25.3-7.1-38.9C152.1,285.7,152.7,284.6,153.7,283.6z"/>
	<path class="st2" d="M153.7,283.6c-2.1,14.9-0.6,29.2,6.7,42.6c1.3,2.4,2.7,3.8,6.2,3c12.1-2.8,23,0,32.3,8.6
		c0.7,0.6,2.8,0.8,3.4,0.3c9.7-9.2,21.1-11.7,33.7-8.7c2.7,0.6,3.7-0.8,4.7-2.5c4.3-7.8,7.4-16.1,7.8-25.1c0.2-6,0-12.1,0-18.1
		c3.9-0.5,7.8-1.6,11.7-1.5c7.8,0.2,12.4,5.5,12.9,13.8c0.5,8.4-1.5,16.3-5,23.9c-1.5,3.3-0.3,3.9,2.5,4.3c10.6,1.7,21,4.5,30.4,9.8
		c5.1,2.8,10,6.1,11.9,12.1l0.1,0.3c-0.3,0.7-0.6,1.3-1,2c-19.9,0.4-39.7,0.1-59.6,0.2c-2.1,0-3-1.2-4-2.7
		c-5.4-8.4-13.2-12.5-23-12.4c-9.3,0.1-16.4,4.4-21.4,12.3c-0.2,0.3-0.4,0.7-0.6,1c-2.1,3.4-3.2,3.4-5.2,0c-2.9-4.9-6.7-8.8-12-11.1
		c-11.8-5.2-25.5-1.5-32.5,9.5c-1.7,2.7-3.5,3.5-6.7,3.5c-18.4-0.2-36.8-0.1-55.2-0.2c-1.3,0-4.3,1.5-3.3-2.3
		c1.9-5.9,6.6-9.1,11.5-11.9c9.3-5.4,19.5-7.9,29.9-10c1.5-0.3,3-0.6,4-0.8c-1.8-7.2-3.6-14-5.2-20.9c-0.3-1.1-0.3-2.4-0.3-3.5
		c-0.3-12.5,6.6-18.6,19.1-16.8C149.6,282.6,151.6,283.1,153.7,283.6z"/>
	<path class="st1" d="M88.6,346.2c0.9,0.6,1.7,1.9,2.6,1.9c19.1,0.1,38.2,0.1,57.2,0c1,0,2.5-0.8,3-1.6c6-10.7,15.4-15.1,27.1-14
		c10,0.9,17.4,6.3,21.5,15.8c0.1,0.2,0.4,0.3,1,0.7c2.3-5.7,6.1-9.9,11.4-13.1c12.1-7.4,30.3-2.8,36.8,9.6c1.2,2.3,2.7,2.8,5,2.8
		c17.6-0.1,35.2,0,52.9,0c1.6,0,3.2,0.2,4.7,0.2c-1.4,0.1-2.9,0.3-4.3,0.3c-17.8,0-35.5,0-53.3,0c-1.6,0-4.7-0.9-2.8,2.9
		c0.2,0.3-0.8,1.6-1.4,1.9c-0.9,0.3-2.1,0.1-3.1,0.1c-31.3,0-62.5,0-93.8,0c-2.3,0-4.3,0.2-3.5-3.2c0.1-0.4-0.9-1.5-1.5-1.6
		c-1.1-0.3-2.4-0.1-3.6-0.1c-17.8,0-35.5,0-53.3,0C90.2,348.6,86.9,350,88.6,346.2z"/>
	<polygon class="st1" points="313,346.4 312.9,346.1 313.1,346.2 	"/>
	<path class="st3" d="M131.9,137.3c-1.9-0.8-3.5-1.3-5.1-2.1c-15.9-8.3-28.1-20.2-34.5-37.3c-3-7.9-5.4-16-8-24
		c-0.6-1.8-0.7-2.8,1.9-2.3c14.1,3.2,28,6.3,40.7,13.9c9.1,5.4,14.2,13.8,19.1,22.6c3.2,5.7,3.7,9.8-2,14.5
		c-4.3,3.5-7.1,8.8-10.6,13.2C132.9,136.5,132.3,136.9,131.9,137.3z"/>
	<path class="st3" d="M318.1,72.3c-2.7,8.2-5,15.5-7.6,22.8c-3.3,9.2-8.5,17.3-14.8,24.7c-5.7,6.7-13.2,10.9-20.9,14.8
		c-5.5,2.8-5.3,2.6-9-2.1c-3.7-4.7-7.6-9.2-11.7-13.5c-1.6-1.6-1.8-2.7-1.1-4.7c7.3-21.4,23.2-32.7,44.2-38.2
		c5.9-1.5,11.8-2.9,17.7-4.3C315.8,71.6,316.7,72,318.1,72.3z"/>
	<path class="st4" d="M138.5,151.5c0-16.8,13-30.1,29.7-30.1c16.6,0,30.1,13.1,30.2,29.3c0.1,17.2-13.2,30.9-30,30.9
		C152,181.6,138.5,168.1,138.5,151.5z"/>
	<path class="st4" d="M263.1,151.4c0,18.7-15.5,30.7-31,30.1c-16.9-0.6-29.5-14.7-28.9-31.9c0.6-16.3,14.8-29.2,32-28.1
		C250.5,122.4,263.3,134.8,263.1,151.4z"/>
	<path class="st5" d="M195.2,324.7c-8.5,0.6-23.4-11.9-27.4-24.7c-0.8-2.5-1.7-5-2.5-7.5c-0.2-0.6,0.1-1.4,0.2-2.1
		c0.6,0.1,1.3,0.1,1.8,0.4c14.3,6.6,29.4,8.1,44.8,5.7c7.2-1.1,14.2-3.7,21.3-5.5c0.8-0.2,1.7-0.2,2.6-0.3c0.1,0.7,0.4,1.6,0.2,2.2
		c-2.2,5.2-4,10.6-6.8,15.3C222.9,318.7,213.2,324,195.2,324.7z"/>
	<path class="st2" d="M200.6,189.7c4.5,1.6,9.1,2.6,13,4.7c5.3,2.8,5.6,8.9,1.2,12.9c-6.5,6.1-21.9,5.9-28.3-0.1
		c-4.5-4.3-4.4-9.6,1.1-12.7C191.5,192.3,196.1,191.3,200.6,189.7z"/>
	<path class="st2" d="M172.7,215.4c19.9,7.3,39.4,8.5,58.9-2.7C222.8,226.7,185,227.8,172.7,215.4z"/>
	<path class="st6" d="M190.4,151.3c0,10.8-8.6,19.5-19.4,19.4c-10.5-0.1-19-8.7-18.9-19.4c0-10.7,8.5-19.2,19.1-19.1
		C181.9,132.2,190.4,140.6,190.4,151.3z"/>
	<path class="st6" d="M230.3,132.2c10.7,0,19.1,8.4,19.2,19.1c0.1,10.6-8.4,19.3-18.9,19.4c-10.7,0.1-19.6-8.7-19.5-19.3
		C211.1,140.8,219.7,132.2,230.3,132.2z"/>
	<path class="st4" d="M179.6,150.2c-4.9-0.3-9.6-5.1-9.2-9.6c0.3-3.4,2.5-4.3,5.5-4.2c4.8,0.3,9.7,5.4,9.3,9.6
		C185,148.8,182.9,150.4,179.6,150.2z"/>
	<path class="st4" d="M234.6,136.4c4.7,0,9.9,4.7,9.8,9.1c0,3.3-2,4.7-5.1,4.7c-4.7,0-10-4.7-9.9-9.1
		C229.5,138,231.4,136.4,234.6,136.4z"/>
</g>
</svg>
