<?xml version="1.0" encoding="utf-8"?>
<!-- Generator: Adobe Illustrator 22.1.0, SVG Export Plug-In . SVG Version: 6.00 Build 0)  -->
<svg version="1.1" id="Layer_1" xmlns="http://www.w3.org/2000/svg" xmlns:xlink="http://www.w3.org/1999/xlink" x="0px" y="0px"
	 width="400px" height="400px" viewBox="0 0 400 400" style="enable-background:new 0 0 400 400;" xml:space="preserve">
<style type="text/css">
	.st0{fill:#FFFFFF;}
	.st1{fill:#8E8E8E;}
	.st2{fill:#6A6A6A;}
	.st3{fill:#BABABA;}
	.st4{fill:#F9F9F9;}
	.st5{fill:#060606;}
</style>
<circle class="st0" cx="200.5" cy="199.6" r="200"/>
<g>
	<path class="st1" d="M170.8,183.3c-7.6-2.4-15.3-4.5-22.7-7.3c-8.5-3.3-16-8.5-22.1-15.4c-10.3-11.7-12.6-25.2-8.6-40
		c3.1-11.5,8.5-21.9,15.6-31.5c1-1.3,1.7-2.9,2.5-4.4c6.2-8.6,14.2-15.4,22.8-21.5c0.4-0.3,0.9-0.4,1.5-0.4
		c3.7-1.8,7.4-3.8,11.2-5.5c20.6-9,40.6-7.5,60.1,3.3c1.5,0.8,3.3,1.3,4.9,1.9c8.8,6.4,17.4,13.2,23.7,22.3c2.9,4.6,6,9.2,8.8,13.9
		c5.7,9.6,9.9,19.7,10.9,30.9c1.6,16.9-5.9,29.6-19.3,39.2c-9.9,7.1-21,11.2-32.7,13.8c-1,0.2-2,0.6-3,0.8c-0.9,1.1-2,1.7-3.3,1.9
		c-13.2,1.9-26.5,2.8-39.8,0.6c-1.9-0.3-3.9-0.5-5.9-0.5C173.5,185.2,171.9,184.8,170.8,183.3z"/>
	<path class="st2" d="M224.4,196.5c12.8-1.8,25.3-4.6,36.6-11.3c10-5.9,17.7-14,22.7-24.4c1.3-2.7,2.3-2.6,4.6-1.3
		c20.9,12.5,34.7,30.9,43.9,53.1c11,26.6,14.3,54.4,12.1,82.9c-0.2,3.3-0.5,6.5-0.9,10.8c-3-3.9-5.5-7.1-8-10.2
		c-9.4-11.9-20-22.6-33.1-30.6c-24.1-14.7-48.9-14.6-74.1-3.2c-1.3,0.6-2.6,1.2-4,1.7c-1.5-1.5-1.3-3.4-1.3-5.2c0-19,0-38.1,0-57.1
		C223.1,199.8,222.9,197.9,224.4,196.5z"/>
	<path class="st2" d="M170.7,263.9c-9.2-3-18.2-6.9-27.6-8.7c-19.1-3.7-36.7,1.2-52.8,11.8c-14.2,9.4-25.5,21.8-35.5,35.4
		c-0.8,1.1-1.6,2.1-2.4,3.1c0,0.1-0.2,0-0.6,0c-2.5-19.6-2.1-39.1,1.3-58.6c3.8-22,11.4-42.6,24.6-60.7
		c7.9-10.8,17.6-19.8,29.2-26.7c2.1-1.2,3.2-1.4,4.5,1.1c9.1,18.3,24.6,28.2,43.9,32.8c5.1,1.2,10.3,2,15.4,3
		c1.5,1.4,1.3,3.4,1.3,5.2c0,19,0,38,0,57C172,260.5,172.2,262.4,170.7,263.9z"/>
	<path class="st1" d="M170.7,263.9c0-22.5,0-44.9,0-67.4c0.1-2.8,0.1-5.7,0.2-8.5c1.6-1.4,3.4-0.9,5.2-0.7
		c14.9,1.8,29.8,1.8,44.7-0.4c1.2-0.2,2.3-0.5,3.4,0.3c0.1,3.1,0.1,6.2,0.2,9.2c0,22.5,0,45,0,67.4c2.1,6.4,4,12.7,3.1,19.6
		c-1,7.7-3.4,14.6-10.1,19.2c-1.2,0.8-2.8,1-4.3,1.5c-0.1-1.3-0.4-2.5-0.4-3.8c-0.1-11.4-0.1-22.8-0.1-34.3c-1.6-1.8-1.2-4-1.2-6
		c0-15.1,0-30.2,0-45.3c0-7.9-2.5-10.4-10.4-10.5c-2.9,0-5.8-0.2-8.7,0.3c-6.1,1-8.4,3.6-8.5,9.8c-0.1,15.2,0,30.5,0,45.7
		c0,2.1,0.3,4.2-1.2,6c0,11.7,0,23.3-0.1,35c0,3.7-0.5,4.1-3.7,2.1c-7.9-4.9-11-12.7-11.1-21.4C167.7,275.9,169.7,269.9,170.7,263.9
		z"/>
	<path class="st3" d="M182.6,266.1c0-17.2,0.2-34.4-0.1-51.5c-0.1-8.4,4.2-10.8,10.4-11.4c3.8-0.4,7.6-0.3,11.4-0.1
		c5.1,0.3,8.2,3.8,8.2,9.1c0,18,0,35.9,0,53.9C202.6,266.1,192.6,266.1,182.6,266.1z"/>
	<path class="st2" d="M259.7,84.7c-2.8-2.7-5.4-5.5-8.3-8.1c-4.6-4.1-9.3-8-13.9-12.1c-0.6-0.6-1-1.4-1.6-2.1
		c8.7-10.7,17.3-21.5,26-32.2c0.3,0.1,0.6,0.2,0.9,0.4C261.8,48.6,260.7,66.6,259.7,84.7z"/>
	<path class="st2" d="M159.7,62.7c-6.5,5.8-13,11.7-19.5,17.6c-1.6,1.4-3.1,2.9-4.7,4.4c-1-18.1-2-36.3-3.1-55.7
		C142,40.9,150.8,51.8,159.7,62.7z"/>
	<path class="st2" d="M224.3,187.2c-5.5,0.8-11.1,2.3-16.6,2.2c-12.3-0.1-24.5-0.9-36.8-1.5c0-1.6-0.1-3.1-0.1-4.7
		c17.8,3.1,35.7,3.5,53.5,0C224.3,184.6,224.3,185.9,224.3,187.2z"/>
	<path class="st4" d="M229.4,144.7c-16.7,0-29.5-13.2-29.5-30.3c0-16,13.4-29.2,29.8-29.3c16-0.1,30,13.8,29.9,29.9
		C259.5,131.6,246.2,144.7,229.4,144.7z"/>
	<path class="st4" d="M195.2,115.2c0,16.8-13.2,29.5-30.4,29.5c-15.9-0.1-28.6-13.3-29.1-29.2c-0.5-15.3,12-30.2,29.2-30.4
		C182.2,85,195.3,98.2,195.2,115.2z"/>
	<path class="st5" d="M137.5,152.7c18.3,14.3,39.4,19.1,61.9,18.9c22.6-0.2,43.4-5.4,61-20.9c-0.5,0.7-1,1.5-1.5,2.1
		c-10.4,11-23.6,16.9-38.2,19.7c-22.6,4.2-44.8,3.1-65.8-6.8c-6.4-3-12.1-7.5-18.1-11.3C136.9,153.9,137.2,153.3,137.5,152.7z"/>
	<path class="st5" d="M245.9,115c0,10.5-8.4,19-19,19.1c-10.5,0.1-19.3-8.7-19.2-19.3c0.1-10.4,8.8-19,19.2-18.9
		C237.4,95.9,245.9,104.5,245.9,115z"/>
	<path class="st5" d="M187.3,115.1c0,10.5-8.6,19-19,18.9c-10.5,0-18.9-8.5-18.9-19c0-10.7,8.6-19.3,19.2-19.2
		C179,96,187.3,104.5,187.3,115.1z"/>
	<path class="st4" d="M240.9,109.7c-0.2,2.5-1.9,4.1-5,4.2c-4.6,0.1-9.9-4.8-9.9-9c0-3.2,2-4.7,5-4.8
		C235.6,99.9,240.8,104.8,240.9,109.7z"/>
	<path class="st4" d="M182.2,110.6c-0.8,0.7-2,2.6-3.7,3.1c-4.7,1.3-10.8-3.8-11-8.7c-0.1-2.7,1-4.2,3.6-4.8
		C175.8,99.1,182.4,104.5,182.2,110.6z"/>
</g>
</svg>
