<?xml version="1.0" encoding="utf-8"?>
<!-- Generator: Adobe Illustrator 22.1.0, SVG Export Plug-In . SVG Version: 6.00 Build 0)  -->
<svg version="1.1" id="Layer_1" xmlns="http://www.w3.org/2000/svg" xmlns:xlink="http://www.w3.org/1999/xlink" x="0px" y="0px"
	 width="400px" height="400px" viewBox="0 0 400 400" style="enable-background:new 0 0 400 400;" xml:space="preserve">
<style type="text/css">
	.st0{fill:#FFFFFF;}
	.st1{fill:#484848;}
	.st2{fill:#8A8A8A;}
	.st3{fill:#030303;}
	.st4{fill:#F9F9F9;}
	.st5{fill:#FDFDFD;}
	.st6{fill:#202020;}
</style>
<circle class="st0" cx="200.5" cy="199.6" r="200"/>
<g>
	<path class="st1" d="M109.3,231c-10.6,11.6-21.2,23.1-31.3,34.2c4.8-14.1,14-26.6,23.8-38.9c-0.5-0.4-0.9-0.9-1.4-1.3
		c-10.3,8.5-20.7,17.1-31,25.6c8.8-16.1,21.7-28.3,35.8-39.4c1.8-1.4,3.5-2.8,5.2-4.2c0.1-0.6-0.4-0.7-0.7-0.9
		C94.3,212.9,79,219.8,62.8,227c16.5-15.3,35-25.9,54.7-34.6c-0.1-0.4-0.2-0.9-0.4-1.3c-6,1.1-12.1,1.8-18,3.4
		c-12.3,3.3-24.4,7-36.7,10.4c-0.8,0.2-1.7,0.1-2.5,0.1c0.6-0.6,1-1.4,1.7-1.8c16.5-11.4,35.2-17.4,54.6-21.7
		c4.6-1,9.2-1.8,13.7-3.1c-22.3-0.9-44.4,0.2-67.2,5.3c12.1-9,37.3-14.1,75.3-16.1c-23.8-6-48-10.1-72.6-12.2
		c25.2-5,50.3-2.9,75.4,1.4c-18.4-9.1-37.2-16.9-57.3-21.1c24.6-1.7,47,5.7,69,15.1c-1.1-4.7-26.3-20.1-57.3-35.7
		c2.3,0.1,4.7,0,6.9,0.5c19.4,4.2,36.8,13.1,53.4,23.7c1.1,0.7,2.1,1.4,3.2,2c0.2,0.1,0.5,0.1,1.2-0.3
		c-13.7-15.4-28.8-29.3-44.5-42.8c1.3,0.5,2.8,0.8,4,1.5c18.2,8.8,34,21,48.6,34.8c1,1,2.1,1.8,3.1,2.8c0.7,0.4,0.5-0.4,0.8-0.6
		c-10.6-17.6-22.5-34.3-36.7-49.3c21.6,12.2,36.4,31.1,50.2,51.1c-3.5-23.3-8.9-46.1-16.3-68.3c3.5,1.3,11.1,15.1,16.6,31.3
		c3.9,11.3,7,22.9,10.7,35.1c0.8-25.1,1.2-49.5,5-73.7c0.5,0,1,0,1.6,0c1.5,24.3,3,48.5,4.5,73.3c5.2-23.9,12.6-46.7,26.4-67
		c-7,22.8-12.5,45.9-16.1,69.5c13.9-20.2,28.8-39.2,51.4-52.5c-7.2,8.7-13.9,16.2-19.9,24.1c-6.1,8.1-11.7,16.6-16.8,25.6
		c16.8-14.5,34-28.3,54.7-37.6c-15,14.4-29.6,28.5-44.2,42.6c0.1,0.5,0.1,1.1,0.9,0.9c14.3-9.1,29-17.6,45.2-22.7
		c7.1-2.2,14.5-3.6,21.9-4.7c-21.6,8.9-40.9,21.5-59.5,35.3c21.8-7.9,43.6-15.4,67.4-13.7c-20,4.6-38.7,12.3-58.1,21.2
		c13.4-1.4,25.8-3,38.3-4c12.6-1,25.1-0.3,37.5,2c-24.2,3.9-48.2,7.7-72.2,11.6c0.1,0.4,0.1,0.8,0.2,1.2c8.5,0.5,17,0.6,25.4,1.5
		c8.5,0.9,17,2.2,25.2,4.3c8.2,2.1,16.2,5.4,24,9.1c-21.9-4-43.8-4.9-66-4.1c24.7,4.8,48.8,10.9,69.6,25.5c-0.1,0.3-0.2,0.7-0.4,1
		c-9.4-2.8-18.8-5.8-28.4-8.2c-9.5-2.4-19.1-4-28.9-5.3c14.6,7.1,28.8,14.6,41.6,24.3c4.4,3.4,8.5,7.2,12.8,10.8l-0.1,0.4l-0.4,0.1
		c-13.5-6.3-27.1-12.7-40.6-19c-1.6-0.8-3.4-1.3-5.1-2c-0.2,0.3-1.1,0.1-0.6,0.9c10.2,9.3,20.6,18.4,30.4,28.1
		c4.4,4.4,7.6,10.1,10.8,15.5c-9.6-7.7-19.2-15.3-28.8-23c-1.3-0.4-2.5-1-3.2-1.9c1,0.8,1.1,2.4,2,3.6c6,9.4,12.2,18.7,18,28.2
		c1.6,2.5,2.3,5.5,3,8.6c-8.9-12.6-19.5-23.5-30.3-34.3c-2.4-0.5-3.2-2.5-4-4.5c-10.9-28.6-30.3-49.4-58-62c-24.1-11-48-9-70.8,4.1
		c-22.6,13.1-39.4,31.5-48.9,56.2C112.6,227.7,111.9,230.1,109.3,231z"/>
	<path class="st2" d="M109.3,231c1.7-3.5,3.3-7,5-10.5c14.5-30.2,36.7-51.9,69.6-60.9c22.7-6.2,43.6-0.6,63.1,11.7
		c19.1,12.1,33.1,28.5,42.7,48.8c1.8,3.9,3.7,7.7,5.5,11.5c-0.1,1.2-0.6,2.5-0.3,3.6c1.6,8,1.3,15.8-1.5,23.5
		c-0.4,1-0.5,2.1-0.7,3.2c-2.1,5.7-5.8,10.5-10.3,14.4c-2,1.7-4,3.5-5.9,5.3c-15.9,11.1-34,16.3-52.9,18.4
		c-21.9,2.4-43.8,1.7-65.3-4.2c-10.7-3-20.7-7.5-30.1-13.5c-6.5-6-13.4-11.7-17.1-20.2c-0.9-5.3-2.2-10.6-2.6-15.9
		c-0.3-4.2,0.8-8.5,1.1-12.8C109.7,232.7,109.4,231.8,109.3,231z"/>
	<path class="st2" d="M271.6,321.4c1.5,3.6,2.9,7.2,4.4,10.8c1.2,2.9,0.4,3.9-2.8,3.8c-11.2-0.2-22.4-0.1-33.6-0.1
		c-35.9,0-71.9,0-107.9,0c-4.5,0-4.9-0.4-3.5-4.8c1.1-3.3,2.5-6.4,3.8-9.7c2.2-4.7,6.2-7.7,10-10.9c9.7-5.9,20.1-8.3,31.3-6.1
		c11.6,2.2,20.7,8.1,26.8,18.3c0.4,0.7,0.8,1.5,1.9,2.2c3.6-6.2,8.3-11.4,14.5-15.2c11.5-7,23.7-7.8,36.3-3.5c2.8,0.9,5.5,2.1,8.2,3
		c3.1,3,6,6.2,9,9.2C270.9,319.4,271.8,320.1,271.6,321.4z"/>
	<path class="st3" d="M142.3,311.8c-3.4,3.2-6.8,6.5-10.3,9.7c-15.3,0-30.5-0.1-45.8,0c-3.4,0-4.3-0.7-3.3-4.2
		c3.9-13,12.8-21,25.4-25.1c3.2-1,4.1-1.9,2.6-5.3c-3.5-8.2-3.8-16.5,0.1-24.8c0.3,0,0.7,0,0.8,0.1c5.4,6.3,10.8,12.6,16.2,18.9
		c1.4,3.6,1.5,7.6,3.1,11.2c2.5,5.5,5.4,10.6,9.5,15C141.7,308.7,143.1,309.9,142.3,311.8z"/>
	<path class="st3" d="M271.6,321.4c-3.7-3.7-7.3-7.5-11-11.2c1.3-2.3,3.5-3.9,5.2-6c4.5-5.8,7.9-12.1,9.1-19.4
		c0.3-1.5,1-2.9,1.5-4.3c5.4-6.2,10.8-12.3,16.2-18.5c4.4,8.5,3.5,17,0.2,25.5c-1,2.5-1.2,3.5,2,4.5c12.9,4,22.1,12.1,26.2,25.4
		c0.9,3.1,0.5,4.3-3.2,4.3C302.3,321.3,286.9,321.4,271.6,321.4z"/>
	<path class="st4" d="M304.3,229.3c-1.6-1.8-3.3-3.5-4.9-5.3c0.2-0.2,0.4-0.5,0.6-0.7c1.8,1.4,3.7,2.8,5.5,4.3
		C305.1,228.1,304.7,228.7,304.3,229.3z"/>
	<path class="st1" d="M339.9,226.5c0.1,0.3,0.2,0.6,0.3,0.9c-0.3-0.1-0.5-0.3-0.8-0.4C339.6,226.8,339.7,226.7,339.9,226.5z"/>
	<path class="st5" d="M102.2,223c0.6,1.5,0.9,1.9,0.8,2c-0.3,0.4-0.8,0.7-1.2,1.1c-0.2-0.3-0.5-0.6-0.4-0.8
		C101.5,224.7,101.8,224.3,102.2,223z"/>
	<path class="st5" d="M232.9,136.4c-0.4,0.1-0.7,0.3-1.1,0.4c-0.1,0-0.2-0.4-0.4-0.6c0.3-0.2,0.7-0.4,1-0.6
		C232.6,135.9,232.8,136.1,232.9,136.4z"/>
	<path class="st5" d="M244.1,141.4c-0.6,0.1-1.2,0.2-1.8,0.3c0.3-0.4,0.6-0.8,0.8-1.2C243.4,140.8,243.7,141.1,244.1,141.4z"/>
	<path class="st5" d="M250.7,150.6c-0.6,0.2-1.1,0.3-1.7,0.5c0.3-0.4,0.7-0.8,1-1.2C250.4,150,250.6,150.2,250.7,150.6z"/>
	<path class="st5" d="M293.1,206.9c-0.4-0.2-0.9-0.4-1.3-0.7c0.6-0.1,1.3-0.1,1.9-0.2C293.5,206.3,293.3,206.6,293.1,206.9z"/>
	<path class="st5" d="M172.1,136.5c0,0.3,0,0.6,0,1c-0.3-0.1-0.5-0.2-0.8-0.4C171.6,136.9,171.8,136.7,172.1,136.5z"/>
	<path class="st5" d="M161.1,141.2c0.1,0.1,0.2,0.2,0.3,0.3c-0.2,0.1-0.4,0.2-0.6,0.3c-0.1,0-0.2-0.2-0.3-0.3
		C160.7,141.4,160.9,141.3,161.1,141.2z"/>
	<path class="st5" d="M250.1,149.8c0.4-0.1,0.9-0.2,1.3-0.3c-0.2,0.3-0.4,0.7-0.7,1C250.5,150.3,250.3,150.1,250.1,149.8z"/>
	<path class="st5" d="M109.7,206.1c0.4,0,0.7,0,1.1-0.1c-0.1,0.3-0.2,0.7-0.3,1C110.2,206.7,110,206.4,109.7,206.1z"/>
	<path class="st1" d="M276.4,280.5c-0.6,11.7-5.9,21.2-14.2,29.1c-0.4,0.3-1,0.4-1.5,0.6c-2-0.6-4-1.1-5.9-1.9
		c-19.1-8.5-41.6-0.9-51.5,17.4c-0.3,0.6-0.7,1.1-1.4,2.3c-5.7-11.5-14.3-19-26.4-21.9c-11.8-2.8-23-0.8-33.2,5.8
		c-2.1-2.7-4.3-5.4-6.2-8.2c-4.5-6.8-8.7-13.7-8.1-22.3c7.1,3.4,14.1,7.3,21.4,10.3c14.6,5.9,30,8,45.7,8.5
		c21.8,0.7,43.2-1.4,63.5-10.1C264.8,287.3,270.5,283.7,276.4,280.5z"/>
	<path class="st4" d="M199.4,219.1c0,17.6-14.3,32-31.6,31.9c-17.8-0.1-31.7-14.4-31.7-32.6c0-17,14.3-31.1,31.4-31.1
		C185.5,187.3,199.4,201.1,199.4,219.1z"/>
	<path class="st4" d="M236.1,187.3c17.3-0.1,31.9,14.3,31.9,31.7c0.1,17.3-14.3,31.9-31.6,32.1c-17.1,0.2-31.9-14.2-32.1-31.1
		C204.2,201.7,218.1,187.4,236.1,187.3z"/>
	<path class="st3" d="M201.6,280.6c-5.3-0.4-10.5-1.7-14.5-6c-4.4-4.9-4.4-11.1,0-15.8c7.1-7.6,21.9-7.8,29.2-0.3
		c5.3,5.5,5.1,12.1-0.7,17.2C211.7,279.1,206.9,280.4,201.6,280.6z"/>
	<path class="st6" d="M141.4,272c19,13.7,40.7,18,63.5,17.7c22.7-0.4,44-5.6,61.7-21.1c0.2,0.3,0.4,0.6,0.6,0.9
		c-1.4,1.4-2.7,2.9-4.1,4.2c-13,11.2-28.5,16.3-45.2,18.4c-18.3,2.3-36.3,0.8-53.8-5.3c-8.8-3.1-17-7.3-23.9-13.7
		C140.1,272.3,140.5,271.9,141.4,272z"/>
	<path class="st1" d="M141.4,272c-0.4,0.4-0.7,0.7-1.1,1.1c-1.2-1.3-2.4-2.6-3.6-3.9c-0.2-0.6,0-0.8,0.6-0.6
		C138.6,269.8,140,270.9,141.4,272z"/>
	<path class="st1" d="M135.5,267c0.6,0.5,1.2,1.1,1.8,1.6c-0.2,0.2-0.4,0.4-0.6,0.6c-0.5-0.6-1-1.2-1.6-1.9
		C135.2,267.3,135.4,267.2,135.5,267z"/>
	<path class="st1" d="M135.1,267.4c-0.1-0.2-0.2-0.4-0.2-0.7c0.2,0.1,0.4,0.2,0.6,0.3C135.4,267.2,135.2,267.3,135.1,267.4z"/>
	<path class="st3" d="M170.8,198.9c11.3,0.1,20.1,8.9,20.1,20.2c0,11.5-9.1,20.4-20.6,20.3c-11.1-0.1-20-9.3-20-20.5
		C150.5,207.7,159.5,198.8,170.8,198.9z"/>
	<path class="st3" d="M233.3,239.4c-11.1,0-20.3-8.9-20.5-20c-0.2-11.2,9-20.4,20.4-20.5c11.2,0,20.4,9,20.4,20.1
		C253.6,230.1,244.3,239.3,233.3,239.4z"/>
	<path class="st4" d="M174.3,203.2c5.6,0,11.3,5.1,11.4,9.6c0.1,2.9-2.3,5.1-5.5,5.1c-5.1,0-10.4-4.9-10.4-9.6
		C169.7,204.8,171.8,203.4,174.3,203.2z"/>
	<path class="st4" d="M248,213.9c-0.1,2.6-2.1,4.1-5.4,4.1c-4.5,0-9.3-4-10.2-8.5c-0.6-3.1,0.6-5.3,3.6-6.1
		C241.2,202,248,207.6,248,213.9z"/>
</g>
</svg>
