<?xml version="1.0" encoding="utf-8"?>
<!-- Generator: Adobe Illustrator 22.1.0, SVG Export Plug-In . SVG Version: 6.00 Build 0)  -->
<svg version="1.1" id="Layer_1" xmlns="http://www.w3.org/2000/svg" xmlns:xlink="http://www.w3.org/1999/xlink" x="0px" y="0px"
	 width="400px" height="400px" viewBox="0 0 400 400" style="enable-background:new 0 0 400 400;" xml:space="preserve">
<style type="text/css">
	.st0{fill:#FFFFFF;}
	.st1{fill:#627F91;}
	.st2{fill:#93B0C0;}
	.st3{fill:#4D6775;}
	.st4{fill:#F8F9F9;}
	.st5{fill:#070606;}
</style>
<circle class="st0" cx="200.5" cy="199.6" r="200"/>
<g>
	<path class="st1" d="M57.1,243.2c-1.6-3-3.3-5.8-4.6-8.9C40.6,206,40.3,177,48.3,147.7c0.8-2.8,2.5-2.7,4.7-2.7
		c16.9,0,33.8,0,50.7-0.2c9.9-0.1,19.8-0.6,29.8-0.9c3.4-1.2,7-1.2,10.5-1.2c33.8,0,67.6,0,101.4,0c4.6,0,9.2,0.1,13.7-0.7
		c2.4-0.4,4.7-0.3,6.9,1.1c14.1,0,28.2,0.1,42.3,0c1.2,0,2.6-0.7,3.7-1.4c15.8-9.4,31.5-18.8,47.7-28.5c-0.3,1-0.4,1.9-0.8,2.7
		c-8.2,15.4-16.3,30.9-24.7,46.3c-1.5,2.7-1.3,4.1,0.6,6.5c11.9,14.6,23.6,29.3,35.4,44c0.5,0.6,0.9,1.4,1.9,2.8
		c-18.2-7.7-35.5-15.1-52.8-22.4c-1,10.4-1,20.7-3.1,30.6c-2.4,11.1-6.6,21.7-10,32.6c-0.7,2.2-1.5,4.5-1.4,6.8
		c0.6,23.8-3.9,46.5-14,68.1c-0.7,1.4-1.5,2.7-1.7,3.2c-2.7-14.7-5.6-29.8-8.4-44.9c-2.2-2.4-2.8-5.5-3.8-8.4
		c-3.6-9.9-9.3-18.5-16.2-26.4c-2.4-2.7-5.3-4.5-8.7-5.9c-18.5-7.5-37.8-12-57.6-14.8c-21.9-3.2-44-3.9-66.1-2.9
		C104.2,232.3,80.3,235.7,57.1,243.2z"/>
	<path class="st2" d="M57.1,243.2c0.8-0.7,1.4-1.7,2.3-2c16.4-5.2,33.2-8.6,50.3-9.7c17.4-1.1,34.9-2.1,52.3-1.7
		c20.2,0.5,40.3,2.9,59.9,8.2c8,2.2,15.8,4.7,23.8,7c8.3,2.4,15.2,6.5,20.4,13.9c6.6,9.4,12.2,19.1,14.6,30.5
		c-20.7,16.8-44.7,25.8-70.7,30c-38.2,6.1-73.1-2.3-105.3-23.3c-1.3-0.9-2.8-1.5-4.3-2.2c-5.8-3.3-10.6-7.8-15.4-12.3
		c-5.4-5-10.7-10.2-15.1-16.2c-0.8-1.5-1.5-3.1-2.4-4.6C64,255,60.6,249.1,57.1,243.2z"/>
	<path class="st3" d="M266,143.2c-41.6,0.3-83.3,0.7-124.9,1c-2.5,0-5-0.2-7.6-0.3c17.3-11.4,34.3-23.4,52.1-34.1
		c24.1-14.5,49.8-25.7,76.4-34.7c0.8-0.3,1.7-0.5,2.6-0.7c-1.2,7.2-2.8,14.1-3.5,21.1C259.5,111.7,261.4,127.6,266,143.2z"/>
	<path class="st3" d="M69.9,265.5c0.8,0.5,1.8,0.8,2.5,1.5c8.7,8.2,17.3,16.5,25.9,24.7c0.7,0.7,1.3,1.5,2,2.3
		c-2.5,13.9-3.1,27.9-2.2,42.2C82.3,315.2,72.9,291.6,69.9,265.5z"/>
	<path class="st4" d="M109.9,219.9c-18.6-0.1-33.3-15.2-33.2-33.9c0.1-18.2,15.3-33.4,33.5-33.4c18.7,0,34.2,15.4,34,33.9
		C144,205.1,128.8,220,109.9,219.9z"/>
	<path class="st4" d="M182.9,219.9c-18.6,0-33.8-15-33.9-33.4c0-18.5,15.1-33.8,33.5-33.9c18.6-0.1,34,15,34,33.3
		C216.6,204.9,201.8,219.9,182.9,219.9z"/>
	<path class="st3" d="M50.1,168.2c1.3-4.8,2.6-9.6,4-14.4c0.3-0.9,1.5-1.4,2.3-2.1c0.2,1,0.6,2,0.5,2.9c-1.1,5.9-2.2,11.9-3.4,17.8
		c-0.2,0.9-1,1.6-1.5,2.5c-0.4-0.8-1-1.6-1.1-2.5c-0.2-1.3,0-2.7,0-4C50.6,168.4,50.4,168.3,50.1,168.2z"/>
	<path class="st5" d="M154.2,267.9c0.3,0,0.7,0,1,0c3.7-1.8,7.6-1.4,11.5-0.9c0.3,0,0.7,0,1,0c3.3-1.8,6.9-2.4,10.6-1.8
		c0.6-0.1,1.2-0.2,1.8-0.3c2.8-2.8,6.4-2.8,10-3c0.5-0.2,1.1-0.4,1.6-0.7c2.6-2.8,6.1-3.7,9.7-4.2c6.7-1.6,11-6.8,17.1-11.2
		c-21.2,28.4-95.6,38.1-133.7,4c3.9,2.1,7.8,4.3,11.7,6.4c4-0.1,6.9,2.1,9.8,4.5c0.6,0.3,1.2,0.6,1.7,1c3.6-0.4,6.9,0.1,9.8,2.5
		c0.5,0.1,0.9,0.2,1.4,0.2c3.5,0.4,7.4-1,10.2,2.3c0.9,0.1,1.8,0.2,2.7,0.3c3.4-1.3,6.6-0.6,9.7,0.8c0.6,0,1.3,0,1.9,0.1
		C147.1,265.9,150.6,266.3,154.2,267.9z"/>
	<path class="st4" d="M106.1,260.8c-3.3-1.5-6.5-3-9.8-4.5c2.1-1.8,4.1-3.7,6.3-5.3c1.8-1.4,2.5-0.5,2.6,1.5
		C105.4,255.3,105.8,258,106.1,260.8z"/>
	<path class="st4" d="M117.6,264.2c-3.3-0.8-6.5-1.7-9.8-2.5c1.9-2.1,3.8-4.3,5.9-6.2c0.2-0.2,2.3,0.7,2.5,1.3
		C117,259.2,117.2,261.8,117.6,264.2z"/>
	<path class="st4" d="M178.2,265.2c-3.5,0.6-7.1,1.2-10.6,1.8c0.8-2.5,1.7-5,2.4-7.5c0.6-2.3,1.6-2.2,2.9-0.6
		C174.7,261,176.5,263.1,178.2,265.2z"/>
	<path class="st4" d="M141.7,267.8c-3.2-0.3-6.5-0.5-9.7-0.8c1.6-2.8,3.3-5.6,5.6-9.6C139.3,261.7,140.5,264.8,141.7,267.8z"/>
	<path class="st4" d="M166.6,267c-3.8,0.3-7.6,0.6-11.5,0.9c0.8-1.2,1.6-2.4,2.3-3.7c0.9-1.6,1.8-3.1,2.7-4.7
		c1.2,1.4,2.5,2.8,3.7,4.2C164.8,264.7,165.7,265.9,166.6,267z"/>
	<path class="st4" d="M190,262c-3.3,1-6.7,2-10,3c0.8-3,1.5-6.1,2.3-9.1C184.9,257.9,187.5,259.9,190,262z"/>
	<path class="st4" d="M201.3,257.1c-3.2,1.4-6.4,2.8-9.7,4.2c0.3-2.3,0.7-4.6,0.8-7c0.1-3.1,1.6-2.6,3.3-1.4
		C197.7,254.2,199.5,255.7,201.3,257.1z"/>
	<path class="st4" d="M129.2,266.8c-3.4-0.8-6.8-1.5-10.2-2.3c1.6-1.9,3.3-3.7,4.9-5.6c1.6-2,2.6-1.5,3.3,0.7
		C128,261.9,128.6,264.4,129.2,266.8z"/>
	<path class="st4" d="M154.2,267.9c-3.5,0-7.1,0-10.6,0c1.6-2.8,3.3-5.7,5.1-9C150.8,262.3,152.5,265.1,154.2,267.9z"/>
	<path class="st5" d="M135,186.6c-0.4,12.1-10,21.5-21.7,21.3c-12.1-0.2-21.7-10.2-21.4-22.1c0.3-11.9,10.6-21.6,22.4-21.1
		C126,165.2,135.4,175.2,135,186.6z"/>
	<path class="st5" d="M201.3,186.2c0.1,11.8-9.5,21.5-21.4,21.7c-11.9,0.2-21.8-9.6-21.8-21.6c0-11.7,9.8-21.6,21.5-21.5
		C191.4,164.7,201.3,174.5,201.3,186.2z"/>
	<path class="st4" d="M129.2,180.4c-0.2,2.6-1.9,4.5-5.3,4.7c-4.9,0.3-10.8-4.4-11.4-9.4c-0.4-3.2,1-5.4,4.4-6.1
		C122.2,168.6,129.2,174.3,129.2,180.4z"/>
	<path class="st4" d="M195.4,181.5c-0.9,0.8-2.4,3-4.4,3.4c-5.4,1.3-12.2-4.6-12.2-10.1c0-3,1.5-4.7,4.4-5.2
		C188.7,168.6,195.4,174.3,195.4,181.5z"/>
</g>
</svg>
