<?xml version="1.0" encoding="utf-8"?>
<!-- Generator: Adobe Illustrator 22.1.0, SVG Export Plug-In . SVG Version: 6.00 Build 0)  -->
<svg version="1.1" id="Layer_1" xmlns="http://www.w3.org/2000/svg" xmlns:xlink="http://www.w3.org/1999/xlink" x="0px" y="0px"
	 width="400px" height="400px" viewBox="0 0 400 400" style="enable-background:new 0 0 400 400;" xml:space="preserve">
<style type="text/css">
	.st0{fill:#FFFFFF;}
	.st1{fill:#BE854F;}
	.st2{fill:#E8CCAE;}
	.st3{fill:#745233;}
	.st4{fill:#FAF9F6;}
	.st5{fill:#060606;}
</style>
<circle class="st0" cx="200.5" cy="199.6" r="200"/>
<g>
	<path class="st1" d="M142.1,221.7c-3.7-1.5-7.5-3.1-11.2-4.6c-17.7-7.3-33.2-17.2-43.2-34.3c-0.6-1-3.5-1.9-4.6-1.4
		c-9.7,5.1-19,4.8-27.8-1.6c-8.9-6.5-11.9-15.6-11-26.4c1.5-18.9,21-31,37.1-22.4c0.8,0.4,3.5-0.9,3.8-1.9
		c8.1-23.7,21.9-44.3,40.4-60.4c35.6-31.1,78.8-43.3,125.7-12c26.4,17.6,44.9,41.7,55.9,71.6c1,2.7,1.8,4.1,5.1,2.6
		c18.8-9,38.7,7.5,36.5,28.8c-2.2,21.4-24,31.5-39,21.4c-3.5-2.4-4,1-5.2,2.8c-12.9,19.5-31.5,30.6-53.6,36.7
		c-1.7,2.5-3.9,2.8-6.4,1.5c-1.4-2.8,0.8-4.5,2.1-6.3c2.5-3.5,5-7,6.5-11c3.5-9.1,1.2-16-7.4-20.7c-7.4-4.1-15.7-5.7-24-6.6
		c-2.8-0.3-5.6-0.4-8.2-1.6c-12.3-7.6-23.7-7.4-34.9,0.7c-7.4,1.3-15.1,1.2-22.3,3.9c-0.7,0.3-1.4,0.4-2.1,0.6
		c-16.6,5.4-20.4,17.4-10.3,31.8c2.2,3.1,6.6,5.1,5.7,10C147,224.1,144.5,223.4,142.1,221.7z"/>
	<path class="st1" d="M252.3,228.4c1.4,7.7,3.6,15.4,4.1,23.2c0.5,9.7-0.5,19.5-0.6,29.3c0,1.7,0.7,3.4,1.1,5.1
		c-1.2,4.9-2.2,9.7-3.6,14.5c-0.7,2.4-1.1,5.1-3.9,6.3c-2.5,0-2.9-1.7-3.3-3.6c-0.8,7.3-3.1,14.3-3.9,21.6c0,5.2,0.7,10.3,0.6,15.4
		c-0.1,2.8-0.5,5.5-2.6,7.6c-2.3,4.1-4.1,8.8-7.1,12.3c-9,10.5-21.6,8.2-27.7-4.6c-4.3-4.4-3.8-9.8-3-15.2c0.6-4.1,1.6-7.8-1.6-11.5
		c-1.7-2-0.6-4.6,0.8-6.7c2.7-4,6.6-6.6,11.2-7.7c3.5-0.9,5.3-2.7,6.1-6.2c2.2-9.6,4-19.3,6.5-28.8c1-4-0.3-6.5-3.7-8.9
		c-15.3-10.6-37.3-10.1-51.6,1.3c-2,1.6-2.6,3.4-2.1,5.8c2.1,10.6,4.6,21,6.8,31.5c0.6,3,2.6,4.2,5.3,5c4.7,1.5,9,3.5,11.7,8
		c1.6,2.6,2.3,5.3,0.2,7.7c-2,2.3-1.4,4.6-1.1,7.3c0.7,6.3,2.4,13-2.8,18.5c-5.4,12.9-17.9,15.3-27.3,4.9c-3.2-3.6-5.1-8.5-7.6-12.7
		c-2.3-2-2.5-4.8-2.7-7.6c-0.3-5,0.9-10,0.2-14.9c0.5-6.5-1.7-12.7-2.9-18.9c-1.8-0.3-2.2,2.1-3.9,1.6c-2.7-1.4-2.6-4.3-3.4-6.6
		c-1.6-5.1-2.7-10.2-4.2-15.3c0.3-2.8,1.2-5.6,0.9-8.3c-1.7-14.7-0.8-29.2,1.9-43.6c0.4-2,1.3-3.8,1.9-5.7c5.4-2,9.8,0.4,13.8,3.5
		c11.3,8.7,23.6,14.6,38.1,15.4c12.4,0.6,24-1.9,34.7-8c4-2.3,7.7-5.2,11.5-7.9C242.9,228.6,247.2,226.3,252.3,228.4z"/>
	<path class="st2" d="M187.9,355.6c2.5-7,2.9-14,0.6-21.2c-0.4-1.1,0.4-3.2,1.3-4c3-2.5,3.3-5.3,0.6-7.5c-3.6-2.9-7.6-5.9-11.9-7.3
		c-3.3-1.1-4.5-2.6-5.2-5.5c-2.4-11-4.9-22-7-33.1c-0.3-1.7,0.4-4.6,1.7-5.6c18-13.3,38.6-13.9,56.9-0.3c1.5,1.1,2.7,4.1,2.3,6
		c-2.1,11.1-4.8,22-7.2,33c-0.7,3.2-2,4.6-5.6,5.5c-3.9,0.9-7.6,3.6-10.8,6.3c-2.9,2.5-4,5.8,0.2,8.8c0.9,0.6,1.1,2.9,0.8,4.1
		c-1.6,7-2,13.9,0.7,20.7C199.4,355.6,193.7,355.6,187.9,355.6z"/>
	<path class="st3" d="M248.7,306.3c1.9-5.4,3.7-10.8,5.7-16.2c0.6-1.5,1.7-2.8,2.5-4.2c8.2,1.9,13.3,8,14,17.8
		c0.3,4.7-0.8,9.6-0.9,14.4c0,1.5,0.6,3.9,1.7,4.5c8.1,4.4,12.3,11.5,14.6,20.1c1.1,3.9,0,4.9-3.8,4.9c-14.1,0-28.2,0.2-42.3,0.3
		c0-7.9,0-15.8,0-23.7c3.6-3.6,4.6-8.4,6.6-12.8C247.4,309.7,247.3,307.7,248.7,306.3z"/>
	<path class="st3" d="M136.2,286c1.1,2.1,2.5,4.1,3.3,6.3c1.8,5,3.4,10.1,5.1,15.2c3.3,5.3,4.6,11.4,7.4,16.9c0,4.3-0.2,8.7,0,13
		c0.1,3.5,0.7,6.9,1.1,10.4c-14.3-0.1-28.6-0.3-42.8-0.2c-3.3,0-4.1-0.8-3.3-4.2c2.1-9,6.5-16,14.6-20.6c1.2-0.7,1.9-3,1.9-4.6
		c0-6-1.1-12.2-0.3-18.1C124.2,292.9,128.2,287.3,136.2,286z"/>
	<path class="st3" d="M252.3,228.4c-4.8,1.9-10.4,3-14.4,6c-12.4,9.3-26.3,14.7-41.6,14.7c-15.4,0-29-5.9-41.5-15
		c-3.9-2.9-9.2-3.9-13.9-5.7c0.4-2.2,0.8-4.4,1.2-6.6c2.6,0.3,5.1,0.6,7.7,0.9c3-1.4,4.4,1.2,6.2,2.6c17.2,13.3,36.1,18.7,57.5,12.6
		c8.5-2.4,16.1-6.6,23.1-11.9c2.4-1.8,4.2-4.9,8-4.2c2.2-0.4,4.4-0.8,6.6-1.1C251.5,223.2,251.9,225.8,252.3,228.4z"/>
	<path class="st2" d="M244.5,221.8c-5.9,4.1-11.5,8.8-17.8,12.2c-23.4,12.8-51,9.8-71.6-7.4c-1.7-1.4-3.5-2.6-5.3-3.9
		c-2.8-3.7-5.9-7.1-8.2-11c-7.9-13.4-6.4-25.5,10-30.8c8.6-2.8,18-3.3,27.1-4.8c1.9,4.3,3.4,9.1,8.8,10.4c7.2,1.8,14.2,1.5,21.1-1.5
		c4.6-1.9,4.3-6.4,5.8-10c9,1.8,18.1,3.1,27,5.6c4.1,1.1,8.2,3.7,11.2,6.8c5.1,5.3,5.4,12.1,2,18.5
		C251.5,211.3,247.9,216.5,244.5,221.8z"/>
	<path class="st4" d="M241.8,86.7c23.2-0.1,42.1,18.6,42.4,41.9c0.3,22.8-19.6,42.8-42.5,42.6c-23.1-0.2-41.8-19.2-41.8-42.4
		C199.9,105.4,218.4,86.8,241.8,86.7z"/>
	<path class="st4" d="M193.2,128.9c-0.1,23.2-18.9,42.2-41.9,42.3c-23.1,0-41.5-19-42-42.2c-0.5-22.2,18.4-42.6,42.2-42.3
		C174.9,87,193.3,105.4,193.2,128.9z"/>
	<path class="st2" d="M73.4,176.1c-8.1,0.4-13.4-3.9-16.5-10.8c-3.5-7.9-2.5-15.5,3.3-22.2c4.5-5.3,10.2-7,16.9-5.7
		c3.6,0.7,4.7,2.4,4.6,6.1c0,9,0.4,17.9,0.9,26.9C82.9,174.5,80.6,176.1,73.4,176.1z"/>
	<path class="st2" d="M318.9,176.1c-0.6-0.1-2.5-0.2-4.3-0.6c-3.4-0.8-4.3-2.2-3.8-6.2c1-8.5,0.7-17.2,0.6-25.9c0-3,0.3-4.8,3.6-5.7
		c6.3-1.8,11.8-0.3,16.5,3.9c5.9,5.2,7.7,12.1,6.1,19.7C335.6,170.6,328.9,176.1,318.9,176.1z"/>
	<path class="st5" d="M214.3,175c1,7.2-0.4,9.8-7.5,12.2c-8.1,2.7-16.1,3.1-23.8-1.4c-3.8-2.2-5.6-5.3-4.4-9.8
		C187.1,166.5,202.6,166.1,214.3,175z"/>
	<path class="st2" d="M248.7,306.3c-1,6.8-2.4,13.5-8.6,17.7c1.8-7.4,3.7-14.9,5.6-22.6C246.8,303.4,247.7,304.9,248.7,306.3z"/>
	<path class="st2" d="M151.9,324.3c-2.5-5.6-4.9-11.3-7.4-16.9c0.8-1.7,1.7-3.4,2.5-5.1c0.5,0,1,0,1.5,0.1
		C149.7,309.7,150.8,317,151.9,324.3z"/>
	<path class="st5" d="M236.7,210.2c-15.5,19.3-60.9,19-77.7,2.5C185.1,223.4,210.9,224.7,236.7,210.2z"/>
	<path class="st5" d="M238.5,102.1c15,0.2,26.4,12,26.3,27.2c-0.1,15-12.5,26.9-27.7,26.5c-14.6-0.3-26.5-12.9-26.2-27.6
		C211.4,113.4,223.5,101.8,238.5,102.1z"/>
	<path class="st5" d="M182,129.1c-0.1,14.8-12.1,26.7-27,26.7c-14.8,0-26.7-12-26.7-27c0-15.2,11.9-27,27.2-26.8
		C170.6,102.2,182.1,114,182,129.1z"/>
	<path class="st4" d="M257.7,122.8c-1.2,0.9-3.2,3.6-5.6,4.2c-6.6,1.6-15.4-5.3-15.2-12c0.1-2.4,2.7-6,4.9-6.7
		C248.5,106,257.7,113.7,257.7,122.8z"/>
	<path class="st4" d="M174.9,122.6c-1,1-2.6,3.5-4.8,4.3c-7,2.4-16.7-5.2-15.9-12.6c0.2-2.3,2.8-5.4,4.9-6.1
		C165.8,106.2,175.1,114,174.9,122.6z"/>
</g>
</svg>
