<?xml version="1.0" encoding="utf-8"?>
<!-- Generator: Adobe Illustrator 22.1.0, SVG Export Plug-In . SVG Version: 6.00 Build 0)  -->
<svg version="1.1" id="Layer_1" xmlns="http://www.w3.org/2000/svg" xmlns:xlink="http://www.w3.org/1999/xlink" x="0px" y="0px"
	 width="400px" height="400px" viewBox="0 0 400 400" style="enable-background:new 0 0 400 400;" xml:space="preserve">
<style type="text/css">
	.st0{fill:#FFFFFF;}
	.st1{fill:#037ABD;}
	.st2{fill:#47A5D9;}
	.st3{fill:#1F668E;}
	.st4{fill:#F6FAFA;}
	.st5{fill:#060606;}
</style>
<circle class="st0" cx="200.3" cy="200.3" r="200"/>
<g>
	<path class="st1" d="M213.3,303.5l16.7-6c8.9-0.8,16.5-4.5,24.5-7.8c10.8-4.5,20.4-11,29.8-17.9c2.1-1.6,1.9-5.2,5.1-5.9
		c3.3-2.4,5.6-8.7,7.9-11.9c1.4-2,2.7-2.6,5.1-1.7c12.7,4.5,25.9,6.6,39.3,7c10.5,0.3,21-0.1,32.1-2.6c-2.6-1.7-4.3-3.1-6.6-3.6
		c-8.1-2.1-15.2-6.4-21.9-11.2c-14.3-10.3-17.6-24.8-8.7-36.8c4.6-6.1,10.5-10.6,17.2-14c5.7-2.9,11.6-5.5,18.6-8.8
		c-4.9-1.2-8.4-2.5-11.9-2.7c-20.1-1.3-40-0.4-59,6.8c-3.1,1.2-4.2,0.1-5.5-2.4c-3.9-7.8-8.5-15.2-14-21.9c-2.4-2.9-2.3-5.3,0.2-7.6
		c3-2.7,6.2-5.2,9.9-8.4c-9.2-3.6-16.7-4.9-24.4-4.4c-4.4,0.3-4.5-1.3-3.1-4.7c2.3-5.8,5.2-11.3,9.1-16.2c0.9-1.2,2.8-2.3,2.1-3.8
		c-0.7-1.4-2.7-1.2-4.3-1.3c-10.8-0.4-21.5-0.1-32,2.9c-1.8,0.5-3.5,1.5-5.5,0.4c-4-2.2-7.9-4.3-12-6.3c-1.3-0.6-1.9-1.4-1.7-2.8
		c1.2-5.9,2-11.9,3.7-17.7c3.3-11.1,7.7-21.8,12.6-32.2c-1.8-1.1-3.2-0.7-4.5-0.5c-18.4,2.1-36.1,6.7-53.4,13.3
		c-19.5,7.5-38.1,16.6-53.9,30.7c-2.3,2-4.6,3.6-7.4,4.5c-12.5,3.9-24.2,9.7-34.9,17.2c-12,8.3-23.1,17.6-30.9,30.2
		c7-0.1,12.7-4.2,19.2-6.1c15.1-4.6,30.4-7.7,46.2-8.6c20.5-1.2,40.8,0.1,60.7,5.4c15.8,4.2,30.8,10.1,44.5,19.4
		c11.8,8,21.9,17.5,29,29.9c13.3,23.4,8.1,50.5-9.9,69.4c-20.1,21.2-45.4,32.3-73.6,37.8c-8,1.6-16,5.7-24.1,6.2
		c3.7,1.7,7.5,0.7,11.3,0.7c12.1,0.1,24.4,1.3,36.1-2.2c5.6-1.7,11.1-1.8,16.7-1.8C210,305.6,211,302.9,213.3,303.5"/>
	<path class="st2" d="M52.3,152.7c7.2-0.1,13-4.3,19.6-6.3c15.5-4.8,31.1-7.9,47.3-8.9c21-1.3,41.7,0.1,62,5.6
		c16.1,4.4,31.5,10.4,45.5,20c12.1,8.3,22.4,18.1,29.6,30.9c13.6,24.1,8.3,52.1-10.1,71.7c-20.6,21.9-46.4,33.3-75.3,39
		c-8.2,1.6-16.4,2.8-24.7,3.3c-1.8,0.2-3.5,0.5-5.3,0.7c-0.3-0.2-0.7-0.4-1-0.6c-1.4-0.2-2.8-0.4-3.8,1c-6.9-2.8-14.3-2.1-21.4-3.4
		c-19.5-3.4-38.5-8.2-55.6-18.7c-21.3-13.1-32.8-31.6-32.4-57.6c0.5-26.7,7.8-51,22.3-73.3C49.9,154.7,51,153.6,52.3,152.7z
		 M212.5,203.4c0-22.9-17.8-41.2-40.3-41c-22.7,0.2-40.1,17.6-40.4,40.9c-0.2,22.4,18.6,40.8,40.9,40.8
		C194.3,244,212.4,225.5,212.5,203.4z M85.2,162.3c-22.1,0.1-40.2,18.4-40.3,40.8c-0.1,22.5,18.4,41,40.8,40.9
		c21.6-0.1,40-18.7,40.1-40.6C125.9,180.8,107.6,162.3,85.2,162.3z"/>
	<path class="st3" d="M138.5,306.6c1.7-0.2,3.5-0.4,5.2-0.7c3.7,1.7,7.5,0.7,11.3,0.7c12.1,0.1,24.4,1.3,36.1-2.2
		c5.6-1.7,11.1-1.8,16.7-1.8c2.3,0,3-0.2,5.3,0.4c-0.5,14.2,4.5,24.7,10,38.2c-9.4,0-18-2-26.5-4.2c-19.8-5-38.8-12.1-55.6-24
		c-2.5-1.8-4.7-4-7.1-6.1c1-1.3,2.4-1.1,3.7-0.9C137.8,306.2,138.1,306.4,138.5,306.6z"/>
	<path class="st3" d="M230,294.5c8.9-0.8,16.5-4.5,24.5-7.8c10.8-4.5,20.4-11,29.8-17.9c2.1-1.6,1.9-5.2,5.1-5.9
		c-1.7,1.9-1,3.7,0.1,5.7c2.2,3.9,5.4,7.1,8.5,10.9c-8.2,2.5-16.1,2.7-24,1.5c-3.5-0.5-4.2,0-3.3,3.5c1.5,6.1,4,11.8,7,17.3
		c0.8,1.5,2.2,2.7,2.2,4.9c-14,0.8-27.3-1.8-39.8-7.9"/>
	<path class="st4" d="M140.2,204.2c-0.1,14.1,10.8,25.3,24.8,25.3c14,0.1,25.4-10.9,25.5-24.7c0.2-14.2-11-25.6-25.1-25.6
		C151.3,179.2,140.3,190.1,140.2,204.2z"/>
	<path class="st4" d="M87.6,179.3c-13.9,0-25.2,11.4-25.1,25.2c0,13.8,11.4,25,25.3,25c13.9,0,25.3-11.2,25.4-24.9
		C113.3,190.7,101.7,179.2,87.6,179.3z"/>
	<path class="st5" d="M203,259.7c-2.7,4.6-6.8,7.5-11.2,9.9c-23.2,13-48.1,15.8-73.8,13.8c-19.6-1.6-38.2-7-55-18.3
		c-0.7-0.5-1.5-1-2.2-1.5c-1.2-1-2.4-2-3.7-3.1c1.9-1.8,3.3-0.4,4.7,0.5c25.3,16.5,53.3,19,82.2,17.2c17.1-1,33.6-4.3,48.9-12.7
		C196.3,263.6,199.2,260.7,203,259.7C203.1,259.8,203,259.7,203,259.7z"/>
	<path class="st1" d="M138.5,306.6c-0.3-0.2-0.7-0.4-1-0.6C137.8,306.2,138.1,306.4,138.5,306.6z"/>
	<path class="st5" d="M140.2,204.2c0.1-14.1,11.1-24.9,25.2-24.9c14.2,0,25.3,11.4,25.1,25.6c-0.1,13.8-11.5,24.8-25.5,24.7
		C151,229.4,140.2,218.3,140.2,204.2z M183.8,197c0.2-6.3-7.9-13.4-14.2-12.4c-3.2,0.6-5.2,2.3-5.3,6c-0.1,6.4,7.8,13.5,14,12.3
		C181.6,202.4,183.6,200.6,183.8,197z"/>
	<path class="st5" d="M87.6,179.3c14.1,0,25.8,11.4,25.6,25.3c-0.1,13.7-11.6,24.9-25.4,24.9c-13.9,0-25.3-11.2-25.3-25
		C62.4,190.7,73.7,179.3,87.6,179.3z M93.4,184.6c-3.9-0.1-6.9,2.5-6.9,6.2c-0.1,5.5,6.9,12.4,12.8,12.3c3.8-0.1,6.7-1.7,6.8-6.2
		C106.2,191.2,99.5,184.8,93.4,184.6z"/>
	<path class="st4" d="M183.8,197c-0.2,3.5-2.2,5.4-5.5,6c-6.3,1.2-14.2-5.9-14-12.3c0.1-3.6,2.1-5.4,5.3-6
		C175.9,183.6,184,190.8,183.8,197z"/>
	<path class="st4" d="M93.4,184.6c6.1,0.1,12.8,6.6,12.7,12.3c-0.1,4.5-3,6.1-6.8,6.2c-6,0.1-12.9-6.8-12.8-12.3
		C86.5,187.2,89.4,184.5,93.4,184.6z"/>
</g>
</svg>
