<?xml version="1.0" encoding="utf-8"?>
<!-- Generator: Adobe Illustrator 22.1.0, SVG Export Plug-In . SVG Version: 6.00 Build 0)  -->
<svg version="1.1" id="Layer_1" xmlns="http://www.w3.org/2000/svg" xmlns:xlink="http://www.w3.org/1999/xlink" x="0px" y="0px"
	 width="400px" height="400px" viewBox="0 0 400 400" style="enable-background:new 0 0 400 400;" xml:space="preserve">
<style type="text/css">
	.st0{fill:#FFFFFF;}
	.st1{fill:#ED7BB4;}
	.st2{fill:#92456B;}
	.st3{fill:#FBBF43;}
	.st4{fill:#FAF8FA;}
	.st5{fill:#060606;}
	.st6{fill:#FEFEFE;}
</style>
<circle class="st0" cx="200.5" cy="199.6" r="200"/>
<g>
	<path class="st1" d="M191.9,318.8c-6.6-3.2-13.3-6.2-19.8-9.6c-1.9-1-3.3-3.2-4.9-4.9c-1.4-0.2-2.7-0.7-3.7-1.8
		c-10.2-11.8-13.2-26.8-8-41.5c0.3-0.7,0.9-1.3,1.4-1.9c0-0.6-0.4-1.4-0.1-1.7c6.8-7.4,12.4-16.2,22.1-20.2
		c7.5-3.1,10.7-9.1,11.9-16.3c1.6-9.8-0.7-19.1-5.6-27.6c-1-1.7-4.1-2.6-6.3-3c-18.2-3-35.6-8.3-50.4-19.7
		c-18.2-14-26-32.4-19.6-54.9c11.1-38.5,34.8-66.6,73-80.6c20.6-7.6,41.1-4.9,60.2,5.5c30.6,16.7,50.7,42.1,59.9,75.8
		c5.9,21.6-2.7,42.7-21.2,55.2c-15.3,10.4-32.2,16.1-50.4,18.7c-1.7,0.2-4,1.1-4.7,2.4c-6.1,11.3-9.4,23.1-3.4,35.5
		c1.5,3,4.3,5.9,7.2,7.5c9.1,4.9,16.6,11.2,21.9,20.1c1.1,1.8,2,3.7,2.9,5.6c3.7,5.4,3.8,11.7,3,17.7c-1.3,9.8-4.5,18.9-12.6,25.4
		c-5.3,3.5-10.6,6.9-15.9,10.4c-1.7,1.5-3.8,2.3-5.9,3.1c-6.1,2.1-12.3,3.4-18.8,2.6c-2.5-0.9-4.9-0.5-7.3,0.3
		C195.1,320.5,193.3,320,191.9,318.8z"/>
	<path class="st2" d="M156.9,259c-2.2,9.2-4.3,18.3-0.9,27.7c2.4,6.7,5.4,13,11.2,17.5c-5.6,2.4-11.1,4.9-16.7,7.2
		c-3.3,1.4-5.1-0.2-5.7-3.3c-3.6-17.7-0.2-33.9,10.4-48.6C155.5,259.2,156.3,259.2,156.9,259z"/>
	<path class="st2" d="M244.7,304.6c3.2-5.8,6.9-11.4,9.5-17.5c3-7.1,3-14.6,0.5-22c-0.4-1.1-0.3-2.5-0.4-3.7
		c1.7,1.5,3.8,2.6,4.9,4.4c7.4,12.4,9.3,25.9,6.9,40c-1,5.4-3,6.8-8.3,5C253.3,309.3,249.1,306.7,244.7,304.6z"/>
	<path class="st3" d="M196.7,320.4c2.2-1.2,4.4-2.9,6.7-0.2c1.2,1.5,1.6,3.3,2.1,5c-1,1.6-0.9,3.5-1.4,5.2c-0.1,6.9-0.6,13.8,0,20.6
		c0.2,2,3.8,3.6,5.8,5.4c0.9,0.9,1.8,1.8,2.7,2.8c-1.5,0.2-3,0.6-4.4,0.5c-1.2-0.1-2.3-0.9-3.5-1.3c-2.3-0.8-4-0.4-4.5,2.3
		c0,0.1-0.1,0.3-0.2,0.4c-1.5,1.3-3,2.6-4.5,3.9c-0.4-1.7-0.9-3.5-1.3-5.2c0.1-0.5,0.3-1-0.5-0.7c-3.5,0.6-7.1,1.2-10.6,1.8
		c-0.2-0.7-0.4-1.4-0.6-2c3.6-1.4,7.2-3,10.9-4.1c3.1-1,4.6-2.5,4.5-6c-0.3-6.6-0.2-13.2-0.3-19.8
		C197.6,326.1,194.9,323.4,196.7,320.4z"/>
	<path class="st2" d="M204.1,330.4c-0.7-2.1-2.1-4.3,1.3-5.3c4.2-1.7,7.9,0.6,11.8,1.4c3.5,0.6,5,0,4.8-3.7c-0.1-2-0.3-4.1,1.2-5.8
		c1.9-0.6,3.8-1.3,5.8-1.9c0,5.8-0.2,11.6,0,17.4c0.1,3.1-0.9,3.8-3.8,3.1C218.1,333.6,211.1,332.1,204.1,330.4z"/>
	<path class="st2" d="M196.7,320.4c0.3,2.9,0.6,5.8,0.8,8.6c-1.3,0.6-3.2,0.8-3.9,1.8c-2.7,3.7-5,7.6-7.4,11.4
		c-0.5-0.2-1-0.3-1.5-0.5c1.1-3.8,2.3-7.7,3.4-11.7c0.2,0.2,0-0.1-0.3-0.2c-1.5-0.4-3-0.8-4.6-1.2c1.4-1.2,2.5-3.1,4.1-3.5
		c3.6-0.9,5.7-2.3,4.5-6.3C193.5,319.3,195.1,319.8,196.7,320.4z"/>
	<path class="st4" d="M244.3,134.3c-19.8,0.1-35.6-15.5-36.3-34.6c-0.7-19,15.1-37.2,35.9-37c20.9,0.2,35.9,16.3,35.7,36
		C279.4,119.6,262.7,134.2,244.3,134.3z"/>
	<path class="st4" d="M131.3,97.4c-1.7-15.3,14.7-35.3,35.5-34.9c19.7,0.4,35.6,16.4,35.6,36.4c-0.1,19.8-15.9,35.5-35.8,35.4
		C146.9,134.2,130,117.7,131.3,97.4z"/>
	<path class="st3" d="M190.1,165.6c-1.8-2.9-3.8-5.8-5.2-8.9c-2.2-4.8-4-9.8-5.7-14.9c-0.6-1.8-0.8-3.4,1.8-4.9
		c10.6-6.3,22-6.1,33.5-5.1c5,0.5,9.7,3.6,14.6,5c3.6,1,2.9,3.1,2.1,5.4c-2.4,6.6-4.7,13.1-7.3,19.6c-0.6,1.5-2.1,2.5-3.2,3.8
		c-1.4,0.5-2.4-0.4-3.4-1c-8.1-5-16.1-5-24.1,0.1C192.1,165.3,191.3,166.1,190.1,165.6z"/>
	<path class="st5" d="M190.1,165.6c11.7-8.2,18.7-8.2,30.5,0.1c-2.3,6.3-4.4,12.6-6.8,18.9c-2.6,6.8-5.3,13.6-8.5,21.5
		c-4.1-10.4-7.9-19.7-11.5-29C192.4,173.3,191.3,169.4,190.1,165.6z"/>
	<path class="st4" d="M223.1,316.9c1,12.4,1,12.4-10.8,9.6c-2.3-0.5-4.6-1-6.9-1.4c-0.7-1.6-1.4-3.3-2-4.9
		C210,319.1,216.5,318,223.1,316.9z"/>
	<path class="st6" d="M193.7,359.1c0.5-0.1,1-0.2,1.5-0.3c-0.3,0.3-0.7,0.6-1,0.9C194,359.6,193.9,359.4,193.7,359.1z"/>
	<path class="st5" d="M240,121.2c-12.6-0.1-22.7-10.5-22.6-23c0.2-12.7,10.6-22.8,23.5-22.6c12.5,0.2,22.4,10.5,22.2,23.3
		C262.9,111.7,252.8,121.4,240,121.2z"/>
	<path class="st5" d="M170.5,121.2c-12.8,0.2-23-9.6-23.1-22.2c-0.1-12.8,9.7-23.1,22.1-23.3c13-0.2,23.3,9.7,23.4,22.6
		C193,111,183.2,121.1,170.5,121.2z"/>
	<path class="st4" d="M251.5,97.4c-5.8,0-12.1-6.1-12.2-11.1c0-3.2,2.7-5.8,6.2-5.8c5.5,0.1,11.8,6,11.7,11.1
		C257.1,95.6,254.5,97,251.5,97.4z"/>
	<path class="st4" d="M175,80.5c5.9,0.3,12.2,6.3,11.8,11.3c-0.3,3.8-2.7,5.6-6.4,5.5c-5.7-0.1-11.5-6-11.3-11.3
		C169.2,81.9,171.9,80.9,175,80.5z"/>
</g>
</svg>
