<?xml version="1.0" encoding="utf-8"?>
<!-- Generator: Adobe Illustrator 22.1.0, SVG Export Plug-In . SVG Version: 6.00 Build 0)  -->
<svg version="1.1" id="Layer_1" xmlns="http://www.w3.org/2000/svg" xmlns:xlink="http://www.w3.org/1999/xlink" x="0px" y="0px"
	 width="400px" height="400px" viewBox="0 0 400 400" style="enable-background:new 0 0 400 400;" xml:space="preserve">
<style type="text/css">
	.st0{fill:#FFFFFF;}
	.st1{fill:#676767;}
	.st2{fill:#515151;}
	.st3{fill:#373737;}
	.st4{fill:#F9F9F9;}
	.st5{fill:#060606;}
</style>
<circle class="st0" cx="200.5" cy="199.6" r="200"/>
<g>
	<path class="st1" d="M256.1,211.1c2.2,4.2,5.4,3.5,8.9,1.9c12.2-5.5,24.4-10.9,36.6-16.4c2.3-1,3.4-2.7,3.6-5.4
		c0.7-11.8,1.5-23.6,2.7-35.4c0.3-3.1-0.8-3.9-3.3-4.9c-20.1-7.7-37.6-33.6-36.9-54.5c0.2-5,1.6-9.6,5.9-13.6
		c2.9,14.6,10.1,26.1,21,35.3c4.9,4.2,10.4,7.4,17,8.2c0.7,1,0.3,2,0,3c-2.8,7.2-0.1,13.4,3.5,19.4c1.4,2.4,3.7,3.1,6.4,2.5
		c1.3-0.3,2.6-1.3,4.1-0.3c-2.7,16.5-5.4,33.1-8.3,49.6c-0.3,1.5-1.8,3.3-3.2,3.9c-15.6,6.8-31.2,13.6-47,20
		c-4.2,1.7-7.2,3.3-9.1,8.1c-4,10.2-12,17.5-20.7,23.8c-0.6,0.5-1,1.3-1.5,2c4.2,3,6.4,7.2,7.5,12.1c-0.2,0.3-0.4,0.7-0.5,1
		c1.1,4.7-0.5,8.7-3.1,12.4c-0.2,0.5-0.4,1-0.7,1.5c-1.3,4-4,7-7.2,9.6c-1.9,1.7-5,3.2-5.5,5.3c-0.4,1.7,2.4,4,3.3,6.3
		c1.4,3.5,2.6,7,3.4,10.7c0.4,1.9,0.9,2.8,3,3c7.7,0.8,14.5,3.7,20.1,9.4c0.6,0.6,2.1,0.8,2.9,0.5c5.6-2.4,11.2-3,17.2-1.4
		c0.9,0.2,2.4-0.4,3-1.2c5-6.8,11.1-9.5,19.7-7c4.8,1.4,10,1.9,15,1.8c9-0.2,13.7-5.9,12-14.7c-1.4-7.1-3.8-14-5.9-20.9
		c-0.9-2.8-2.1-5.5-2.5-9.1c2.3,1.4,4.9,2.4,7,4.1c10.4,8.7,16.4,19.8,16.8,33.4c0.3,12.6-7.4,21.2-20,21.8
		c-7.2,0.3-14.5-0.8-21.7-1.8c-2.6-0.4-4.1,0.3-6.3,1.5c-5.8,3.2-11.2,6.8-16.7,10.5c-4.6,3.2-10.3,3.1-15.9,1.8
		c-1.3-0.3-3.1-0.6-3.9,0c-9.5,6.9-29,1.4-35.8-9.9c-1.2-2.1-2.4-2.7-4.8-2.4c-13.6,1.5-27.6-11.7-27.2-25.7c0.1-3.1-1.1-4-3.5-5.4
		c-5.3-3.2-10.2-7-15.3-10.6c-3.8-2.2-5.6-5.9-7.3-9.6c-0.2-0.5-0.4-1-0.7-1.5c-3.1-3.6-3.7-7.9-3.1-12.5c0-0.2,0-0.5,0-0.7
		c0-5.4,3-9.2,7-12.4c-0.6-0.8-1.1-1.7-1.8-2.2c-10-7.3-18.2-15.9-22.3-27.9c-0.4-1-1.8-2-3-2.4c-13.5-5.4-27.2-10.4-40.6-16.2
		c-12.6-5.4-12.6-5.7-14.9-18.9c-2.2-12.9-4.1-25.9-6.2-38.9c1.1-1.1,2.4-0.9,3.7-0.6c3.7,0.9,6.2-0.8,7.7-3.9
		c2.9-5.9,5.3-12,2.3-18.7c-0.3-0.7-0.5-1.5,0-2.2c10.2-1.4,17.5-7.6,24-14.9c7.1-8,12.1-17.2,14-28.5c4,3.2,5.4,7.3,5.8,11.8
		c1.1,12.7-3.6,23.8-10.5,34c-7,10.2-15.7,18.4-27.5,22.9c-0.9,0.4-1.9,2.3-1.9,3.4c0.5,9,1.2,17.9,1.9,26.9
		c0.1,0.9,0.4,1.8,0.3,2.7c-1.1,8.3,3.1,12.8,10.4,15.7c9.9,3.9,19.7,8.2,29.4,12.5c3.6,1.6,6.4,2,8.7-1.7c1.7-1.3,3.2-0.4,4.7,0.4
		c17.9,8.9,37,12,56.8,10.9c14.9-0.8,29.4-3.7,42.9-10.3C252.1,211.1,253.9,209.8,256.1,211.1z"/>
	<path class="st1" d="M149.6,207c-1-0.9-1.9-1.9-3-2.6c-12.4-7.6-21.6-17.6-23.9-32.6c-1.1-7.4-0.1-14.6,2.1-21.6
		c7.2-22.6,20.4-40.9,40.1-54.2c23.7-16,48.7-15.9,72.3,0.2c20.2,13.8,33.7,32.7,40.4,56.2c6.1,21.4-2.2,40.1-22.3,51.9
		c-1.1,0.7-2.2,1.4-3.3,2.1c-4.9,4.5-11.2,6-17.2,7.7c-23.5,6.4-47,6.1-70.3-0.7C159.3,211.9,154.2,210,149.6,207z"/>
	<path class="st2" d="M91.1,126.2c4.6,7.4,1.9,14.4-1.2,21.3c-1.9,4.3-4.8,5.2-9.8,4.2c-0.9-0.2-1.8-0.1-2.7-0.1
		c-0.4-0.6-0.6-1.5-1.2-1.9c-11.4-7.3-15.6-18.7-17.7-31.2C55,98,64.4,77.6,82.2,66.6c5.7-3.5,11.9-5.7,19.9-5.5
		c-2,1.5-3.2,2.4-4.3,3.2c-6.8,5.1-12.9,11-16.7,18.8c-6.4,13-3.8,25,4.3,36.3C87.1,121.8,89.1,124,91.1,126.2z"/>
	<path class="st2" d="M325.6,150.8c-9.6,4.8-12.5-1.7-15.5-11.1c-1.5-4.7-0.5-9.2,1.6-13.5c5.1-5.1,9.3-10.8,11.8-17.7
		c4.8-13.4,0.8-24.8-8.2-34.8c-4-4.5-8.8-8.2-13.6-12.5c6.3-0.3,11.9,1.4,17.1,4.4c30.2,17.8,32.4,51.6,17.3,75
		C333.4,144.6,329.1,147.4,325.6,150.8z"/>
	<path class="st3" d="M149.6,207c2.8,0.9,5.7,1.7,8.4,2.8c18.5,7.4,37.6,8.7,57.2,6.8c12.9-1.2,25.1-4.9,36.8-10.2
		c1.4,1.5,2.7,3.1,4.1,4.6c-5.7,2.2-11.3,4.6-17,6.6c-15.7,5.5-32,6.9-48.3,5.7c-14.4-1-28.4-4.3-41.3-11.2
		c-1.1-0.6-2.4-0.7-3.7-1.1C147.1,209.7,148.3,208.4,149.6,207z"/>
	<path class="st3" d="M166.1,258.1c-2.3,4.1-4.7,8.2-7,12.4c-13.4-5-26.9-2.7-41.6-0.1c1.7-1.8,2.6-2.9,3.7-3.8
		c7.7-6.6,16.9-9,26.7-9.4C153.9,257,160,257.8,166.1,258.1z"/>
	<path class="st3" d="M243.3,270.2c-2.5-4-5-8.1-7.5-12.1c10.7-1.5,21.4-2,31.7,1.5c4.6,1.6,8.7,4.4,13,6.9c1,0.6,1.7,1.7,2.3,3
		C269.4,267.8,256.3,265.7,243.3,270.2z"/>
	<path class="st3" d="M159.1,271.2c1,4.2,2.1,8.3,3.1,12.5c-13.9,0.7-25.7,7.1-37.3,14.3c-0.3-0.3-0.7-0.6-1-0.9
		c2.3-3.4,4.3-7.1,7-10.2c6.2-7,14.4-10.9,23-14.1C155.6,272.2,157.4,271.8,159.1,271.2z"/>
	<path class="st3" d="M239.7,283.7c1-4.1,2.1-8.3,3.1-12.4c7.3,3.3,14.8,6.2,21.7,10.1c6.2,3.5,10.5,9.1,13.5,17.2
		C265.5,291,253.7,284.4,239.7,283.7z"/>
	<path class="st3" d="M231.8,294.8c2.4-3.2,4.8-6.4,7.2-9.6c11,9.5,19.3,20.5,18.9,36.1C250.3,311.4,242.9,301.2,231.8,294.8z"/>
	<path class="st3" d="M162.9,285.2c2.4,3.2,4.9,6.4,7.3,9.6c-11.2,6.4-18.5,16.5-26.2,26.5C143.6,305.8,151.8,294.8,162.9,285.2z"/>
	<path class="st4" d="M169.3,176.9c-16.3,0.1-29.6-12.9-29.8-28.9c-0.1-16.7,12.9-30,29.4-30c16.3,0,29.9,13.3,29.9,29.3
		C198.8,163.5,185.6,176.8,169.3,176.9z"/>
	<path class="st4" d="M232.9,176.8c-16.6,0-29.9-13.2-29.8-29.7c0.1-16.1,13.3-29.2,29.5-29.2c16.3,0,29.6,13,29.7,28.9
		C262.4,163.7,249.5,176.8,232.9,176.8z"/>
	<path class="st5" d="M143.1,186.4c6.6,3.5,13,7.7,19.9,10.5c17.1,7,35.1,7.7,53.3,5.8c12.6-1.3,24.4-4.8,35.2-11.6
		c4-2.5,7.8-5.4,11.6-8.2c0,0-0.1-0.1-0.1-0.1c-5.5,7.8-13.4,12.4-21.9,16.2c-15.2,6.8-31.3,8.1-47.7,7.2
		c-17.2-1-33.3-5.4-47.3-15.9c-1.3-1-2.4-2.3-3.7-3.4C142.6,186.7,142.8,186.5,143.1,186.4z"/>
	<path class="st5" d="M141.8,186.2c-0.9-0.7-1.8-1.3-2.7-2c0.2-0.2,0.4-0.5,0.6-0.7c0.9,0.7,1.7,1.5,2.6,2.2
		C142.3,186,142.1,186.2,141.8,186.2z"/>
	<path class="st5" d="M263.1,183c0.1-0.1,0.2-0.3,0.2-0.4c0,0.1,0,0.2,0,0.2C263.3,182.8,263.2,182.9,263.1,183
		C263.1,182.9,263.1,183,263.1,183z"/>
	<path class="st5" d="M142.6,187c-0.2-0.3-0.5-0.5-0.7-0.8c0.2-0.2,0.3-0.3,0.5-0.5c0.3,0.3,0.5,0.5,0.8,0.8
		C142.9,186.6,142.7,186.8,142.6,187z"/>
	<path class="st5" d="M171.8,128.5c10.2-0.2,19,8.4,19.1,18.7c0.2,10.1-8.4,19-18.6,19.2c-10.3,0.2-19.3-8.6-19.3-18.9
		C152.9,137.1,161.4,128.6,171.8,128.5z"/>
	<path class="st5" d="M211.1,147.5c-0.1-10.3,8.3-18.9,18.7-19.1c10.3-0.1,18.9,8.3,19.1,18.7c0.2,10.3-8.6,19.3-19,19.3
		C219.7,166.4,211.2,157.9,211.1,147.5z"/>
	<path class="st4" d="M181.2,146.3c-5.7-0.3-10.7-5.3-10.2-9.4c0.4-3.2,2.4-4.3,5.5-4.1c4.8,0.3,9.6,5.1,9.2,9.4
		C185.3,145.4,183.1,146.4,181.2,146.3z"/>
	<path class="st4" d="M234.5,132.7c4.8,0.2,9.5,4.8,9.3,9.2c-0.2,3.3-2.3,4.4-5.3,4.3c-4.8-0.2-9.4-4.8-9.2-9.3
		C229.4,133.6,231.5,132.6,234.5,132.7z"/>
</g>
</svg>
