<?xml version="1.0" encoding="utf-8"?>
<!-- Generator: Adobe Illustrator 22.1.0, SVG Export Plug-In . SVG Version: 6.00 Build 0)  -->
<svg version="1.1" id="Layer_1" xmlns="http://www.w3.org/2000/svg" xmlns:xlink="http://www.w3.org/1999/xlink" x="0px" y="0px"
	 width="400px" height="400px" viewBox="0 0 400 400" style="enable-background:new 0 0 400 400;" xml:space="preserve">
<style type="text/css">
	.st0{fill:#FFFFFF;}
	.st1{fill:#030303;}
	.st2{fill:#F99F0A;}
	.st3{fill:#FEFEFD;}
</style>
<circle class="st0" cx="200.5" cy="199.6" r="200"/>
<g>
	<path class="st1" d="M228.6,346.4c-18.6,3.5-37.2,3.5-55.8,0c-6.6,0.2-12.3-2.6-18-5.2c-10.5-4.8-20-11.1-28.1-19.4
		c-1.7-1.8-3.4-3.6-3.9-6.1c-0.8-1.2-1.6-2.3-2.4-3.5c-2.9-4.7-5.3-9.5-11.9-3.8c-1.3,1.1-6.1-0.1-7.9-1.7
		c-4.9-4.5-9.8-9.3-13.5-14.8c-16.2-23.8-22.4-50.3-19.5-79c1.6-15.4,4.5-30.3,11-44.4c1.1-2.4,2-5.2,3.7-7
		c8.7-8.8,9.9-20.3,12.3-31.6c6.4-30.1,20.6-56.2,43.4-77.2c36.4-33.5,86.2-34.3,123.4-1.6c27,23.8,42.1,54.3,47.4,89.8
		c0.8,5.2,2.1,9.8,5.7,14.2c9.8,11.8,14.1,26.2,17,41.1c5.1,26.4,4.3,52.3-6.9,77.3c-5.2,11.7-11.6,22.6-21.2,31.3
		c-6.1,5.5-7.8,5.6-14.8,1.5c-0.8-0.5-2.9-0.2-3.5,0.5c-2.4,2.8-4.4,6-6.5,9c-3,7.3-9.6,11.2-15.3,15.7
		c-8.5,6.7-18.2,11.4-28.6,14.4C232.7,346.4,230.7,346.1,228.6,346.4z"/>
	<path class="st2" d="M228.6,346.4c19.7-5.3,36.5-15.4,50.1-30.7c16.5,2.7,30.4,10.3,41.8,22.5c3.6,3.8,3.1,5.3-1.7,6
		c-28.4,4.1-57,4.2-85.6,3.3C231.7,347.4,230.1,346.8,228.6,346.4z"/>
	<path class="st2" d="M122.8,315.7c10.7,11.4,22.7,21,37.6,26.5c4.1,1.5,8.3,2.8,12.4,4.2c-1.5,0.4-3.1,1-4.6,1
		c-20.6-0.3-41.3-0.4-61.9-1c-7.6-0.2-15.1-1.3-22.6-2.2c-1.7-0.2-3.3-1-4.9-1.5c0.9-1.7,1.5-3.6,2.6-5c8.1-9.5,18.9-14.9,30.2-19.4
		C115.1,317,119,316.5,122.8,315.7z"/>
	<path class="st3" d="M216.6,194.8c22.4,7.7,36.1,24.4,46.5,44.7c8.9,17.5,12.3,36.3,13.3,55.7c0.1,2-1.2,4.3-2.4,6.1
		c-15.7,23.6-38,35.9-66,37.6c-26.7,1.6-50.7-5-70.1-24.7c-8.9-9-14.2-18.2-11.9-32.3c4.2-25.6,12.4-48.8,30.1-68.2
		c8-8.8,17.5-15.3,28.9-19c2.6,0.4,3,2.7,3.8,4.6c3.9,9.2,7.6,18.6,11.9,28.9c4.1-9.4,7.4-18,11.2-26.4
		C213,199.3,213.2,196,216.6,194.8z"/>
	<path class="st3" d="M243.8,71.8c21.9-0.1,40.2,17.9,40.4,39.9c0.2,21.7-18,40.2-39.9,40.6c-21.8,0.4-40.3-17.8-40.4-39.8
		C203.7,90,221.4,71.9,243.8,71.8z"/>
	<path class="st3" d="M117.6,111.7c0.1-22.2,18-40,40.2-39.9c22.3,0.1,40.1,18.2,39.9,40.7c-0.1,21.8-18.1,39.7-39.9,39.8
		C135.6,152.4,117.5,134.1,117.6,111.7z"/>
	<path class="st2" d="M216.6,194.8c-5.1,11.9-10.2,23.9-15.8,37c-5.5-13-10.7-25-15.8-37c-3.1-7.7-6-15.4-9.3-23
		c-3.4-7.6-1.8-14.1,3.9-19.7c14.9-14.8,33.3-11.6,44.7,2.5c3.7,4.6,5,9.8,2.3,15.8C222.8,178.3,219.8,186.6,216.6,194.8z"/>
	<path class="st1" d="M240.2,86.5c14.4,0,25.6,11.2,25.6,25.4c0,14.3-11.3,25.7-25.4,25.7c-14.4,0-26-11.5-25.9-25.7
		C214.6,97.7,226,86.4,240.2,86.5z"/>
	<path class="st1" d="M161.2,86.5c14.4-0.1,25.6,11,25.7,25.2c0.1,14.3-11,25.7-25.2,25.8c-14.6,0.1-25.9-11.1-26-25.6
		C135.7,97.7,146.9,86.6,161.2,86.5z"/>
	<path class="st3" d="M259,104.1c0,4.1-2.9,6.7-7.2,6.5c-5.6-0.3-11.8-5.7-12.6-11.1c-0.6-4,1.2-6.5,5.1-7.4
		C250.4,90.7,258.9,97.6,259,104.1z"/>
	<path class="st3" d="M180.1,106.1c-1.3,1-3.4,3.7-5.9,4.3c-6.2,1.4-13.9-5.7-14-12.1c-0.1-3.6,1.8-5.6,5.1-6.3
		C171.6,90.8,180.1,97.8,180.1,106.1z"/>
</g>
</svg>
