<?xml version="1.0" encoding="utf-8"?>
<!-- Generator: Adobe Illustrator 22.1.0, SVG Export Plug-In . SVG Version: 6.00 Build 0)  -->
<svg version="1.1" id="Layer_1" xmlns="http://www.w3.org/2000/svg" xmlns:xlink="http://www.w3.org/1999/xlink" x="0px" y="0px"
	 width="400px" height="400px" viewBox="0 0 400 400" style="enable-background:new 0 0 400 400;" xml:space="preserve">
<style type="text/css">
	.st0{fill:#FFFFFF;}
	.st1{fill:#636363;}
	.st2{fill:#1C1C1C;}
	.st3{fill:#B4B4B4;}
	.st4{fill:#F9F9F9;}
	.st5{fill:#060606;}
</style>
<circle class="st0" cx="201.1" cy="200.8" r="200"/>
<g>
	<path class="st1" d="M165.5,246.3c-13.7-3.5-27.2-7.2-39.5-14.4c-6.2-3.6-12-7.7-17-12.8c-2-2-4.2-2.9-6.9-2.9
		c-7.3-0.1-14.6-0.5-21.9,0.6c-1.6,0.2-3.3,0-5.1,0c0.1-2.1,1.5-3.3,2.4-4.7c8.4-12.7,13.1-26.8,15.8-41.6c1-5.1,1.7-10.5,4.1-15
		c5.9-11.1,5.7-23.1,6.3-35c1.3-24,2.4-47.9,3.6-71.9c0.1-1.4,0.3-2.7,0.4-4.1c2-0.4,2.6,1.2,3.4,2c12.9,12.2,25.8,24.3,38.5,36.7
		c2.5,2.4,4.1,2.4,7.1,0.7c29.2-16.4,58.6-16.6,87.8-0.3c4,2.2,5.9,1.4,8.7-1.3c12.1-11.8,24.3-23.3,36.6-35
		c1.2-1.2,2.5-2.2,4.5-3.9c0.5,9.5,1,18.3,1.5,27.1c1.2,22.7,2.3,45.5,3.5,68.2c0.1,1.9,0.2,4,1,5.6c5.5,11.2,7.8,23.3,10.5,35.4
		c2.5,11.3,7.1,21.8,13.3,31.5c1.1,1.7,2.6,3.2,2.9,6c-8.3-1-16.4-1.3-24.5-1.2c-4.4,0.1-7.8,1.3-11.1,4.5
		c-14.2,13.4-31.8,20.2-50.4,24.6c-1.5,0.4-3,0.8-4.5,1.2c-0.8-0.2-1.7-0.4-2.5-0.6c2.5-5.1,6.4-9.4,8.6-14.7
		c3.9-9.6,2.9-19.1-3.6-25.1c-5.4-5-11.7-8.6-19.2-9.7c-10.4-11-26.5-11-37.6,0c-5.5,0.6-10.3,3-14.7,6.1
		c-10.6,7.3-13,17.2-7.9,29.1c2.2,5.1,5.9,9.3,8.4,14.2C167.2,245.8,166.4,246.1,165.5,246.3z M204.2,153
		c-0.2,21.8,17.4,39.7,39.1,39.9c21.5,0.2,39.6-17.6,39.9-39.3c0.3-21.4-17.6-39.6-39.3-39.9C222.3,113.5,204.3,131.2,204.2,153z
		 M119.3,153c0,22.2,17.6,39.9,39.5,39.9c21.5,0,39.2-18,39.2-39.8c0-21.6-17.6-39.2-39.1-39.4C137.2,113.6,119.3,131.3,119.3,153z
		 M288.5,62.2c-0.7-0.5-1.5-1-2.2-1.6c-8.9,9.5-17.7,18.9-26.7,28.3c-2.1,2.2-1.2,3.3,0.7,4.9c6.2,5.2,12.3,10.6,17.7,16.8
		c4.6,5.2,8.4,11.1,13.9,17.6C290.8,105.2,289.6,83.7,288.5,62.2z M110.3,127.3c9.5-12.8,20-24.1,32.2-33.9c2.6-2.1,0.8-3.6-0.7-5
		c-8.4-8.3-16.8-16.6-25.2-24.9c-0.7-0.7-1.3-1.9-2.5-1.2c-1.1,0.6-0.6,1.9-0.7,2.8c-0.2,4.7-0.3,9.4-0.6,14
		C112,95.1,111.1,111.2,110.3,127.3z"/>
	<path class="st1" d="M165.6,311.3c0-19.6,0.1-39.2,0.1-58.9c2.8,0.2,5.3,1,7.5,3c17.5,15.7,38.3,15.7,55.7,0c2.2-1.9,4.4-3.4,7.4-3
		c0,11.4,0,22.7,0,34.7c12.5-3.9,22.9-9.1,29.9-20.7c1.2,4.8,0.7,9,0.5,13.1c-0.5,11.8-1.2,23.5-7,34.3c-0.9,1.7-1.6,3.5-3.2,4.6
		c-4.4-4.3-9-7.9-15.8-7.5c-3,0.2-4.4,0.9-4.2,4.2c0.2,4.3,0.1,8.6,0.1,13c0,10.2,0,10.2-10.4,10.3c0-15.3,0-30.6,0-45.8
		c0-8-4.5-12.6-12.5-12.7c-8.2-0.1-16.3-0.1-24.5,0c-8.6,0.1-13.2,4.6-13.2,13.2c0,15.1,0,30.2,0,45.3c-1.6,0-3.1-0.2-4.7,0
		c-4.5,0.7-6.1-0.8-5.8-5.6C165.9,325.5,165.6,318.4,165.6,311.3z"/>
	<path class="st2" d="M226.2,338.2c10.4-0.1,10.4-0.1,10.4-10.3c0-4.3,0.2-8.7-0.1-13c-0.2-3.3,1.2-4,4.2-4.2
		c6.7-0.3,11.4,3.2,15.8,7.5c1.9,5.9,2.7,11.7,0.1,17.7c-1.2,2.8,1.6,2.5,2.9,3c6.8,2.7,11.7,7.3,14.4,14.2c1,2.7,0.6,4-2.8,3.9
		c-5.5-0.3-11.1-0.1-16.7-0.1c-2.4-0.4-3.1-2.7-4.5-4.1c-10.4-11.1-26.2-12.6-38.7-4c-4.5,3.1-7.1,7.7-10.1,12.2
		c-10.9-22.7-39-22.7-50.8-5.8c-0.7,1-1.6,1.3-2.5,1.6c-5.4,0-10.8-0.1-16.2,0.1c-4.2,0.2-4.2-1.4-2.9-4.6c2.8-6.7,7.7-11,14.4-13.4
		c1.9-0.7,3.3-1,2.5-3.8c-4.5-16.2,3.1-25.1,20-23.9c0,7.1,0.3,14.2-0.1,21.3c-0.3,4.8,1.4,6.3,5.8,5.6c1.5-0.2,3.1,0,4.7,0
		c9.3,1.9,18.3,4.2,24,12.9c0.7,1.1,1.5,1.4,2.3,0.1C207.8,342.4,216.9,340.1,226.2,338.2z"/>
	<path class="st1" d="M147.7,357c1-0.4,1.8-0.7,2.5-1.6c11.8-16.9,39.9-16.9,50.8,5.8c3-4.6,5.6-9.1,10.1-12.2
		c12.5-8.6,28.3-7.2,38.7,4c1.4,1.5,2.1,3.7,4.5,4.1c-0.1,0.5-0.3,1.1-0.2,1.5c1.8,7.7,1.8,7.7-5.9,7.7c-31.9,0-63.9,0-95.8,0
		c-6.7,0-6.7,0-4.8-6.2C147.9,359,148.4,358,147.7,357z"/>
	<path class="st2" d="M236.3,254c-3.3,2-5.2,2.3-7.4,4.5c-17.9,16.5-36.9,15.5-55.7,1c-2.6-2-4.7-3.4-7.5-3.5
		c-0.1-2.4-0.1-8.8-0.2-11.2c0.8-0.3,1.7-0.5,2.5-0.8c2,1.9,4,3.8,6,5.8c17,17.3,37.7,17.2,54.5-0.3c1.8-1.9,3.7-3.6,5.6-5.4
		c0.8,0.2,1.7,0.5,2.5,0.7C236.5,247.2,236.4,251.6,236.3,254z"/>
	<path class="st3" d="M225.8,236.9"/>
	<path class="st3" d="M220.7,195c7.8,1.2,14.4,4.9,20.1,10.2c6.8,6.3,7.9,16.4,3.8,26.5c-2.3,5.6-6.4,10.1-9,15.5
		c-1.9,1.6-3.9,3.2-5.8,4.9c-17.6,15.8-39.2,15.9-57,0.3c-2-1.8-4.2-3.5-6.2-5.3c-2.6-5.2-6.5-9.6-8.8-15c-5.4-12.5-2.8-23,8.3-30.7
		c4.6-3.2,9.6-5.8,15.4-6.4"/>
	<path class="st4" d="M204.2,153c0.2-21.8,18.1-39.5,39.7-39.3c21.7,0.3,39.6,18.5,39.3,39.9c-0.3,21.6-18.4,39.4-39.9,39.3
		C221.6,192.8,204,174.8,204.2,153z M239.7,178.4c14,0.1,25.3-11,25.3-24.9c0-14.2-10.8-25.3-24.7-25.4
		c-14.3-0.1-25.7,11.1-25.7,25.1C214.6,167.2,225.7,178.4,239.7,178.4z"/>
	<path class="st4" d="M119.3,153c0-21.7,17.9-39.4,39.7-39.3c21.5,0.2,39,17.8,39.1,39.4c0,21.8-17.6,39.8-39.2,39.8
		C136.8,192.9,119.3,175.2,119.3,153z M137.2,153c-0.1,14.2,10.8,25.4,24.6,25.5c14.2,0.1,25.5-10.7,25.6-24.5
		c0.2-14.4-10.8-25.7-25-25.7C148.3,128.2,137.3,139,137.2,153z"/>
	<path class="st5" d="M219.9,194.2c2.6,8.8-1.4,15-12,17.1c-4.2,0.9-5.2,2.4-4.9,6.4c0.4,5.9,0.3,11.8,0,17.7
		c-0.2,3.6,0.6,4.9,4.6,4.2c6-1.1,11.9-2.5,17.2-5.7c0.9-0.5,1.9-1.8,3.2-0.7c-5.6,11.8-41,16.6-55.9-0.9c1.6-1.1,2.8,0,4,0.8
		c6,3.9,12.6,5.6,19.6,6.6c2.8,0.4,3.3-0.5,3.3-3c-0.1-7.1-0.2-14.3,0-21.4c0.1-2.5-0.8-3.2-3.2-3.6c-2.5-0.4-5.1-1.3-7.4-2.5
		c-6.6-3.5-8.3-7.8-6.2-15C193.4,183.2,209.5,183.2,219.9,194.2z"/>
	<path class="st3" d="M288.5,62.2c1.1,21.5,2.3,43,3.5,66c-5.5-6.5-9.3-12.4-13.9-17.6c-5.4-6.1-11.4-11.6-17.7-16.8
		c-1.9-1.6-2.8-2.7-0.7-4.9c9-9.4,17.8-18.9,26.7-28.3C287,61.1,287.8,61.7,288.5,62.2z"/>
	<path class="st3" d="M110.3,127.3c0.9-16.1,1.7-32.1,2.6-48.2c0.2-4.7,0.3-9.4,0.6-14c0-1-0.4-2.3,0.7-2.8c1.2-0.6,1.8,0.6,2.5,1.2
		c8.4,8.3,16.8,16.6,25.2,24.9c1.5,1.5,3.3,3,0.7,5C130.3,103.1,119.8,114.5,110.3,127.3z"/>
	<path class="st3" d="M226.2,339.8c-9.3,1.9-18.3,4.3-23.9,13.3c-0.8,1.3-1.6,1-2.3-0.1c-5.7-8.9-14.7-11.2-24-13.2
		c0-15.5,0-31,0-46.6c0-8.8,4.6-13.5,13.2-13.5c8.2-0.1,16.3-0.1,24.5,0c8,0.1,12.5,4.8,12.5,13
		C226.2,308.4,226.2,324.1,226.2,339.8z"/>
	<path class="st5" d="M239.7,178.4c-14-0.1-25.1-11.2-25.1-25.2c0-14,11.4-25.2,25.7-25.1c13.9,0.1,24.8,11.2,24.7,25.4
		C265,167.5,253.7,178.5,239.7,178.4z M245.2,133.5c-4.8,0.1-7.6,3.9-6.1,8.6c1.8,5.7,6,8.9,11.7,9.9c5,0.8,8.4-3.2,7.4-8
		C257.1,138.7,250.5,133.4,245.2,133.5z"/>
	<path class="st5" d="M137.2,153c0.1-14,11.1-24.8,25.3-24.8c14.2,0,25.1,11.3,25,25.7c-0.1,13.8-11.4,24.6-25.6,24.5
		C148,178.4,137.1,167.2,137.2,153z M174.1,152.1c4.6,0,7.3-3.5,6.3-8.1c-1.1-5.2-6.9-10.2-12.3-10.5c-4.7-0.2-7.5,2.7-6.9,7.5
		C161.9,146.3,168.6,152.1,174.1,152.1z"/>
	<path class="st4" d="M245.2,133.5c5.3-0.1,11.9,5.1,13,10.4c1.1,4.9-2.4,8.9-7.4,8c-5.7-1-9.9-4.2-11.7-9.9
		C237.6,137.4,240.4,133.6,245.2,133.5z"/>
	<path class="st4" d="M174.1,152.1c-5.5,0-12.2-5.7-12.9-11.1c-0.5-4.8,2.2-7.7,6.9-7.5c5.4,0.3,11.2,5.2,12.3,10.5
		C181.4,148.6,178.7,152,174.1,152.1z"/>
</g>
</svg>
