<?xml version="1.0" encoding="utf-8"?>
<!-- Generator: Adobe Illustrator 22.1.0, SVG Export Plug-In . SVG Version: 6.00 Build 0)  -->
<svg version="1.1" id="Layer_1" xmlns="http://www.w3.org/2000/svg" xmlns:xlink="http://www.w3.org/1999/xlink" x="0px" y="0px"
	 width="400px" height="400px" viewBox="0 0 400 400" style="enable-background:new 0 0 400 400;" xml:space="preserve">
<style type="text/css">
	.st0{fill:#FFFFFF;}
	.st1{fill:#64513E;}
	.st2{fill:#B99E81;}
	.st3{fill:#4E4132;}
	.st4{fill:#FAF9F8;}
	.st5{fill:#060606;}
</style>
<circle class="st0" cx="200.5" cy="200.6" r="200"/>
<g>
	<path class="st1" d="M323.9,265c0.6-13.4-0.7-26.7-2.4-40c-2.3-17.1-8.8-32.4-20.1-45.4"/>
	<path class="st1" d="M121.1,275.6c-0.9-1.9-0.7-3.9-0.8-5.9c1.7,0.3,3.3,0.9,5,0.9c12.4,0.1,24.8,0.6,37.1-1.8
		c16.8-3.3,32.9-8.3,46.2-19.6c12.8-10.9,19-24.6,16.2-41.7c-2.9-17.5-11.3-32.3-22.1-46.1c-3-3.8-7.2-6.7-9.3-11.3
		c9.9-8.9,20.6-16.4,33.4-20.5c30.6-9.8,57-1.7,79.2,20.3c23.5,23.1,36.1,51.5,38.5,84.5c0.2,2.4,0.5,4.8,0.7,7.2c0,3.3,0,6.5,0,9.8
		c0,15.5-1.6,30.8-7.6,45.2c-4.6,11-9.3,27.5-19.5,34.3l-43.6,20.4l-105.8-20.4L121.1,275.6z"/>
	<path class="st2" d="M193.4,150.1c2.1,4.6,6.3,7.4,9.3,11.3c10.8,13.7,19.2,28.6,22.1,46.1c2.8,17.1-3.3,30.8-16.2,41.7
		c-13.3,11.3-29.4,16.3-46.2,19.6c-12.3,2.4-24.7,1.9-37.1,1.8c-1.7,0-3.3-0.6-5-0.9c-22.1-2.3-42.8-8.2-58.9-24.6
		c-14.4-14.6-15.5-32-8.8-50.3c9.8-26.6,26.9-47.1,52.1-60.5c1.7-0.9,2.9-1.6,2.3-4.1c-2.9-12.6-7.2-24.6-14.7-35.3
		c-1.6-2.2-2.7-2.8-5.4-1.4c-8.6,4.5-18.1,0.1-19.8-8.8c-0.6-3.1,0.6-5.6,2.2-7.9c3.4-4.8,11.1-6.6,16.9-4c5.5,2.4,7.9,7.4,6.5,14
		c-0.3,1.6-0.2,2.7,1,3.7c10.3,9.5,15.4,21.8,18.7,35c0.9,3.7,2.2,4.5,6.1,3.4c13.6-4.1,27.3-3.8,40.8,1.1c3,1.1,4.2,0.3,4.9-2.8
		c2-8.1,4.6-16,8.7-23.3c2.8-5,6.4-9.3,10.3-13.4c1.2-1.3,1.5-2.2,1.1-4c-1.6-6.9,2-12.7,8.4-14.4c7.5-2,14.8,1.6,16.8,8.3
		c1.4,4.5,0,8.5-3.5,11.4c-4.3,3.7-9.6,5-14.5,2.3c-4.1-2.3-5.7-0.9-7.9,2.3c-7.2,10.8-11.1,22.8-13.9,35.2
		c-0.3,1.3-0.3,2.5,1.2,3.2c7.8,4,14.7,9.5,21.4,15.1C192.5,150.1,193,150.1,193.4,150.1z"/>
	<path class="st2" d="M121.1,275.6c12.4,1.1,24.7,1.3,37-0.8c2.5-0.4,2.7,1.2,3,3c1.2,7.4,2.3,14.7,4.8,21.8
		c7.5,21.9,23.5,33.6,45.3,38.8c17.4,4.2,35,4,52.6,3.1c12.1-0.6,24-3.1,35.4-7.6c2.1-0.8,4-2.1,6-3.1c4.2-1.5,7.9-3.8,11.1-6.8
		c10.1-6.8,16.6-16.4,21.2-27.4c6-14.5,7.6-29.7,7.6-45.2c0-3.3,0-6.5,0-9.8c3.3-4.5,5.2-10,8.9-14.3c1.1-1.3,2.1-3.4,3.7-3
		c1.7,0.4,1.7,2.7,2,4.3c2.6,14.7,2.3,29.5-0.3,44.2c-4,22.7-13.5,42.8-30.8,58.5c-14.7,13.4-32.4,21.1-51.7,24.6
		c-32.3,5.8-64.6,4.6-96.6-3.2c-20.8-5.1-38.1-15.6-48.4-35.3c-5.4-10.2-8.3-21.2-10.1-32.6C121.4,281.8,120.6,278.7,121.1,275.6z"
		/>
	<path class="st3" d="M316.4,324c-3.2,3-6.9,5.4-11.1,6.8c3.4-11.3,6.5-22.7,8.1-34.4c0.9-6.4,1.8-12.8,2.2-19.2
		c0.6-9.3,1.2-18.6,0.7-27.9c-0.6-10.8-1.4-21.5-4.6-32c-2.5-8.6-4.4-17.4-9.7-24.7c-4.7-6.4-9.3-13-17.5-15.9
		c-8.7-3.1-16.3-1.3-23,4.7c-6.3,5.8-10.6,12.8-13.9,20.8c-3.6,8.7-6.7,17.7-8.1,26.8c-1.7,11.1-2.3,22.4,0,33.6
		c1.3,6.2,2.1,12.4,6.6,17.4c4.2,4.7,9.4,7.9,15.4,8.9c8.3,1.4,12.4-2.7,16.6-10.2c5.6-10.2,4.9-21.5,4-32.6
		c-0.4-5.4-1.5-10.8-2.5-17.4c6.4,14.4,7.3,38,2,50.7c-4.6,10.8-15.1,17.2-27.4,11.8c-12.7-5.6-17.7-15.5-20-27.9
		c-2.6-14.3-2.2-28.6,0.9-42.7c2.7-11.9,6.1-23.7,13-34c6.1-9,13.7-16.9,24.9-18.7c11.5-1.9,21,3.2,28.3,11.7
		c11.3,13,17.8,28.3,20.1,45.4c1.8,13.3,3,26.6,2.4,40c-0.4,10.8-1.6,21.5-2.8,32.3C320,306.3,316.9,314.9,316.4,324z"/>
	<path class="st1" d="M204.3,233.1c-3.3,6.5-9.5,9.9-15.3,13.5c-12.8,7.8-27,11-41.9,12c-16.7,1.2-33-0.5-48.7-6.1
		c-10-3.6-19.4-8.4-26.5-16.8l0,0c2.2-0.4,3.3,1.4,4.7,2.5c11.6,8.9,25.1,13.5,39.2,15.9c18.7,3.2,37.3,2.6,55.6-2.7
		c11.5-3.4,22.2-8.4,30.8-16.9C202.7,233.8,203.6,233.5,204.3,233.1L204.3,233.1z"/>
	<path class="st1" d="M204.3,233.1c0.1-0.1,0.1-0.2,0.2-0.3C204.4,232.9,204.3,233,204.3,233.1C204.3,233.1,204.3,233.1,204.3,233.1
		z"/>
	<g>
		<path class="st4" d="M102.3,162.6c18.2,0,32.4,14.1,32.4,32.1c0,17.7-14.7,32.4-32.1,32.3c-17.7-0.1-32.3-14.7-32.3-32.1
			C70.3,177.1,84.7,162.6,102.3,162.6z"/>
		<path class="st5" d="M105.5,174.2c11.4-0.1,20.5,8.9,20.6,20.2c0.1,11.3-9.2,20.8-20.6,20.7c-11.2,0-20.4-9.2-20.4-20.5
			C85.1,183.3,94,174.3,105.5,174.2z"/>
		<path class="st4" d="M115.6,193.4c-5.7,0-11.1-5.1-11-9.8c0.1-3.4,2.1-5,5.5-5c5.1,0,10.4,5.1,10.3,9.8
			C120.4,192.1,118.3,193.4,115.6,193.4z"/>
	</g>
	<g>
		<path class="st4" d="M203.6,194.5c0,18-14.5,32.9-32.1,32.4c-18.4-0.5-32.3-15.2-31.9-32.8c0.4-17.7,14.4-31.5,32.4-31.6
			C189,162.4,204.5,177.5,203.6,194.5z"/>
		<path class="st5" d="M148.2,194.3c0.1-11.3,9.4-20.3,20.7-20.1c11.5,0.2,20.3,9.2,20.2,20.6c-0.1,11.5-9.4,20.6-20.9,20.4
			C157,215,148,205.6,148.2,194.3z"/>
		<path class="st4" d="M183.8,188.6c-0.2,2.3-1.3,4.2-4.1,4.7c-5.2,1-11.8-4.2-11.9-9.5c-0.1-2.8,1.3-4.6,4-5.1
			C176.9,177.7,183.6,183.1,183.8,188.6z"/>
	</g>
</g>
</svg>
