<?xml version="1.0" encoding="utf-8"?>
<!-- Generator: Adobe Illustrator 22.1.0, SVG Export Plug-In . SVG Version: 6.00 Build 0)  -->
<svg version="1.1" id="Layer_1" xmlns="http://www.w3.org/2000/svg" xmlns:xlink="http://www.w3.org/1999/xlink" x="0px" y="0px"
	 width="400px" height="400px" viewBox="0 0 400 400" style="enable-background:new 0 0 400 400;" xml:space="preserve">
<style type="text/css">
	.st0{fill:#FFFFFF;}
	.st1{fill:#9C5AB4;}
	.st2{fill:#754B84;}
	.st3{fill:#4B3453;}
	.st4{fill:#F9F7FA;}
	.st5{fill:#060606;}
</style>
<circle class="st0" cx="200" cy="200" r="200"/>
<g>
	<path class="st1" d="M286,126.5c-0.9,4.8,1.3,8.7,2.6,13c4.8,19.9,8.7,39.9,7.8,60.2c-0.9,23-8.2,43.8-23.8,60.7
		c-1.3,1.3-2.6,2.6-2.2,4.8c-1.3,0-3-0.4-3.9,0.9c-6.5,6.1-14.3,10.4-22.1,14.7c-3,0.9-5.6,2.2-8.7,3c-1.7,0.4-3.5,1.3-3.5,3.5
		c0,5.2-1.7,10-0.4,15.2c-2.2,10.8,1.7,19.9,9.5,27.7c5.2,5.2,11.7,8.7,17.3,13c10.4,8.2,15.2,18.6,17.8,30.8c0.9,3,1.3,6.1,0.4,10
		c-3.9-6.9-6.9-13-12.6-17.8c-6.9-6.1-15.2-10-23.8-12.6c-17.8-6.1-26.9-18.6-31.2-36.4c-2.2-9.1-4.3-18.2-6.9-28.2
		c-2.6,3.9-2.6,7.4-3.5,10.8c-2.2,9.5-4.8,19.1-7.8,28.6c-3.9,11.7-12.1,18.2-23.4,23c-6.1,2.6-12.1,5.2-18.2,8.2
		c-9.1,4.3-15.6,11.3-19.9,19.9c-0.9,1.7-0.9,1.7-3,3.5c1.3-22.1,11.7-38.1,31.2-49c10.4-5.6,15.2-15.6,16-26.9
		c0-1.7,0.9-3.5-0.9-4.8c1.7-4.3-0.4-8.7,0-13c0.4-6.9-6.1-5.2-9.5-7.8c-0.9-0.4-1.7-0.9-3-1.3c-9.1-4.8-17.3-10.4-25.1-17.8
		c-13.4-12.6-20.8-28.6-24.7-46.4c-4.3-19.1-1.7-38.6,1.3-57.6c1.7-9.5,3.9-19.1,6.5-28.2c0.4-1.7,0.9-3.5,0-5.2
		c0.4-0.9,0.9-1.3,1.3-2.2c2.6-7.4,5.2-15.2,7.8-22.1c6.1-16,12.6-32.1,21.7-46.8c4.8-7.8,10-15.2,15.6-22.1
		c3.5-4.3,8.7-6.5,11.7-11.3c16.5-13,36.4-11.3,54.2,2.2c-0.4,0.4-0.9,0.9,0,1.3l0,0c3.9,3.9,8.2,7.8,11.7,12.6
		c6.5,9.5,13,19.1,18.2,29.5c8.2,16,14.3,33.4,20.4,50.3C283.4,120.5,282.1,124.8,286,126.5z M199.3,173.8
		c0-22.1-17.3-39.4-39.4-39.9c-23-0.4-39.9,19.9-39.4,40.7c0.4,20.4,18.2,38.1,39.4,38.1C180.7,212.8,200.2,195.5,199.3,173.8z
		 M205.8,172.9c0,21.7,16.9,39.9,38.6,39.9c21.7,0.4,39.9-17.3,40.3-39c0.4-21.2-17.8-39.4-39-39.9
		C223.6,133.5,205.8,151.2,205.8,172.9z"/>
	<path class="st2" d="M177.7,22.1c-3,4.3-8.2,6.9-11.7,11.3c-6.1,6.9-10.8,14.7-15.6,22.1c-9.1,14.7-15.6,30.8-21.7,46.8
		c-3,7.4-5.2,14.7-7.8,22.1c-0.4,0.9-0.9,1.3-1.3,2.2c-3.9-0.4-7.4-2.2-10.4-4.3c-9.5-5.2-11.7-10.4-8.2-20.8
		c3-10.4,9.1-19.1,15.6-27.3c15.6-19.5,34.2-36,55.5-49.4C173.3,23.8,175.5,22.9,177.7,22.1z"/>
	<path class="st2" d="M284,127.5c-3.9-1.7-2.6-9.1-3.9-12.1c-6.5-16.9-12.1-33.8-20.4-50.3C254.6,54.8,247.5,45.5,241,36
		c-3-4.8-8.8-9.1-12-13c3-0.4,6,1.8,8.7,3.6c24.3,16.5,45.5,36,60.7,61.5c3,5.2,5.2,10.4,6.1,16.5c0.9,5.6-0.4,13-5.2,16
		C294.4,123.6,289.7,126.7,284,127.5z"/>
	<path class="st3" d="M160.8,279.3c0.9,0.4,2.2,0.4,3,1.3c3.5,2.2,10,0.4,9.5,7.8c-0.4,4.3,1.7,8.7,0,13
		c-3.5,5.6-6.5,11.7-10.4,17.3c-5.2,8.2-13,11.7-22.5,13c-8.2,0.9-16.9,0.4-25.1,1.7c-9.1,1.3-16.9,5.6-23,12.6
		c-0.9,0.9-1.3,1.7-3,1.3c6.1-16.5,14.7-29.5,33.4-33.4c4.8-0.9,9.5-2.2,13.9-3.9c10-4.3,13.9-13,16-22.5
		C155.1,283.6,156,279.3,160.8,279.3z"/>
	<path class="st3" d="M231.8,301.9c-1.3-5.2,0-10,0.4-15.2c0-1.7,1.7-2.6,3.5-3.5c3-0.9,5.6-2.2,8.7-3c5.2,0.4,6.9,4.3,9.1,8.2
		c1.7,10.8,6.5,19.1,17.3,22.5c5.2,1.7,10.8,3,16,4.3c15.6,4.3,23,16.5,28.2,30.3c0,0.4-0.4,0.9-0.4,1.7c-0.4-0.4-0.9-0.4-1.3-0.9
		c-9.1-10.8-21.2-14.7-34.7-13.4c-21.7,1.3-36.4-7.8-44.6-27.7C233.1,304.5,232.3,303.2,231.8,301.9z"/>
	<path class="st2" d="M160.8,280.3c-5.2,0-6.1,4.3-8.2,7.4c-3,1.7-6.1,3.9-8.2,6.9c-9.5,12.1-18.6,15.2-33.8,11.3
		c-8.2-2.2-16-5.6-24.3-6.9c-8.2-1.3-16,0.4-23,5.2c-0.9,0.4-1.7,0.9-2.6,1.3c-0.4,0-0.4,0-1.3-0.4c2.6-3.5,5.2-6.5,7.8-9.5
		c9.1-10.8,20.8-14.3,34.2-12.6c9.5,1.3,19.1,1.7,26.4-6.5c3.5-3.9,6.1-8.7,8.2-13.9C143.4,269.9,151.7,275.5,160.8,280.3z"/>
	<path class="st2" d="M253.5,288.5c-2.2-3.5-3.9-7.8-9.1-8.2c7.4-4.8,15.6-8.7,22.1-14.7c0.9-0.9,2.6-0.9,3.9-0.9
		c0.9,1.7,1.7,3.9,3,5.6c9.1,13.9,13.4,15.2,29.9,12.6c19.1-2.6,31.2,4.3,41.6,20.8c0.4,0.4,0,0.9,0.4,2.2c-4.8-3-9.5-5.6-14.7-6.5
		c-8.2-1.3-15.6,0.4-23.4,2.6c-5.6,1.7-11.7,3.5-17.3,4.8c-8.2,2.2-16,0.4-22.5-5.6C262.6,296.7,257.9,292.8,253.5,288.5z"/>
	<path class="st2" d="M231.3,25.5c-0.9-0.4-0.4-0.9,0-1.3C231.3,24.7,231.3,24.7,231.3,25.5C231.7,25.1,231.3,25.1,231.3,25.5z"/>
	<path class="st4" d="M199.3,173.8c0.4,22.1-18.6,39-39,39c-21.2,0-39-17.8-39.4-38.1c-0.4-20.8,16-40.7,39.4-40.7
		C182,133.9,199.3,151.2,199.3,173.8z M188.9,173.8c0-14.3-10.8-25.6-25.1-25.6c-13.9,0-25.1,11.3-25.1,25.1
		c0,13.9,10.8,25.1,24.7,25.1C177.7,198.5,188.9,187.7,188.9,173.8z"/>
	<path class="st4" d="M205.8,172.9c0-21.7,18.2-39,39.9-39c21.2,0,39.4,18.6,39,39.9c-0.4,21.7-18.2,39.4-40.3,39
		C222.7,212.4,205.4,194.6,205.8,172.9z M241,198.5c13.9,0,25.1-10.4,25.6-24.7c0.4-13.9-10.8-25.1-24.3-25.6
		c-13.9-0.4-25.6,10.8-26,24.7C215.8,186.8,227.1,198.1,241,198.5z"/>
	<path class="st2" d="M274.8,228c-22.1,21.2-50.3,31.7-79.3,30.8c-28.6-0.9-57.2-18.3-65-31.7c21.7,16,46.4,18.9,72,19.4
		C228.4,246.9,253.1,244,274.8,228z"/>
	<path class="st5" d="M188.9,173.8c0,13.9-11.3,24.7-25.1,24.7s-24.7-11.3-24.7-25.1c0-13.9,11.3-25.1,25.1-25.1
		C178.1,148.2,188.9,159.5,188.9,173.8z M175.9,172c3.9,0,6.5-3,6.5-6.5c0-5.6-7.4-12.1-13-11.7c-3.9,0-6.5,2.2-6.5,6.5
		C162.9,166,169.9,172,175.9,172z"/>
	<path class="st5" d="M241,198.5c-13.9,0-25.1-11.3-24.7-25.1c0-13.9,11.7-25.1,26-24.7c13.9,0.4,24.7,11.7,24.3,25.6
		C266.1,187.7,254.8,198.5,241,198.5z M259.6,165.5c0-6.1-7.8-12.6-13.9-11.7c-4.3,0.4-6.9,3.9-5.6,8.2c1.3,5.2,6.9,10,11.7,10.4
		C256.6,172.5,260,169.4,259.6,165.5z"/>
	<path class="st4" d="M175.9,172c-6.1,0-12.6-6.1-13-12.1c0-4.3,2.6-6.5,6.5-6.5c6.1-0.4,13,6.5,13,11.7
		C182.4,169,179.8,172,175.9,172z"/>
	<path class="st4" d="M259.6,165.5c0,4.3-3,6.9-7.4,6.5c-5.2-0.4-10.4-5.2-11.7-10.4c-0.9-4.3,1.3-7.8,5.6-8.2
		C251.8,153,259.6,159.5,259.6,165.5z"/>
</g>
</svg>
