<?xml version="1.0" encoding="utf-8"?>
<!-- Generator: Adobe Illustrator 22.1.0, SVG Export Plug-In . SVG Version: 6.00 Build 0)  -->
<svg version="1.1" id="Layer_1" xmlns="http://www.w3.org/2000/svg" xmlns:xlink="http://www.w3.org/1999/xlink" x="0px" y="0px"
	 width="400px" height="400px" viewBox="0 0 400 400" style="enable-background:new 0 0 400 400;" xml:space="preserve">
<style type="text/css">
	.st0{fill:#FFFFFF;}
	.st1{fill:#ECB811;}
	.st2{fill:#9EDBDA;}
	.st3{fill:#050303;}
	.st4{fill:#B8900C;}
	.st5{fill:#FAFAF5;}
</style>
<circle class="st0" cx="200.5" cy="199.6" r="200"/>
<g>
	<path class="st1" d="M242.2,61.6c6.9,5.7,14.3,11,20.6,17.4c14.9,15.2,25.5,33.1,29.3,54.2c3.3,18.1-3.5,33-17.5,44.7
		c-10.8,9-23.6,13.6-36.8,17.7c-0.9,1.3-2.3,1.8-3.7,2.1c-14,2.8-28,4.1-42.3,3c-7-0.5-14-1-20.9-2.4c-2.5-0.5-5.4-0.3-7.2-2.7
		c-10.5-3.4-21-6.9-30.4-13c-11.8-7.6-20.2-17.6-23.5-31.5c-2.1-8.7-1.1-17.3,1.4-25.6c6.2-20.6,17.7-37.9,33.4-52.4
		c4.4-4,9.2-7.7,13.8-11.5c2-1.4,3.8-3.3,6.6-2.8c17.4-9.7,35.6-12.8,54.8-6.8c5.8,1.8,11.2,4.7,16.7,7
		C239.2,58.4,240.4,60.6,242.2,61.6z"/>
	<path class="st2" d="M254,219.3c2.2-3.7,4.5-7.3,6.6-11.1c8.6-15.7,20.2-28.5,36.8-35.8c25.8-11.3,49.9-3,61.8,23
		c10.3,22.6,2.8,48.2-17.5,63.3c-9.6,7.1-20.4,10.5-32.1,11.8c-18.7,2.1-36.8-0.2-54.7-5.4c-1.8-4,0.5-7.8,0.7-11.8
		c0.8-6.8,0.7-13.7,0-20.5c-0.4-3.3-0.7-6.7-1.7-9.9C253.5,221.8,253,220.5,254,219.3z"/>
	<path class="st2" d="M140.7,206.9c2.1,4.5,4.2,8.9,6.3,13.4c1.5,4.3-1.1,8.3-1,12.6c-0.7,6.9-0.7,13.8,0,20.6
		c0.3,3.9,2.8,7.7,0.7,11.8c-15.8,5.1-32.1,6.8-48.6,6c-16.3-0.8-31.6-5.1-43.6-17c-9.8-9.7-15.7-21.3-16.4-35.4
		c-0.7-15.1,4.1-28.2,14.6-38.7c11.7-11.7,25.8-15.3,42-11c16.9,4.5,29.6,14.7,39.7,28.6c0.8,1,1.7,1.9,2.6,2.9
		C139.3,202.2,139.4,204.9,140.7,206.9z"/>
	<path class="st3" d="M146.7,265.3c-0.5-3.8-1-7.7-1.4-11.5c1.5-1.2,3.1-0.6,4.6-0.2c19.9,5.8,40.4,7.6,61,6.7
		c13.5-0.6,26.8-3.1,39.9-6.5c1.8-0.5,3.6-1.5,5.4,0c-0.5,3.8-1,7.7-1.4,11.5c-0.9,3.7-1.8,7.5-2.9,11.2c-0.3,1.1-1.3,2-1.9,3.1
		c-5.2,3.3-11.3,4.4-17.1,5.2c-10,1.3-20.1,2.4-30.3,2.3c-11.5-0.1-22.9-0.4-34.2-2.2c-6-1-12.1-2.2-17.5-5.3
		c-0.8-2.3-1.6-4.6-2.3-7C147.9,270.1,147.3,267.7,146.7,265.3z"/>
	<path class="st3" d="M145.5,232.5c0.5-4.1,1-8.1,1.5-12.2c1.7-3.4,3.5-6.7,5.2-10.1c1.6-0.8,3.2-0.3,4.7,0
		c9.9,2.1,19.8,3.6,29.9,4.7c8.4,0.9,16.7,0.8,25.1,0c11-0.6,21.8-2.6,32.6-4.9c1.7-0.4,3.5-0.8,5.2,0.1c1.4,3,2.9,6.1,4.3,9.1
		c0.7,4.3,1.4,8.7,2.2,13c-1.5,2.1-4,2.3-6.3,2.9c-19.2,5.2-38.7,7.5-58.5,6.6c-14.2-0.7-28.1-2.9-41.7-7.1
		C148.2,234.2,146.5,233.9,145.5,232.5z"/>
	<path class="st1" d="M150.8,279.5c5.3,1.4,10.5,3.2,15.9,4.1c6.5,1.1,13.1,1.9,19.6,1.8c13.6-0.1,27.2-0.6,40.7-1.6
		c7.7-0.6,15.3-2.7,22.9-4.2c-1.3,5.2-2.6,10.5-4,15.7c-0.6,2.1-1.6,4-2.4,6c-8.2,2.4-16.7,3.1-25.1,4.1c-18.1,2.2-36,0.8-53.8-2.3
		c-2.3-0.4-4.7-0.8-6.4-2.6C155.7,293.5,153.3,286.5,150.8,279.5z"/>
	<path class="st3" d="M158.2,300.5c15.6,3.2,31.3,5.3,47.2,4.3c11.4-0.7,22.7-2.5,34.1-3.8c1.3-0.1,2.7,0.1,4.1,0.2
		c-3.9,7.6-7.8,15.3-11.9,22.9c-0.6,1.2-1.9,2.1-2.9,3.1c-5.1,2.9-10.9,2.6-16.3,2.8c-11,0.3-22.1,0.8-33-0.7
		c-2.3-0.3-4.7-0.3-6.7-1.9c-1.7-2.3-3.8-4.4-5.1-6.9C164.4,313.9,161.3,307.2,158.2,300.5z"/>
	<path class="st1" d="M249.7,210.1c-12.5,1.9-25,3.8-37.4,5.7c-8.5,0.6-17.1,0.7-25.6-0.1c-11.5-1.9-23-3.7-34.4-5.6
		c2.5-3.5,5.1-6.9,7.6-10.4c17.5,4.9,35.3,5.6,53.2,4.9c9.7-0.4,19.1-2.8,28.6-5C244.3,203.2,247,206.7,249.7,210.1z"/>
	<path class="st1" d="M172.8,327.4c13.2,0.5,26.3,1.1,39.5,1.3c5.5,0.1,11.1-0.9,16.6-1.4c-1.1,1.9-1.9,4.1-3.3,5.8
		c-4.7,5.8-9.6,11.5-16.8,14.5c-5,4.1-11.9,4.1-15.9,0C183.8,343.1,177.1,336.4,172.8,327.4z"/>
	<path class="st3" d="M242.2,61.6c-1.9-0.9-3.7-1.7-5.6-2.6c7.5-7.8,14.9-15.8,22.5-23.5c6.6-6.8,6.8-6.8,12.2,0.9
		c13,18.7,26,37.4,39,56.1c0.9,1.4,1.6,2.9,2.4,4.4c-0.5,0.4-0.9,0.8-1.4,1.2c-0.3-0.8-0.3-1.7-0.8-2.3
		c-14.3-18.1-28.7-36.1-43-54.2c-2-2.5-2.9-2.6-5.1-0.3C255.7,48.2,248.9,54.9,242.2,61.6z"/>
	<path class="st3" d="M165,58.9c-2.2,0.9-4.4,1.9-6.6,2.8c-6.9-7.2-13.7-14.5-20.7-21.6c-0.3-0.3-2.6,0.6-3.3,1.5
		c-13.6,17-27,34.1-40.6,51.1c-1,1.3-2.3,2.2-3.5,3.4c-0.3-0.3-0.6-0.5-0.9-0.8c5.7-8.4,11.2-16.9,17-25.2
		c8.5-12.2,17.2-24.2,25.8-36.3c3-4.1,4.4-4.2,7.9-0.6C148.5,41.7,156.8,50.3,165,58.9z"/>
	<path class="st4" d="M241.6,199.7c-1,0.7-1.9,1.9-2.9,2c-9.5,1.5-18.9,3.5-28.5,4.2c-15.2,1-30.4,0.2-45.3-3.5
		c-1.8-0.5-3.4-1.7-5.1-2.6c1.3-1.4,2.6-2.8,3.9-4.2c24.7,5.5,49.4,5.6,74.1,0C239.1,196.9,240.4,198.3,241.6,199.7z"/>
	<path class="st3" d="M192.8,347.5c5.3,2.9,10.6,1.9,15.9,0c-2.4,6.4-4.9,12.8-7.3,19.2c-0.3,0.1-0.7,0.2-1,0.3
		C197.9,360.5,195.3,354,192.8,347.5z"/>
	<path class="st5" d="M140.7,206.9c-1.2-2-2.4-4.1-3.6-6.1C142.6,200.3,140.1,204.5,140.7,206.9z"/>
	<path class="st5" d="M131.7,120.2c-0.6-18.4,15.5-32.7,32.7-32.9c19.5-0.3,33.9,15.5,33.8,33.2c-0.1,19.5-15,33.3-33.1,33.4
		C146.7,154,131,139.5,131.7,120.2z"/>
	<path class="st5" d="M269.9,120.9c0.4,19-15.7,33-33.6,33c-18.3-0.1-33.4-15.8-33-34.1c0.4-17.7,15-33.2,34.5-32.5
		C256.1,88,270.2,102.5,269.9,120.9z"/>
	<path class="st3" d="M133.1,163.6c20.4,14.9,43.4,20.5,68.1,20.4c24.6,0,47.5-5.1,67.5-21c-1.3,1.5-2.4,3.1-3.9,4.4
		c-13.6,11.7-29.8,17.1-47.3,19.2c-14.3,1.7-28.4,0.9-42.6-1.6c-14.8-2.6-27.8-8.9-39.2-18.5C134.6,165.6,133.9,164.5,133.1,163.6z"
		/>
	<path class="st1" d="M145.5,232.5c9.9,2.1,19.7,4.7,29.6,6.3c25.6,4,51,1.7,75.9-5.2c1.7-0.5,3.4-0.8,5.1-1.2
		c0.4,2.5,1.1,4.9,1,7.4c-0.1,4.7-0.6,9.4-1,14c-13.6,2.4-27.2,5.7-41,7.1c-23.1,2.4-46,0.2-68.2-7c-0.5-0.2-1.2-0.1-1.7-0.2
		C145.4,246.6,145.4,239.5,145.5,232.5z"/>
	<path class="st4" d="M186.7,215.8c8.5,0,17.1,0,25.6,0.1C203.7,215.8,195.2,215.8,186.7,215.8z"/>
	<path class="st3" d="M146.7,120.3c0.1-11.7,9.6-21.2,21.4-21.1c11.7,0.1,21.2,9.6,21.1,21.4c0,11.9-9.4,21.2-21.2,21.2
		C156,141.8,146.7,132.4,146.7,120.3z"/>
	<path class="st3" d="M233.6,141.8c-11.8,0-21.3-9.4-21.4-21.1c-0.1-11.8,9.7-21.6,21.6-21.5c11.7,0.1,21.2,9.7,21.1,21.4
		C254.9,132.4,245.5,141.8,233.6,141.8z"/>
	<path class="st5" d="M172.2,103.7c5.4,0,11.4,5.5,11.3,10.3c-0.1,3.6-2.2,5.3-5.6,5.4c-5.2,0.1-10.8-5.3-10.9-10.2
		C167,105.4,169.3,104.1,172.2,103.7z"/>
	<path class="st5" d="M249.3,114.5c-0.3,3.2-3.1,5.3-6.6,4.8c-4.3-0.6-8.6-4.4-9.8-8.5c-0.9-3.4,0.7-6.2,4.2-6.9
		C242.4,102.8,249.7,109.1,249.3,114.5z"/>
</g>
</svg>
