<?xml version="1.0" encoding="utf-8"?>
<!-- Generator: Adobe Illustrator 22.1.0, SVG Export Plug-In . SVG Version: 6.00 Build 0)  -->
<svg version="1.1" id="Layer_1" xmlns="http://www.w3.org/2000/svg" xmlns:xlink="http://www.w3.org/1999/xlink" x="0px" y="0px"
	 width="400px" height="400px" viewBox="0 0 400 400" style="enable-background:new 0 0 400 400;" xml:space="preserve">
<style type="text/css">
	.st0{fill:#FFFFFF;}
	.st1{fill:#77AE1A;}
	.st2{fill:#E5DF8F;}
	.st3{fill:#547919;}
	.st4{fill:#F8FAF5;}
	.st5{fill:#060606;}
</style>
<circle class="st0" cx="200.5" cy="199.6" r="200"/>
<g>
	<path class="st1" d="M169.3,180.9c-1.1-0.7-2-1.6-3.2-2c-13.5-4.1-26.3-9.7-36.3-20.1c-12.4-12.9-15.4-28.1-10.2-45
		c8.7-28,25.7-49.5,51.4-63.5c23.8-12.9,47.8-11.4,70.7,2.6c21.3,13,36.3,31.6,44.9,54.9c10.5,28.4,1.2,50-27.7,64.4
		c-5.7,2.8-11.9,4.5-17.8,6.8c-0.9,0.3-1.6,1.1-2.4,1.7c-7.1,1.9-14.3,2.9-21.6,3.4C200.9,185.3,185,184.9,169.3,180.9z"/>
	<path class="st1" d="M240,185.7c0.8,2.8,1.9,5.5,2.4,8.3c0.6,3.4,2.2,4.9,5.7,5.1c10.8,0.6,21.6,0.5,32-3.3c2.4-0.9,3.6-2,4.1-4.8
		c2.3-12.9,18.1-26.9,31.2-28.1c7.6-0.7,13.4,3,15.3,9.8c0.6,2.2,1.2,4.4,0,6.6c-3.1,12.4-11.4,19.9-23.5,22.3
		c-9.4,1.9-18.4,4.6-27.4,7.8c-9.7,3.4-19.9,3.7-30,2.9c-2.3-0.2-3.3-0.3-2.9,2.9c1.5,13.3,2.3,26.6-1.3,39.7
		c-0.7,2.6,0.2,3.3,2.7,3.7c14.4,2,27.4,7.6,38.9,16.6c1.5,1.2,3.4,1.8,5.2,2.5c11.9,4.7,22.5,10.8,25.8,24.6
		c1.5,6.4,1.5,12.6-4.2,17.1c-5.5,4.2-11.7,3.5-17.2,0.3c-12.7-7.2-19.5-18.3-20.5-33c-0.1-1.8-1.2-4.1-2.6-5
		c-9.1-5.9-19.2-9.1-29.9-10.6c-2.9-0.4-4.8,0.5-6.5,3.1c-1.8,2.9-4.4,5.2-6.7,7.8c-1.6-1.8-0.5-3.7-0.2-5.5
		c3-16.9,1.9-33.4-4.8-49.4c-2.8-6.7-7.1-12.2-13.2-16.2c-5.6-3.6-11.2-3.5-16.8,0c-6,3.7-10,9.2-12.7,15.6
		c-5.6,12.8-7.6,26.3-6.3,40.2c0.4,3.9,0.5,7.7,1.5,11.5c0.4,1.3,0.4,2.8-0.7,3.9c-2.3-2.7-4.5-5.6-7-8.2c-1.2-1.2-3-2.8-4.5-2.7
		c-11.8,0.8-22.8,4.6-32.5,11.3c-1,0.7-1.5,2.8-1.4,4.2c0.8,13.1-12.4,31.7-24.9,34.7c-12.1,3-20.3-5.1-17.7-17.3
		c2.3-10.5,8.2-18.2,17.9-22.6c7.7-3.5,15.1-7.2,22.1-12c9.1-6.2,19.4-9.3,30.3-10.8c2.6-0.4,3.3-1.2,2.6-3.7
		c-3.5-13-2.9-26.1-1.2-39.3c0.4-3.3-0.7-3.4-3.3-3.2c-14.6,1.1-28.6-1.1-42-7.5c-3.5-1.7-7.8-1.5-11.8-2.2
		c-11.8-2.2-20.9-8-25.6-19.4c-2.1-5.2-2.7-10.7,1.2-15.4c3.8-4.6,9-5.6,14.7-4.6c13.6,2.4,26.9,15.5,29.7,29.2
		c0.2,1,1.4,2.3,2.5,2.7c11.4,4.7,23.2,5.1,35.2,3.5c1.2-0.2,2.7-1.7,3.2-2.9c1.3-3.2,2.1-6.6,3.1-9.9c7.1,0.5,13.9,2.6,21,3.2
		c15,1.4,29.9,1,44.7-2.3C235.6,186.3,237.8,185.7,240,185.7z"/>
	<path class="st2" d="M177.2,281.9c-0.7-5.6-1.8-11.2-2.1-16.9c-1-16.9,1.4-33.2,11.3-47.6c3.2-4.6,7.3-8.3,12.9-9.9
		c7.2-2,13,0.7,18.1,5.5c8.2,7.8,11.8,18,13.9,28.8c2.4,12.5,2.4,25.1-0.6,37.5c-0.2,0.8-0.1,1.6-0.2,2.5
		c-5.3,6.2-12.4,9.1-20.1,10.8c-4.1,2.2-8.5,1-12.8,1c-2.1,0-4,0-6,0.8c-0.1-2.9-1.7-4-4.3-5.3C183.8,287.3,180.6,284.4,177.2,281.9
		z"/>
	<path class="st1" d="M191.7,294.4c1.1-0.8,2.2-2.3,3.3-2.3c5.2,0,10.3,0.3,15.5,0.5c-1.2,7.1-2.6,14.1-3.4,21.3
		c-1,9.1-0.3,10.6,8.5,13.4c9,2.8,18.1,5,27.3,6.8c10.6,2.1,21.3,3.5,32,5.2c1,0.2,2,0.9,2.9,1.4c-0.8,0.6-1.6,1.5-2.5,1.7
		c-17,2.7-34.1,4.7-51.3,2.6c-8.3-1-16.4-2.5-23.8-6.8c-7.5-4.3-11.1-10.9-11.1-19.1c0-6.6,1-13.2,1.6-19.8c0.9-1.5-0.5-3.4,1-4.8
		C191.6,294.5,191.7,294.4,191.7,294.4z"/>
	<path class="st3" d="M240,185.7c-3.6,1.2-7.1,2.9-10.8,3.4c-18.5,2.6-37,3.2-55.3-1.3c-2.1-0.5-4.1-1.3-6.1-2
		c0.5-1.6,1-3.3,1.4-4.9c4.1,0.4,8.3,0.9,12.4,1.1c12.2,0.4,24.5,0.8,36.7,0.6c5.9-0.1,11.7-1.6,17.5-2.4c0.9-0.1,1.8,0.4,2.7,0.7
		C239.1,182.5,239.6,184.1,240,185.7z"/>
	<path class="st2" d="M330.7,179.3c0-2.2,0-4.4,0-6.6C332,174.9,333.3,177.1,330.7,179.3z"/>
	<path class="st2" d="M191.6,294.5c-0.3,1.6-0.6,3.2-1,4.8C191,297.8,191.3,296.2,191.6,294.5z"/>
	<path class="st4" d="M138.7,97.1c0.1-17.9,13.7-31.3,31.7-31.3c17.4,0.1,31.1,14.1,31,31.7c-0.1,17.3-14.1,31.2-31.2,31.1
		C152.2,128.5,138.7,115,138.7,97.1z"/>
	<path class="st4" d="M237.9,128.6c-17.4,0.1-31.4-13.8-31.5-31.3c-0.1-17.2,13.8-31.4,30.8-31.5c18-0.1,32,13.4,32,31.1
		C269.3,114.8,255.7,128.5,237.9,128.6z"/>
	<path class="st3" d="M265.7,147.7c-5.4,6.4-12.7,9.9-20.2,13.2c-14.4,6.3-29.5,7.8-44.9,7.5c-17.2-0.4-33.7-3.9-48.6-13.1
		c-4.5-2.8-8.2-6.7-12.3-10.1l0.1-0.1c4.5,2.7,8.8,5.6,13.4,8.2c9.6,5.5,19.9,9,30.9,10.2c8.4,0.9,16.8,1.8,25.2,1.6
		c18.7-0.5,36.4-4.6,52.1-15.6c1.2-0.8,2.7-1.3,4.1-1.9L265.7,147.7z"/>
	<path class="st3" d="M268,145c0.5-0.7,1-1.4,1.5-2.1c0.2,0.2,0.5,0.5,0.7,0.7c-0.7,0.5-1.4,1-2.1,1.5C268.1,145.2,268,145,268,145z
		"/>
	<path class="st3" d="M268.1,145.2c-0.8,0.9-1.6,1.7-2.5,2.6c0,0-0.3-0.3-0.3-0.3c0.9-0.8,1.7-1.6,2.6-2.4
		C268,145,268.1,145.2,268.1,145.2z"/>
	<path class="st3" d="M139.6,145.2c-0.5-0.6-1.1-1.1-1.6-1.7l0.1,0c0.6,0.5,1.1,1.1,1.7,1.6C139.8,145,139.6,145.2,139.6,145.2z"/>
	<path class="st3" d="M138,143.5c-0.2-0.3-0.4-0.6-0.6-0.9c0,0,0.2-0.1,0.3-0.2C137.8,142.7,137.9,143.1,138,143.5
		C138.1,143.4,138,143.5,138,143.5z"/>
	<path class="st5" d="M152.9,97c0-11.1,9.2-20.1,20.2-20c11.1,0.1,20,9.1,19.9,20.2c0,11.1-9,20.1-20,20.2
		C162,117.6,152.9,108.3,152.9,97z"/>
	<path class="st5" d="M255,97.9c-0.4,11.1-9.8,20.1-20.7,19.6c-11-0.5-19.9-9.8-19.6-20.7c0.2-10.9,9.7-20,20.5-19.8
		C246.6,77.3,255.4,86.6,255,97.9z"/>
	<path class="st4" d="M187.7,92.3c-0.8,0.8-1.9,2.9-3.6,3.5c-5.4,1.8-12.7-4.3-11.8-9.9c0.2-1.5,1.9-3.5,3.3-4
		C180.5,80.2,187.5,85.6,187.7,92.3z"/>
	<path class="st4" d="M239.8,81.6c5.1,0.3,10.3,5.5,9.8,10c-0.3,3.5-2.6,4.6-5.8,4.4c-5-0.3-10.4-5.6-9.9-10
		C234.4,82.6,236.6,81.4,239.8,81.6z"/>
</g>
</svg>
