<?xml version="1.0" encoding="utf-8"?>
<!-- Generator: Adobe Illustrator 22.1.0, SVG Export Plug-In . SVG Version: 6.00 Build 0)  -->
<svg version="1.1" id="Layer_1" xmlns="http://www.w3.org/2000/svg" xmlns:xlink="http://www.w3.org/1999/xlink" x="0px" y="0px"
	 width="400px" height="400px" viewBox="0 0 400 400" style="enable-background:new 0 0 400 400;" xml:space="preserve">
<style type="text/css">
	.st0{fill:#FFFFFF;}
	.st1{fill:#76AD19;}
	.st2{fill:#163A13;}
	.st3{fill:#9A4E4C;}
	.st4{fill:#F8FAF4;}
	.st5{fill:#060606;}
</style>
<circle class="st0" cx="200.5" cy="200.6" r="200"/>
<g>
	<path class="st1" d="M136.4,173.3 M125.4,188.9c-22.2-4.8-42-13.7-53.2-35c-6.4-12.1-5.5-24.8-1.3-37.3
		c10.4-30.4,29.5-53.7,58.8-67.4c25.7-12,50.7-8.2,73.6,7.5c24.5,16.8,41.1,39.7,47.4,69c1.9,8.9,0.6,18.2-0.6,27.2
		c-5.2,38.8-26.6,66.1-59.8,85.2c-13.9,8-28.6,14.3-42,23.1c-8.7,5.7-13.7,13.1-11.9,24c1.4,8.3,6.9,13.8,13.4,18.3
		c12.7,8.9,27.2,13.2,42.2,15.4c15.3,2.3,30.8,2.5,46-1.3c4.9-1.2,9.5-3,13.8-5.6c4.6-2.8,7-10.4,5.5-17c-1.7-7.3-5.8-13.4-9.2-19.9
		c-4.9-9.5-8.7-19.2-7.9-30.3c1.1-14.6,9-25.4,19.1-35c14.1-13.2,31.1-21.3,48.8-28.3c5.6-2.2,11.1-4.7,16.6-7.2
		c14.4-6.6,21-18.1,21-33.7c0-13.7-2.7-27.1-6.3-40.2c-0.4-1.6-0.5-2.7,0.6-4.4c6.4,12.8,12.5,25.4,15.6,39.3
		c1.8,8.1,2.5,16.3,1,24.5c-2.6,14.6-11.8,24.6-23.7,32.5c-7.7,5.1-15.7,9.7-23.6,14.5c-13.1,7.8-24.7,17.3-33.9,29.6
		c-1.3-0.2-6.1,17.5-0.3,16c4.7,7.5,10,14.7,14.1,22.6c4,7.8,6.2,16.1,6.9,24.7c0.1,1.8,0.7,3.8-0.6,5.5c-5.1-0.6-8.6,21.1-5.1,21.5
		c-3.5,9.2-10.3,15.5-18.1,20.8c-14.3,9.7-30.5,14-47.4,16c-13.3,1.6-26.6,2-39.9-0.1c0-1.2-33.8-18.2-34.5-8
		c-10.4-2.4-19.5-7.6-28.3-13.5c-8.3-5.6-15.9-11.9-21.1-20.6c-8.6-16.6-8.6-16.6-12.1-28.4c-2.7-10.5-1.7-21,1-31.4
		c2.5-9.6,6.7-18.4,13.8-25.5c6.4,4,35.2-24.2,34.3-25.5c6.2-4.7,13.5-7.4,20.1-11.4c3.1-1.9,6.3-3.6,9.3-5.8
		c-11.9-0.8-23.9-0.3-35.5-3 M131.2,172.6"/>
	<path class="st2" d="M138.2,210.7c0.9,1.3,1.9,2.6,2.8,3.9c8.3,12.9,0.1,27-16.1,28c-7.8,0.5-14.6-2.3-21-6.3
		c5.2-7.5,12.5-12.6,19.9-17.6C128.3,215.6,132.8,212.3,138.2,210.7z"/>
	<path class="st2" d="M89,293.1c3.9-0.7,7.3-2.9,11.5-2.9c7.1,0,13.3,3.3,15.3,8.4c2.2,5.7,0.2,12.6-5.2,17.4
		c-2.8,2.5-6.1,4.1-9.5,5.4C94.5,313.1,90.3,303.7,89,293.1z"/>
	<path class="st2" d="M150.5,355.6c0.7-10.2,4.6-15.3,12.3-15.8c11.1-0.8,22,9.2,22.3,20.3c0,1.2,0,2.3-0.1,3.5
		C173.2,362.5,161.5,360.4,150.5,355.6z"/>
	<path class="st3" d="M136.4,173.3c0.1,5.2-0.8,10.2-4,14.6c-0.4,0.6-0.2,1.7-0.3,2.6c-6.2,10-16.4,13.9-26.7,17.5
		c-9.5,3.3-18.7,7.2-24.3,16.3c-0.6,0.9-1.1,1.8-2.8,1.5c1.6-4.5,4.3-8.1,8-11.9c-5-0.6-9.8,0-14.3-2.8c5.7-1,11.1-0.1,16.3-1.8
		c10.2-3.4,20.4-6.8,29.8-12.1c3.2-1.8,7.3-3.5,7.3-8.3c3.2-0.8,3.5-3.9,3.8-6c0.5-3.5,1.5-6.8,2-10.2
		C133,172.9,134.7,173.1,136.4,173.3z"/>
	<path class="st2" d="M290.5,326.8c-3.4-0.4-7-0.2-10.1-2.2c-7.2-4.5-7-13.5,0.4-17.8c4.8-2.8,9.8-2.1,14.9-1.5
		c0.1,0.7,0.2,1.3,0.3,2c0,0-0.2,0.1-0.2,0.1l0.1,0.2C295.2,314.3,294.1,321,290.5,326.8z"/>
	<path class="st2" d="M275.3,252.5c-5.8,1.5-12.3-3.2-12.4-8.9c-0.1-4.6,3.4-7.7,8.8-7.6c1.3,0,2.6,0.3,3.9,0.5
		C273,241.7,271.6,247,275.3,252.5z"/>
	<path class="st1" d="M295.9,307.6l-0.1-0.2c0,0,0.2-0.1,0.2-0.1c0.1,0,0.2,0,0.2,0.1C296.1,307.4,296,307.5,295.9,307.6z"/>
	<path class="st4" d="M150.8,113.9c-0.1,18.8-14.8,33.4-33.6,33.3c-18.6-0.1-32.9-14.9-33-33.6c-0.2-18.4,16.2-33.7,33.9-33.1
		C136.5,81.2,150.9,95.4,150.8,113.9z"/>
	<path class="st4" d="M189.1,80.7c18.8-0.1,33.8,14.7,33.9,33.3c0,18-15.1,33.1-33.1,33.3c-18.8,0.1-33.8-14.5-34-33.2
		C155.7,95.7,171.5,79.8,189.1,80.7z"/>
	<path class="st2" d="M205.5,350.4c-5.8,0.1-10.7-1.1-14.9-4.4c-5.8-4.5-6-11.8-0.5-16.6c6.8-5.9,19-7.3,26.9-2.7
		c3.9,2.2,7.1,5.2,7.2,10.3c0.1,5.4-3.5,8.2-7.3,10.7C213.2,349.9,209.2,350.6,205.5,350.4z"/>
	<path class="st2" d="M183.5,231c-6.4,0-11.7-2.3-15.8-7.3c-5.6-6.9-3.1-16.1,5.6-19.3c7.9-2.9,15.1-1.2,21.2,4.5
		c3.8,3.5,5.7,8,3.8,13.1c-2,5.6-6.5,8.1-12.1,8.9C185.2,231.1,184.3,231,183.5,231z"/>
	<path class="st2" d="M114.2,279c-5,0.4-9.6-1.7-13.3-5.9c-5.8-6.7-4-15.1,4.3-18.2c5.7-2.2,11.7-1.7,17,1.5
		c5.8,3.6,8.1,9.4,6.4,15.5C127.5,275.5,120.8,279,114.2,279z"/>
	<path class="st2" d="M139.8,330.2c-6.1,0-9.9-2.3-11.5-6.8c-1.4-4,0.4-9.3,4.4-12.5c4.1-3.3,8.6-4.8,13.9-3.9
		c8.5,1.4,11.8,9.8,6.5,16.6C149.7,328,145.2,330.4,139.8,330.2z"/>
	<path class="st2" d="M248.5,349.6c-4,0-7.5-1.1-10.2-3.8c-4.1-4-4.1-9.7-0.1-13.7c5.2-5.3,14.3-6.1,20.2-1.5
		c3.1,2.4,5.2,5.5,4.1,9.5c-1.4,5.3-5.4,8.2-10.7,9.3C250.7,349.6,249.5,349.5,248.5,349.6z"/>
	<path class="st2" d="M256.6,270.9c-5.5,0-9.9-3.2-10.4-7.3c-0.5-4,2.8-7.7,8-9c3.5-0.9,6.8,0,9.6,1.9c2.3,1.5,3.9,3.9,3.3,6.8
		c-0.6,3.2-2.6,5.5-5.7,6.8C259.8,270.7,258.1,271.1,256.6,270.9z"/>
	<path class="st2" d="M273.3,278.7c0.3,0,1.4,0,2.4,0.2c3.5,0.9,6.3,2.8,7.3,6.4c0.9,3.4-1.2,6-3.8,7.8c-3.4,2.4-7.3,3.4-11.1,1.6
		c-3.6-1.7-6.6-4.2-5.8-8.8C262.9,281.6,267.3,278.8,273.3,278.7z"/>
	<path class="st2" d="M270.9,208.1c6.4,0,11.5,4.1,11.6,9.6c0.1,4.4-3.4,7.7-8.2,7.8c-6,0-11.9-4.9-12.1-9.9
		C262,211.6,266.1,208.1,270.9,208.1z"/>
	<path class="st2" d="M136.4,173.3c-1.7-0.2-3.5-0.5-5.2-0.7c-9.7-1.5-19-4.3-27.8-8.9c13.2,3.7,26.6,6.4,40.3,7.3
		c13.9,0.9,27.8-0.7,41.7-1.3C169.3,174.6,153,175.2,136.4,173.3z"/>
	<path class="st5" d="M141.9,114.2c-0.1,11.7-9.8,21.2-21.5,21.1c-12-0.2-21.2-9.8-21.1-21.9c0.1-11.4,9.8-20.9,21.3-20.9
		C132.4,92.4,141.9,102.1,141.9,114.2z"/>
	<path class="st5" d="M207.6,113.7c0.1,11.7-9.3,21.3-21.1,21.5c-11.5,0.2-21.4-9.5-21.6-21.1c-0.2-11.8,9.7-21.8,21.4-21.7
		C197.9,92.4,207.5,102,207.6,113.7z"/>
	<path class="st4" d="M130.3,112.6c-5.3-0.1-10.8-5.4-10.7-10.4c0.1-3.8,2.5-5.2,5.8-5.1c5.2,0.1,11,5.7,10.9,10.4
		C136.2,110.6,133.7,112.7,130.3,112.6z"/>
	<path class="st4" d="M191.1,97.1c5.3,0.1,11,5.5,10.8,10.3c-0.1,3.7-2.3,5.2-5.7,5.2c-5.1,0-11-5.5-10.9-10.3
		C185.2,99.3,187.8,97,191.1,97.1z"/>
</g>
</svg>
