<?xml version="1.0" encoding="utf-8"?>
<!-- Generator: Adobe Illustrator 22.1.0, SVG Export Plug-In . SVG Version: 6.00 Build 0)  -->
<svg version="1.1" id="Layer_1" xmlns="http://www.w3.org/2000/svg" xmlns:xlink="http://www.w3.org/1999/xlink" x="0px" y="0px"
	 width="400px" height="400px" viewBox="0 0 400 400" style="enable-background:new 0 0 400 400;" xml:space="preserve">
<style type="text/css">
	.st0{fill:#FFFFFF;}
	.st1{fill:#6D979A;}
	.st2{fill:#91BEC1;}
	.st3{fill:#DCFCFD;}
	.st4{fill:#FDFDFD;}
	.st5{fill:#AEDBDD;}
	.st6{fill:#060606;}
</style>
<circle class="st0" cx="200.5" cy="199.6" r="200"/>
<g>
	<path class="st1" d="M216,254.6c-3.5,6.3-2.9,12.6-2.2,19.7c1.4,12.7,1.4,25.8,0,38.5c-1.5,13.7-5.1,27.2-8.2,40.7
		c-0.5,2.3-3,4.2-4.6,6.3c-1.6-2.1-4.1-3.9-4.7-6.2c-2.9-11.8-5.9-23.6-7.7-35.6c-2.4-16.1-3.7-32.3,0.3-48.3
		c1.4-5.8-0.5-10-3.4-14.4c-0.9-0.6-1.2-1.6-1.6-2.5c-0.3-1.2-0.6-2.3-0.9-3.5c-0.4-2-1.2-3.9-1.9-5.8c-0.3-1.4-0.8-2.9-1-4.3
		c-0.4-1.5,0.5-2.9,0.2-4.4c-0.3-1.7-0.7-3.4-1-5.1c-1.1-1.3-1.2-3-1.6-4.6c-0.3-1.2-0.4-2.3-0.4-3.5c-0.1-1.9,0-3.8,0-5.7
		c0-1,0-1.9,0-2.9c0-1.8,0.4-3.4,2-4.5c0.1-0.7,0-1.5,0.2-2.2c1.1-6.3,1.1-6.2-5.5-7.3c-16.3-2.8-31.8-8-44.8-18.6
		c-17.2-13.9-22.6-31.6-16.1-52.8c7.6-24.7,22.4-44.2,43.3-59.3c2.8-2,3.4-3.1,0.7-5.6c-5.4-5.2-10.7-10.6-15.7-16.2
		c-2.6-2.9-3.9-3.2-6.6,0.2c-12.5,16.2-25.2,32.1-37.9,48.1c-1.6,2.1-3.5,4-5.2,6c-0.4-0.3-0.7-0.5-1.1-0.8c2.1-3.5,4-7.1,6.4-10.4
		c11.9-17,23.8-33.9,35.8-50.8c3.8-5.4,4.9-5.5,9.6-0.7c7.1,7.2,14.3,14.4,21.3,21.7c1.7,1.8,3,2.2,5.2,1.1
		c21.4-10.4,42.9-10.5,64.4,0c2,1,3.3,0.8,4.9-0.9c7.3-7.6,14.8-15.1,22.3-22.6c4-4,5.2-3.9,8.4,0.6c13.2,18.7,26.3,37.5,39.4,56.3
		c1.3,1.9,2.3,3.9,3.5,5.9c-0.3,0.2-0.6,0.5-0.8,0.7c-2.1-2.3-4.4-4.5-6.3-6.9c-12.6-15.9-25.2-31.8-37.6-47.9
		c-2.4-3.1-3.5-2.5-5.6-0.2c-5.3,5.7-10.7,11.4-16.3,16.9c-2.6,2.5-1.9,3.6,0.7,5.4c20.9,15.1,35.9,34.7,43.5,59.6
		c8.2,27.2-4.1,46.9-26.9,59.6c-11.6,6.5-24.3,10.1-37.4,12c-4,0.6-4,2-2.8,5c0.7,1.7,0.7,3.7,1.1,5.5c0.8,1.1,1.4,2.2,1.4,3.6
		c0,1.3-0.4,2.6-0.4,3.9c0,1.3,0,2.7,0,4c0.1,1.2,0,2.3,0,3.5c0,1.5-0.1,3-1.3,4.1c-0.3,1.8-0.6,3.6-0.9,5.4c0.5,1.4,0.3,2.9,0,4.3
		c-0.4,1.4-0.5,2.8-0.9,4.2c-0.6,1.7-1.1,3.5-1.7,5.2c-0.3,0.9-0.7,1.9-1,2.9C217.9,252.6,217.3,253.9,216,254.6z"/>
	<path class="st2" d="M216,254.6c0.6-1.2,1.2-2.3,1.8-3.5c1.9-1.2,3.3,0.3,4.7,1.1c31.4,17.8,64.6,31.3,99,42.2
		c8.1,2.6,16.5,4.5,24.9,5.7c5.4,0.7,7.6,0,10-4.8c5.3-10.9,6.6-22.1,2.1-33.6c-1.1-2.8-2.9-4.4-5.8-5.3c-9.5-2.7-19.3-4.1-29-5.8
		c-19.7-3.5-39.6-5.3-59.5-7.3c-11.9-1.2-23.9-2.4-35.9-2.3c-2.5,0-5.3,0.5-7.1-2.1c0.3-1.4,0.5-2.8,0.8-4.2
		c7.8,0.5,15.6,0.9,23.3,1.6c20.8,1.9,41.7,3.5,62.5,6.1c15.4,1.9,30.7,5.3,46.1,7.8c7.5,1.2,10.6,6,12.1,12.8
		c2.6,11.4,1.5,22.5-2.5,33.2c-3.4,9.2-8.1,11.2-18.6,9.4c-24.7-4.3-48.1-12.7-70.9-22.6c-16.4-7.1-32.4-15.4-48.5-23.2
		C222.2,258.2,219.1,256.3,216,254.6z"/>
	<path class="st2" d="M180.3,234.6c0.2,1.5,0.4,2.9,0.6,4.4c-1.4,1.5-3.2,1.9-5.2,1.9c-28.6,0.9-56.9,4.3-85.2,8
		c-12.8,1.7-25.5,3.9-38,7c-4,1-6.2,3.2-7.5,7c-3.6,10.6-2.1,21,1.8,31c2.2,5.7,5.2,6.8,11.4,5.9c19.8-3,38.4-10,57-16.9
		c21.9-8.2,43.1-17.9,63.5-29.2c1.7-0.9,3.5-2.4,5.6-0.9c0.3,0.8,0.6,1.6,0.9,2.4c-8.8,5-17.3,10.5-26.3,14.9
		c-23.1,11.3-46.7,21.1-71.4,28.3c-11.4,3.3-23.3,5.2-35.1,7.4c-5.1,0.9-8.6-2.1-10.6-6.6c-5.7-12.9-6.5-26.3-2.7-39.8
		c1.3-4.5,4-7.8,9.2-8.7c15.5-2.7,30.9-6.1,46.4-8.2c18.7-2.6,37.6-4.2,56.4-5.9c8.1-0.8,16.2-0.8,24.3-1.2
		C177.3,235.3,178.8,234.9,180.3,234.6z"/>
	<path class="st2" d="M222.8,229.2c0.1-1.4,0.2-2.9,0.3-4.3c4.1-2.3,8.3-0.4,12.3,0c19.9,2,39.8,3.5,59.8,4.2c12,0.5,24,0.4,36,0.7
		c6,0.2,11.8-0.8,17.8-1.1c5-0.2,8.3-2.8,10.2-7.4c4-9.7,4.7-19.7,1.9-29.8c-1.5-5.4-3.7-6.8-9.5-7c-14.8-0.6-29.1,2.3-43.5,5.2
		c-18.2,3.6-36.1,8.4-53.8,14c-8.7,2.7-17.1,6.3-25.6,9.7c-1.6,0.6-3.2,1.6-4.9,0.3c-0.3-1.2-0.6-2.5-0.8-3.7
		c9.3-3.6,18.4-7.9,27.9-10.7c20.3-5.8,40.7-11.1,61.2-16c13.5-3.2,27.3-5,41.3-4.6c9.3,0.3,12.7,2.5,14.4,11.6
		c2.5,13.3,1.4,26.2-5.3,38.3c-2.1,3.8-5.3,5.6-9.5,5.8c-11.8,0.4-23.7,1-35.5,1c-10.9,0-21.7-0.2-32.6-1
		c-19.4-1.4-38.9-3.3-58.3-5.1C225.4,229.4,224.1,229.3,222.8,229.2z"/>
	<path class="st2" d="M178.7,225c0.2,1.5,0.4,3,0.6,4.5c-13.2,1.4-26.4,3.2-39.6,4c-17,1.1-34.1,1.8-51.1,2
		c-12.1,0.2-24.2-0.7-36.3-0.9c-5.5-0.1-9.2-2.5-11.6-7.5c-5.9-12.3-6.7-25.1-3.9-38c1.8-8.1,4.9-9.9,13.2-10.2
		c15-0.6,29.7,1.9,44.3,4.8c26.2,5.3,52,12.3,76.9,22.3c2.6,1.1,5.4,1.6,8.1,2.4c-0.3,1.5-0.6,3-0.9,4.6c-1.5,1.1-3,0.5-4.5-0.2
		c-26.9-11.3-55-18.4-83.4-24.1c-12.6-2.6-25.4-4.8-38.4-4.1c-5.4,0.3-7.8,1.8-9.1,6.9c-2.6,10.3-2.2,20.4,2.2,30.2
		c2,4.4,5.1,6.8,10,7.2c17.1,1.4,34.2,1.6,51.2,0.3c6.8-0.5,13.6-0.3,20.4-0.7c16.1-0.9,32-2.7,48.1-4
		C176.2,224.4,177.5,224.1,178.7,225z"/>
	<path class="st3" d="M218.6,248.5c0.5-1.8,0.9-3.7,1.4-5.5c1.7-1,3.6-1.1,5.5-0.9c12.8,1,25.7,1.7,38.5,2.9c21.1,1.9,42,4.6,63,7.6
		c8.2,1.2,16.3,2.7,24.3,4.9c3.2,0.9,5.5,2.7,6.5,5.8c3.6,10.7,3.4,21.1-2.6,31c-1.7,2.9-4.3,4-7.7,3.6
		c-13.9-1.4-26.9-5.9-39.8-10.6c-24.2-8.7-48-18.2-71.2-29.2C230.4,255.2,224.3,252.2,218.6,248.5z"/>
	<path class="st3" d="M182,243.3c0.5,2,1,4.1,1.5,6.1c-4.5,3.4-9.7,5.7-14.7,8.2c-27.6,13.3-56,24.5-85,34.2
		c-8.4,2.8-16.9,5.2-25.8,6.1c-5,0.5-8.3-1.5-10.3-5.5c-4.5-9.1-5.1-18.6-1.7-28.3c1.4-3.9,4.3-5.9,8.3-6.9
		c16.1-3.8,32.5-6,48.8-8.1c19.5-2.5,39.1-4.3,58.7-5.9c5.2-0.4,10.4-0.3,15.6-1C179.1,241.9,180.7,242.1,182,243.3z"/>
	<path class="st3" d="M223.1,221.5c0-1.4,0-2.8-0.1-4.2c3.9-4.2,9.5-5.4,14.6-7.2c21.6-7.6,43.8-13.2,66.2-17.7
		c11.2-2.3,22.4-4.4,33.8-5.6c4.9-0.5,9.8-0.5,14.8-0.3c3.9,0.2,6.7,2.1,7.7,5.9c2.8,10.3,2.4,20.3-2.8,29.9c-1.7,3.2-4.4,4.7-8.1,5
		c-18.8,1.4-37.6,1.1-56.4,0.3c-12.1-0.5-24.3-1.4-36.4-2c-10.3-0.5-20.4-2.2-30.7-2.7C224.8,222.6,223.8,222.3,223.1,221.5z"/>
	<path class="st3" d="M178.3,215.6c0.1,2,0.1,4,0.2,5.9c-2.8,2-6.1,1.8-9.2,2c-18.7,1.7-37.5,2.7-56.3,3.8
		c-15.9,0.9-31.9,0.3-47.8,0.7c-3.9,0.1-7.8-0.7-11.7-1.1c-3-0.3-5-2.3-6.5-4.7c-6.3-10-5.9-20.6-2.6-31.4c1.1-3.6,4.6-4.4,8.2-4.6
		c7.7-0.3,15.4,0.3,22.9,1.4c23.7,3.6,46.9,9.1,70,15.4c9.3,2.6,18.6,5.5,27.5,9.3C175,213.3,177,213.9,178.3,215.6z"/>
	<path class="st4" d="M198.5,123.6c-0.1,18-15,32.7-33.1,32.6c-18-0.1-32.7-14.9-32.8-33.1c0-18,15.3-33.1,33.5-32.9
		C184.1,90.6,198.6,105.4,198.5,123.6z"/>
	<path class="st4" d="M269.1,123.5c0,18.4-14.5,32.8-32.9,32.7c-18.1-0.1-32.6-14.6-32.5-32.7c0-18.7,14.5-33.3,32.9-33.2
		C254.6,90.3,269.2,105.2,269.1,123.5z"/>
	<path class="st5" d="M218.6,248.5c4.7,2.1,9.4,4.1,14.1,6.2c10,4.6,19.8,9.6,29.9,13.7c18.8,7.5,37.6,14.9,56.7,21.5
		c9.6,3.3,19.8,4.9,29.8,6.9c1.4,0.3,3.8-1.2,4.6-2.5c6-9.7,6.3-20.1,2.9-30.8c-1.6-4.9-6-5.5-9.7-6.1c-16-2.7-32.1-5.3-48.3-7.2
		c-17.6-2.1-35.3-3.6-52.9-5.3c-8.6-0.8-17.3-1.3-25.9-2c0.4-1.4,0.7-2.7,1.1-4.1c2,0.3,4,0.7,6,0.9c15.4,1.2,30.7,2.1,46.1,3.5
		c13.9,1.2,27.8,2.4,41.6,4.5c13.5,2,26.8,5,40.2,7.9c1.5,0.3,3.2,2.2,3.9,3.7c5.9,13.8,4.6,27.1-3.5,39.5c-1.2,1.9-5.7,2.7-8.5,2.4
		c-17.1-2.4-33.4-7.7-49.4-13.9c-15.9-6.1-31.7-12.4-47.2-19.4c-10.4-4.6-20.1-10.6-30.2-15.9c-0.7-0.4-1.6-0.7-2.3-1
		C218,250.3,218.3,249.4,218.6,248.5z"/>
	<path class="st5" d="M182,243.3c-14.7,1.1-29.3,2.2-44,3.4c-11.8,1-23.6,2.1-35.3,3.6c-13.1,1.7-26.2,4.1-39.3,6.2
		c-2.1,0.3-4.2,1-6.3,1.3c-9.8,1.2-10.8,5.9-11.6,13.9c-0.5,5.6,0.5,11.5,1.8,17.1c1.7,7,6.8,9.1,15.2,7.3
		c19.6-4,38.3-11.1,56.8-18.6c18.3-7.4,36.2-15.8,54.3-23.7c3.3-1.4,6.5-2.9,9.8-4.4c0.3,1.2,0.7,2.3,1,3.5c-3,1.4-6,2.5-8.9,4.1
		c-29.6,16-60.6,28.5-92.7,38.5c-8.5,2.7-17.3,4.3-26,6c-5.9,1.2-9.4-1.2-11.8-8.3c-3.6-10.6-5-21.4-0.7-32.2c1.2-3,2.8-5.1,6.3-5.7
		c16-2.7,32-6,48-8.4c14.5-2.2,29.1-3.7,43.7-5.2c9.8-1,19.6-1.3,29.4-1.9c3-0.2,6-0.5,9-0.8C181.3,240.5,181.7,241.9,182,243.3z"/>
	<path class="st5" d="M223.1,221.5c14.4,1.2,28.7,2.4,43.1,3.5c5,0.4,10.1,0.8,15.1,0.9c19.8,0.4,39.7,0.7,59.5,0.9
		c3.4,0,7-0.3,10.3-1c1.6-0.3,3.4-1.7,4.3-3.1c6.2-9.8,6.5-20.5,2.9-31.2c-0.6-1.8-4.3-3.8-6.5-3.6c-11.1,0.6-22.3,0.9-33.1,3
		c-20.5,4.1-40.9,8.8-61.1,14.2c-11.8,3.2-23.1,8.1-34.7,12.2c0.3-1.2,0.6-2.3,0.8-3.5c7.5-2.9,14.9-6.3,22.6-8.6
		c18.5-5.5,37-11.1,55.8-15.6c16.5-3.9,33.3-7.2,50.5-6.4c5.6,0.2,8,2,9.5,7.5c2.9,10.7,2.2,21-1.9,31.3c-2.4,5.9-6.6,8-12.4,8.1
		c-14.6,0.3-29.2,1.2-43.8,0.7c-16.8-0.5-33.7-2-50.5-3.3c-10.2-0.8-20.4-1.8-30.6-2.8C223.1,223.8,223.1,222.6,223.1,221.5z"/>
	<path class="st5" d="M178.3,215.6c-6.3-2.2-12.4-4.8-18.8-6.5c-19.5-5.3-39-10.4-58.5-15.2c-8.5-2.1-17.2-3.7-25.9-4.7
		c-8-1-16.1-1.2-24.2-1.3c-1.7,0-4.6,1.7-5.1,3.2c-3.2,9.7-3.2,19.5,1.1,29.1c3.2,7,9.6,6.4,15.2,6.5c16.3,0.2,32.7-0.3,49-0.6
		c5.3-0.1,10.7-0.5,16-0.8c17.1-1.2,34.2-2.4,51.4-3.6c0.1,1.2,0.2,2.3,0.2,3.5c-7.3,0.9-14.5,2.1-21.8,2.5
		c-16.7,1.1-33.4,2-50.1,2.7c-13.7,0.5-27.5,0.7-41.2,0.8c-3.6,0-7.2-0.7-10.8-0.8c-8.5-0.3-10.6-6.9-12.7-13.2
		c-2.9-8.7-2.5-17.6-0.2-26.5c1.4-5.2,3.9-7.1,9.2-7.3c11.2-0.3,22.2,0.6,33.1,3.2c19.5,4.6,39.1,8.5,58.4,13.7
		c10.7,2.8,20.9,7.5,31.3,11.3c1.5,0.5,3,1,4.5,1.5C178.4,213.8,178.3,214.7,178.3,215.6z"/>
	<path class="st6" d="M168.6,144.3c-11.7,0-20.9-9.3-20.9-21c0.1-11.9,9.5-21.1,21.3-21c11.4,0.1,20.8,9.7,20.7,21.3
		C189.7,135.1,180.2,144.3,168.6,144.3z"/>
	<path class="st6" d="M254.3,123.7c-0.1,11.6-9.5,20.7-21.2,20.6c-11.7-0.1-20.8-9.3-20.7-21.1c0.1-11.6,9.4-20.9,21-20.9
		C245.1,102.3,254.4,111.7,254.3,123.7z"/>
	<path class="st4" d="M183.9,118.4c-0.1,2.1-2,3.7-5.2,3.8c-4.8,0.3-10.4-4.6-10.9-9.4c-0.4-3.5,1.4-5.5,4.8-6
		C177.6,106.2,184,112,183.9,118.4z"/>
	<path class="st4" d="M243.3,122.3c-4.4,0-9.9-4.4-10.7-8.8c-0.8-4.1,2.1-7.4,6.2-6.6c4.7,0.9,8.2,3.5,9.7,8.3
		C249.6,119,247.2,122.2,243.3,122.3z"/>
</g>
</svg>
