<?xml version="1.0" encoding="utf-8"?>
<!-- Generator: Adobe Illustrator 22.1.0, SVG Export Plug-In . SVG Version: 6.00 Build 0)  -->
<svg version="1.1" id="Layer_1" xmlns="http://www.w3.org/2000/svg" xmlns:xlink="http://www.w3.org/1999/xlink" x="0px" y="0px"
	 width="400px" height="400px" viewBox="0 0 400 400" style="enable-background:new 0 0 400 400;" xml:space="preserve">
<style type="text/css">
	.st0{fill:#FFFFFF;}
	.st1{fill:#5CA942;}
	.st2{fill:#3D6531;}
	.st3{fill:#E3DF90;}
	.st4{fill:#468134;}
	.st5{fill:#FDFEFD;}
	.st6{fill:#060606;}
</style>
<circle class="st0" cx="200.5" cy="199.6" r="200"/>
<g>
	<path class="st1" d="M137.3,207.9c-1.5-3.4-2.6-7-4.6-10.1c-14.4-21.9-24.2-45.6-26.4-71.9c-1.2-14.1,1.5-27.6,9-39.7
		c2.3-3.7,2.9-7,1.7-11.4c-5.8-20.7,4.9-42.9,24.3-51.8c20-9.2,43.4-2.9,55.7,14.9c1,1.5,2,3,3.4,5c1.2-1.8,2.3-3.3,3.4-4.8
		c12.5-18.2,36.2-24.5,56.5-14.9c19.6,9.3,29.6,31.5,23.5,52.5c-0.9,3.2-0.8,5.7,1.1,8.7c11.3,18.2,12,37.9,7.4,58.1
		c-4.7,20.9-13.5,40.1-25.8,57.8c-1.4,2-1.9,4.7-2.4,7.2c-0.6,3-0.6,6.2-0.9,9.3c-1.7-3.5-1.8-4.5-1-8.8
		c-6.8,8.2-14.5,16.4-23.9,22.9c-7.2,5-14.8,9.3-23.4,11.2c-16.8,3.8-32.6,1.3-47.3-7.9c-9.7-6.1-18.3-13.3-25.4-22.3
		C140.8,210.4,139.5,208.6,137.3,207.9z"/>
	<path class="st1" d="M143.5,320.8c-0.9-16.4-1.7-32.7-2.6-49.1c-1-18-2.1-36-3.2-54c2.1,0,2.9,1.9,4.2,3.1
		c8.7,8.1,17.5,15.9,28.2,21.3c22.6,11.5,44.3,10.2,65.7-2.9c8.1-4.9,15.3-10.8,21.9-17.5c1.4-1.4,2.6-3.5,5.2-3.1
		c-0.7,14.4-1.5,28.7-2.2,43.1c-0.2,4.2-0.4,8.5-0.7,12.7c1.6,1.6,1.1,3.6,1,5.6c-0.7,11.8-1.5,23.5-2.5,35.2
		c-0.2,5.7-0.1,11.4-0.9,17.1c-0.9,5.8-1.6,6.4-7.2,4.2c-1.5-0.6-3.1-1-4.3-2.2c-1.6-2.4-1.7-5.3-2.2-8
		c-3.4-15.8-8.8-30.7-20.6-42.4c-15.4-15.2-34.3-13-47.9,2.5c-11,12.5-16.2,27.7-18.7,43.9c-0.2,1.3-0.2,2.6-0.9,3.8
		c-0.9,1.1-2.1,1.4-3.4,1.9c-7,2.5-9.2,1-9.3-6.6C143,326.6,142.4,323.6,143.5,320.8z"/>
	<path class="st2" d="M257.1,315.6c1-13.7,2-27.4,2.9-41c11.9-5.3,20.8-14.3,28.5-24.5c15.5-20.7,24-44.4,29.8-69.2
		c1.8-7.7,3.1-15.5,5.2-23.4c0.4,2.5,0.9,5.1,1.2,7.6c4,33.4,4.5,66.6-4.4,99.4c-5.5,20.3-14.4,38.8-28.4,54.6
		c-0.7,0.8-1.7,1.6-2.5,2.3c-0.9,2.4-2.8,2-4.5,1.4c-6.7-2.4-13.6-2-20.4-1.8C258.1,321.3,258.1,321.5,257.1,315.6z"/>
	<path class="st3" d="M155.3,333.5c2.2-21.5,9.1-40.8,26.6-54.7c14-11.2,33.2-7.6,45.8,7.9c11.1,13.6,16.1,29.5,18.5,46.6
		c-1.2,1.3-2.7,1-4.1,0.8c-14.4-1.5-25.3,3.8-32.3,16.6c-0.5,0.9-1.1,1.6-1.9,2.2c-5,0-10.1,0-15.1,0.1c-3.6-6.9-7.8-13.2-15.6-16.2
		c-5.7-2.2-11.5-3.8-17.7-2.7C158,334.4,156.5,334.7,155.3,333.5z"/>
	<path class="st4" d="M155.3,333.5c9.6-1.9,18.7-0.6,27,4.8c5.3,3.5,9.7,7.8,10.5,14.7c-0.3,0.1-0.5,0.2-0.8,0.2
		c-2.4,0.3-3-1.8-3.9-3.1c-9.8-13.2-31.3-15.4-43.7-3.4c-1.9,1.9-3.5,4.5-6.8,4.4c-14.5,0-28.9-0.1-43.4,0.1c-4,0.1-4.2-1.2-3.3-4.5
		c4.8-16.9,22.4-28.8,41.4-27.5c3.7,0.3,7.5,1,11.2,1.6c0.3,3.5,0.7,7,0.9,10.6c0.2,5.1,0.7,5.5,5.4,4
		C151.6,334.8,153.4,334.2,155.3,333.5z"/>
	<path class="st4" d="M208.5,351.1c4.9-12.2,18.8-20,32.3-18.2c1.8,0.2,3.6,0.3,5.4,0.5c0.4,0.3,0.7,0.7,1.1,0.9
		c2.7,0.9,5.5,1.7,8.2,2.5c0.3-2.7,0.8-5.4,1-8.1c0.3-4.4,0.4-8.7,0.6-13.1c0.8,3.9,2.5,4.6,6.8,4.2c7.4-0.6,15.2-1.6,22.4,2.3
		c0.7,0.4,2.1-0.4,3.1-0.6c1,1.1,1.8,2.4,3,3.1c8.3,5,14.4,11.8,17.4,21.2c1.3,3.9,1,5.5-3.8,5.4c-14.3-0.3-28.7-0.1-43-0.1
		c-2.5,0.6-3.4-1.5-4.6-2.9c-11.8-13.4-34.8-12.7-45.6,1.4C210.5,352.9,210.5,352.9,208.5,351.1z"/>
	<path class="st4" d="M262.9,218.8c-6.5,5.7-12.7,11.9-19.6,17.1c-13.7,10.3-29,16.6-46.5,15.5c-14.6-0.9-27.7-6.5-39.3-15.3
		c-7.1-5.4-13.2-12.1-19.8-18.2c-0.1-3.3-0.3-6.6-0.4-9.8c0.8-0.1,2.1-0.6,2.5-0.2c4.3,4.5,8.3,9.3,12.8,13.6
		c9.5,9,20.2,16.5,33,19.6c16.2,3.9,31.8,1.6,46.3-7.3c11.8-7.2,21.2-16.9,31.3-28.3c0,4.6,0,8.1,0,11.5
		C263.1,217.5,263,218.2,262.9,218.8z"/>
	<path class="st1" d="M208.5,351.1c0.8-0.2,2.1-0.1,2.4-0.6c8.9-16.1,39-18.2,50-1.1c0.5,0.8,1.5,1.2,2.2,1.9c0,0.2,0,0.3,0,0.5
		c2.7,9.7,2.7,9.7-7.7,9.7c-14.5,0-28.9-0.1-43.4,0.1c-4.7,0.1-5.9-1.2-4-5.5c0.4-0.8-0.1-2-0.2-3.1
		C208,352.3,208.3,351.7,208.5,351.1z"/>
	<path class="st1" d="M137.5,351.1c5-3.7,9.7-7.8,15-10.9c11.2-6.5,30.6-1.3,37.3,10.3c0.6,1,1.4,1.8,2.1,2.7c3,8.6,3,8.4-6.4,8.3
		c-15.3-0.2-30.6-0.2-45.9,0c-4.3,0.1-4.8-1.3-3.5-4.8C136.8,354.9,137,353,137.5,351.1z"/>
	<path class="st5" d="M160.1,101c-20.6-0.1-37.5-17-37.3-37.5c0.2-20.6,17.2-37.6,37.5-37.4c20.6,0.2,37.3,17.1,37.3,37.6
		C197.6,84.3,180.7,101.1,160.1,101z"/>
	<path class="st5" d="M277.9,63.7c0.1,20.5-16.5,37.1-36.7,37.3c-20,0.3-38-16.2-37.8-37.1c0.2-20.9,16.7-37.8,37.4-37.8
		C261.3,26.2,277.9,43,277.9,63.7z"/>
	<path class="st2" d="M237.4,162.6c0,7.8-5.4,13.6-12.6,13.5c-7-0.1-13.1-6.3-13.2-13.3c-0.1-6.6,6.1-13.2,12.7-13.1
		C232.3,149.8,238.2,155.9,237.4,162.6z"/>
	<path class="st2" d="M189,162.9c0,7.6-5.6,13.2-13.1,13c-6.7-0.1-12.8-6.4-12.7-13.1c0-6.8,6.1-13.1,12.8-13.2
		C183.3,149.5,189,155.3,189,162.9z"/>
	<path class="st2" d="M234,209c2.8-1.5,6-2.7,8.3-4.7c4.3-3.9,8.1-8.3,12.5-13c-8.4,18.8-28.4,33.5-61.1,31.5
		c-18.3-1.1-43.3-16.7-46.9-31c6.3,7,11.2,14.5,20.1,17.1c2.8,1.4,5.7,2.7,8.1,4.8c4.9,1.5,9.8,3.7,14.8,4.4
		c12.4,1.6,24.8,1.4,36.5-4C228.8,212.2,231.5,210.7,234,209z"/>
	<path class="st5" d="M234,209c-2.6,1.7-5.2,3.4-7.7,5.1c0.4-5.5,0.7-11,1.1-16.5c0.3-0.1,0.5-0.2,0.8-0.3
		C230.1,201.2,232.1,205.1,234,209z"/>
	<path class="st5" d="M175,213.7c-2.7-1.6-5.4-3.2-8.1-4.8c1.9-3.7,3.8-7.4,6.4-12.6C173.9,203.1,174.5,208.4,175,213.7z"/>
	<path class="st6" d="M163.9,87.4c-13.3,0-23.8-10.3-24.1-23.6c-0.3-13.1,10.8-24.2,24.1-24.1c13.1,0.1,23.9,11,23.9,23.9
		C187.7,76.8,177,87.4,163.9,87.4z"/>
	<path class="st6" d="M261,63.4c0.1,13.6-10.4,24.1-24,24c-13.3,0-23.6-10.4-23.6-23.8c0-13.3,10.4-23.8,23.7-23.9
		C250.3,39.7,261,50.3,261,63.4z"/>
	<path class="st5" d="M175.2,62.4c-6,0-12.7-6.2-12.8-11.5c-0.1-3.4,2.8-6,6.4-6c5.7,0,12.1,6.1,12.1,11.5
		C181.1,60.6,178.4,62,175.2,62.4z"/>
	<path class="st5" d="M242.5,44.9c5.6,0,12.4,6.3,12.3,11.5c-0.1,3.9-2.6,5.9-6.4,6c-5.8,0.1-12.1-6-12.1-11.5
		C236.2,47.2,238.7,44.9,242.5,44.9z"/>
</g>
</svg>
