<?xml version="1.0" encoding="utf-8"?>
<!-- Generator: Adobe Illustrator 22.1.0, SVG Export Plug-In . SVG Version: 6.00 Build 0)  -->
<svg version="1.1" id="Layer_1" xmlns="http://www.w3.org/2000/svg" xmlns:xlink="http://www.w3.org/1999/xlink" x="0px" y="0px"
	 width="400px" height="400px" viewBox="0 0 400 400" style="enable-background:new 0 0 400 400;" xml:space="preserve">
<style type="text/css">
	.st0{fill:#FFFFFF;}
	.st1{fill:#CB8310;}
	.st2{fill:#7D5516;}
	.st3{fill:#F9F8F3;}
	.st4{fill:#EEBE8D;}
	.st5{fill:#060606;}
</style>
<circle class="st0" cx="200.5" cy="199.6" r="200"/>
<g>
	<path class="st1" d="M87.8,120.6c6.9-8.3,10.2-17.4,9.8-28.6c-0.6-16,0.7-32,0.9-48c0-5.1,1.9-5,5.6-3.2
		c12.4,6,24.9,11.8,37.3,17.9c3.6,1.8,6.6,2.2,10.4,0.3c17.9-9,36.9-13.2,56.8-9.5c10.9,2.1,21.3,6.6,32,9.8c2.3,0.7,5.4,0.9,7.5,0
		c12.9-5.8,25.7-12,38.5-18c5.8-2.7,6-2.6,6.2,3.9c0.5,19.1,0.8,38.3,1.6,57.4c0.1,2.9,1.4,6.1,3,8.6c9.5,14.9,17.2,30.6,20.5,48.1
		c5.3,28.5-6.2,50-29,66.2c-15.8,11.2-33.8,17.5-52.8,21c-1.1,0.8-2.2,0.9-3.4,0.2c-1-2.7,1-4.5,2.3-6.3c2.4-3.2,4.2-6.7,5.8-10.3
		c6.5-14.8,2.6-25.8-11.5-33.8c-2.9-1.7-7.1-1.9-8-6.3c0.6-2.5-0.2-3.7-2.9-3.7c-15.1,0-30.2,0-45.4,0c-2.5,0-3.5,1.3-3.5,3.7
		c-0.7,3.2-3.5,4-5.9,5.3c-17.2,9.1-20.9,22-11,38.8c1.4,2.4,3,4.6,4.5,6.9c1.1,1.7,3.1,3.3,1.6,5.8c-1.2,0.7-2.4,0.5-3.5-0.3
		c-26.6-5.4-51.2-14.6-69.2-36.1c-14.3-16.9-16.7-36.5-11.1-57.3c2.2-8.1,5.5-15.9,8.4-23.8C84.2,126.1,86,123.3,87.8,120.6z"/>
	<path class="st2" d="M135.4,373c-6.5,0-13-0.2-19.5,0c-3.6,0.1-4.1-1.4-3-4.2c2.9-8.1,8.5-13.5,16.6-16.4c1.9-0.7,4-0.7,3.1-4.2
		c-4.8-18.8,2.6-27.9,21.7-27.2c2.9,1.3,2.8,4,2.9,6.6c0.2,4.9,0,9.8,0.1,14.7c0.1,7.4,0.4,7.6,7.6,7.8c1.2,0,2.4,0,3.5,0.1
		c9.3,1.6,18.1,4.2,24.6,11.6c2.3,2.6,3.7,1.6,5.7-0.4c6.4-6.7,14.4-10.2,23.5-11.3c11.5-0.6,12.2,1.8,12.2-12.5
		c-0.1-11-0.1-21.9,0-32.9c0-3.1-0.2-6.4,3.1-8.3c4.6-5.4,8.6-11.4,13.8-16.1c7.8-7.1,16.7-8.6,27-4.1c6.7,2.9,14.2,4.2,21.5,5.3
		c8.3,1.3,14.5-2.7,18.8-9.7c4.4-7.2,8.5-14.6,13-21.8c1.5-2.5,3.4-5.1,5.7-6.6c2.2-1.5,6.1-3.1,7.8-2.2c2.4,1.4,4.8,5,4.9,7.7
		c0.2,4.6-0.9,9.4-2.5,13.8c-4.5,12.6-12.2,23.3-21.5,32.9c-8.5,8.8-18.3,10.8-29.7,6.7c-5.6-2-11.2-3.6-16.9-5.3
		c-8.5-2.5-15.7,0.1-21.4,6.4c-3.9,4.4-6.9,9.5-10.4,14.3c-1.6,2.2-0.9,3.1,1.5,4.3c10.5,5.2,13.8,12.8,10.2,24.4
		c-1.1,3.7-0.4,5,3.1,6.3c7.8,2.8,13.4,8.1,15.9,16.3c0.9,2.9,0.2,4-2.9,4c-6.7,0-13.4,0.1-20.1,0.2c-3.5-1-5.2-4.1-7.6-6.4
		c-11.8-11.9-38.6-10.6-48,6.6c-3.5,6.3-4.1,6.2-8,0.4c-12.1-17.9-36.1-19.9-51.2-4.1C139.1,371.2,138,373.2,135.4,373z"/>
	<path class="st1" d="M170,351.7c-14.6,0.6-14.5,0.6-14.6-14c-0.1-5.6-0.7-11.2-1.1-16.7c0.3-2.3,0.9-4.6,1-6.8
		c0.2-20.2,0.2-40.4,0.3-60.5c3.2-2.2,5.6,0.1,8,1.6c3.2,2,5.8,4.7,9,6.7c16.3,10.4,36.6,9.1,53.1-4.7c2.8-2.3,5.3-6.3,10.1-3.7
		c0.1,12.1,0.1,24.3,0.4,36.4c0,2.2,0.9,4.3,1.4,6.5c-0.4,2.7-1.3,5.3-1.3,8c-0.1,13.3-0.3,26.7,0.1,40c0.1,5.5-1.3,8.1-7.2,7.4
		c-2.7-0.3-5.5,0-8.2,0c-2.2-2.2-1.9-5.1-1.9-7.8c-0.1-10.9,0-21.7,0-32.6c-0.1-10.7-3.9-14.5-14.8-14.7c-5.7-0.1-11.5-0.2-17.2,0
		c-10.4,0.4-15.2,5.2-15.4,15.5c-0.2,10.5,0,20.9-0.1,31.4C171.5,346.4,171.9,349.3,170,351.7z"/>
	<path class="st1" d="M135.4,373c4.5-3.9,8.6-8.8,13.7-11.6c17.2-9.4,37.7-2.2,46.6,16.3c7.1-15.9,19.6-21.6,35.9-20.1
		c10.7,1,17.9,7.2,23.8,15.5c3.4,9.8,3.4,9.8-6.8,9.8c-35.9,0-71.7,0-107.6,0c-8.2,0-8.2,0-5.7-8.1
		C135.4,374.3,135.3,373.6,135.4,373z"/>
	<path class="st2" d="M235.7,253.5c-2.6,1.2-5.6,2-7.7,3.7c-11.2,9.5-23.7,14.6-38.6,12.7c-10-1.2-17.9-6.6-25.6-12.4
		c-2.4-1.8-5.5-2.7-8.3-4c-0.1-2.4-0.2-4.7-0.3-7.1c1.1,0,2.3,0,3.4-0.1c3.5-1.5,4.8,1.8,6.6,3.4c9.4,8.1,19.8,13.5,32.6,12.7
		c11.1-0.7,20.2-5.8,28.5-12.9c1.8-1.6,3.2-4.2,6.3-3.4c1.1,0,2.2,0.1,3.3,0.1C235.9,248.8,235.8,251.2,235.7,253.5z"/>
	<path class="st3" d="M87.8,120.6c-1.5,2.9-3,5.8-4.5,8.7C82.7,125.3,83.3,121.9,87.8,120.6z"/>
	<path class="st4" d="M232.7,246.3c-6.5,4.7-12.6,10.3-19.7,13.9c-15.8,8-34.4,4.2-48.6-8.8c-1.9-1.7-3.9-3.3-5.8-5
		c-3.7-6.4-8.4-12.5-10.8-19.3c-5.2-15-0.5-25.2,13.6-32.6c2.5-1.3,4.8-3,7.3-4.5c2.5-0.6,4.1,1.1,5.6,2.6c2.2,2,4.2,4.2,6.3,6.2
		c15.8,15.8,15.8,15.8,14.2,37.9c-0.4,5.3-1.9,6.8-7.1,6.1c-7.8-1.1-15.7-2.3-19.3-5.9c13.1,10,35.4,11.5,50.7,1.6
		c-4.8,2.4-10.2,3.6-15.7,4.4c-4.4,0.6-6.8-1.1-6.9-5.8c0-6.5-0.1-13,0-19.6c0-1.8,0.1-3.7,1.3-5.1c7.1-8.2,14.3-16.2,23.6-22
		c7.5,4.4,16.7,6.9,20.5,15.7c2,4.8,3.9,11,2.5,15.5C241.9,230.3,236.8,238.1,232.7,246.3z"/>
	<path class="st3" d="M147.3,177.6c-24.6,0-45.1-20.2-44.9-44.5c0.1-24.8,20.7-45.4,45.1-45.3c24.5,0.2,44.8,20.5,44.7,44.8
		C192.2,157.7,172.4,177.6,147.3,177.6z"/>
	<path class="st3" d="M199.2,132.8c-0.8-23.2,18.8-44.7,44.5-45c24.8-0.3,45,20.3,44.9,45.3c-0.2,24.7-19.9,44.5-44.3,44.4
		C218.8,177.5,199.2,158.1,199.2,132.8z"/>
	<path class="st5" d="M221.6,190.4c-7,6.8-14,13.6-20.9,20.4c-1.1,1.1-2.5,2.5-2.5,3.7c-0.2,8.3-0.2,16.6,0,24.8
		c0,0.7,2.2,2.2,3.1,2c5.8-1.1,11.4-2.7,17.1-4c2-0.5,3.9-0.8,5.9-1.2c-1.5,1.5-2.8,3.3-4.5,4.3c-15.5,9.4-45.9,8.3-57.6-9.5
		c2.4,1.5,5,2.7,7.2,4.4c6.2,4.9,13.6,5,20.9,6c0.9,0.1,3-2,3.1-3.2c0.3-7.3,0.2-14.6,0.1-21.9c0-1.3-0.4-2.9-1.2-3.7
		c-7.7-7.6-15.5-15.1-23.3-22.6c-0.7-1.3-1.5-2.7-2.5-4.4c19.6,0,38.9,0,58.9,0C223.8,187.5,222.7,188.9,221.6,190.4z"/>
	<path class="st4" d="M137.1,66.2c-10.6,9.4-20.6,18.4-30.3,27c0-10-0.1-20.3,0-30.6c0.1-10.2,0.2-10.2,9.5-6.1
		C123.2,59.5,130.1,62.9,137.1,66.2z"/>
	<path class="st4" d="M284.7,93.3c-9.7-8.7-19.7-17.6-30.3-27.1c8.9-4.2,17.8-8.5,26.8-12.5c0.8-0.3,3.3,1.1,3.3,1.8
		C284.7,68.2,284.7,80.9,284.7,93.3z"/>
	<path class="st2" d="M215.1,80.4c-2.4,1.5-5,4.4-7.1,4.1c-2.3-0.4-4-3.8-6-5.9c1.9-1.6,3.9-4.6,5.8-4.6c2.4,0,4.8,2.5,7.2,3.9
		C215.1,78.7,215.1,79.6,215.1,80.4z"/>
	<path class="st2" d="M189.6,80.3c-2,1.5-4.3,4.5-5.9,4.2c-2.4-0.5-4.4-3.3-6.5-5.2c2-1.8,3.7-4.6,6-5.1c1.8-0.4,4.2,2.1,6.3,3.3
		C189.5,78.4,189.5,79.4,189.6,80.3z"/>
	<path class="st2" d="M311.6,172.5c-3.5,2.7-5.7,5.7-7.7,5.6c-2.1-0.1-4-3.3-6-5.2c1.9-2,3.6-5.3,5.7-5.5
		C305.6,167.2,308,170.1,311.6,172.5z"/>
	<path class="st2" d="M211.5,70.8c-2.8-3.4-6-5.6-5.7-7.2c0.3-2.1,3.1-5,5.3-5.5c3.5-0.7,6.2,2,5.7,5.6
		C216.5,65.7,214.2,67.4,211.5,70.8z"/>
	<path class="st2" d="M189.3,65.3c2.3-1.2,4.9-3.6,6.7-3.2c2.2,0.6,3.7,3.7,5.5,5.7c-2,1.7-4,4.7-5.9,4.6c-2.3-0.1-4.5-2.8-6.7-4.3
		C189.1,67.1,189.2,66.2,189.3,65.3z"/>
	<path class="st2" d="M113.7,185.3c2.7,3.6,5.6,5.8,5.6,7.8c-0.1,1.9-3.3,5.2-5.2,5.2c-1.9,0-5.3-3-5.5-5
		C108.4,191.3,111.2,188.9,113.7,185.3z"/>
	<path class="st2" d="M277.3,186c2.9,3.2,6.2,5.7,5.8,6.6c-1.1,2.4-3.4,5-5.8,5.8c-1.1,0.4-4.8-3-5.1-5
		C272,191.5,274.8,189.3,277.3,186z"/>
	<path class="st2" d="M166.9,80.5c-2.6-3.8-5.2-6-5.1-8c0.1-1.8,3.1-4.5,5-4.8c3-0.4,6.7,1.3,6,5.3
		C172.5,75.2,169.9,76.9,166.9,80.5z"/>
	<path class="st2" d="M88.8,197.2c-1.4-2.1-4-4.4-3.8-6.4c0.2-1.8,3.7-4.7,5.4-4.5c2.1,0.2,5.1,3.1,5.3,5.1c0.2,1.7-2.8,3.9-4.3,5.9
		C90.5,197.3,89.6,197.3,88.8,197.2z"/>
	<path class="st2" d="M295,210.1c-2,1.4-4.2,4.1-5.9,3.8c-2.3-0.4-4.3-3.1-6.4-4.8c1.9-1.8,3.7-4.7,5.9-5.1c1.9-0.3,4.3,2.3,6.5,3.6
		C295,208.5,295,209.3,295,210.1z"/>
	<path class="st2" d="M223.3,78.9c-1.6-2-4.8-4.4-4.4-5.8c0.7-2.2,3.5-4.7,5.8-5.2c1.4-0.3,4.9,2.9,5,4.6c0.2,2-2.4,4.2-3.8,6.3
		C225,78.8,224.1,78.8,223.3,78.9z"/>
	<path class="st2" d="M178.4,69.2c-1.3-1.9-3.9-4.2-3.5-5.7c0.6-2.2,3.1-4.9,5.2-5.4c3.3-0.8,5.1,1.6,5.1,5.3
		C185.1,67.3,183.3,68.7,178.4,69.2z"/>
	<path class="st2" d="M305.8,188.9c0.8,5.8-1.5,7.8-4.8,7.2c-2-0.4-3.7-3-5.5-4.6c1.8-1.9,3.4-4.6,5.6-5.3
		C302.6,185.8,304.9,188.4,305.8,188.9z"/>
	<path class="st2" d="M104.8,170.7c2.6,3.2,5.6,5.5,5.2,6.9c-0.6,2.2-3.1,4.9-5.4,5.5c-3.5,0.9-5.5-2.2-5-5.4
		C100,175.6,102.3,173.9,104.8,170.7z"/>
	<path class="st2" d="M97.8,206.7c0.8-0.5,2.6-2.5,4.7-2.8c3.8-0.6,5.3,2.3,5.2,5.5c-0.1,2.8-1.3,5.4-5.1,4.9
		C99.2,213.8,96.9,212.6,97.8,206.7z"/>
	<path class="st2" d="M287.2,171.9c1.6,2,4.3,3.9,4.3,6c0.1,1.8-2.9,3.6-4.5,5.5c-1.9-1.9-4.5-3.5-5.4-5.7c-0.5-1.2,1.9-3.6,3.1-5.4
		C285.5,172,286.3,171.9,287.2,171.9z"/>
	<path class="st2" d="M87.5,166.5c1.3,2.7,2.8,4.3,2.5,5.4c-0.4,1.8-2,3.4-3.1,5c-1.2-1.3-3.7-2.8-3.5-3.9
		C83.8,171.1,85.6,169.4,87.5,166.5z"/>
	<path class="st4" d="M170,351.7c0-13.6-0.1-27.2-0.1-40.9c0-9.5,5.3-15.3,14.6-15.8c7.7-0.4,15.4-0.3,23.1,0
		c8.5,0.3,13.2,5.6,13.2,14.2c0,14.2,0,28.4,0,42.6c-10.1,2.1-19.1,6.1-25.2,15.9C189.7,357.6,180.1,354.2,170,351.7z"/>
	<path class="st2" d="M172.9,288.4c-3.3,2.8-5.7,6.1-7.4,5.8c-2.3-0.4-5.5-3.3-6-5.6c-0.8-3.8,3-5.5,6.1-5.2
		C167.8,283.7,169.6,286.1,172.9,288.4z"/>
	<path class="st2" d="M185.8,278.3c-3.2,3.2-5.4,6.8-6.9,6.6c-2.4-0.3-4.4-3.4-6.6-5.2c1.8-2,3.3-5.2,5.4-5.6
		C179.6,273.7,182.2,276.3,185.8,278.3z"/>
	<path class="st2" d="M235.6,271.5c-3.5,2.4-5.5,4.9-7.9,5.2c-3.3,0.4-6.7-1.9-5.4-5.6c0.7-2.2,3.9-4.6,6.3-5
		C230.2,265.9,232.4,269,235.6,271.5z"/>
	<path class="st2" d="M227.7,283.1c0.9,1.5,3.4,3.8,3.3,5.8c-0.1,2-3,3.8-4.7,5.7c-1.8-1.9-4.5-3.6-5.2-5.9
		C219.8,285.1,222.4,283.4,227.7,283.1z"/>
	<path class="st2" d="M163.8,264.1c2.6,3.6,5.7,6.1,5.3,7.6c-0.6,2.2-3.6,4.6-5.9,5c-1.4,0.2-4.5-3.2-4.7-5.2
		C158.3,269.7,161.1,267.6,163.8,264.1z"/>
	<path class="st2" d="M221.5,279.1c-4.2,2.3-6.6,4.5-9.1,4.8c-1.4,0.1-4.7-3.8-4.3-4.5c1.1-2.2,3.4-4.9,5.6-5.3
		C215.4,273.7,217.7,276.5,221.5,279.1z"/>
	<path class="st5" d="M180.3,133.1c-0.1,15.4-13,28.3-28.3,28.3c-16.3,0-29.1-12.7-29-28.7c0.1-15.9,12.8-28.7,28.4-28.7
		C167.3,104,180.4,117.2,180.3,133.1z"/>
	<path class="st5" d="M268.3,133c-0.1,15.8-13,28.6-28.7,28.6c-15.9-0.1-28.6-13.2-28.5-29.3c0.1-15.6,13.4-28.5,29-28.2
		C255.8,104.3,268.3,117.2,268.3,133z"/>
	<path class="st3" d="M157.8,110.3c7.1,0.1,14.5,7.2,14.5,13.8c0,5-3,7-7.6,7c-7,0-14.6-7.2-14.6-13.7
		C150.1,113.2,153.3,110.2,157.8,110.3z"/>
	<path class="st3" d="M245.6,110.3c7-0.1,15.3,7.4,15.2,13.7c-0.1,4.7-2.8,7.2-7.6,7.2c-7,0.1-14.7-7-14.8-13.6
		C238.3,112.5,241.6,110.9,245.6,110.3z"/>
</g>
</svg>
