<?xml version="1.0" encoding="utf-8"?>
<!-- Generator: Adobe Illustrator 22.1.0, SVG Export Plug-In . SVG Version: 6.00 Build 0)  -->
<svg version="1.1" id="Layer_1" xmlns="http://www.w3.org/2000/svg" xmlns:xlink="http://www.w3.org/1999/xlink" x="0px" y="0px"
	 width="400px" height="400px" viewBox="0 0 400 400" style="enable-background:new 0 0 400 400;" xml:space="preserve">
<style type="text/css">
	.st0{fill:#FFFFFF;}
	.st1{fill:#D1D1D1;}
	.st2{fill:#030303;}
	.st3{fill:#434343;}
	.st4{fill:#060606;}
	.st5{fill:#676767;}
	.st6{fill:#FEFEFE;}
</style>
<circle class="st0" cx="200.5" cy="199.6" r="200"/>
<g>
	<path class="st1" d="M129.9,214.8c-1.6-1.3-3.1-2.8-4.9-3.9c-11.2-6.5-20.8-14.6-26.1-26.8c-5.8-13.5-4-27,1-40.2
		c5.2-13.8,13.1-25.9,23.1-36.6c0.3-0.3,0.2-0.9,0.4-1.3c1.9-4.3,6-6.5,9-9.8c5.6-4.7,11.4-9.2,17.6-13.2c3.9-1.9,7.7-4,11.6-5.8
		c5.1-1.5,10.2-3,15.3-4.4c15.8-4.2,31.4-3.9,46.8,1.5c3.6,1.2,7.3,2,11,2.9c3.8,2,7.6,3.9,11.5,5.8c6.1,4,12,8.2,17.6,12.9
		c3.4,3.1,6.8,6.4,9.9,9.8c3.9,5.6,7.8,11.1,11.6,16.8c8.4,12.8,15,26.5,15.8,41.9c0.8,16-6.4,28.9-18.9,38.8
		c-3.9,3.1-8.4,5.5-12.6,8.3c-1.2,0.8-2.2,2-3.3,3c-9.6,5.2-19.9,8.2-30.4,10.2c-14.2,2.8-28.5,4.7-43,4c-21.2-1-41.8-4.8-61.4-13.1
		C130.8,215.6,130.3,215.2,129.9,214.8z"/>
	<path class="st2" d="M129.9,214.8c1.4,0.2,2.9,0,4.1,0.5c22.7,9.6,46.6,12.6,71,11.8c20.3-0.7,40.2-4.1,58.9-12.6
		c0.7-0.3,1.6,0.1,2.4,0.1c4.3,13.2,8.6,26.5,12.9,39.7c3.2,7.7,2.6,15.7,1.7,23.6c-1.5,13.4-6.5,25.5-15.3,36
		c-3.5,4.1-3.4,4.3,1,7.8c3.1,2.4,5.9,5,8,8.2c0.9,1.4,1.8,2.9,1.3,4.7c1.1,2.5,2.4,5,3.2,7.6c1.6,5.2,1.5,5.2-3.8,5.2
		c-36.4,0-72.7,0-109.1,0c-15.5,0-31-0.1-46.5,0.1c-3.3,0-4.1-0.9-2.9-3.9c1.3-3.3,2.5-6.6,3.7-9.8c0.2-5.1,4.3-7.5,7.3-10.5
		c5.8-5.8,5.6-5.4,0.7-12c-10.6-14.4-15.1-30.6-13.3-48.4c0.3-2.8-0.4-5.9,1.7-8.4c1.9-7.1,3.6-14.4,5.9-21.4
		C124.8,226.9,127.5,220.9,129.9,214.8z"/>
	<path class="st3" d="M116.9,254.4c-0.9,10.4-1.7,20.7,0.9,31c2.6,10.4,6.8,19.9,14.1,27.9c4.2,4.6,4,4.3-0.5,8.3
		c-4,3.7-7.4,8.1-11,12.2c-16.4-0.1-32.8-0.2-49.2-0.2c-3.7,0-4.9-0.6-3.7-4.6c4.3-14.5,14.3-23.3,28.2-27.7
		c3.6-1.2,3.8-2.3,2.5-5.5c-6.2-15.7-2.3-30.6,10.2-38.1C111,256.2,114.1,255.5,116.9,254.4z"/>
	<path class="st3" d="M275.9,334.6c-2.7-6.1-7.3-10.5-12.8-13.9c-2.9-1.8-2.6-2.9-0.5-5.1c14.3-16.1,19.8-34.8,16.8-56.1
		c-0.2-1.7-0.1-3.4-0.2-5.1c16,3.5,24.8,18.5,20.7,35.4c-0.8,3.4-3.7,7.5-2.6,9.8c1,2.3,6.2,2.5,9.3,4c11.2,5.5,19,13.8,22.3,26.1
		c0.8,2.9,0.3,4-3.1,4c-15.1-0.2-30.1-0.1-45.2,0C279,333.6,277.4,334.3,275.9,334.6z"/>
	<path class="st4" d="M246,84c-3.8-2.3-7.6-4.5-11.3-6.8c3.4-18.6,21.2-30.5,38.3-25.4c10.8,3.2,17.6,10.5,19.2,21.7
		c1.8,12.9-3.6,22.6-14.2,29.7c-1.4,0.9-2.9,1.7-4.4,2.5c-3.5-3-7-6.1-10.5-9.1c1.8-2.2,4.7-2.8,6.9-4.5c4.4-3.4,6.6-9.6,5.2-14.8
		c-1.5-5.3-5.9-9-11.6-9.8c-6.7-0.9-14.3,4.4-16,11.2C247.1,80.5,247.5,82.5,246,84z"/>
	<path class="st4" d="M161.6,77.2c-3.8,2.3-7.7,4.5-11.5,6.8c-1.3-1.2-1-2.8-1.3-4.3c-1.5-8.4-10.8-14.1-18.8-11.5
		c-5,1.6-8.1,4.9-8.9,10c-0.9,5.8,0.9,10.5,5.6,14.2c2.1,1.6,4.8,2.1,6.5,4.2c-3.3,3.1-6.5,6.2-9.8,9.3
		c-11.5-5.3-18.9-13.7-19.5-26.8c-0.9-19.6,16.8-33,35.6-27.2C151.8,55.9,159.1,64.5,161.6,77.2z"/>
	<path class="st4" d="M279.5,137.9c0.1,18.8-11.8,35.6-29.7,41.8c-17.5,6-37,0.4-48.4-14.2c-2.4-3.1-3.4-4.2-6.5-0.3
		c-12.1,15.6-32.4,20.9-50.4,13.8c-18.4-7.3-29.2-24.9-27.7-45.4c1.3-18,15.7-34.6,34.5-38.4c18-3.7,33,2.2,44.4,16.7
		c2.3,2.9,2.9,2.5,4.9-0.1c11.2-15.2,30.9-21.3,48.9-15.3C267.5,102.4,279.4,118.9,279.5,137.9z"/>
	<path class="st5" d="M246,84c-0.4-8.6,3.6-14.4,11.7-17c6.6-2.1,13.5,0.4,17.2,6.3c5.7,9,0,20.4-11.8,23.4
		C257.4,92.4,251.7,88.2,246,84z"/>
	<path class="st5" d="M133.1,96.7c-7.1-1.5-11.9-5.6-13.3-12.8c-1.1-5.8,0.2-11.1,5.3-14.7c5.3-3.8,11.2-4.1,16.9-0.7
		c5.8,3.5,9.2,8.4,8.2,15.6C144.4,88.2,138.7,92.5,133.1,96.7z"/>
	<path class="st4" d="M198.5,201.6c-0.7,0-1.1,0-1.4-0.1c-8.9-0.8-15.1-6.7-14.2-13.6c0.9-7.2,9.7-12.4,18.1-10.8
		c7.3,1.3,12.5,6.3,12.6,12c0.1,5.7-5.1,10.7-12.4,12C200.1,201.3,199.1,201.5,198.5,201.6z"/>
	<path class="st4" d="M129.9,190.5c36.3,24.5,75,25.9,115.2,12c6.7-2.3,12.6-6.9,18.8-10.5c1-0.5,1.9-1.1,2.8-1.7
		c0.3,0.5,0.6,0.9,0.9,1.4c-5.5,3.7-10.6,8.2-16.5,10.9c-36.9,17-73.7,16.2-109.9-2.2c-4.5-2.3-8.3-6.2-12.4-9.4
		C129.2,190.8,129.5,190.6,129.9,190.5z"/>
	<path class="st4" d="M127,188.9c-0.4-0.6-0.9-1.1-1.3-1.7c0.7,0.4,1.4,0.7,2,1.1C127.6,188.8,127.4,189,127,188.9z"/>
	<path class="st4" d="M127.7,188.4c0.1,0.4,0.2,0.9,0.3,1.3c-0.3-0.2-0.7-0.5-1-0.7C127.2,188.7,127.4,188.5,127.7,188.4z"/>
	<path class="st4" d="M128.9,191.1c-0.1-0.4-0.2-0.8-0.3-1.1c0.4,0.2,0.9,0.4,1.3,0.6C129.6,190.7,129.3,190.9,128.9,191.1z"/>
	<path class="st1" d="M198.2,338.6c-1.6-2.7-2.9-5.3-4.5-7.6c-10.2-14.6-29.1-21.1-47.4-16.3c-1.8,0.5-3.4,1.4-4.2-1.4
		c-2.8-9.8-4.5-19.8-2.5-30c3.1-16.6,13.4-27.8,28.4-34.4c19.5-8.5,39.5-8.7,59.1-0.6c24.9,10.3,35.2,32.4,28.5,59.9
		c-1.7,7.2-1.7,7.2-8.9,5.8c-19.6-4-38.8,5.4-47.6,23.2C198.9,337.6,198.6,337.9,198.2,338.6z"/>
	<path class="st6" d="M235.6,103.1c19,0,34.9,15.9,35,34.9c0,19-15.8,34.9-35,35c-18.8,0.1-34.7-15.6-34.8-34.5
		C200.7,118.9,216.2,103.2,235.6,103.1z"/>
	<path class="st6" d="M125.9,137.8c0.3-19.5,15.8-34.8,35-34.6c19.4,0.2,34.7,16.1,34.4,35.7c-0.3,18.9-16.2,34.4-35.1,34.2
		C141,172.8,125.6,156.9,125.9,137.8z"/>
	<path class="st4" d="M232.4,160.3c-12.3,0-22.3-9.8-22.4-22.1c-0.1-12.2,9.8-22.3,22.1-22.4c12.7-0.1,22.5,9.6,22.5,22.3
		C254.6,150.5,244.8,160.3,232.4,160.3z"/>
	<path class="st4" d="M164.1,115.9c12.4,0.1,22,9.9,22,22.3c0,12.3-9.9,22.1-22.2,22.1c-12.7,0-22.3-9.8-22.2-22.6
		C141.7,125.4,151.6,115.8,164.1,115.9z"/>
	<path class="st6" d="M248.7,132.3c-0.1,3-2.6,4.5-6,4.6c-4.9,0.1-10.7-5.1-11.3-9.9c-0.4-3.4,1.2-5.6,4.6-6.3
		C241.4,119.6,248.7,125.8,248.7,132.3z"/>
	<path class="st6" d="M180.1,130.8c-0.1,3.8-2,5.7-5.3,6.1c-5.3,0.6-11.7-5.2-11.9-10.5c-0.1-3.4,1.6-5.2,4.7-5.7
		C172.8,119.8,179.9,125.8,180.1,130.8z"/>
</g>
</svg>
