<?xml version="1.0" encoding="utf-8"?>
<!-- Generator: Adobe Illustrator 22.1.0, SVG Export Plug-In . SVG Version: 6.00 Build 0)  -->
<svg version="1.1" id="Layer_1" xmlns="http://www.w3.org/2000/svg" xmlns:xlink="http://www.w3.org/1999/xlink" x="0px" y="0px"
	 width="400px" height="400px" viewBox="0 0 400 400" style="enable-background:new 0 0 400 400;" xml:space="preserve">
<style type="text/css">
	.st0{fill:#FFFFFF;}
	.st1{fill:#5E5D5D;}
	.st2{fill:#2D2D2D;}
	.st3{fill:#B8946F;}
	.st4{fill:#F8F8F8;}
	.st5{fill:#060606;}
	.st6{fill:#FEFEFE;}
</style>
<circle class="st0" cx="200.5" cy="199.6" r="200"/>
<g>
	<path class="st1" d="M166.1,257.5c-10.6-3.5-21.7-6-31.7-10.8c-9.2-4.4-18.2-10.1-25.6-17c-18.5-17.1-21.3-38.5-14-61.8
		c5.8-18.3,15.4-34.4,28.1-48.7c2.5-2.8,2.7-3.8-0.8-6c-15.1-9.9-24.1-23.5-23.6-42.1c0.4-13.2,10.7-20.4,23.3-16
		c14.3,5,22.9,15.8,28.2,29.4c1,2.6,1.7,5.4,2.6,8.5c1.3-0.6,2.6-1.1,3.7-1.7c30.8-17.6,61.6-17.5,92.3,0.1c3.8,2.2,4.2,0.7,5-2.4
		c3.3-12.8,10.4-23,21.5-30.1c7.3-4.7,15.5-7.5,23.6-2.5c8.2,5.1,8.9,13.6,7.5,22.3c-2.4,14.5-9.9,26-22.2,33.7
		c-4.9,3.1-4.1,4.5-0.9,8.1c13.5,15.7,23.7,33.3,28.6,53.7c6.2,25.5-1.9,45.9-22.4,61.7c-14,10.7-30.1,16.6-47.1,20.4
		c-1.2,0.3-2.3,0.8-3.5,1.1c-1.6,1.6-3.8,1.9-5.9,2.3c-20.3,3.4-40.6,3.5-60.9-0.2C169.9,259.2,167.7,259.1,166.1,257.5z"/>
	<path class="st1" d="M166,271.6c0.1-2.6,0.1-5.2,0.2-7.8c2-1.8,4.3-1.3,6.6-1c19.4,2.4,38.7,2.2,58.1-0.2c2.6-0.3,5.3-0.9,7.6,1.2
		c0.1,2.6,0.1,5.2,0.2,7.8c1.6,1.5,1.5,3.5,1.5,5.5c0.1,10.5,0.1,21,0,31.5c-0.1,6.2-1.1,7.2-7.2,8.3c-11.3,2.1-20.7,7.2-27.3,17
		c-2.6,3.9-3.5,4-6.1,0.2c-6.5-9.8-15.8-15.1-27.2-17.1c-7.1-1.3-8-2.3-8-9.4c-0.1-9.8,0-19.6,0-29.3
		C164.5,275.9,164.1,273.5,166,271.6z"/>
	<path class="st1" d="M276.9,335.4c1.6,3.9,3.1,7.9,4.8,11.7c1.7,4,0.2,4.8-3.7,4.8c-26.9-0.1-53.8-0.1-80.8-0.1
		c-23.4,0-46.7-0.1-70.1,0.1c-4.7,0-5.6-1.4-4-5.4c1.5-3.7,3-7.5,4.5-11.2c4.8-8.4,12.8-12.7,21.4-15.7c20.6-7.1,43.9,3.4,51.4,19.6
		c0.4,0.8,0.8,1.6,1.6,2.1c1.4,0.1,1.6-1.2,2.1-2c13-25.4,50.6-29.3,70.2-8C275.5,332.6,276.8,333.7,276.9,335.4z"/>
	<path class="st2" d="M276.9,335.4c-6.7-6.7-13.9-12.4-23.4-15c-19.8-5.4-42.9,4.6-49.6,22.6c-0.2,0.6-0.7,1.1-0.6,1
		c-5.2-5.7-9.6-12.6-15.8-17.1c-17.5-12.7-40.2-10.3-55.8,4.9c-1.3,1.2-2.6,2.4-4,3.5c-3.5,0-7.1-0.1-10.6,0.1
		c-3.2,0.2-3.5-1.1-2.7-3.8c3.2-11,10.7-17.8,21.1-21.5c3.3-1.2,4.3-1.9,2.9-5.7c-6.5-18.2,3.8-35.4,27.6-32.9
		c0,12.6,0.1,25.3-0.1,37.9c-0.1,3.8,1.2,5.3,5.1,5.8c13.8,1.7,24.7,8,31.6,20.8c7.2-12.8,18.3-19.4,32.5-20.8
		c3.6-0.4,3.7-2.6,3.6-5.2c0-12.8,0-25.6,0-38.4c2.7,0,5.4-0.3,8-0.1c16.3,1.4,25.5,14.9,20.3,30.9c-1.8,5.5-0.5,6.9,4.3,8.6
		c9.1,3.3,15.4,9.9,18.7,19.2c1.3,3.7,1.3,5.7-3.5,5.2C283.4,335.2,280.1,335.4,276.9,335.4z"/>
	<path class="st2" d="M238.5,263.8c-16.4,0.7-32.8,1.8-49.2,2c-7.7,0.1-15.4-1.3-23.1-2c0-2.1-0.1-4.2-0.1-6.4
		c11.9,1.1,23.9,3,35.8,2.9c12.3,0,24.6-1.9,36.8-2.9C238.6,259.6,238.5,261.7,238.5,263.8z"/>
	<path class="st3" d="M220.8,202c10.7,3.5,21.5,6.9,32.1,10.8c2.8,1,5.2,3.7,7.4,5.9c5.5,5.8,5.3,13.2-0.2,19.1
		c-8.3,8.8-19.3,12.6-30.7,15c-19,3.9-38.1,3.8-57.1-0.7c-9.4-2.3-18.5-5.5-25.7-12.3c-8.9-8.4-8.1-17.7,1.9-25
		c9.1-6.6,19.6-9.7,30.5-11.8c1.6-0.3,3.1-0.6,4.7-1c3.1,1.2,4.7,4.3,7.6,5.7c8.8,4.4,20,2.8,27.2-4.2
		C219.3,202.9,219.9,202.2,220.8,202z"/>
	<path class="st4" d="M205.6,156.6c0.1-22.2,18.5-40.4,40.7-40.2c22.1,0.2,40.4,18.7,40.2,40.9c-0.1,22-18.7,40.3-40.9,40.2
		C223.3,197.3,205.5,179.1,205.6,156.6z"/>
	<path class="st4" d="M118.6,156.7c0.1-22.4,18.2-40.4,40.5-40.3c22.2,0.1,40.2,18.4,40.2,40.8c-0.1,22.3-18.2,40.4-40.6,40.3
		C136.5,197.4,118.5,179.1,118.6,156.7z"/>
	<path class="st3" d="M120.4,62.7c9.7,1.5,16.5,9.6,21.9,19.3c0.7,1.2,1.1,2.6,1.6,3.9c3.5,8.6,3.1,10.4-3.9,16.4
		c-10.1,8.7-11.3,9.1-20.9,0.4c-8.2-7.4-13.7-16.7-13.1-28.5C106.4,66.1,110.1,62.5,120.4,62.7z"/>
	<path class="st3" d="M298.8,74.9c-0.8,14.5-9.3,28.6-22.6,33.8c-1.4,0.5-3.7-0.1-5-1c-3.2-2.3-5.7-5.5-9-7.5
		c-3.6-2.1-3.7-5-3.1-8.2c2.3-11.8,8.8-20.9,19.1-27c8.5-5,17.6-2.7,19.8,4.7C298.8,71.6,298.7,73.8,298.8,74.9z"/>
	<path class="st5" d="M220.8,202c-2.4,6.4-8.1,7.9-13.9,9c-9.7,1.9-18.8-1.7-23-9.1c0.4-4.4,2.9-7.2,6.7-8.8
		c8.3-3.6,16.8-3.6,24.7,0.6C217.8,195.1,219,199.2,220.8,202z"/>
	<path class="st5" d="M203.5,235.7c-1.1-0.1-2.3-0.1-3.4-0.2c-4,2-8.2,2-12.4,0.6c-1.4-0.4-2.6-1.1-3.6-2.1
		c-6.4-2.3-12.8-4.6-19.1-6.9c0.2-0.8,0.3-1.5,0.5-2.3c24.3,8.3,48.5,9.9,72.8-0.1c0.1,0.8,0.3,1.6,0.4,2.5
		c-6.1,2.3-12.2,4.6-18.3,6.9C215.1,237.9,209.3,236.9,203.5,235.7z"/>
	<path class="st4" d="M203.5,235.7c5.6-0.6,11.3-1.1,16.9-1.7c0.1,1.2,0.2,2.5,0.2,3.7c-0.2,12.4,1.9,11.2-11.9,11.2
		c-3.8,0-5.6-1.5-5.4-5.4C203.4,241,203.4,238.3,203.5,235.7z"/>
	<path class="st6" d="M188.2,234.7c4,0.3,8,0.5,12,0.8c-0.2,0.3-0.2,0.5,0.1,0.8c0.5,0.2,0.7,0.7,1.2,0.9c0,1.1,0,2.1,0,3.2
		c-1,1.5-1,2.9,0,4.4c-0.1,0.7-0.1,1.4-0.2,2.1c-0.8,1-2.2,1.1-3.1,1.9c-3.6,0-7.1,0-10.7,0c-2.2-2.1-3.7-10.4-2.4-13.1
		C185.7,234,187,234.9,188.2,234.7z"/>
	<path class="st4" d="M188.2,234.7c-3,1.8-4.1,8-2.1,11.8c0.4,0.8,0.9,1.5,1.3,2.2c-1.1-1.4-2.9-2.7-3.1-4.2
		c-0.5-3.4-0.1-7-0.1-10.5C185.5,234.2,186.8,234.4,188.2,234.7z"/>
	<path class="st4" d="M198,248.7c1-0.6,2.1-1.3,3.1-1.9C200.1,247.4,199.1,248,198,248.7z"/>
	<path class="st4" d="M201.4,244.7c0-1.5,0-2.9,0-4.4C201.4,241.8,201.4,243.2,201.4,244.7z"/>
	<path class="st4" d="M201.4,237.2c-0.4-0.3-0.8-0.6-1.2-0.9C200.6,236.6,201,236.9,201.4,237.2z"/>
	<path class="st5" d="M242.2,182.7c-14.3,0-25.9-11.4-26-25.5c-0.1-14.4,11.6-26,26.1-26c14.3,0,25.5,11.4,25.6,25.8
		C268,171.3,256.6,182.7,242.2,182.7z"/>
	<path class="st5" d="M162.7,182.7c-14.4,0-25.7-11.2-25.7-25.6c0-14.4,11.2-25.8,25.5-25.9c14.7,0,26,11.3,26,25.9
		C188.4,171.5,177.1,182.7,162.7,182.7z"/>
	<path class="st4" d="M254.7,155.7c-6.4,0-13.8-6.7-13.7-12.4c0-4.3,2.7-6.5,6.8-6.6c6.2-0.2,13.3,6.5,13.3,12.4
		C261.1,153.5,258.3,155.2,254.7,155.7z"/>
	<path class="st4" d="M181.6,148.2c-0.3,5.1-2.7,7.2-6.6,7.5c-6,0.4-13.1-6.1-13.5-12.1c-0.2-3.9,1.8-6,5.3-6.8
		C173,135.5,181.7,142.9,181.6,148.2z"/>
</g>
</svg>
