<?xml version="1.0" encoding="utf-8"?>
<!-- Generator: Adobe Illustrator 22.1.0, SVG Export Plug-In . SVG Version: 6.00 Build 0)  -->
<svg version="1.1" id="Layer_1" xmlns="http://www.w3.org/2000/svg" xmlns:xlink="http://www.w3.org/1999/xlink" x="0px" y="0px"
	 width="400px" height="400px" viewBox="0 0 400 400" style="enable-background:new 0 0 400 400;" xml:space="preserve">
<style type="text/css">
	.st0{fill:#FFFFFF;}
	.st1{fill:#DDDDDD;}
	.st2{fill:#040404;}
	.st3{fill:#030303;}
	.st4{fill:#BD89BD;}
	.st5{fill:#F8F8F8;}
</style>
<circle class="st0" cx="200.5" cy="200.6" r="200"/>
<g>
	<path class="st1" d="M178.2,87.4c-0.4-8.4,0.3-16.7,2.1-24.9c2.2-10.1,8.5-17.3,17.1-22.4c10.9-6.5,22.9-9.3,35.6-9.8
		c17.3-0.7,34.4,1.1,51.4,3.9c1.7,0.3,2.5,1.3,3.7,2.1c-5.5,9.9-11,19.8-14.9,30.4c-7.5,21-7.8,42.9-7.5,64.7
		c0.5,38.5,5.5,76.7,8.8,114.9c2.4,27.8,0.5,55.1-7.1,82c-2.5,9-7,17.2-10.3,25.9c-4.3,0-8.7,0-13,0c-4.5,0-40.3-3.4-44.8-3.4
		L178.2,87.4z"/>
	<path class="st2" d="M163.5,84.6c5.1,0,9.8,1.9,14.7,2.8c3.5,1.4,7.3,2.4,10.4,4.4c4.4,2.8,6.6,1.3,9.3-2.5
		c5.5-7.8,11.8-15,19.3-21c4.2-3.4,5-3.3,6.6,2c4.7,16.2,6.5,32.9,6.4,49.7c0,3.2,0.7,5.6,2.6,8c8.7,11.1,15.6,23.2,20.1,36.5
		c10,29.5,1.3,53.5-25.4,69.7c-6.5,3.9-13.3,7.1-20.5,9.6c-1.6,0.5-3.3,0.8-3.3,3.4c0.1,22.5,0.1,45.1,0.1,67.6c0,1.3,0,2.2,1.7,2.9
		c10.5,4.5,13,9.7,9.9,20.5c-0.5,1.9-0.9,2.7,1.5,3.4c6.5,2,10.8,6.5,13.8,12.6c0.4,2.5,0.1,3.9-3.1,3.7c-6.2-0.3-12.4-0.1-18.9-0.1
		c0.3,1.3,0.4,2.2,0.7,2.9c1.3,3.2,0.4,4.2-3.1,4.2c-34.6-0.1-69.1-0.2-103.7,0c-7.1,0-2.3-4.1-3.1-7.1c-6.1,0-12.4-0.1-18.6,0.1
		c-3.1,0.1-3.7-0.6-2.6-3.6c2.3-6.1,6.6-10.2,12.6-12.3c2.6-0.9,3-1.8,2.1-4.5c-3.1-9.7,0.3-16.5,9.8-19.7c2.2-0.8,2.2-1.9,2.2-3.5
		c0-22.1-0.1-44.1,0.1-66.2c0-2.8-1.2-3.6-3.4-4.3c-9.1-3-17.7-7.2-25.5-12.8c-24.2-17.4-30.5-41.1-18.9-71
		c4.6-11.9,11-22.7,19-32.7c1.6-2,2.3-4.1,2.2-6.7c-0.4-16.7,1.8-33.1,5.9-49.3c1.7-6.5,2.9-6.8,7.9-2.4c7.5,6.7,14.2,14.2,20,22.4
		c1.6,2.3,2.8,2.7,5.5,1.3c8.7-4.2,17.8-7.7,27.7-8L163.5,84.6z"/>
	<path class="st3" d="M257.1,354.3c3.3-8.7,7.7-16.9,10.3-25.9c7.6-26.9,9.5-54.2,7.1-82c-3.4-38.3-8.3-76.4-8.8-114.9
		c-0.3-21.9,0-43.7,7.5-64.7C277,56,282.5,46.1,288,36.3c3.2-1.4,6.1,0.3,9,1c9,2.2,17.9,4.7,27.9,7.4C309.9,56,302.8,71,298.8,87.8
		c-4.8,20.5-4.9,41.4-3.6,62.3c2.7,44,11.7,87.1,18.9,130.5c2.4,14.3,4.4,28.6,5.1,43c0.3,5.8-0.3,11.4-1.5,17.1
		c-1.4,6.5-5.4,9.7-11.9,10.6C289.6,353.5,273.3,354,257.1,354.3z"/>
	<path class="st1" d="M163.5,84.6c-2.8,10.4-5.5,20.8-8.3,31.2c-4.2-10.3-7.6-20.5-9.7-31.1C151.4,82.8,157.4,83.3,163.5,84.6z"/>
	<path class="st1" d="M154.1,360.2c-6.1-13.6-17.3-19.9-31.7-18.1c-2.9,0.4-3.6-0.3-3.6-3.2c0.1-17.6,0-35.2,0.1-52.8
		c0-9.3,6.7-16.4,16-16.6c12.8-0.3,25.7-0.3,38.5,0c9.4,0.2,16,7,16.1,16.5c0.2,17.6,0.1,35.2,0.1,52.8c0,1.5,0.9,3.9-2.4,3.4
		C172,340.1,161,346,154.1,360.2z"/>
	<path class="st4" d="M188,228.3c-23.1,9.8-46.4,9.8-69.5-0.3c4.7,0.8,9.2,2.6,14.1,3.2c5.1,0.6,10.1,1.1,15.2,1.8
		c3.6,0.5,5.8-0.2,5.1-4.5c-0.2-1.6-0.1-3.3,0-4.9c0.3-4.7,0.5-9-6.1-9.8c-3.1-0.4-5.5-3.3-5.6-6.7c-0.2-3.8,2.4-6,5.5-7.4
		c4.7-2.1,9.6-2,14.4-0.3c3.4,1.2,6.2,3.4,6.2,7.4c0,4-2.7,6.6-6.2,7.3c-4.9,0.9-5.4,3.7-5.3,7.9c0.3,11.2,0.2,11.2,11,10.4
		c3.6-0.3,7.2-0.7,10.7-1.3C181.1,230.3,184.5,229.2,188,228.3z"/>
	<path class="st4" d="M222.5,115.8c-6.8-6.3-12.7-11.5-19.3-15.8c-1.5-1-1.5-1.9-0.6-3.2c3.8-5.1,7.7-10.2,12.4-14.6
		c2.6-2.4,3.5-1.1,4.1,1.6C221.3,93.9,221.8,104.1,222.5,115.8z"/>
	<path class="st4" d="M86.3,115.5c0-11.4,1.2-21.4,3.1-31.5c0.6-3.1,1.7-4.2,4.4-1.6c4.5,4.3,8.3,9.3,12.1,14.3
		c1,1.3,1.1,2.2-0.4,3.2C98.8,104.2,93,109.4,86.3,115.5z"/>
	<g>
		<path class="st5" d="M157.2,161.2c0.1-21.1,16.7-37.4,37.8-37.2c20.6,0.2,36.9,17,36.7,37.9c-0.2,20.4-17.2,37.1-37.3,36.7
			C173.4,198.3,157.1,181.9,157.2,161.2z"/>
		<path class="st2" d="M167.2,160.9c0.1-13.1,10.8-23.6,24-23.4c13.3,0.2,23.5,10.7,23.5,24c0,13.1-10.8,23.7-23.8,23.8
			C177.7,185.2,167.1,174.4,167.2,160.9z"/>
		<path class="st5" d="M201.8,159.8c-6.1-0.2-12.1-6-11.9-11.6c0.2-4.2,2.8-5.6,6.6-5.5c5.9,0.1,12.4,6.3,12,11.6
			C208.2,158.2,205.8,160.1,201.8,159.8z"/>
	</g>
	<g>
		<path class="st5" d="M114.6,198.6c-20.3,0.5-37.5-16.2-38-36.7c-0.4-19.9,16-37.4,35.7-37.9c21.2-0.6,38.6,15.4,39.1,35.9
			C151.9,181.1,135.8,198.1,114.6,198.6z"/>
		<path class="st2" d="M141.5,161.1c0.1,12.9-10.8,23.9-23.7,24.1c-13,0.1-23.9-10.5-24.2-23.5c-0.3-13.2,10.6-24.3,23.9-24.3
			C130.5,137.4,141.5,148.2,141.5,161.1z"/>
		<path class="st5" d="M122.8,142.7c6,0.1,12.1,5.9,12,11.5c-0.1,4.2-2.5,5.7-6.4,5.7c-5.9-0.1-12.2-6.1-12.2-11.4
			C116.3,144.9,118.9,142.7,122.8,142.7z"/>
	</g>
	<path class="st1" d="M230.6,354.2"/>
</g>
</svg>
