<?xml version="1.0" encoding="utf-8"?>
<!-- Generator: Adobe Illustrator 22.1.0, SVG Export Plug-In . SVG Version: 6.00 Build 0)  -->
<svg version="1.1" id="Layer_1" xmlns="http://www.w3.org/2000/svg" xmlns:xlink="http://www.w3.org/1999/xlink" x="0px" y="0px"
	 width="400px" height="400px" viewBox="0 0 400 400" style="enable-background:new 0 0 400 400;" xml:space="preserve">
<style type="text/css">
	.st0{fill:#FFFFFF;}
	.st1{fill:#885F34;}
	.st2{fill:#120A0A;}
	.st3{fill:#FAF9F6;}
	.st4{fill:#EF800C;}
	.st5{fill:#C46807;}
</style>
<circle class="st0" cx="200.5" cy="199.6" r="200"/>
<g>
	<path class="st1" d="M181.6,194.9c1-4.2,1.6-8.4,3-12.5c1-2.9,0.9-3.7-2.6-4.2c-14.4-1.7-28.2-5.6-40.8-13
		c-24-14.1-31.6-34.6-22.1-60.8c7.8-21.6,21.5-38.9,40-52.4c1.1-0.8,1.9-1.8,2.8-2.8c1.7-1.4,3.8-2.1,5.6-3.2
		c1.3-0.4,2.7-0.6,3.9-1.1c20.2-9.6,40.3-9.6,60.5,0c1.2,0.6,2.6,0.8,3.9,1.3c1.9,1.1,4,1.8,5.6,3.2c1.1,1,2,2.2,3.2,3
		c19.9,14.7,34.3,33.4,41.3,57.3c6.5,22.2-0.6,40.5-19.9,53.2c-13.6,9-28.8,13.4-44.7,15.5c-2.8,0.4-3.8,0.5-2.7,3.8
		c1.5,4.1,2,8.6,3,12.9c1.3,1.6,1.5,3.7,2,5.6c-0.2,1.3-0.2,2.7,0.5,3.9c0.6,2.6,0.2,5.3,0.3,7.9c0.1,0.9,0,1.9,0,2.8
		c0,1.7,0.2,3.4-1.1,4.8c0,2.2,0,4.5,0.1,6.7c1.2,1.6,0.8,3.4,0.5,5.1c0,1.6,0.5,3,0.5,4.6c0.6,4.7-2.3,8.9-1.6,13.6
		c-0.1,1.6,0,3.2-0.4,4.8c-1,2.7-0.2,6-2.5,8.3c-2,17.2-5.1,34.2-11.8,50.2c-1.2,2.9-4,6.7-6.5,7.1c-4,0.6-5.3-4.1-6.7-7.3
		c-6-14-8.4-28.9-11-43.7c-0.4-2.1-1-4.1-1.6-6.2c-0.7-2.8-0.8-5.7-1.7-8.5c-0.3-1.3-0.3-2.7-0.4-4c0.9-4.9-1.9-9.4-1.6-14.2
		c0-1.6,0.5-3.1,0.5-4.6c-0.3-1.8-0.7-3.5,0.5-5.2c0-2.3,0-4.7,0.1-7c-1.3-1.3-1-3-1.1-4.6c-0.1-1.1,0-2.3,0-3.4
		c0-2.2-0.1-4.4,0.3-6.6c0.5-1.4,0.4-2.9,0.4-4.3C180,198.7,180.2,196.6,181.6,194.9z"/>
	<path class="st2" d="M181.8,255.2c0.2,2.6,0.4,5.3,0.6,7.9c-26.2,29.1-56.6,52.1-94.2,64.4c-6.3,2-13.3,2-20,2.4
		c-5,0.3-8.7-2.3-9.8-7.3c-2.4-10.6-5-21.2-6.4-32c-1.5-11.8-1.4-23.8,1.2-35.6c1.7-7.5,5.7-12.7,13.2-14.4
		c12.4-2.9,24.7-6.5,37.3-7.8c25.3-2.7,50.8-4.2,76.2-6.2c0.3,1.7,0.6,3.4,0.9,5c-1.1,1.1-2.5,1.2-3.9,1.2c-18,0-36,1.7-53.8,3.6
		c-9.7,1-19.6,1.7-29.1,4.3c-4.3,1.2-9,1-13.5,2.2c-2.4,0.6-4.8,1.4-7.2,1.9c-10.6,2.3-14.7,9.9-15.2,19.7
		c-0.7,16.1-0.7,32.2,4,47.8c0.4,1.5,0.9,2.9,1.4,4.3c1.5,4.6,4.7,6.3,9.5,6.5c8.9,0.3,17.1-2.1,25-5.5c29.1-12.7,54-31.4,75.9-54.3
		C176.4,260.5,177.8,256.5,181.8,255.2z"/>
	<path class="st2" d="M219.9,263c0.5-2.6,0.9-5.1,1.4-7.7c1.8,0,2.6,1.4,3.6,2.5c20.6,24,45.3,42.7,73.7,56.6
		c9.9,4.8,20,8.9,31.4,8.6c4.7-0.1,7.9-1.8,9.7-6.2c1.9-4.4,2.9-9,3.7-13.6c1.5-8,2.2-16.2,2.5-24.4c0.3-8-0.2-16.1-2.8-23.8
		c-1.2-3.6-3.4-6.2-6.9-7.8c-9.7-4.4-20.2-5.9-30.6-7.6c-20.3-3.3-40.7-4.8-61.2-6.1c-6-0.4-11.9-0.6-17.9-0.7
		c-1.5,0-3.1,0.1-4.2-1.3c0.3-1.7,0.7-3.3,1-5c25.1,2,50.3,3.5,75.3,6.1c11.5,1.2,22.9,3.8,34.1,6.6c13.4,3.4,17,8.2,18.6,22
		c2,17.9,0.5,35.7-3.8,53.1c-3.8,15.3-8.6,18-24.1,15.1c-15.2-2.8-28.9-9.4-42.1-17.1c-22.3-13-42.4-28.8-59.5-48.2
		C221.4,263.8,220.6,263.4,219.9,263z"/>
	<path class="st2" d="M181.6,194.9c-0.5,2-0.9,3.9-1.4,5.9c-3.2-0.3-5.1-2.7-7.5-4.3c-10.7-6.8-21.8-12.5-33.4-17.8
		c-16.2-7.3-32.8-13.5-50-18.2c-8.5-2.3-17.2-4.4-26.2-4.2c-6.1,0.1-8.4,1.8-9.5,7.8c-2.8,16.5-2.6,32.8,2.1,49
		c1.4,4.7,3.9,7.3,9.2,7.9c6.9,0.9,13.8,0.9,20.7,1.1c28.5,0.7,56.8-2.2,84.9-6.6c3-0.5,6-2.5,9.3-0.6c0,1.5,0,3,0,4.6
		c-23.9,2.8-47.8,6.4-71.8,8.2c-15.2,1.1-30.7-0.6-46-1c-5.3-0.1-8.7-2.9-10-7.7c-1.9-6.7-3.9-13.6-4.9-20.5
		c-1.7-12.4-1.9-24.9,1.1-37.2c1.9-8,4.8-10.3,13.1-10.4c14.3-0.2,28,3.4,41.5,7.5c24.3,7.3,47.7,16.8,69.4,30.3
		C175.4,190.6,178.5,192.8,181.6,194.9z"/>
	<path class="st2" d="M223,200.7c-0.5-1.9-0.9-3.9-1.4-5.8c16.6-11.8,34.7-20.6,53.6-27.9c18.3-7.1,37-13.2,56.6-15.6
		c3.8-0.5,7.7-0.6,11.6-0.4c6.9,0.3,9.6,2.6,11.4,9.3c2.7,10.2,3,20.6,2.1,30.9c-0.7,7.4-1.8,14.8-3.7,22
		c-2.9,11.4-5.1,13.7-16.6,14c-18.4,0.5-36.9,0.8-55.2-0.5c-18.6-1.3-37.1-4.5-55.6-6.9c-0.8-0.1-1.6,0-2.5,0c0-1.6,0-3.3,0-4.9
		c1.4-1.1,2.9-0.8,4.4-0.5c15.5,3,31.2,4.6,46.9,6.2c16.2,1.7,32.4,1.2,48.6,1.5c5.7,0.1,11.3-0.7,17-1.4c3.2-0.4,4.9-2.1,6.2-4.8
		c2.6-5.6,3.5-11.6,4.4-17.7c1.6-10.7,1.5-21.3-0.5-31.8c-1.6-8.5-3.8-10.3-12.4-10.1c-9.8,0.3-19.2,2.7-28.5,5.4
		c-23.3,6.9-45.9,15.8-67.2,27.5c-5.2,2.9-10.2,6.2-15,9.7C225.8,199.8,224.8,201,223,200.7z"/>
	<path class="st2" d="M167.5,46c-1.9,1.1-3.7,2.1-5.6,3.2c-7.2-6.7-14.4-13.4-21.7-20.1C126.4,47,111.9,66,96.3,84.1
		c-0.4-0.4-0.9-0.7-1.3-1.1c14-19.8,27.9-39.7,41.9-59.5c3.1-4.5,4.2-4.5,8-0.7C152.4,30.6,159.9,38.3,167.5,46z"/>
	<path class="st2" d="M241.4,49.3c-1.9-1.1-3.8-2.1-5.6-3.2c7.7-7.8,15.3-15.7,23-23.4c3.5-3.6,4.7-3.5,7.5,0.4
		c12.3,17.4,24.5,34.9,36.7,52.4c1,1.5,1.7,3.2,2.6,4.8c-0.4,0.2-0.7,0.5-1.1,0.7c-1.8-2.1-3.7-4.1-5.4-6.3
		c-11.5-14.6-23-29.1-34.3-43.8c-1.8-2.4-2.7-3.1-5.1-0.5C253.7,36.9,247.5,43,241.4,49.3z"/>
	<path class="st3" d="M204.1,105c-0.5-15.9,13.2-32,31.9-31.6c16.9,0.3,31,14.3,31.1,31.5c0.1,17.2-14.6,31.8-31.9,31.6
		C218.1,136.3,204.1,122.1,204.1,105z"/>
	<path class="st3" d="M136.5,105.1c0-17.6,13.9-31.7,31.2-31.6c17.7,0,31.5,14,31.5,31.8c0,17.1-14.2,31.3-31.3,31.3
		C150.5,136.5,136.5,122.5,136.5,105.1z"/>
	<path class="st4" d="M222.4,231.6c31.2,0.6,62.2,3.1,93,8.5c5.2,0.9,10.2,2.6,15.3,3.7c10.5,2.2,14.6,9.5,15.7,19.3
		c1.7,16.4,0.3,32.7-3.6,48.6c-2.8,11.5-6.2,13.7-17.9,12.5c-11.9-1.3-22.7-6.1-33-11.7c-27.1-14.6-51.1-33-70.4-57.2
		c0.1-1.7,0.2-3.4,0.3-5.1c2.3-0.4,3.1,1.6,4.1,2.9c10.4,12.2,22.6,22.4,35.9,33.2c-3.8-10.6-2.5-19.8,3.3-28.2
		c5.6-8.2,13.4-13.4,22.5-16.7c-8.4,0-16.9-1.6-25.4-2.2c-6.5-0.4-13-0.9-19.5-1.2c-5.4-0.2-10.7-1.7-16.1-0.5
		c-1.3,0.3-2.4-0.6-3.2-1.5C223,234.4,222.7,233,222.4,231.6z"/>
	<path class="st4" d="M181.8,255.2c-12.8,16.6-28.5,29.9-45.6,41.9c-12.3,8.6-24.9,16.2-38.7,21.9c-7.8,3.2-15.9,5.6-24.5,5.4
		c-5.5-0.1-9.2-2.3-10.8-7.7c-5.8-19.5-7.6-39.3-3.9-59.5c1.1-6.1,4.5-10.5,10.6-12.1c7.7-2,15.5-3.7,23.4-5.2
		c8.8-1.6,17.5-3.5,26.4-4.2c20.7-1.7,41.4-2.8,62.2-4.1c-0.3,1.4-0.5,2.8-0.8,4.2c-5,2.8-10.6,1.4-15.9,1.8
		c-13.7,0.9-27.4,1.5-41,3.2c-2.5,0.3-5,0.2-7.7,0.4c9.9,2.5,17.1,8.7,22.9,16.4c6.1,8.2,6.8,17.6,3.5,28.2
		c12.8-10,24.3-20,34.6-31.5c1.4-1.6,2.5-3.8,5.2-3.5C181.6,252.3,181.7,253.8,181.8,255.2z"/>
	<path class="st5" d="M223.3,235.9c4.6,0.3,9.2,0.6,13.8,0.8c10.5,0.6,20.9,1,31.4,1.7c7.2,0.5,14.3,1.5,22.2,2.4
		c-21.1,9.3-35.7,21.6-28.2,47.3c-4.4-3.6-9-7-13.1-10.9c-8.8-8.5-17.4-17.2-26-25.9c-0.5-0.5-1.1-0.9-1.6-1.3
		C222.2,245.4,222.7,240.6,223.3,235.9z"/>
	<path class="st5" d="M181.6,250.9c-5.8,5.8-11.5,11.9-17.6,17.5c-7.5,6.9-15.3,13.3-23.4,19.8c7.6-25.6-6.4-38.3-27.3-48.1
		c22.2-1.4,44.5-2.8,66.7-4.2C180.5,240.9,181,245.9,181.6,250.9z"/>
	<path class="st5" d="M179.9,204.2c0,2.5-0.1,5-0.1,7.6c-2,1.5-4.5,1.4-6.7,1.8c-14.5,3.1-29.3,4.1-44,5.8c-0.4,0-0.8,0.1-1.2,0.1
		c-2-0.1-4.6,0.7-5.9-1.1c-1.2-1.8,0.8-3.5,1.6-5.2c5.1-10.6,2.9-20.8-1.8-30.8c-0.9-1.9-2.1-3.6-3.1-5.4c-0.6-1.1-1.3-2.4-0.3-3.5
		c1.1-1.2,2.5-1,3.8-0.4c2.8,1.3,5.6,2.4,8.4,3.6c14.5,5.9,28.8,12.4,41.8,21.2C175.2,199.7,178.1,201.3,179.9,204.2z"/>
	<path class="st4" d="M223,200.7c15.4-12.6,33.4-20.6,51.5-28.1c18.3-7.6,37-14.3,56.7-16.9c17.8-2.4,19,0,21,16.7
		c1.7,14.3,0.5,28.5-4,42.2c-1.4,4.3-3.5,7.5-8.9,7.5c-17.2,0.2-34.4,1.6-51.5,0.7c-18.5-1-36.8-4-55.2-6.2
		c-3.1-0.4-6.3-1.1-9.4-1.7c0-0.8,0-1.6,0-2.4c0.5-2.3,2.1-2.3,3.8-1.8c9.4,2.4,19.1,3.1,28.7,4.3c7.5,0.9,15.1,1.4,23.4,2.4
		c-7.7-14.9-4.7-28.5,3.8-42c-3.3,0.5-5.2,1.9-7.4,2.7c-10.2,4.2-20.4,8.5-30.2,13.7c-6,3.2-11.7,6.9-17.2,10.8
		c-1.5,1.1-3,2.2-4.8,0.8C223.2,202.6,223.1,201.7,223,200.7z"/>
	<path class="st5" d="M223.2,203.5c2.5-1.3,5.1-2.3,7.4-3.9c14-9.9,29.8-16.3,45.5-22.8c2.2-0.9,4.2-2,6.4-2.9c0.5-0.2,1.3,0,1.9,0
		c-0.1,0.6,0,1.4-0.3,1.9c-1.4,2.7-3.1,5.2-4.3,7.9c-4.7,10.1-6.1,22.3,1.5,35c-3.9-0.4-7.4-0.6-10.9-1.1
		c-14.4-1.9-28.9-3.9-43.3-5.7c-1.2-0.1-2.4,0.5-3.7,0.8C223.3,209.5,223.3,206.5,223.2,203.5z"/>
	<path class="st4" d="M179.9,204.2c-5-3.3-9.8-7-15.2-9.7c-12.4-6.2-25.1-11.9-37.6-17.8c-1.7-0.8-3.4-1.8-5.2-2.5
		c-0.9-0.4-2-0.3-3.1-0.4c0.3,1,0.3,2.1,0.9,2.9c5.3,7.6,8.4,16,7.6,25.2c-0.5,5.4-2.6,10.7-4.1,16.6c4.4-0.4,9.6-0.7,14.9-1.4
		c13.9-1.7,27.8-3.6,41.7-5.4c0,1.1,0.1,2.1,0.1,3.2c-14.2,2.1-28.4,4.7-42.7,6.2c-24.8,2.5-49.7,4-74.7,0.9
		c-4.7-0.6-6.2-3.5-7.2-6.8c-1.8-6.4-3.4-12.9-4.1-19.4c-1.2-10.9-1.3-21.9,1.4-32.7c1.6-6.4,3.6-7.9,10.2-8
		c12.4-0.1,24.1,3.2,35.8,6.8c25.9,8.1,51,18.2,74,33.1c2.7,1.7,5.1,3.9,7.6,5.8C180.1,201.9,180,203.1,179.9,204.2z"/>
	<path class="st2" d="M137.6,144.2c7.9,4.5,15.4,10,23.7,13.4c15.4,6.3,31.8,8,48.5,7c13.7-0.9,27-3.4,39.3-9.5
		c5.7-2.9,11-6.7,17.1-9.5c-3.7,3-7.2,6.3-11.2,8.9c-13.2,8.5-27.9,12.2-43.5,13.3c-21.2,1.5-41.5-1.4-60.2-11.9
		c-5.2-2.9-9.3-7.5-13.9-11.4C137.4,144.4,137.5,144.3,137.6,144.2z"/>
	<path class="st2" d="M267.3,142.3c0.3,0.1,0.5,0.2,0.7,0.3c-0.3,0.4-0.5,0.8-0.8,1.2c0,0.1-0.4-0.1-0.6-0.2
		C266.8,143.2,267,142.7,267.3,142.3z"/>
	<path class="st2" d="M137.3,144.5c-0.5-0.6-0.9-1.3-1.4-1.9c0,0,0,0,0,0c0.6,0.5,1.2,1,1.8,1.6
		C137.5,144.3,137.4,144.4,137.3,144.5z"/>
	<path class="st2" d="M135.8,142.6c-0.1-0.1-0.3-0.2-0.4-0.3c0.1,0,0.2,0,0.2,0C135.7,142.4,135.8,142.5,135.8,142.6
		C135.8,142.6,135.8,142.6,135.8,142.6z"/>
	<path class="st2" d="M232.5,85c11.3-0.1,20,8.5,20.2,19.8c0.2,11.1-8.8,20.2-19.8,20.3c-11.3,0.1-20.5-8.9-20.5-20.1
		C212.4,93.9,221.3,85,232.5,85z"/>
	<path class="st2" d="M190.8,105.1c0,11.1-8.9,19.9-20.1,20c-11,0-20-9-20-20.1c0-11.3,8.7-20.1,19.9-20.1
		C182.1,84.9,190.8,93.6,190.8,105.1z"/>
	<path class="st5" d="M263.9,275c-0.6-8.1,3.6-14,8.7-19.4c7.9-8.4,18-13.2,29-12.7c10.5,0.5,21.1,3.7,31.3,6.8
		c7.9,2.4,8.5,10.1,9.4,17c2.1,16.2-1,31.8-5.1,47.3c-1,3.8-4,5.7-8,5.9c-7.2,0.4-14.1-1.4-20.3-4.5c-11.2-5.5-22.1-11.8-32.8-18.3
		C267.8,292.3,264.4,284.3,263.9,275z"/>
	<path class="st5" d="M139.7,275c0.6,7.9-3.8,13.9-7.9,19.2c-3.3,4.2-9.1,6.6-14,9.3c-8.6,4.7-17.1,9.6-26.2,13.1
		c-5.7,2.3-12.3,2.6-18.5,3.2c-3.7,0.3-6.1-2.7-7.1-6c-3-10.1-5.3-20.3-5.1-30.9c0.1-7,0.2-14,0.9-20.9c0.8-7.6,5.2-12.4,12.9-14
		c8.3-1.7,16.6-4.6,25-5.1c5.9-0.4,12.2,1.8,17.9,3.8c9.1,3.3,15.9,9.8,20,18.7C138.9,268.4,139,271.8,139.7,275z"/>
	<path class="st5" d="M311.4,220.4c-6.9-0.4-13.9-0.7-20.9-1.2c-3.8-0.2-9.5-5.8-10.5-10.1c-3.4-14.6,2.9-30.7,14.7-39.1
		c1.6-1.2,3.7-1.8,5.7-2.4c8.2-2.4,16.4-5,24.7-6.8c4.9-1.1,10-0.9,15.1-1c3.3-0.1,4.8,2.2,5.6,5.1c3.2,11.5,3.1,23.2,1.2,34.9
		c-0.6,3.5-1.3,7-2.2,10.5c-1.8,6.9-3.4,8.3-10.4,8.8C326.8,219.7,319.2,220,311.4,220.4z"/>
	<path class="st5" d="M91.5,220.6c-8.9-0.7-17.9-1.3-26.8-2.3c-1.4-0.1-3.3-1.5-3.9-2.8c-6.3-16.1-7.9-32.6-3.4-49.4
		c1.5-5.6,4.6-7.3,10.3-6.8c13,1.1,25.6,4.5,37.6,9.4c4.8,1.9,9.2,6.3,12.2,10.6c4.4,6.6,7.3,14.3,6.6,22.6
		c-0.5,6.3-1.3,12.8-7.7,15.9c-3.4,1.6-7.7,1.8-11.6,2.1c-4.4,0.3-8.9,0.1-13.3,0.1C91.5,220.2,91.5,220.4,91.5,220.6z"/>
	<path class="st3" d="M247.4,99.2c0,2.9-1.9,4.5-5.2,4.6c-4.5,0.2-9.7-4.1-10.4-8.6c-0.5-3,0.8-5.2,3.9-5.9
		C240.5,88.2,247.2,93.6,247.4,99.2z"/>
	<path class="st3" d="M169.8,93.9c0.2-3,1.8-4.4,4.7-4.7c4.8-0.4,10.3,4.3,10.8,9c0.3,2.7-0.8,4.5-3.5,5.3
		C176.5,105,169.6,99.4,169.8,93.9z"/>
</g>
</svg>
