<?xml version="1.0" encoding="utf-8"?>
<!-- Generator: Adobe Illustrator 22.1.0, SVG Export Plug-In . SVG Version: 6.00 Build 0)  -->
<svg version="1.1" id="Layer_1" xmlns="http://www.w3.org/2000/svg" xmlns:xlink="http://www.w3.org/1999/xlink" x="0px" y="0px"
	 width="400px" height="400px" viewBox="0 0 400 400" style="enable-background:new 0 0 400 400;" xml:space="preserve">
<style type="text/css">
	.st0{fill:#FFFFFF;}
	.st1{fill:#AF7347;}
	.st2{fill:#C7C6C6;}
	.st3{fill:#6D4D37;}
	.st4{fill:#060606;}
	.st5{fill:#F4B5B6;}
	.st6{fill:#FEFEFD;}
</style>
<circle class="st0" cx="200.5" cy="199.6" r="200"/>
<g>
	<path class="st1" d="M289.3,224.2c1.6,2.7,3.2,5.5,4.9,8.2c0.6,1.4,1.6,2.4,2.9,3.1l-0.1-0.1c3.4,7.7,7.1,15.3,5.9,24.1
		c2.9,15.1,1.5,29.1-10.1,40.7c-1.1,1.1-1.3,3-1.8,4.6c-3.3,1-5.7,3.3-8.4,5.2c-4.2,2.8-8.6,5.4-13.4,7c-3.9,1.3-5.3,3.7-5.2,7.8
		c0.2,6.8,0.1,13.6,0.1,20.4c0.1,5.4,0.1,10.7-0.2,16.1c-0.4,1.2-0.9,2.4-1.3,3.6c-1.9,1.8-4.4,1.4-6.7,1.4
		c-12.3,0.1-24.6-0.2-36.8,0.3c0-11.8-0.1-23.7,0.1-35.5c0.1-3.5-1-4-4.2-3.8c-7.6,0.4-15.2,0.5-22.7,0c-4.3-0.3-5.1,1.2-5.1,4.9
		c0.1,10.9,0,21.7-0.1,32.6c-1.5,1.3-3.4,1.5-5.3,1.5c-11,0.1-21.9,0.1-32.9,0c-1.9,0-3.8,0.1-5.3-1.5c-0.4-1.2-0.9-2.4-1.3-3.6
		c-0.7-5.2-0.2-10.3-0.3-15.5c0.2-7.1,0.1-14.2,0.1-21.3c0-2.5-0.6-4.6-3.1-5.9c-7.7-4.1-15.5-7.9-22.2-13.5
		c-0.3-0.3-0.9-0.2-1.4-0.2c-0.6-1.4-0.7-3.2-1.7-4.2c-9.7-9.5-12.5-21.1-11.3-34.3c1.5-15.1,5-29.5,14.4-41.9
		c1.2,0.1,2.1,0.8,2.9,1.5c6.8,6.2,14.6,11.1,22.7,15.3c2.9,1.5,4.2,3.5,4.2,6.7c-0.1,3.2-0.1,6.3,0.1,9.5
		c0.3,6.1,4.3,10.4,10.3,11.1c20.4,2.3,40.9,3.7,61.4,2.8c10.6-0.4,21.1-1.6,31.6-2.9c5.5-0.7,9.1-4.7,9.6-10.1c0-0.3,0.1-0.6,0-0.9
		c-2.1-10.5,2.4-16.8,12.1-20.6c5.6-2.2,10.3-6.1,14.5-10.5C287,225.1,288,224.3,289.3,224.2z"/>
	<path class="st1" d="M290.2,111.3c11.6,6,23.3,11.7,34.7,18.1c7.1,3.9,7.1,6.6-0.5,10.7c-6.8,3.7-14.5,6.1-21.9,8.5
		c-3.9,1.2-5,2.2-4.3,6.7c1.7,11.2,3,22.5,3.1,33.8c0.1,10.2-4.7,19.1-11.2,27c-1.2,1.4-2.1,3-3.2,4.6c-3.6,5.2-9.3,7.9-14.3,11.2
		c-3.6,2.4-7.5,4.5-11.7,6c-2.1,0.7-4.3,1.5-5.8-1.1c-1.2-7.7-0.4-15.4-0.5-23.1c-0.2-9-2.5-12.1-11.4-13.1
		c-26.2-3.1-52.5-3.5-78.8-0.2c-1.7,0.2-3.4,0.5-5.1,0.9c-5.3,1.2-7.9,4.1-8.1,9.5c-0.2,6.5,0,12.9-0.1,19.4c0,2.2,0.2,4.4-0.5,6.6
		c-1.1,2.2-3,2.3-4.8,1.5c-9.5-4.1-18.6-9-26.1-16.3c-0.3-0.3-0.4-0.8-0.5-1.3c-9.9-11.3-16.3-24-14.9-39.5
		c0.7-8.5,1.7-16.9,3.3-25.3c0.8-4.3,0.3-5.9-4.2-7.2c-7.5-2.2-15.2-4.7-21.9-8.5c-8.2-4.6-7-7.1-0.5-10.7c11.4-6.2,23.1-12,34.7-18
		c2.5-1.8,4.1,0.1,5.8,1.5c1,3.7-2.3,4.1-4.4,4.9c-8,3.3-15.8,7-23.2,11.8c-5.6,3.6-5.6,5.5,0.3,8.8c3.7,2.1,7.8,3.4,11.9,4.7
		c2.5,0.8,3.9,0,4.7-2.4c3.4-10,9.2-18.6,15.6-26.9c9.4-10.3,20.7-17.6,33.6-22.7c1.7-0.7,3.4,0.2,5-0.6c13.7-3.4,27.5-5.9,41.6-4.7
		c11.4,0.9,22.7,3.1,34.1,4.7c9.9,0.6,17.5,6.2,25.3,11.3c5,3.2,9.4,7.3,13.3,11.9c6.4,8.2,12.3,16.8,15.7,26.9
		c0.7,2,1.8,3.4,4.2,2.6c4.8-1.6,9.8-2.7,14-5.7c4.1-2.9,4.2-4.4-0.2-7.2c-7.6-4.8-15.4-9.4-23.9-12.4c-2.2-0.8-5.7-1.1-4.9-5.1
		C286,111,287.7,109.7,290.2,111.3z"/>
	<path class="st2" d="M121.4,113.1c-1.9-0.6-3.8-1.2-5.7-1.7c-8.2-3.6-16.3-7.3-24.6-10.8c-3-1.3-4.2-3.1-4-6.4
		c0.8-18.5,5.3-35.8,15.5-51.4c1.4-2.2,3.5-4,5.8-6.8c0.9,6.1,1.6,11.4,2.4,16.7c0.4,2.6,0.8,5.3,1.4,7.9
		c3.2,14.1,4.2,14.8,18.3,18.9c11.6,3.4,23.1,7.4,34.6,11.1c-14.5,4.9-27.1,12.7-37.8,23.7C124.9,115.9,123.1,114.5,121.4,113.1z"/>
	<path class="st2" d="M290.2,111.3c-1.9,0.6-3.7,1.3-5.6,1.9c-1.7,2.3-3.6,2.5-5.9,1c-7.5-5.6-14.8-11.6-22.6-16.8
		c-4.6-3-10.2-4.6-15.4-6.9c15-4.8,30-9.6,45-14.6c1.9-0.6,3.8-2.7,4.5-4.6c4-10.5,6.4-21.4,6.6-32.7c0-0.6,0.2-1.1,0.5-2.4
		c6.4,6.1,10.6,12.8,13.6,20.5c4.6,12.2,7.8,24.6,7.8,37.7c0,3.2-1.1,4.8-3.9,6C306.6,104,298.4,107.7,290.2,111.3z"/>
	<path class="st3" d="M256.6,237.6c5.8-2.7,11.9-5,17.5-8.1c4.6-2.5,8.7-5.9,13-8.9c0.8,1.2,1.6,2.4,2.3,3.6
		c-6.6,8.6-16.1,13.4-25.5,18.2c-2.7,1.4-3.1,2.9-3.2,5.4c-0.1,4.8-0.1,9.8-1.1,14.5c-0.9,4.3-4.8,6.8-8.9,7.2
		c-20.7,2.4-41.4,3.9-62.3,2.9c-10.8-0.5-21.6-1.8-32.4-2.8c-5.7-0.5-10.5-5.9-10.9-11.8c-0.3-4.9,0.6-10.6-1.7-14.3
		c-2.3-3.6-8.1-4.9-12.1-7.7c-5.1-3.6-9.8-7.7-14.7-11.5c0.9-1.3,1.8-2.6,2.7-3.8c8.3,5.2,16.5,10.5,24.8,15.7
		c1.5,0.9,3.5,1.1,5.3,1.6c2.1,1.1,1.7,3.2,1.8,5c0.2,3.3,0,6.6,0.1,9.9c0.2,6.7,2.7,9.6,9.4,11c4.7,1,9.4,1.2,14.1,1.6
		c22.4,2,44.7,1.6,67-1c1.9-0.2,3.8-0.5,5.6-1c4.8-1.4,7.1-4.2,7.3-9.2c0.2-3.8-0.1-7.6,0.1-11.4
		C254.8,240.7,254.4,238.6,256.6,237.6z"/>
	<path class="st3" d="M262.8,344.8c0-7.7,0-15.4-0.1-23.1c0-2.5,0.9-3.7,3.3-4.9c7.2-3.7,14.2-7.9,21.3-11.8c1-0.5,2.4-0.2,3.6-0.3
		c0,1.7,0,3.4,0,5.1c-0.2,0.5-0.2,1,0,1.5c0,11.2,0,22.3,0.1,33.5c-1.5,1-3.1,1.4-4.9,1.4c-6.3,0-12.6,0.1-18.8,0
		C265.6,346.2,264,346,262.8,344.8z"/>
	<path class="st3" d="M115.2,304.6c0.6-0.4,1.5-1.3,1.7-1.1c7.9,4.7,15.9,9.4,23.6,14.4c1.4,0.9,2.4,3.2,2.5,4.9
		c0.2,7.4,0.1,14.7,0,22.1c-1.1,1-2.5,1.3-3.9,1.3c-6.6,0.1-13.1,0.2-19.7,0c-1.4,0-2.8-0.2-3.9-1.4
		C115.5,331.4,115.3,318,115.2,304.6z"/>
	<path class="st4" d="M219,366.4c1.2-0.6,2.4-1.8,3.6-1.8c13.3-0.1,26.6,0,39.9,0.1c1.4,4.2,2.6,8.4,4.2,12.5
		c1.1,2.8,1.1,3.8-2.4,3.8c-14-0.2-28.1-0.2-42.1-0.1c-2.4,0-3.4-0.5-3.3-3.1C219.1,374,219,370.2,219,366.4z"/>
	<path class="st4" d="M143.4,364.7c14.5,0,29,0,43.5-0.1c0,5.2,0,10.4,0,15.6c-5,0.2-10,0.5-14.9,0.6c-9.9,0.1-19.8,0-29.8,0.2
		c-3,0-4.4-0.3-2.9-3.8C140.9,373.2,142,368.9,143.4,364.7z"/>
	<path class="st4" d="M262.8,344.8c9.4,0,18.8,0,28.2,0c0.9,3.6,1.6,7.2,2.6,10.8c1.5,5.7,1.6,5.7-4.3,5.6c-8.5-0.1-17-0.1-25.5-0.2
		c-0.4-0.7-1.1-1.3-1.1-2C262.7,354.4,262.8,349.6,262.8,344.8z"/>
	<path class="st4" d="M115.6,344.7c9.2,0,18.3,0.1,27.5,0.1c-0.3,5.4-0.6,10.9-1,16.3c-9.1,0.1-18.2,0-27.2,0.2
		c-2.9,0.1-4-0.5-3-3.6C113.2,353.5,114.3,349.1,115.6,344.7z"/>
	<path class="st3" d="M302.9,259.4c-2-8-3.9-16-5.9-24.1c3.2,3.4,6.9,6.4,9.6,10.1c6.5,9.4,9.7,20,9.4,31.8
		c-1.5-2.6-2.7-5.3-4.5-7.7C308.8,266,305.8,262.8,302.9,259.4z"/>
	<path class="st3" d="M297.1,235.5c-1-1-2-2-2.9-3.1C295.2,233.4,296.1,234.4,297.1,235.5z"/>
	<path class="st1" d="M290.9,311.3c0-0.5,0-1,0-1.5C290.9,310.3,290.9,310.8,290.9,311.3z"/>
	<path class="st5" d="M256.6,237.6c-0.1,5.4-0.1,10.7-0.2,16.1c-0.2,6.5-3.8,10.6-10.2,11.5c-28.8,3.8-57.5,3.7-86.3,0
		c-6.4-0.8-10.1-5-10.2-11.4c-0.1-5.4-0.2-10.7-0.3-16.1c0.1-8.8,0.2-17.7,0.3-26.5c0.1-7.1,3.4-10.6,10.3-11.7
		c20.5-3.6,41.2-3.1,61.9-2.5c8.3,0.2,16.6,1.6,24.9,2.6c5.8,0.8,9.2,4.8,9.4,10.6C256.4,219.3,256.4,228.4,256.6,237.6z"/>
	<path class="st6" d="M241.7,119.7c19.7-0.1,35.8,16,35.8,35.9c0.1,19.2-16.5,35.9-35.6,35.8c-20.1-0.1-36.1-15.9-36.2-35.6
		C205.8,135.5,221.4,119.8,241.7,119.7z"/>
	<path class="st6" d="M128.7,155.2c0.1-20.3,15.8-35.7,36.4-35.5c19.8,0.2,35.2,16.2,35,36.5c-0.1,19.6-16.6,35.5-36.5,35.2
		C144,191,128.6,175,128.7,155.2z"/>
	<path class="st5" d="M278.8,114.2c2-0.3,3.9-0.6,5.9-1c1.5,1.2,2.8,2.6,4.4,3.4c8.3,4.4,16.9,8.4,25.1,12.9c5.5,3,5.6,5.7,0.1,8.5
		c-5.1,2.7-10.7,4.5-16.1,6.5c-0.8,0.3-2.9-0.6-3.1-1.4C291.5,132.4,285.2,123.3,278.8,114.2z"/>
	<path class="st5" d="M121.4,113.1c1.9,0.4,3.9,0.8,5.8,1.1c-4.6,7.5-9.6,14.8-13.6,22.5c-4.6,8.9-4.2,9.1-13.7,5.4
		c-2.8-1.1-5.5-2.4-8.1-3.9c-5.2-2.9-5.3-5.9,0-8.8c8.3-4.5,16.8-8.5,25.2-12.9C118.7,115.7,120,114.3,121.4,113.1z"/>
	<path class="st3" d="M179.9,209c6,0.2,10.7,5,10.5,11.1c-0.1,6-5,10.7-11,10.6c-6.3-0.1-10.9-5-10.7-11.4
		C169,213.3,173.8,208.9,179.9,209z"/>
	<path class="st3" d="M226.5,209c6,0,10.7,4.7,10.7,10.9c0,6.2-4.6,10.9-10.7,10.9c-6.2,0-11.2-5.1-11.1-11.1
		C215.6,213.7,220.4,209,226.5,209z"/>
	<path class="st1" d="M238.3,247.2c-16.2,11.7-62.7,9.5-74.2-2.1C189.1,253.6,213.6,253.4,238.3,247.2z"/>
	<path class="st4" d="M261.2,155.6c0,12.5-10.4,22.9-22.9,22.9c-12.4,0-22.9-10.5-23-22.9c-0.1-12.7,10.5-23.2,23.2-23.1
		C251.1,132.6,261.1,142.8,261.2,155.6z"/>
	<path class="st4" d="M144.9,155.2c0.1-12.6,10.5-22.9,23-22.6c12.8,0.2,22.7,10.4,22.7,23.1c0,12.6-10.3,22.9-22.8,22.9
		C155.1,178.6,144.8,168.2,144.9,155.2z"/>
	<path class="st6" d="M244,137.7c5.5,0.3,11.2,6,11.1,11c-0.1,3.7-2.6,5.6-6.8,5.4c-5.5-0.3-11.3-6.1-11.1-11
		C237.3,139.5,239.9,137.4,244,137.7z"/>
	<path class="st6" d="M172.6,137.7c6.2,0.4,12,6.1,11.9,11c-0.1,3.6-2.6,5.6-6.8,5.4c-5.8-0.3-11.4-6.1-11-11.4
		C167.1,138.5,169.9,137.6,172.6,137.7z"/>
</g>
</svg>
