<?xml version="1.0" encoding="utf-8"?>
<!-- Generator: Adobe Illustrator 22.1.0, SVG Export Plug-In . SVG Version: 6.00 Build 0)  -->
<svg version="1.1" id="Layer_1" xmlns="http://www.w3.org/2000/svg" xmlns:xlink="http://www.w3.org/1999/xlink" x="0px" y="0px"
	 width="400px" height="400px" viewBox="0 0 400 400" style="enable-background:new 0 0 400 400;" xml:space="preserve">
<style type="text/css">
	.st0{fill:#FFFFFF;}
	.st1{fill:#6D95C8;}
	.st2{fill:#8BB1E3;}
	.st3{fill:#43638D;}
	.st4{fill:#F7F9FA;}
	.st5{fill:#060606;}
</style>
<circle class="st0" cx="199.9" cy="200.3" r="200"/>
<g>
	<path class="st1" d="M280.2,269.7c1.5,11.2,5.6,21.3,9.7,31.4c1.5,3.4,3,6.3,4.1,9.7c0.4,1.1,2.2,2.6,1.1,4.1
		c-1.1,1.1-3,0.4-4.5,0.4c-9.3-1.5-17.9-4.5-26.5-8.2c-4.1-1.9-7.8-3.7-11.6-5.6c-1.1-0.4-2.2-1.9-3.4,0c-0.4-0.7-0.7-2.2-1.5-2.6
		c-8.6-6-17.2-11.6-25.8-17.2c-2.2-1.9-4.9-3.7-7.1-6.3c-3.4-3.7-7.1-4.1-11.6-3c-4.1,1.1-8.2,0.7-12.3,1.1
		c-6,0.4-12.3,0.4-18.3,1.1c-11.9,1.1-23.9,0.7-35.8,0.4c-10.8-0.4-21.6-2.2-32.1-4.1c-13.4-2.6-26.5-6.3-38.4-12.7
		c-5.2-2.6-10.1-6-15.3-9c-1.5-19-2.2-38.1-1.5-57.1c0.4-9.3,0.7-18.7,1.5-27.6c1.1-14.2,3-28.4,7.1-42.2
		c3.4-11.9,10.8-20.2,21.6-26.1c14.2-7.8,29.5-11.2,45.2-12.7c32.8-3,65.3,0,97,9c10.8,3,21.3,7.1,31.4,11.9
		c18.7,8.6,28.7,23.1,31.7,43.3c2.2,15.7,3.4,31.4,4.5,47c0.7,12.7,4.9,24.6,13.1,34.7c3,3.7,3.4,3.7,5.2-0.4
		c11.2-22,38.8-27.2,56.4-10.5c0.4,0.4,1.1,0.7,0.7,1.5c-19.4-1.5-33.6,8.2-34.3,23.1c-1.1,17.2,10.8,26.5,34,27.6
		c-11.9,15.7-42.9,16.8-56.4-8.2 M67.8,189.1c0,18.7,14.9,34,33.6,34s34.3-15.3,34.3-34s-15.3-34-34-34S67.8,170.4,67.8,189.1z
		 M174.5,223c18.7,0,34-15.3,34-33.6c0-18.7-15.3-34-34.3-34c-18.3,0-34,15.7-33.6,34C140.6,208.1,155.9,223,174.5,223z M64.1,233.1
		 M62.9,232v0.4V232L62.9,232z"/>
	<path class="st2" d="M50.6,244.7c5.2,3.3,10.1,6.7,15.3,10c12.3,7.1,25,11.7,38.4,14.1c10.8,2.1,21.3,4.2,32.1,4.6
		c11.9,0.4,23.9,0.8,35.8-0.4c6-0.8,12.3-0.8,18.3-1.2c4.1-0.4,8.6-0.4,12.3-1.2c4.9-1.2,8.2-0.4,11.6,3.3c2.2,2.5,4.5,4.6,7.1,7.1
		c-3,0.4-6,0.4-9,1.2c-4.1,1.2-8.2,0-11.9,2.9c-11.2-0.4-22.4,2.1-34,2.5c-12.3,0.4-25,0.8-37.3,0c-13.4-0.8-26.5-2.9-39.6-6.2
		c-12.3-3.3-23.5-8.7-33.6-16.6c-3.7-2.9-5.6-6.2-5.6-11.2C51,250.1,51,247.6,50.6,244.7z"/>
	<path class="st3" d="M200.1,284.1c3.7-2.6,7.8-1.5,11.9-2.6c3-0.7,6-0.7,9-1.1c8.6,5.6,17.2,11.6,25.8,17.2
		c0.7,0.4,1.1,1.9,1.5,2.6c1.1,2.2,1.9,4.5,3.4,7.8C231.9,304.6,215.8,294.9,200.1,284.1z"/>
	<path class="st2" d="M280.2,271.5c-1.5-2.2-0.7-4.9-1.5-7.5c-0.4-1.5,0.7-2.6,2.2-2.6c7.8,0,14.9-3,22.8-4.1
		c4.1-0.4,4.5,0.7,4.1,3.7c0,0.7,0,1.9,0,2.6c-8.2,2.2-16.8,4.5-25,6.7C282,271.1,280.9,271.5,280.2,271.5z"/>
	<path class="st4" d="M67.8,189.1c0-18.7,15.3-34,34-34s34,15.3,34,34s-15.3,34-34.3,34C82.7,223,67.8,207.7,67.8,189.1z
		 M104.4,210.7c11.9,0,21.6-9.3,22-21.3c0-12.3-9.3-22-21.6-22c-11.9,0-21.6,9.7-21.6,21.6C82.7,201,92.4,210.7,104.4,210.7z"/>
	<path class="st4" d="M174.5,223c-18.7,0-34-14.9-34-33.6s15.3-34.3,33.6-34c19,0,34.3,15.3,34.3,34
		C208.5,207.7,193.2,223,174.5,223z M171.6,210.7c11.9,0,21.6-9.7,21.6-21.6s-10.1-21.6-22-21.6c-11.9,0-21.6,10.1-21.3,22
		C149.9,201.4,159.2,210.7,171.6,210.7z"/>
	<path class="st5" d="M64.1,233.1C106,251,135,256,193.2,247.3C168.2,264.8,92.8,263,64.1,233.1z"/>
	<path class="st3" d="M144.3,91.4c6,0,11.2,0,16,2.2c1.5,0.7,2.6,1.5,2.6,3.4c0,1.5-1.5,1.9-2.6,2.6c-10.1,3.7-20.2,3.4-30.6,0.4
		c-1.5-0.4-3.4-1.9-3-3.4c0.7-2.6,3-3.7,5.2-4.1C136.1,91.8,140.6,90.7,144.3,91.4z"/>
	<polygon class="st5" points="62.9,232 62.6,232 62.9,232.4 	"/>
	<path class="st5" d="M104.4,210.7c-11.9,0-21.6-9.7-21.3-21.6c0-11.9,10.1-21.6,21.6-21.6c11.9,0,21.6,9.7,21.6,22
		C126,201.4,116.7,210.7,104.4,210.7z M109.6,172.3c-3.4,0-6,2.2-6,5.6c0,4.9,6,10.5,11.2,10.5c3.4,0,5.6-1.9,6-5.2
		C120.8,177.9,114.4,172.3,109.6,172.3z"/>
	<path class="st5" d="M171.6,210.7c-11.9,0-21.6-9.3-22-21.3c-0.4-11.6,9.7-21.6,21.3-22c11.9,0,22,9.7,22,21.6
		C193.2,201,183.5,210.7,171.6,210.7z M187.2,182.4c0-5.2-6.3-10.8-11.6-10.5c-3.7,0.4-5.6,2.6-4.9,6.3c0.7,4.9,6.3,9.7,11.2,9.3
		C185,188,187.2,186.5,187.2,182.4z"/>
	<path class="st4" d="M109.6,172.3c5.2,0,11.2,5.6,11.2,10.5c0,3.7-2.2,5.2-6,5.2c-5.2,0-11.2-5.6-11.2-10.5
		C103.6,174.5,106.2,171.9,109.6,172.3z"/>
	<path class="st4" d="M187.2,182.4c0,3.7-2.2,5.2-5.6,5.6c-4.9,0.4-10.5-4.9-11.2-9.3c-0.4-3.7,1.5-6,4.9-6.3
		C180.5,171.9,186.9,177.5,187.2,182.4z"/>
</g>
</svg>
