<?xml version="1.0" encoding="utf-8"?>
<!-- Generator: Adobe Illustrator 22.1.0, SVG Export Plug-In . SVG Version: 6.00 Build 0)  -->
<svg version="1.1" id="Layer_1" xmlns="http://www.w3.org/2000/svg" xmlns:xlink="http://www.w3.org/1999/xlink" x="0px" y="0px"
	 width="400px" height="400px" viewBox="0 0 400 400" style="enable-background:new 0 0 400 400;" xml:space="preserve">
<style type="text/css">
	.st0{fill:#FFFFFF;}
	.st1{fill:#6D4B30;}
	.st2{fill:#C99B77;}
	.st3{fill:#392D24;}
	.st4{fill:#F7A110;}
	.st5{fill:#FEFDFD;}
	.st6{fill:#060606;}
</style>
<circle class="st0" cx="200.5" cy="199.6" r="200"/>
<g>
	<path class="st1" d="M138.3,209.6c-4.6-3.2-9.4-6.2-13.7-9.7c-16.2-13.5-21.1-30.6-15.3-50.7c6.3-21.8,18.8-39.6,35.7-54.4
		c0.9-0.8,1.9-1.7,3.1-2.8C124,83.8,99.9,76.7,78.5,63C157.8,76.6,237,76.7,316.1,62c0.2,0.5,0.4,1,0.6,1.4c-1.6,1.1-3,2.6-4.8,3.4
		c-13.2,5.6-26.3,11.3-39.6,16.6c-8.1,3.2-16.6,5.7-24.6,8.4c6.2,6.7,12.8,13,18.5,20c10.4,12.7,17.9,27,21,43.3
		c3.8,20.4-4.2,35.9-20.3,47.8c-3.2,2.4-6.7,4.5-10,6.7c-0.9,1.7-2.6,2.2-4.2,2.9c-21.7,8.8-44.2,12-67.6,10
		c-14.6-1.2-28.5-4.4-42-9.8C141.2,211.9,139.3,211.4,138.3,209.6z"/>
	<path class="st2" d="M162.6,314.1c-7-3.8-13.9-7.5-20.9-11.3c1-7.5,1-15,3.3-22.3c4.6-15,12.5-27.6,25.9-36.4
		c20.4-13.3,48-9.1,63.9,9.3c11.3,13,17.4,27.9,17.7,45.1c0,1.5,0.4,2.9,0.6,4.3c-5.7,3.1-11.2,6.5-17,9.3c-2.3,1.1-3.3,2.3-3.2,4.8
		c0.2,6.5,0,13,0,19.6c-2.3-0.6-1.9-2.6-1.9-4.2c-0.2-4.2,0-8.4-0.1-12.5c-0.1-4.2-0.7-4.6-4.6-3.2c-1.2,0.4-2.4,0.9-3.7,1.2
		c-16.6,4.1-33.3,3.5-50,0.4C169.3,317,165.9,315.6,162.6,314.1z"/>
	<path class="st1" d="M253.2,302.8c-0.6-1.2-1.7-2.4-1.7-3.7c-0.2-18.2-6.4-34.1-19.2-46.9c-18.1-18.1-44.9-20.3-65.3-3.7
		c-15.7,12.8-22.4,29.9-23.5,49.7c-0.1,1.5-1.1,3-1.7,4.6c-3.2-2.4-6.4-4.8-9.6-7.2c-9.4-8.7-15-19.2-15.9-32.1
		c-1.4-19,6.8-33.5,20.9-45.3c2.4-2,4.6-2.5,7.5-1.3c20.3,7.9,41.6,10.1,63.1,8.8c14.3-0.8,28.5-3,41.9-8.7c3.2-1.3,5.6-0.9,8.3,1.3
		c12.5,10,19.9,22.8,21.1,38.8c0.6,8.2-1.2,16.1-5.1,23.5c-2,3.8-4,7.7-7,10.9c-1.5,1.6-3,3.1-5.2,3.8
		C259,297.9,256.1,300.3,253.2,302.8z"/>
	<path class="st3" d="M261.9,295.4c6.9-6.4,11.7-14.2,14.3-23.2c3.6-12.6,2-24.7-4.6-36.2c-4-7.1-9.2-13-15.6-17.7
		c-1-0.8-3-1.2-4.1-0.7c-20.7,8.3-42.3,10.4-64.2,9.3c-14.7-0.8-29.2-3.1-42.9-8.9c-2.9-1.2-5-1.2-7.1,1.4c-5,6.1-11.2,11.4-15,18.2
		c-6.3,11.2-7,23.3-3.2,35.9c2.3,7.6,6.7,13.6,11.3,19.6c0.6,0.8,0.9,1.7,1.4,2.6c-6.2,6.6-13.3,12-21.6,15.7
		c-7,3.1-8.6,2.3-9.6-5.4c-3-22.8,0-44.7,11.2-65c6.6-12.1,14-23.6,26.1-31.2c5,1.8,9.9,4.1,15.1,5.3c10,2.3,20.1,4.9,30.4,5.8
		c10.9,1,22,1,32.8-0.1c12.9-1.3,25.4-4.8,37.4-10.1c0.9-0.4,1.9-0.7,2.9-1c4.4,3.9,9.5,7.3,13.2,11.8
		c20.3,24.6,28.4,52.8,24.1,84.5c-0.2,1.3-0.6,2.5-0.9,3.8c-0.7,3.2-2.5,3.7-5.4,2.7c-8.6-2.9-15.6-8.1-22.2-14.1
		C264.3,297.3,263.1,296.4,261.9,295.4z"/>
	<path class="st3" d="M172,317.3c3.5,0.4,7,0.6,10.4,1.1c13.6,1.9,27,1.1,40.3-1.8c0.9,0.7,1,1.8,1.1,2.8c0,2.8,0,5.6,0.1,8.4
		c0,2.2,0.1,4.3-0.2,6.5c-0.6,4-4.6,6.5-8.8,5.7c-11.5-2.1-23.1-1.9-34.6-0.2c-3.6,1.8-7-0.2-9.1-5.3c-0.1-1.2-0.1-2.5-0.2-3.7
		C171.3,326.3,169.8,321.7,172,317.3z"/>
	<path class="st4" d="M172,317.3c0,4.8,0,9.5,0,14.3c-0.3,1-0.3,2,0,3.1c2,3,4.4,5.2,8.3,5.1c3.1,2.2,6.3,4.4,9.5,6.7
		c-5.6,2-10.8,0.9-15.8-1.9c-3.1-1.7-5.2-1.7-6.8,2.1c-1.2,2.9-3,5.6-4.7,8.2c-0.6,0.9-1.8,2.1-2.7,2.1c-1.8,0.1-3.6-0.4-5.4-0.7
		c0.4-1.5,0.8-2.9,1.2-4.4c0.7-2.1,1.5-4.2,2.2-6.2c-2.1,0.5-4.6,0.6-6.4,1.7c-6.1,4-12.1,2-18.5-0.5c4.9-1.7,9.7-3.3,14.6-5
		c4.5-1.5,9-2.8,13.4-4.6c0.8-0.3,1.4-2.4,1.4-3.6c0.2-6.5,0.1-13,0.2-19.6C165.7,315.1,168.9,316.2,172,317.3z"/>
	<path class="st4" d="M222.9,319.4c-0.1-0.9-0.2-1.9-0.2-2.8c1-0.3,1.9-0.6,2.9-0.9c6.6-2.3,6.5-2.3,6.7,4.6
		c0.1,5.4,0.5,10.8,0.7,16.2c8.5,3,17.1,5.9,25.6,9c0.8,0.3,1.4,1.2,2.1,1.9c-0.8,0.4-1.5,1-2.3,1.3c-6.3,2.4-12,0.4-17.6-2.5
		c-1-0.5-2.4-0.5-3.6-0.7c0.3,1.2,0.5,2.4,0.9,3.6c0.4,1.1,1.1,2.1,1.3,3.2c0.3,1.5,0.1,3.1,0.2,4.7c-2.4-0.6-5.4-0.4-6.9-1.9
		c-2.2-2.1-3.5-5.2-4.7-8.1c-1.6-3.6-3.6-4.4-7-2.3c-4.9,3-10.1,3.7-15.9,1.8c3.4-2.2,6.6-4.3,9.9-6.5c7-2.1,7.5-2.8,8.1-12.2
		C223.2,325,223.3,322.2,222.9,319.4z"/>
	<path class="st3" d="M196.8,217.3c-2-5-4.1-10-6-15.1c-3-7.9-5.9-15.9-9.1-23.8c-0.3-0.7-2.1-1.3-3.1-1.1c-4.6,1-9.1,3.2-13.8,3.4
		c-19.8,1.1-35.4-10.6-39.8-30c-4.2-18.5,7.4-37.2,23.7-43.2c18.1-6.6,37.8-0.2,48.6,20.2c2.4-3.3,4.6-6.6,7.1-9.6
		c13.2-15.9,37.7-18.3,54.2-3.2c16.5,15.1,16.1,40.4,0.8,54.9c-12.1,11.5-25.7,13.9-41.1,8c-2.7-1-4.5-2.1-5.9,2.2
		c-3.8,11.2-8.3,22.1-12.6,33.2c-0.5,1.3-1.3,2.6-1.9,3.9C197.6,217.1,197.2,217.2,196.8,217.3z"/>
	<path class="st2" d="M222.9,319.4c0,2.8,0,5.6,0,8.3C223,325,222.9,322.2,222.9,319.4z"/>
	<path class="st2" d="M172,334.7c0-1,0-2.1,0-3.1C172,332.6,172,333.6,172,334.7z"/>
	<path class="st5" d="M233.1,110.2c18.1,0,32.9,14.9,32.9,33c-0.1,18-15,32.6-33.1,32.7c-19.3,0.2-33-16.5-32.8-33.1
		C200.3,124.6,214.7,110.2,233.1,110.2z"/>
	<path class="st5" d="M162,110.2c18.4,0,32.9,14.3,33,32.7c0.1,18.4-14.6,33.1-33.1,33c-18-0.1-32.6-14.7-32.6-32.7
		C129.3,124.7,143.7,110.2,162,110.2z"/>
	<path class="st4" d="M197.1,206.2c-2-5.2-4-10.3-6-15.5c-1.5-4.1-3-8.1-4.5-12.2c-1.7-4.9-0.6-8.5,3.6-11.8
		c4.2-3.3,8.9-3.9,12.9-1.2c5.9,4,7.7,8.5,5.1,14.1c-3.9,8.6-6.8,17.7-10.1,26.5C197.7,206.2,197.4,206.2,197.1,206.2z"/>
	<path class="st6" d="M250.8,143.1c0,11.5-9.5,21-21,21c-11.3,0-21-9.7-21.1-21.1c0-11.5,9.4-21.1,20.9-21.2
		C241.2,121.7,250.8,131.3,250.8,143.1z"/>
	<path class="st6" d="M186.1,143.1c0,11.5-9.5,21-21,21c-11.5,0-20.9-9.5-20.9-21c0-11.9,9.5-21.4,21.2-21.2
		C177,122.1,186.2,131.5,186.1,143.1z"/>
	<path class="st5" d="M234.6,126.6c4.4,0.1,9.5,4.2,10.5,8.4c0.9,3.7-1.3,6.6-5.2,6.7c-4.9,0.2-10.4-4.5-11-9.3
		C228.4,129,230.9,126.5,234.6,126.6z"/>
	<path class="st5" d="M180.5,138.2c-0.9,0.8-2.2,2.9-4,3.4c-5.3,1.6-12.6-4.4-12-9.9c0.2-1.7,1.9-4.1,3.4-4.6
		C173.1,125.1,180.7,131.2,180.5,138.2z"/>
</g>
</svg>
