<?xml version="1.0" encoding="utf-8"?>
<!-- Generator: Adobe Illustrator 22.1.0, SVG Export Plug-In . SVG Version: 6.00 Build 0)  -->
<svg version="1.1" id="Layer_1" xmlns="http://www.w3.org/2000/svg" xmlns:xlink="http://www.w3.org/1999/xlink" x="0px" y="0px"
	 width="400px" height="400px" viewBox="0 0 400 400" style="enable-background:new 0 0 400 400;" xml:space="preserve">
<style type="text/css">
	.st0{fill:#FFFFFF;}
	.st1{fill:#8E69DF;}
	.st2{fill:#7353BF;}
	.st3{fill:#563D8D;}
	.st4{fill:#F9F8FA;}
	.st5{fill:#060606;}
</style>
<circle class="st0" cx="200.5" cy="199.6" r="200"/>
<g>
	<path class="st1" d="M237.4,270c-2.5,6.1,0.4,11.3,3,16.4c3,6,8.7,9.2,14.4,12.4c5.9,3.3,12,6.2,17.4,10.1
		c11.4,8.2,16.3,20.1,18.2,34.7c-1.3-1.2-2.1-1.5-2.4-2.1c-6.9-12.5-18.7-18.4-31.4-22.9c-8.8-3.1-17.6-6.1-26.1-10
		c-8.5-3.8-13.2-11.3-16.1-19.9c-3.4-10.1-6.7-20.2-10.3-31c-0.6,1.3-1,2-1.2,2.9c-3.6,10.6-7,21.4-10.8,31.9
		c-3,8.2-8.8,14.2-16.8,17.4c-7.5,3.1-15.6,4.8-23.1,7.9c-12.4,5.1-24.9,10.4-31.7,23.2c-0.6,1.1-1.5,2.1-2.6,2.9
		c2-19.3,11.1-33.5,28.7-41.8c4.9-2.3,9.6-5,14.1-8c7.4-5.1,10.6-12.6,10.9-21.4c0-0.9-0.6-1.7-0.9-2.6c-0.8-3.7-0.5-7.5-0.9-11.2
		c-0.4-3.9-2.2-5.8-5.7-6.5c-3.1-0.7-6.2-1.5-9-3.3c-6.5-4.1-13.7-7.1-19.5-12.4c-2-1.8-4.6-3.2-5.7-5.9c-3.4-4.5-7.1-8.9-10.1-13.7
		c-10.4-16.5-12.9-34.6-10-53.5c4.8-31.3,17.5-59.3,37.9-83.4c6.6-7.8,14.6-14.8,23.1-20.5c15.6-10.6,33.1-14.6,51.4-7.8
		c11.5,4.3,21.8,10.8,30.5,19.6c16.7,16.9,29,36.4,36.7,58.9c2.9,8.4,5.8,16.8,7.7,25.4c4.3,18.7,4.1,37.3-5,54.7
		c-3.6,7-9.1,13-13.7,19.4c-0.7,2.2-2,3.7-3.7,5.2c-6.6,5.7-14,10-21.7,13.9c-2,0.7-4,1.6-6,2.4c-7.9,3.1-9.2,5-9.2,13.7
		C237.6,266.9,238.4,268.5,237.4,270z"/>
	<path class="st2" d="M253.1,248.4c7.1-4.9,14.3-9.7,21.4-14.6c1.4-1,2.5-2.5,3.8-3.7c4.5,11.4,11,21,24,23.1
		c6.2,1,12.7-0.3,19.1-0.1c5.7,0.2,11.5,0.3,17,1.5c14.4,3.3,19.3,6.6,29.4,18.5c-1.3-0.3-2.5-0.3-3.4-0.8
		c-12.3-6.8-25.2-6.2-38.3-3c-8.1,2-16.1,4.1-24.3,5.4c-14.6,2.4-25.5-5.1-35.6-14.4c-1.2-1.1-2.9-1.5-4.3-2.3
		C258.4,255.1,254.5,252.9,253.1,248.4z"/>
	<path class="st2" d="M129.7,230.9c7.8,6.1,15.4,12.5,24.7,16.3c0.3,0.1,0.3,0.8,0.4,1.2c-1.3,4.7-5.2,7-8.8,9.7
		c-2.6,1.8-5.4,3.3-7.7,5.4c-9.3,8-19.7,13.3-32.4,11.1c-7.5-1.3-14.8-3.2-22.2-5c-12.4-3-24.7-4.5-36.9,1c-1.2,0.5-2.7,0.4-5.4,0.7
		c8.1-8.2,15.5-14.6,26.3-17c8.8-2,17.3-1.2,25.9-0.7C112.7,254.6,120.6,249.6,129.7,230.9z"/>
	<path class="st3" d="M253.1,248.4c2.9,3.2,5.8,6.3,8.7,9.5c0.2,1,0.4,2.1,0.8,3.1c4.4,12.2,14.3,16.8,26.1,18.9
		c5.2,0.9,10.3,2,15.4,3.4c13.7,4,22.6,13.5,28.7,26c0.3,0.6,0.2,1.3,0.4,2.5c-1.1-0.6-1.8-0.8-2.3-1.2
		c-9.2-8.7-20.5-11.8-32.8-12.4c-9.2-0.4-18.4-0.9-27.5-1.5c-8.8-0.6-15.9-4.9-21.5-11.3c-4.2-4.8-7.7-10.2-11.6-15.4
		c0.3-5.2,0.5-10.4,1-15.6c0.1-0.6,1.1-1.4,1.8-1.7C244.4,251.2,248.8,249.8,253.1,248.4z"/>
	<path class="st3" d="M146,258.1c2.9-3.2,5.9-6.4,8.8-9.7c4.1,1.3,8.3,2.6,12.4,4c1.1,0.4,2.8,1.4,2.8,2.3
		c0.4,5.1,0.4,10.3,0.5,15.5c-2.7,3.8-5.5,7.6-8.1,11.4c-7.7,11.2-18.8,15.6-32,15.9c-12.8,0.4-25.8-0.2-38.2,3.8
		c-4,1.3-7.5,3.9-11.1,6.1c-1.9,1.2-3.6,2.8-5.6,4.4c-0.3-0.6-0.7-1.1-0.6-1.3c3.5-8,8.4-14.7,15.5-20.2c8.7-6.8,18.9-8.7,29.2-10.5
		c11-1.9,20.4-6.2,25.1-17.2C145.4,261.2,145.6,259.6,146,258.1z"/>
	<path class="st4" d="M135.3,159.3c0.1-18.9,14.5-33.1,33.5-33c18.2,0.1,32.7,15.1,32.6,33.8c-0.1,17.9-15.4,32.7-33.2,32.7
		C148.5,192.8,133.9,174.6,135.3,159.3z"/>
	<path class="st4" d="M272.7,159c0.7,17.2-13.4,33.8-33.2,33.7c-18.8-0.1-32.6-15.7-33-32c-0.5-20.4,14.6-33.9,31.9-34.3
		C257.8,125.9,272.5,140.1,272.7,159z"/>
	<path class="st5" d="M140,203.4c12.9,10,27.8,15.3,43.8,17.7c16.4,2.5,32.9,2.2,49.2-1.4c12.7-2.8,24.3-7.9,34.7-15.8
		c0.7-0.5,1.6-0.7,2.4-1.1c-0.5,0.8-0.8,1.8-1.5,2.4c-9.1,7.9-19.5,13.6-31.3,16.6c-27.6,7-54.8,6-80.9-5.8
		c-6.3-2.8-11.7-7.5-17.5-11.3C138.7,203.7,139.1,203.3,140,203.4z"/>
	<path class="st3" d="M140,203.4c-0.4,0.4-0.8,0.8-1.2,1.2c-1.5-1.5-3.1-3-4.6-4.5c0.4-0.4,0.7-0.7,1.1-1.1
		C136.9,200.5,138.4,201.9,140,203.4z"/>
	<path class="st5" d="M192.5,159.7c-0.1,11.6-9.7,21.1-21.3,21c-11.8-0.1-21.1-9.7-21-21.7c0.1-11.5,9.5-20.7,21-20.7
		C183.3,138.2,192.6,147.7,192.5,159.7z"/>
	<path class="st5" d="M257.8,159.5c0,11.6-9.5,21.2-21.2,21.2c-11.5,0-21.3-9.7-21.3-21.1c0-11.8,9.7-21.5,21.5-21.3
		C248.6,138.3,257.7,147.7,257.8,159.5z"/>
	<path class="st4" d="M180.9,158.1c-5.4-0.3-10.6-5.5-10.4-10.4c0.2-3.8,2.6-4.9,5.9-4.8c5.3,0.2,10.9,5.7,10.5,10.4
		C186.6,156.9,184.3,158.4,180.9,158.1z"/>
	<path class="st4" d="M241.6,142.9c5.3,0.2,10.9,5.6,10.6,10.3c-0.2,3.7-2.5,5-5.9,4.9c-5.3-0.2-11-5.6-10.6-10.3
		C235.9,144.2,238.1,142.8,241.6,142.9z"/>
</g>
</svg>
