<?xml version="1.0" encoding="utf-8"?>
<!-- Generator: Adobe Illustrator 22.1.0, SVG Export Plug-In . SVG Version: 6.00 Build 0)  -->
<svg version="1.1" id="Layer_1" xmlns="http://www.w3.org/2000/svg" xmlns:xlink="http://www.w3.org/1999/xlink" x="0px" y="0px"
	 width="400px" height="400px" viewBox="0 0 400 400" style="enable-background:new 0 0 400 400;" xml:space="preserve">
<style type="text/css">
	.st0{fill:#FFFFFF;}
	.st1{fill:#9A9A9A;}
	.st2{fill:#565656;}
	.st3{fill:#FAFAFA;}
	.st4{fill:#060606;}
	.st5{fill:#F4F4F4;}
</style>
<circle class="st0" cx="200.5" cy="199.6" r="200"/>
<g>
	<path class="st1" d="M289.2,285.4c6.5,6.1,12.6,12.6,19.4,18.4c9,7.6,18.4,14.6,27.9,22c-0.7,0.1-1.6,0.4-2.4,0.4
		c-16.5-0.4-33.1-0.4-49.6-1.3c-8.3-0.5-16.5-2.6-24.8-3.8c-2.1-0.3-4.5-0.4-6.5,0.1c-23.5,6.5-47.6,7.4-71.7,5.7
		c-15.7-1.1-31.4-3.5-47.1-5.3c-1.1-0.1-2.2-0.5-3.3-0.7c-1.4-2-0.2-3.8,0.4-5.6c2.7-7.8,5.8-15.5,7.7-23.6c2.2-9.5,3.8-19,3.3-28.7
		c-0.1-2.7-0.1-5.3,0.2-8c-1.4-7.2-1.9-14.8-4.3-21.6c-7.9-22.6-24-38.4-43.8-51c-1.1-0.7-2.1-1.7-3.2-2.5c-1.8-2.8,0.3-5.1,1.1-7.5
		c3.2-8.7,2.8-16.9-2.6-24.7c-3.1-4.4-7.6-6.9-12.3-9.1c-1.4-0.6-3-0.8-4-2.1c15.2-33.7,36.5-62,72.2-75.8
		c35.9-13.8,69.6-8.9,99.3,16.3c6.3,5.3,10.9,12.6,16.3,19c0.8,0.9,1.7,1.8,2.5,2.6c6.1,9,10.2,18.9,14,29.1
		c6.6,17.7,10.1,36.2,11.4,55c1.5,21.3,0.3,42.5-3.8,63.5c-1.5,7.8-3,15.7-5.6,23.3c-1.2,3.5-0.5,6.1,2.2,8.6
		C284.8,280.3,287.4,282.5,289.2,285.4z"/>
	<path class="st2" d="M289.2,285.4c-3.7-3.4-7.4-6.6-10.9-10.1c-0.6-0.6-0.2-2.3,0.1-3.5c2.7-12.3,5.6-24.5,8-36.8
		c1.2-5.9,1.8-11.9,2.1-17.8c1.4-24.9-0.1-49.7-6.7-73.9c-3.8-13.8-8.7-27.1-15.8-39.6c-0.9-1.5-1.2-3.3-1.8-5
		c6.1-15.5,15.5-28.4,29.9-37.6c-5.5,11.3-8.2,23-5.1,35.4c3.2,12.6,10.5,21.8,22.9,26.6c16.1,6.2,38.9,0,53.1-23
		c-0.7,4.8-0.9,9.7-2.1,14.4c-7.1,26.9-22.3,46.7-49.7,55.6c-0.9,0.3-1.9,2.1-1.8,3.2c1.7,30-2.3,59.2-11.3,87.8
		C297.5,269.4,292.9,277.2,289.2,285.4z"/>
	<path class="st2" d="M142.8,255c0.3,1,0.8,2,0.9,3c1.1,18.2-2.8,35.6-9.2,52.5c-1.3,3.4-2.2,6.9-3.3,10.3c-8,1-16,2.6-24.1,2.9
		c-13.2,0.5-26.5,0.1-39.9,0.1C95.8,304.9,121.1,281.9,142.8,255z"/>
	<path class="st2" d="M73.9,136.4c17,3.2,26.4,19.9,20,35.9c-1,2.4-1.5,5-2.3,7.5c-3.1-1.5-6.2-3.1-9.3-4.6
		c-5.8-2.8-11.6-5.4-17.3-8.3c-0.9-0.4-1.8-2.4-1.5-3.2C66.8,154.6,70.4,145.5,73.9,136.4z"/>
	<path class="st3" d="M140.9,149.2c-17.8-0.1-31.7-14.1-31.6-31.9c0.1-17.7,14.3-31.5,32.5-31.4c17.6,0.1,31.5,14.3,31.4,32.1
		C173,135.6,158.8,149.3,140.9,149.2z"/>
	<path class="st3" d="M209.5,149.2c-17.6,0-31.8-14.2-31.7-31.7c0.1-19.2,16.6-32.4,33.1-31.7c16.9,0.7,30.6,14.5,30.5,32.1
		C241.4,135.6,227.5,149.3,209.5,149.2z"/>
	<path class="st4" d="M144.3,97.1c11,0.1,20.4,9.5,20.4,20.4c0,11.1-9.8,20.7-20.8,20.5c-11.1-0.3-20.2-9.6-20.1-20.7
		C123.9,106.4,133.3,97.1,144.3,97.1z"/>
	<path class="st4" d="M186.5,117.4c0-11.2,9.2-20.4,20.3-20.3c11.2,0.1,20.2,9.2,20.2,20.4c0,11.2-9.1,20.5-20.2,20.5
		C195.6,138.1,186.5,128.9,186.5,117.4z"/>
	<path class="st5" d="M153.2,116.4c-5-0.2-10.6-5.6-10.1-10c0.4-3.4,2.5-4.8,5.8-4.6c5.2,0.3,10.2,5.3,10,10
		C158.8,114.9,156.8,116.5,153.2,116.4z"/>
	<path class="st5" d="M211.9,101.8c4.9,0.3,10,5.4,9.8,9.8c-0.1,3.2-2.5,5-6.1,4.7c-5.2-0.4-10-5.6-9.6-10.3
		C206.2,103,208.2,101.6,211.9,101.8z"/>
</g>
</svg>
