<?xml version="1.0" encoding="utf-8"?>
<!-- Generator: Adobe Illustrator 22.1.0, SVG Export Plug-In . SVG Version: 6.00 Build 0)  -->
<svg version="1.1" id="Layer_1" xmlns="http://www.w3.org/2000/svg" xmlns:xlink="http://www.w3.org/1999/xlink" x="0px" y="0px"
	 width="400px" height="400px" viewBox="0 0 400 400" style="enable-background:new 0 0 400 400;" xml:space="preserve">
<style type="text/css">
	.st0{fill:#FFFFFF;}
	.st1{fill:#9A9A9A;}
	.st2{fill:#6F6F6F;}
	.st3{fill:#E4E4E4;}
	.st4{fill:#FAFAFA;}
	.st5{fill:#060606;}
</style>
<circle class="st0" cx="200.5" cy="199.6" r="200"/>
<g>
	<path class="st1" d="M114,200.6c-0.3-1.1-0.7-2.1-1-3.2c-0.8,0.6-1.7,1.1-2.5,1.8c-7.7,6.7-14.9,13.9-23.1,19.8
		c-4.3,3.1-10.3,4.9-15.6,5.5c-9.5,1-18-7.5-19.8-18c-1.7-10.1-0.3-20,1.2-29.9c1.5-9.9,4-19.8,4.1-29.8c0.1-10.7-2.2-21.5-3.2-32.3
		c-0.5-5.8-0.9-11.7-0.6-17.5c0.7-12.1,10.8-17.6,21.2-18.6c16.9-1.7,31.2,5.5,44.5,14.6c6.7,4.6,12.8,10.1,18.9,15.6
		c2.3,2,3.6,2.2,6.1,0.6c18.4-11.4,38.8-13.3,59.7-12c14.5,1,28.2,4.7,40.7,12.5c0.9,0.6,3.3-0.1,4.2-1.1
		c10.5-10.4,22.3-18.9,35.8-25c11.1-5,22.6-7.7,34.7-3.9c10.1,3.2,15.4,10.1,15.1,20.6c-0.3,8.1-0.9,16.3-2.6,24.3
		c-2.8,13.7-1.4,27.1,0.6,40.6c1.8,11.9,3,23.9,3.6,35.9c0.4,7.4-2.1,14.3-8.3,19.3c-8.1,6.5-16.5,4.9-24.8,0.4
		c-10-5.4-18.2-13.1-25.8-21.5c-0.7-0.8-1.6-1.3-2.5-1.9c-0.4,1.1-0.8,2.1-1.2,3.2c-4.8,9.3-12.4,15.7-21.3,20.6
		c-12.4,7-25.9,10.9-40,12.4c-3,0.3-4.8,1.5-5.9,4.4c-1.7,4.4-4.1,8.4-6.1,12.7c-1.5,3.1-2.3,6.3-2,9.7c0.2,1.7,0.9,3.1,2.5,3.9
		c1.8,0.8,2.6-0.8,3.6-1.8c3.5-3.5,8.2-4.3,12.1-2.1c3.4,2,4.2,4.6,2.3,8.1c-1.4,2.5-3.4,4.5-5.5,6.4c-2.3,2.1-2.7,4.1-0.9,6.7
		c1,1.4,1.8,3,2.7,4.5c2.1,3.6,1.8,6.3-0.6,8.3c-2.4,2-6.6,2-9.3-0.3c-2.2-1.8-4.2-3.8-5.7-6.2c-1.4-2.3-3.4-3.6-5.9-4.6
		c-16.4-6.7-25.6-20.5-25.6-38.1c0-2.9-0.1-5.9,0-8.8c0.2-2.8-1-4.1-3.7-4.7c-9.6-2.1-18.9-4.9-27.5-9.8
		C127.3,216.5,119,210.3,114,200.6z"/>
	<path class="st1" d="M275.1,286.5c-3,3.3-5.9,6.5-8.9,9.8c-3.7,4-8.2,6.8-13,9.1c-3.3,1.6-4.8,3.4-4.6,7.3
		c0.3,6.4,0.6,12.8-0.4,19.2c-0.3,1.7,0.6,3.1,0.7,4.7c-0.4,1.6-1.4,3.1-0.7,4.8c0.1,0.8,0.1,1.5-0.6,2.1c-0.1,1.6-0.1,3.2-0.4,4.8
		c-0.6,3.1-2.5,5.1-5.8,5.1c-10,0.1-20.1,0.1-30.1,0c-3.8,0-5.5-2.2-5.6-6.4c-0.1-8.4-0.2-16.9,0-25.3c0.1-3.1-0.9-3.9-3.9-3.8
		c-5.6,0.2-11.3,0.2-16.9,0c-2.7-0.1-3.4,0.8-3.4,3.4c0.1,8.3,0.1,16.6,0,24.9c0,5.5-1.7,7.1-7.2,7.2c-8.6,0-17.1,0-25.7,0
		c-7.2,0-8.1-0.9-8.7-8.3c0-0.5-0.2-1-0.3-1.6c-0.7-0.6-0.7-1.5-0.6-2.3c0.3-1.6,0.4-3.3,0.3-5c-0.1-7.4-0.3-14.7,0.1-22.1
		c0.2-4.4-1.4-7.1-5.3-8.8c-3.3-1.5-6.3-3.4-9.2-5.7c-1.5-1.2-2.8-2.5-3.8-4.1c-10-8.9-17.6-19.6-18.3-33.2
		c-0.6-11.1,0.6-22.4,2-33.5c0.8-6.6,3.6-13,5.6-19.5c1.7-0.7,2.4,0.8,3.2,1.7c9.5,10.8,21.6,17.4,35.2,21.5
		c3.1,0.9,6.1,2.2,9.3,2.7c3.6,0.6,5,2.6,5.3,6.3c0.6,10.7,2.8,21,8.7,30.2c4.3,6.6,10,11.5,17.2,14.6c3.6,1.6,6.8,3.4,9.4,6.6
		c3.9,4.8,9.1,7,15.4,5.5c3.4-0.8,4.6-2.3,4.1-5.7c-0.5-3.7-2.1-6.9-4-10c-2.7-4.4-2.6-5.3,1.1-9c1.8-1.8,3.5-3.7,4.7-6
		c2-3.6,1.2-6.5-2.8-8.1c-4-1.6-8.1-1.3-12,1c-1.6,1-3.1,3.3-5.3,1.8c-2.3-1.7-1.7-4.3-1-6.7c1.5-5.1,4.1-9.6,6.5-14.2
		c1.2-2.4,3.3-3.1,5.9-3.4c12.1-1.1,23.8-3.8,35.1-8.3c9.9-4,18.9-9.5,26.1-17.6c1.1-1.3,2.1-3.5,4.5-2.1c2.1,7.6,4.8,15,6.1,22.7
		c1.9,11.4,3.4,23,0.5,34.6c-0.7,3-1.7,5.9-2.6,8.8C279.7,280,277.9,283.6,275.1,286.5z"/>
	<path class="st2" d="M277.2,210.2c-0.9,0.5-2,0.8-2.6,1.5c-9.9,11.2-22.3,18.4-36.6,22c-9.3,2.3-18.8,3.7-28.1,5.7
		c-1.2,0.2-2.7,1.1-3.2,2c-2.5,5.2-4.8,10.4-7.1,15.7c-0.3,0.6-0.5,1.4-0.3,1.9c0.3,1.1,0.9,2.1,1.3,3.2c0.8-0.4,1.6-0.8,2.3-1.3
		c5.5-4,11.9-4.6,16.4-1.3c3.6,2.7,4.2,4.3,1.8,8.1c-1.7,2.7-3.7,5.3-6,7.4c-2.4,2.2-2.3,4-0.5,6.5c1.5,2.1,3,4.6,3.6,7.1
		c0.6,2.8,1.4,7,0,8.5c-1.9,2-6,2.6-9.1,2.6c-5.1-0.1-8.8-3.4-12.2-7c-1.9-2-4.3-3.9-6.9-5c-12.7-5.2-20.5-14.8-24.4-27.5
		c-2-6.4-2.5-13.3-3.3-20c-0.3-2.2-0.9-3.2-3.2-3.7c-11.8-3-23.5-6.5-33.5-13.8c-4.7-3.4-8.8-7.7-13.2-11.6c-0.7-0.6-1.3-1.2-2-1.8
		c1.2-2.9,2.3-5.9,3.5-8.8c0.7,0.5,1.8,0.8,2.2,1.4c4.6,8.6,12,14.5,20.5,18.5c9.1,4.3,18.9,7.3,28.6,10.2c3.2,0.9,3.4,2.2,3.6,4.8
		c0.3,7,0.1,14.3,1.7,21.1c2.8,12,10.5,20.5,22.1,25.2c3.3,1.3,5.8,3,8,6c2.3,3.2,4.5,7.2,9.6,6.9c4.5-0.2,6.5-3.5,4.3-7.5
		c-1.7-3.2-5-6.4-4.8-9.4c0.2-2.7,4.3-5.1,6.4-7.8c1.7-2.2,4.3-4.6,1.5-7.7c-2.8-3.1-8.5-3.2-11.7-0.4c-0.4,0.3-0.7,0.8-1.1,1.1
		c-1.2,1-2.5,1.9-3.7,2.9c-1.4-2-3.7-3.8-3.9-5.9c-0.3-2.9,0.4-6.1,1.6-8.9c2.3-5.6,5-11,7.7-16.3c0.5-1,2.2-2,3.4-2.1
		c15.4-1.5,29.9-5.7,43.3-13.4c7-4,12.9-9.5,17.7-16.1c0.7-1.1,1.8-1.9,2.7-2.9C274.7,203.7,276,206.9,277.2,210.2z"/>
	<path class="st2" d="M139.7,341.5c0,0.7,0,1.3,0.1,2c-3.9,0-7.7,0.2-11.6,0.1c-5.1-0.1-7-2.1-7-7.1c0-13.6,0.1-27.2,0.1-40.9
		c5.8,3.7,11.7,7.3,17.4,11.3c1,0.7,1.7,2.6,1.7,4c0.2,8.6,0.1,17.2,0.1,25.7c-0.7,0.6-1.4,1.3-2,1.9c-1.4,1.5-2.8,1.9-4.3,0.1
		c-0.7-0.8-1.7-1.3-2.8-1.4c-1.7-0.1-3.7,0.4-3.8,2.1c-0.1,1.8,2,0.9,3.2,1.1C133.9,340.8,137,339.5,139.7,341.5z"/>
	<path class="st2" d="M248.5,337.3c-0.3-2.4-0.9-4.7-1-7.1c-0.1-6.8-0.1-13.6-0.1-20.4c0-0.9,0.1-2.4,0.7-2.7
		c6-3.7,12-7.2,18.1-10.8c0,13.7,0.1,27.3,0.1,41c0,4-1.8,6-5.8,6.2c-4.3,0.2-8.6,0.1-12.8,0.1c0-0.7,0-1.3,0.1-2
		c1.1-1.5,2.6-1,4-0.7c1.7,0.3,3.5,0.6,5.2,0.3c1.2-0.2,3.3,0.1,3-1.7c-0.2-1.7-2.1-2.3-3.8-2.2c-1,0-1.8,0.5-2.5,1.2
		C251.3,340.8,249.7,339.8,248.5,337.3z"/>
	<path class="st2" d="M275.1,286.5c2.1-3.4,4.1-6.8,6.2-10.2c3.3,8.7,2.6,17.7,2.3,26.8C280.6,297.4,277.8,292,275.1,286.5z"/>
	<path class="st3" d="M326.2,110c-1,6.9-1.7,13.8-3.1,20.6c-2.3,11.4-0.3,22.6,1.2,33.8c1.3,9.6,2.5,19.4,2.7,29.1
		c0.3,9.8-6.1,17.3-14.8,18.9c-5.9,1.1-11.3-1.2-15.8-4.5c-6.4-4.6-12.3-9.8-18.2-15c-1-0.9-1.6-2.8-1.5-4.2
		c2.1-26.8-3.3-51.1-22.5-71.1c-1.5-1.6-2.3-2.7-0.2-4.5c11.8-10.6,24.5-19.8,40.3-23.1c5.6-1.2,11.8-1.2,17.4,0
		C320.6,92.1,326.5,97.5,326.2,110z"/>
	<path class="st3" d="M59.5,188.1c1.5-10.2,2.6-20.4,4.7-30.5c2.5-12.3,0.9-24.2-1.4-36.2c-0.7-3.5-1-7.1-1.2-10.7
		c-0.8-15.5,8-21.3,21.6-21.9c11.6-0.5,22.1,4.2,31.6,10.3c6.5,4.1,12.4,9.3,18.5,14.1c1.5,1.2,2.2,2.3,0.2,4.1
		c-12.6,12-19.4,27.2-21.8,44.2c-1.2,8.9-0.7,18.1-1.1,27.1c-0.1,1.3-0.4,3.2-1.3,3.9c-7,5.8-13.6,12.2-21.4,16.8
		c-15.1,9-26.9-1.3-28-16.7c-0.1-1.5,0-2.9,0-4.4C59.9,188.1,59.7,188.1,59.5,188.1z"/>
	<path class="st4" d="M226.7,131.3c16.5-0.1,30.4,13.8,30.4,30.5c0,16.3-13.8,30.3-30.2,30.5c-16.9,0.2-30.7-13.5-30.8-30.5
		C196,144.7,209.3,131.4,226.7,131.3z"/>
	<path class="st4" d="M130.8,161.5c0-16.8,13.2-30.2,29.9-30.2c17.1,0,30.4,13.2,30.7,30c0.3,16.2-12.6,30.8-30.3,30.9
		C142.7,192.3,129.9,176.9,130.8,161.5z"/>
	<path class="st3" d="M232.1,350.1c1.3-4,4.2-4.6,7.2-3.6c1.2,0.4,1.8,2.5,2.7,3.8c-1.1,0.5-2.2,1.3-3.2,1.3
		c-8.3,0.1-16.6,0.1-24.9,0c-1.1,0-2.2-0.8-3.3-1.3c0.9-1.3,1.7-3.7,2.7-3.8c2-0.3,4.4,0.3,6.2,1.3c1.2,0.7,1.4,1.6,2.9,0.1
		C225.7,344.5,229.2,345.3,232.1,350.1z"/>
	<path class="st3" d="M155.4,349.8c3.7-4.5,4.9-4.7,10-1.8c0.6,0.3,1.7-0.2,2.6-0.4c2-0.4,4.1-1.5,5.8-1.1c1.4,0.3,2.3,2.5,3.4,3.9
		c-1.3,0.4-2.6,1.1-3.9,1.2c-8.1,0.1-16.2,0.1-24.4,0c-1.2,0-2.5-0.8-3.7-1.3c1.1-1.4,1.9-3.4,3.3-3.9
		C151.7,345.2,153.9,347.2,155.4,349.8z"/>
	<path class="st3" d="M248.5,337.3c1.7,1.6,3.1,2.5,5.1-0.2c0.7-0.9,3.6-1,5-0.5c1.3,0.5,2.2,2.4,3.2,3.7c-1.2,0.6-2.4,1.6-3.6,1.7
		c-3.5,0.1-7-0.3-10.5-0.4C246.8,339.9,245.6,338.2,248.5,337.3z"/>
	<path class="st3" d="M139.7,341.5c-3.9,0-7.7,0-11.6-0.1c-0.7,0-1.5-0.3-2.2-0.5c0.2-0.9,0.2-1.9,0.7-2.6c2.3-3.6,6.5-3.1,9.5,0.9
		c1.5-0.9,3-1.8,4.5-2.7C140.3,338.2,140,339.9,139.7,341.5z"/>
	<path class="st5" d="M243.1,161.5c0.1,10.7-8.5,19.6-19.1,19.7c-10.9,0.1-19.8-8.7-19.8-19.4c0-10.5,8.5-19.2,19-19.4
		C234.2,142.1,243,150.5,243.1,161.5z"/>
	<path class="st5" d="M183.2,161.9c-0.1,10.8-8.7,19.3-19.5,19.3c-10.9,0-19.4-8.8-19.3-19.9c0.1-10.7,8.8-19.1,19.7-19
		C174.9,142.4,183.4,151.1,183.2,161.9z"/>
	<path class="st4" d="M232.8,160.6c-4.7,0-10.1-4.8-10-9.2c0.1-3.2,2-4.8,5.2-4.8c4.7,0,10,4.8,10,9.2
		C237.9,159.1,235.9,160.4,232.8,160.6z"/>
	<path class="st4" d="M178.1,157.2c-0.8,0.7-2.1,2.6-3.8,3.1c-5,1.4-11.7-3.9-11.1-9.1c0.2-1.6,2-3.9,3.5-4.4
		C171.4,145.3,178.2,150.9,178.1,157.2z"/>
</g>
</svg>
