<?xml version="1.0" encoding="utf-8"?>
<!-- Generator: Adobe Illustrator 22.1.0, SVG Export Plug-In . SVG Version: 6.00 Build 0)  -->
<svg version="1.1" id="Layer_1" xmlns="http://www.w3.org/2000/svg" xmlns:xlink="http://www.w3.org/1999/xlink" x="0px" y="0px"
	 width="400px" height="400px" viewBox="0 0 400 400" style="enable-background:new 0 0 400 400;" xml:space="preserve">
<style type="text/css">
	.st0{fill:#FFFFFF;}
	.st1{fill:#E48E14;}
	.st2{fill:#7D5618;}
	.st3{fill:#62471D;}
	.st4{fill:#FCE4C8;}
	.st5{fill:#FEFEFD;}
	.st6{fill:#060606;}
</style>
<circle class="st0" cx="200.5" cy="200.6" r="200"/>
<g>
	<path class="st1" d="M294.5,213.8c-8.4,7.9-18.9,12.3-29,17.2c-1.3,1.3-3,1.6-4.7,1.8c-6,1.6-11.9,3.3-18,4.8c-2,0.5-3,1.6-2.9,3.5
		c0.5,15-0.8,30.1,0.7,45.1c0.4,0.6,0.7,1.3,0.7,2.1c-0.8,13.1,0.1,26.3,0,39.4c-0.1,12.8-3.6,15.4-16.3,11.6
		c-2.4-2.2-1.9-5.2-2-7.9c-0.1-10.9,0.1-21.8-0.1-32.7c-0.1-8.2-3.8-12.2-11.9-12.5c-6.4-0.3-12.8-0.4-19.2,0.1
		c-9.5,0.8-12.9,4.5-13,14.1c-0.1,10.3,0,20.7,0,31c0,2.6,0.2,5.3-1,7.8c-4,3.8-8.8,3-13.2,1.5c-4.3-1.5-4.1-5.9-4-9.6
		c0.2-7.3-0.9-14.6,0.6-21.8c2.3-3.4,0.8-7.3,1.1-10.9c0.4-6.5-0.5-13,0.5-19.5c2.3-3.6,6.1-2.2,10.1-3.1c-2.9-0.1-4.9-0.5-7-1.1
		c-1.7-0.5-3.2-1.2-3-3.4c0.2-2.3,1.9-2.5,3.6-2.8c1.5-0.2,3-0.2,4.7-0.6c-2.8-1.7-6.6-0.5-8.4-3.8c-0.8-6.1-0.9-12.1,0.1-18.1
		c2.4-2.1,4.6-1,6.7,0.4c2.7,1.7,5.1,3.8,7.8,5.6c16.3,11.1,35.5,10.2,50.6-2.5c2.2-1.8,4.3-3.7,6.8-5.1c3.2-1.8,3-3.9,0.7-6.3
		c-0.8-2.5,1.1-3.8,2.4-5.3c4.3-5.2,7-11.2,8.5-17.6c2.5-10.7-3.3-20.6-14.3-25.8c-3.7-1.7-8.2-1.9-10.8-5.6
		c-1.1-1.6-2.7-1.9-4.5-1.9c-10.5-0.1-21-0.1-31.6,0.1c-1.6,0-3.5-0.2-4.5,1.6c-2.4,3.4-6.5,3.6-9.8,5.3
		c-11.3,5.6-17.1,13.9-15.8,23.1c1,7,3.6,13.4,7.6,19.3c1.4,2,3.2,3.7,3.3,6.4c-0.8,1.5-2,2-3.6,1.4c-12.8-3.2-25.6-6.6-37.5-12.5
		c-6.1-3.1-12.3-6.2-17.2-11.2c0.3-4.8,5.2-7,6.6-11.5c-5.3,0.5-6.3,7-11.2,7.4c-2.4-1.4-4.9-2.7-5.5-5.8c-0.6-2.4,1.4-2.9,2.7-3.5
		c7.3-3.4,13.6-8.5,20.3-12.4c-7.9,3-16,6.2-23.7,10.2c-1.2,0.6-2.4,1-3.8,0.7c-2.2-1.7-3-4.3-4.3-6.6c6.1-3.7,13-4.7,18.7-6.6
		c-4.1,0-9,1.2-14,1.9c-2.4,0.3-4.8,1-6.9-0.9c-4.8-9.5-5.3-19.5-3.7-29.7c2.9-18.5,10.5-35.1,21-50.4c2.1-3,3-6.1,3.1-9.9
		c0.3-17.5,1-35,1.4-52.5c0.1-4.5,1.3-5.9,5.9-3.6c11.2,5.7,22.7,10.8,33.8,16.4c4.3,2.1,7.9,2.2,12.1,0c6.6-3.5,13.7-6.1,21.2-6.9
		c4.2,7.4,5.5,15.8,9.8,24.5c-0.8-7.1-1.9-12.9-3.2-18.7c-0.5-2.3-1.7-4.7,0-7c3-0.4,6-1,9.1-0.5c1,0.7,1.5,1.7,1.6,2.9
		c0.3,9.8,0.4,19.6,1.3,27.3c0.1-6.4,1.8-14.7,1.4-23.2c-0.1-2.4-0.8-5.4,2.5-6.8c2.5-0.4,5,0,7.5,0.5c1.5,2.5,1.3,5.2,0.6,7.6
		c-1.6,5.3-2,10.7-1.9,16.2c2.3-5.7,4-11.6,5.9-17.4c0.6-2,1-4,2.9-5.3c8.8,0.9,16.6,4.5,24.3,8.4c2.6,1.3,4.8,1.4,7.4,0.1
		c12.5-6.1,25-12,37.5-18c5.1-2.4,5.7-2.1,5.8,3.6c0.4,18.1,0.8,36.1,1,54.2c0,4.1,1.2,7.6,3.4,11.1c10.6,16.6,18.9,34.2,19.5,54.4
		c0.3,7.9,0.1,15.8-4,22.9c-1.6,1.5-3.5,1.2-5.3,0.7c-5.1-1.3-10.6-1.2-14.3-2.2c3.1,0.5,7.1,2.6,11.5,3.8c2.1,0.6,4.5,1,5.4,3.5
		c-0.4,2.4-1.6,4.2-3.4,5.6c-2.8,0.2-4.9-1.5-7.2-2.7c-6.5-3.3-13.5-5.1-20.2-7.9c-0.6-0.4,0.2,0.2-0.5-0.3
		c-0.3-0.2-0.6-0.5-0.8-0.7c0.1,0.3,0.5,0.3,0.6,0.6c7.7,6,17.4,8.7,24.6,15.4c-1.3,2.9-3.7,4.7-6.1,6.6c-4.8-2-8-6-12.1-9
		C288.1,206.2,292.4,209.2,294.5,213.8z"/>
	<path class="st2" d="M161.3,309c2.5,5.8,0.8,11.8,1,17.7c0.5,13.5-2.5,13.7,14.7,12.4c0.5-1.4,1.6-1.3,2.8-1.2
		c7.9,0.6,17.3,6.7,21.5,13.9c0.3-0.7-0.1,0.6,0.1,0.2c5.1-9.4,13.2-13.6,23.7-13.4c14.3-0.4,14.3-0.4,14.3-14.6
		c0-10.4-0.1-20.7,0-31.1c0-1.8-0.7-3.8,1.1-5.3c2.7,3.5,1.3,7.6,1.5,11.4c0.2,7.5,0.1,7.5,7.4,8.9c0.3,1,1.1,1.4,2,1.8
		c10.6,4.9,14.2,12.5,10.6,23.8c-1.2,3.7-0.3,4.7,3,5.8c7.4,2.7,12.7,7.8,15.3,15.4c1,3.1,0.2,4-3,3.9c-6.2-0.1-12.4,0-18.6,0
		c-2.7,0.1-3.9-2.1-5.4-3.7c-12.1-13.3-33.7-11.9-43.4-1.7c-2.1,2.2-3.6,4.8-5.4,7.3c-2.7,3.9-3.8,4-6.5,0.1c-2.4-3.4-4.7-6.8-8-9.4
		c-11.3-8.7-28.1-7.9-38.5,1.9c-2.4,2.2-4.2,5.6-8.2,5.4c-5.8,0-11.7-0.2-17.5,0.1c-4.4,0.2-4.7-1.5-3.3-5
		c2.8-7.1,7.9-11.7,14.9-14.4c2.3-0.9,4.6-1.3,3.2-5C135.4,320.4,144,306.8,161.3,309z"/>
	<path class="st3" d="M249.4,308c-7.5,2.6-8.8,1.7-8.8-5.9c0-4.8,0-9.7,0-14.5c0-0.5,0-1,0.1-1.5c3.4-4.3,6.7-8.6,10.3-12.7
		c7.9-9.1,17.8-11.4,29.1-7.7c5.2,1.7,10.4,3.5,15.6,4.9c10.5,2.9,17.8,0.1,23.6-9.3c3.7-6.1,7.2-12.4,10.8-18.6
		c1.8-3.1,4.1-5.9,6.9-8.2c5-4.1,9.8-2.6,11.7,3.7c1.3,4.2,0.1,8.3-1.2,12.2c-4.4,13.3-12.1,24.6-21.8,34.6
		c-8,8.2-17.2,10.2-27.9,6.6c-5.3-1.8-10.7-3.5-16.1-5.1c-8.5-2.5-15.5,0.2-21.5,6.5C255.8,297.3,253,302.9,249.4,308z"/>
	<path class="st1" d="M143.2,358.7c5-3.3,8.1-8.7,13.8-11.4c16.2-7.7,34.1-2.3,42.6,13.5c0.3,0.6,0.7,1.3,1.3,2.3
		c3.3-3.5,4.8-8.1,8.3-11.2c13.7-11.8,34.2-10.5,46,3.2c1.1,1.3,2.2,2.5,3.3,3.8c2.2,9.6,2.2,9.5-8.5,9.5
		c-33.5-0.1-67.1,0-100.6-0.1c-7.7,0-7.7,0-6.2-7.3C143.4,360.2,143.2,359.4,143.2,358.7z"/>
	<path class="st2" d="M162.5,238.8c1-0.3,2-0.6,3.1-0.9c3.4-1.2,4.5,1.9,6.4,3.4c9.2,7.5,19.1,12.8,31.4,11.9
		c10.6-0.7,19.3-5.8,27.3-12.4c1.7-1.4,2.8-4.3,5.9-2.9c5.1,0.6,3,5.7,2.1,6c-6.9,2.3-10.8,8.7-17,11.8c-17.1,8.7-32.9,6.2-47.9-4.9
		c-3.2-2.4-5.7-6.3-10.7-5.1C162,243.5,162.5,241.1,162.5,238.8z"/>
	<path class="st2" d="M204.1,49.6c-1.7,2-0.9,4.3-0.9,6.5c0.1,8.9-0.5,17.6-2.8,27.2c-4.1-11.6-2.3-22.8-3.1-33.8
		C199.6,48.6,201.8,48.6,204.1,49.6z"/>
	<path class="st2" d="M188.2,50c1.3,9.4,4.8,18.6,3.8,28.5c-4.9-8.6-8.3-17.6-10.4-27.2C183.7,50.4,185.9,49.8,188.2,50z"/>
	<path class="st2" d="M93.3,200.2c9.8-5.6,20.1-9.9,31.1-12.5c-7.1,4.9-13.9,10.3-21.6,14.1c-1.8,0.9-4,1.3-5,3.4
		C95.5,204.2,94.4,202.2,93.3,200.2z"/>
	<path class="st2" d="M304.3,203.9c-8.2-4.1-16.4-8.2-23.9-13.7c-0.8-0.6-1.3-1.3-1.4-2.3l0,0c10.3,1.9,19.8,6,28.7,11.4
		C307,201.2,305.9,202.7,304.3,203.9z"/>
	<path class="st2" d="M219,51.3c-2.9,9.2-5,18.7-10.1,28.1c-1.3-10.6,2-19.8,2.7-29.3C214.2,49.6,216.6,50.4,219,51.3z"/>
	<path class="st2" d="M163,263.8c4.1,1,8.2,2,13,3.1c-2.8,2.2-5.5,2.3-8.2,2.4c-1.5,0.1-4-0.6-4.1,1.8c-0.1,2.4,2.5,1.5,3.9,2.2
		c2.7,1.4,6-0.3,8.7,2c-4.1,3.2-9.3,0.8-13.4,3.2C162.4,273.7,162.2,268.8,163,263.8z"/>
	<path class="st2" d="M86.8,188c7.9,0.3,15.4-3.3,24.4-1.8c-7.6,3.8-14.8,5.9-22.3,7.4C88,191.8,86.7,190.2,86.8,188z"/>
	<path class="st2" d="M311.1,193.8c-6.4-2.7-13.4-3.9-20.2-7.6c8.3-1.5,15.5,1.2,22.9,1.8C313.4,190.2,312.8,192.2,311.1,193.8z"/>
	<path class="st2" d="M103.2,211c3.5-2.7,5.9-6.8,9.8-9.1c1-0.6,1.7-1.7,2.9-0.7c1.2,1,0.4,2.3-0.1,3c-2.5,3.7-5.3,7.2-7.9,10.8
		C105.8,214.2,104.1,213,103.2,211z"/>
	<path class="st2" d="M294.5,213.8c-5.2-3.9-7.9-9.6-11.4-14.9c5.9,2.8,10.5,7.1,15,11.6C297.3,212,296,213.1,294.5,213.8z"/>
	<path class="st4" d="M260.8,232.8c0.9-2.3,2.9-1.8,4.7-1.8c-0.4,1.5,0.6,3.6-1.7,4.2C261.8,235.7,261,234.5,260.8,232.8z"/>
	<path class="st4" d="M236.5,237.9c-6.2,5.2-12,10.7-19.6,13.8c-16.5,6.6-31.1,2.8-44.4-8c-2.3-1.9-4.6-3.8-6.9-5.8
		c-2.5-4.1-5.3-8.1-7.5-12.3c-9.4-18-3.7-32.6,15.4-39.7c2.1-0.8,4.4-0.9,6-2.6c2.5-1.2,3.9,0.7,5.4,2c1.5,1.4,2.4,3.5,4,4.7
		c14.9,10.3,11.1,25.8,11,40.1c0,4.1-3.1,4.8-6.4,4.3c-6-0.9-11.7-2.5-17.1-5.4c14.8,10.5,36.1,9.6,50.2-0.2
		c-2.9,2.4-9.6,4.2-16.5,5.5c-6.4,1.2-8.3-0.5-8.5-6.9c-0.1-4,0.4-8-0.1-11.9c-2.2-15.9,9.5-23.4,19-32.2c0.4-0.4,1.1-0.3,1.6-0.2
		c4.5,3.1,10,3.8,14.6,6.9c11.5,7.8,14.7,18.4,9.5,31.2C243.8,227.3,239.7,232.3,236.5,237.9z"/>
	<path class="st5" d="M247,172.1c-23.5-0.1-42.8-19.4-42.6-42.7c0.1-23.5,19.9-43.2,43.2-43c23.6,0.2,42.9,20.1,42.7,44.1
		C289.9,153.2,270.2,172.2,247,172.1z"/>
	<path class="st5" d="M197.6,129.7c1.4,21.6-20.4,43.1-42.4,42.6c-23.8-0.6-42.7-18.8-42.8-42.5c-0.1-23.8,18.9-43.7,42.7-43.1
		C177.6,87.1,198,104.1,197.6,129.7z"/>
	<path class="st4" d="M225.2,338.6c-9.5,2.3-18.3,5.6-23.8,15.1c-6-8.6-14-13.6-24.3-14.6c0-13.4,0-26.8,0-40.1
		c0-9.2,4.2-14.1,13.4-14.6c7.5-0.4,15.1-0.3,22.6,0.1c7.7,0.5,11.9,5,12,12.8C225.2,311.1,225.1,324.9,225.2,338.6z"/>
	<path class="st2" d="M222.2,183.1c-7,5.2-11.9,12.5-18,18.6c-0.7,0.7-1.1,2-1.1,3.1c-0.1,8.5,0,17-0.1,25.4c-0.1,3.2,1.8,3.2,4,3
		c8.2-0.7,15.8-2.9,22.5-8c1-0.7,1.6-2.2,3.3-1.7c-9.7,18.2-48.4,18.7-61,3.3c2.3-1.3,3.9,0.5,5.6,1.4c5.6,2.8,11.5,4.5,17.8,5.1
		c2.6,0.2,3.8-0.5,3.7-3.3c-0.1-8.3,0-16.6-0.1-24.9c0-0.9,0-2.1-0.5-2.7c-6.2-6.5-10.8-14.4-18.8-19.1c-0.2-2.5,1-3.2,3.3-3.2
		c12.4,0.1,24.7,0,37.1,0C222.1,180.1,224,180.3,222.2,183.1z"/>
	<path class="st4" d="M256.3,67.3c1.1-2.3,3-2.5,4.4-3.2c8-3.9,16.1-7.7,25-11.9c0.4,13.3,0.8,25.8,1.1,38.3c0.1,2.7-1.4,2.9-3,1.1
		C275.5,82.5,266.5,74.2,256.3,67.3z"/>
	<path class="st4" d="M145.9,66.2c-11.7,7.6-20.8,16.2-29.9,26c0-13.1,0-25.2,0-37.3c0-1.4,0.1-2.9,2.2-1.8
		C127.2,57.3,136.2,61.5,145.9,66.2z"/>
	<path class="st2" d="M223.2,275.3c4.9-1.5,9.4-2.1,14-2.2c2.2,0,2.1,1.6,2.1,3.1c-0.1,1.9-1.1,1.8-2.7,1.5
		C232.4,276.9,227.9,277.8,223.2,275.3z"/>
	<path class="st2" d="M223.6,267.3c4.8-1.7,8.6-2.4,12.6-2.3c1.6,0.1,3.1,0.1,3,2.3c0,1.8-1.2,2.1-2.7,2.1
		C232.5,269.3,228.3,269.9,223.6,267.3z"/>
	<path class="st2" d="M279,187.9c-0.1-0.1-0.3-0.1-0.4-0.2C278.8,187.8,278.9,187.9,279,187.9C279,188,279,187.9,279,187.9z"/>
	<path class="st6" d="M243.3,156.9c-14.9,0.1-27.4-12.4-27.6-27.2c-0.1-14.9,12.3-27.6,27.1-27.7c15.2-0.1,27.8,12.3,27.8,27.5
		C270.7,144.3,258.2,156.8,243.3,156.9z"/>
	<path class="st6" d="M186.3,129.1c0.1,15.3-11.6,27.5-26.8,27.8c-15.2,0.3-27.8-12.1-27.8-27.4c0-15.1,12.2-27.4,27.2-27.5
		C173.9,101.9,186.2,114.1,186.3,129.1z"/>
	<path class="st5" d="M257.2,127.9c-7.5,0.2-15.1-6.6-15.3-12.8c-0.1-4,2.8-7,7.1-7.1c6.6-0.1,14,6.7,14.2,12.9
		C263.3,125.6,260.6,127.6,257.2,127.9z"/>
	<path class="st5" d="M164.6,108.1c6.8-0.1,14.6,6.9,14.4,13c-0.1,4.4-2.7,6.8-7.2,6.9c-6.7,0.1-14-6.6-14-12.9
		C157.7,110.1,160.7,108.4,164.6,108.1z"/>
</g>
</svg>
