<?xml version="1.0" encoding="utf-8"?>
<!-- Generator: Adobe Illustrator 22.1.0, SVG Export Plug-In . SVG Version: 6.00 Build 0)  -->
<svg version="1.1" id="Layer_1" xmlns="http://www.w3.org/2000/svg" xmlns:xlink="http://www.w3.org/1999/xlink" x="0px" y="0px"
	 width="400px" height="400px" viewBox="0 0 400 400" style="enable-background:new 0 0 400 400;" xml:space="preserve">
<style type="text/css">
	.st0{fill:#FFFFFF;}
	.st1{fill:#D3D2D2;}
	.st2{fill:#818181;}
	.st3{fill:#FB8408;}
	.st4{fill:#FAFAFA;}
	.st5{fill:#060606;}
</style>
<circle class="st0" cx="200.5" cy="199.6" r="200"/>
<g>
	<path class="st1" d="M210.2,333.2c-6.8,0-13.5,0-20.3,0c-2.7,1.4-5.4-1.5-8.1,0c-3-1.8-6.1-3.5-9.1-5.4c-4.8-3.1-9.4-6.3-14.1-9.5
		c-9.9-9.8-14.6-21.5-13.1-35.4c0.5-5,1.6-10.1,4.9-14.3c6-6.4,11.3-13.7,18.1-18.9c5.3-4,11.8-6.2,14.5-13
		c3.2-7.9,2.5-15.8,0.8-23.8c-0.5-2.2-1.3-4.4-2.2-6.6c-2.1-4.8-4.8-7.5-11-8.5c-22.6-3.9-44.3-11-60.4-28.6
		c-12.2-13.3-16-29.2-12.1-46.8c4.8-21.7,16.1-39.7,30.8-56c13.2-14.6,28.6-25.8,47.6-31.4c23-6.8,44.7-3.6,65.6,8.1
		c13.2,7.4,24.5,16.9,33.7,28.6c14.7,18.6,26.9,38.7,27.2,63.7c0.2,17-7.6,30.3-20.3,40.5c-16.6,13.3-36.2,19.7-57.2,22.4
		c-1.6,0.2-3.7,1.2-4.4,2.5c-5.4,10.5-8.5,21.5-5.1,33.3c0.6,2.2,2.5,4,3.9,6c1.7,2.5,4.1,4.1,6.7,5.6c5.4,3.1,10.6,6.4,14.8,11.1
		c3,4,6,8,9.1,11.9c0.3,2.5,1.8,4.5,2.5,6.9c4.6,16.6-0.2,30.6-11.7,42.8c-4.6,3.1-9.1,6.5-14,9.4c-2.9,1.7-6.3,2.6-9.4,3.8
		C215.3,332.1,213,333.6,210.2,333.2z"/>
	<path class="st2" d="M241.3,318.3c0.9-1.5,1.6-3.2,2.7-4.6c10-13.2,12.5-27.4,5.9-42.9c-0.2-0.5,0.4-1.5,0.6-2.2
		c12.1,14.5,16.3,31.2,13.7,49.7c-1.1,7.7-2.9,8.9-10.1,6.2C249.7,322.9,245.6,320.4,241.3,318.3z"/>
	<path class="st2" d="M150.3,268.6c-1,3.5-2.2,6.9-2.9,10.4c-2.9,12.7,0.6,24,8.1,34.3c1.2,1.6,2,3.3,3.1,5c-4.6,2.2-9,4.9-13.8,6.5
		c-6.3,2.2-7.6,1.5-8.7-5.1c-2.5-15.8-0.5-30.9,8.5-44.5C146.3,272.8,148.4,270.8,150.3,268.6z"/>
	<path class="st3" d="M210.2,333.2c2.6-0.6,5.2-1.1,7.7-1.7c0.3,8.9,0.6,17.7,0.8,26.6c0.2,7.3,0.1,7.2,7.5,8.7
		c3.2,0.6,6.3,1.5,9.6,3.1c-6.7,1.3-14.1,1.4-11,12.2c-5.8-7.5-12.7-11.4-22.4-11.2c9.8-4.2,7.6-12.2,7.6-19.3
		C210.2,345.4,210.1,339.3,210.2,333.2z"/>
	<path class="st3" d="M181.8,333.2c2.7,0,5.4,0,8.1,0c0,7.6,0.4,15.2-0.1,22.7c-0.3,6.2,0.5,11.3,7.2,14.8
		c-9.4,0.2-16.3,3.9-21,11.3c-0.9-3.8-0.7-8-2.7-9.6c-2.3-1.9-6.5-1.5-10.1-3.1c6-1.5,11.9-3.1,17.9-4.6c1.1-7.8-0.1-15.7,0.6-23.5
		c0-0.7,0-1.4,0-2.1c-0.3-1.3-0.3-2.6,0-3.9C181.8,334.5,181.8,333.8,181.8,333.2z"/>
	<path class="st2" d="M241.4,256.7c-6.5-4.2-13-8.2-19.4-12.5c-1.1-0.8-1.4-2.7-2.1-4.1c5.7-4.6,11.4-9.1,17.3-13.9
		C241.4,235.3,241.8,245.9,241.4,256.7z"/>
	<path class="st1" d="M181.8,341.1c-0.2,7.8-0.4,15.7-0.6,23.5C181.4,356.8,181.6,348.9,181.8,341.1z"/>
	<path class="st1" d="M181.8,335.1c0,1.3,0,2.6,0,3.9C181.8,337.7,181.8,336.4,181.8,335.1z"/>
	<path class="st4" d="M241,64.4c20.8,0.1,37.6,17.3,37.2,38.6c-0.4,19.8-17,37.2-38.5,36.9c-19.9-0.3-37.4-17.1-37-38.7
		C203,82.1,219.7,63.3,241,64.4z"/>
	<path class="st4" d="M197,102.1c1.3,19.6-15.9,37.9-37.3,37.6c-21.5-0.3-37.8-15.4-37.7-39c0-20.2,16.7-36.2,37.4-36.3
		C180.2,64.3,197.9,80.2,197,102.1z"/>
	<path class="st3" d="M199.4,213.6c-3-7.6-6.1-15.3-9.1-22.9c-5.4-13.6-10.7-27.3-16-41c-2.1-5.4,0-8.4,7.8-10.6
		c14.1-4,27.9-3.4,41.5,2.1c3.6,1.4,5,3.2,3.2,7.5c-6.5,15.5-12.6,31.2-18.9,46.8c-2.4,6-4.8,12-7.3,18.1
		C200.2,213.5,199.8,213.6,199.4,213.6z"/>
	<path class="st5" d="M236.7,125.9c-13.2,0-23.9-10.7-23.9-23.9c0-13.1,10.7-23.9,23.9-23.9c13.5,0,24.2,10.6,24.1,24.1
		C260.7,115.5,250.1,125.9,236.7,125.9z"/>
	<path class="st5" d="M162.9,125.9c-13.5-0.1-23.7-10.7-23.6-24.5c0.1-13.2,10.8-23.4,24.3-23.3c13.2,0.1,23.5,10.8,23.4,24.3
		C187,115.6,176.2,126,162.9,125.9z"/>
	<path class="st4" d="M254.4,94.9c-0.1,3.8-3,6.3-6.9,5.9c-4.9-0.5-10.1-4.9-11.4-9.7c-1-3.8,0.9-7,4.7-7.8
		C246.6,82.2,254.5,88.9,254.4,94.9z"/>
	<path class="st4" d="M168.4,83.2c5.7,0,12.3,6.2,12.2,11.6c-0.1,4.1-2.7,5.9-6.4,6c-5.7,0.1-12.1-6.1-12.1-11.6
		C162.1,85.5,164.5,83.2,168.4,83.2z"/>
</g>
</svg>
