<?xml version="1.0" encoding="utf-8"?>
<!-- Generator: Adobe Illustrator 22.1.0, SVG Export Plug-In . SVG Version: 6.00 Build 0)  -->
<svg version="1.1" id="Layer_1" xmlns="http://www.w3.org/2000/svg" xmlns:xlink="http://www.w3.org/1999/xlink" x="0px" y="0px"
	 width="400px" height="400px" viewBox="0 0 400 400" style="enable-background:new 0 0 400 400;" xml:space="preserve">
<style type="text/css">
	.st0{fill:#FFFFFF;}
	.st1{fill:#D49C61;}
	.st2{fill:#735538;}
	.st3{fill:#9A6C39;}
	.st4{fill:#F1CDA7;}
	.st5{fill:#FEFEFD;}
	.st6{fill:#060606;}
</style>
<circle class="st0" cx="200.3" cy="199.6" r="200"/>
<g>
	<polygon class="st1" points="171.9,348.1 150,369 196,377 231,373 231,341 171,334 159,347 	"/>
	<path class="st1" d="M201,273c-21,0-40-20-40-20c-1-0.5-0.5-11.5-1.5-11c-30.4-6-57.8-16.9-75.2-44.3c-10-15.4-10-32.4-6-49.3
		c4-15.4,11-29.9,19.9-42.9c2-3,3-6,3-9.5c0-19.4,1-38.9,1-58.3c0-4.5,1.5-4.5,5-3c13.5,6.5,26.9,12.5,39.9,18.9c3,1.5,5,1.5,7.5,0
		c14.4-7,29.4-11.5,45.3-11c15.9,0,30.9,4,44.8,11c3,1.5,5,2,8.5,0.5c12.5-6.5,25.4-12.5,38.4-18.4c6.5-3,6.5-3,7,4
		c0.5,19.4,1,38.9,1.5,57.8c0,3.5,2,6,3.5,8.5c10,15.9,17.9,32.4,20.9,50.8c4,25.4-5.5,44.8-24.9,60.3
		c-14.9,12.5-32.9,19.4-51.8,23.4c-2.5,0.5-5,0.5-6.5,2.5c-1-0.5-0.2,5.5-1.2,5C240,248,222,273,201,273z M152,172.2
		c25.9-0.5,44.8-20.4,44.8-46.3c0-23.9-21.4-44.3-45.3-44.3c-24.9,0.5-45.3,20.9-44.8,45.8C106.7,152.8,127.1,172.7,152,172.2z
		 M203.8,127.4c-1,24.4,21.4,45.3,45.3,44.8c25.4-0.5,44.8-19.9,44.8-45.8c0-24.4-20.4-44.8-44.8-44.8
		C223.8,82,203.8,102,203.8,127.4z M142.6,60.6c-10-4.5-18.4-8.5-27.4-13c-2-1-4.5-2-4,1.5c0.5,13-2.5,25.4-1,39.4
		C120.1,78,130.1,68.6,142.6,60.6z M290.5,88.5c2-4.5-0.5-8.5-0.5-12c0-8.5,0-16.9,0-25.4c0-2,0-5-3.5-3.5
		c-9.5,4-18.4,8.5-28.4,13.5C271.1,69.1,281.1,78,290.5,88.5z"/>
	<path class="st1" d="M171.9,348.1c-12,0.5-12,0.5-12-11.5c0-6.5,1.5-13-1-19.4c1.5-2.5,1-5,1-7.5c0-19.9,0.5-39.9,0.5-59.3
		c4-1,6.5,1.5,9,4c15.9,13,33.4,16.4,52.3,7c6.5-4,11.5-11,18.9-13.5c0,12.5,0,25.4,0.5,37.9c0,2-1,5,1.5,6.5c-3,8-1,15.9-1.5,23.4
		c0,7,0,14,0,20.9c0,12,0,12-12,11.5c0-17.4-1.2,36.3-1.2,18.9"/>
	<path class="st2" d="M241.2,315.7c0.5-8-1.5-15.9,1.5-23.4c3.5-4.5,7-9.5,11-13.5c8.5-9,18.4-11.5,29.9-8c6,2,12,4,18.4,5.5
		c9.5,2.5,17.4,0,22.4-8.5c4.5-6.5,8-14,12-20.4c2.5-4,5-7.5,8.5-10c5-3.5,10-1,11.5,4.5c1,4,0.5,7.5-0.5,11
		c-5,14.9-13.5,27.9-24.4,38.9c-8.5,8.5-17.9,9.5-28.4,6c-4.5-1.5-9-3-13.5-4.5c-13-4-21.4-1-29.4,10c-3,4-5.5,8-8,12
		C247.7,317.7,244.2,317.2,241.2,315.7z"/>
	<path class="st3" d="M241.2,315.7c3.5,1.5,6.5,2,10,0c1,0.5,1.5,1.5,2.5,2c11,5.5,14.9,13,11,24.9c-1.5,4.5,0,5.5,3.5,6.5
		c8.5,3.5,15.4,9,15.4,19.4c-6,0-12.5-0.5-18.4,0c-4,0-6.5-1-9-4c-13-15.9-42.9-14.4-53.3,5c-0.5,1.5-1,3-3,3.5c-0.5-1-1-2-2-3
		c-11.5-19.4-37.9-20.4-49.8-9c-7,7-13.5,8-21.9,7.5c-3,0-6.5,0-9.5,0l-0.5-0.5c0-1,0-1.5,0-2.5c2.5-9,8.5-14.4,16.4-17.4
		c2-1,4-1,3-5c-5-17.9,5-27.9,23.9-26.9c2.5,6.5,2,13,2,19.4c0.5,12-3,10,9,9.5c11.5,1.5,25.6-8.6,32.5,1.9
		c7.5-10,10.8-0.4,24.8-1.9c12,0.5,12,2.5,12-9.5C241.2,329.7,241.2,322.7,241.2,315.7z"/>
	<path class="st1" d="M116.6,368.5c3,0,6.5-0.5,9.5,0c8.5,0.5,14.9-1,21.9-7.5c11.5-11.5,38.4-10.5,49.8,9c0.5,1,1,2,2,3
		c2.5,0,2.5-2,3-3.5c10-19.4,39.9-20.9,53.3-5c2.5,3,5,4.5,9,4c6,0,12.5,0,18.4,0c-6,2-12,0.5-17.9,1c-3.5,0-5.5,0.5-3.5,4.5
		c2.5,5,0,5.5-4.5,5.5c-38.4,0-76.7,0-115.1,0c-5,0-6-1.5-4-6c2-3.5,0-4-3-4C129.1,369,123.1,370.5,116.6,368.5z"/>
	<path class="st3" d="M240.7,247.9c-7.5,3-12.5,9.5-19.4,13c-18.9,9.5-36.4,6-52.3-7c-2.5-2-5-4.5-9-4c0-2.5-0.5-5.5-0.5-8
		c1,0,1.5,0,2.5,0c3.5,1,5.5,4,8,6c17.9,15.4,39.4,15.9,58.3,1.5c3.5-2.5,5.5-6.5,10-7.5c1,0.5,1.5,0.5,2.5,1
		C240.7,244.5,240.7,246,240.7,247.9z"/>
	<path class="st1" d="M116.6,366c0,1,0,1.5,0,2.5C115.1,367.5,116.1,367,116.6,366z"/>
	<path class="st4" d="M225.9,180.2c4,4,10,4.5,14.4,8c8,6.5,11.5,15.9,8.5,26.4c-2,7.5-7.5,14-11,21.4c-4.5,1-6.5,5-10,7.5
		c-18.9,14.4-40.4,13.5-58.3-1.5c-2.5-2-4.5-5-8-6c-0.5-3-2-5-4-7c-9-11-10.5-26.9-3.5-36.4c5.5-6.5,12.5-10,20.4-13L202,185
		L225.9,180.2z"/>
	<path class="st5" d="M152,172.2c-24.9,0.5-45.3-19.4-45.8-44.3C105.7,103,126.1,82,151,82c24.4-0.5,45.3,19.9,45.3,44.3
		C196.9,151.8,177.9,172.2,152,172.2z M184.9,127.4c0-15.9-13.5-29.4-29.4-29.4s-28.4,13-28.4,28.9s13,28.9,29.4,28.9
		C171.9,156.3,184.9,142.8,184.9,127.4z"/>
	<path class="st5" d="M203.8,127.4c0-25.4,19.9-45.3,45.3-45.8c24.4,0,44.8,20.4,44.8,44.8c0,25.9-19.4,45.3-44.8,45.8
		C225.8,172.7,202.8,152.3,203.8,127.4z M273.6,127.4c0-15.9-12.5-28.9-28.4-29.4c-15.9-0.5-28.9,13-29.4,28.4
		c0,16.4,12.5,29.4,28.9,29.4C260.1,156.3,273.6,143.3,273.6,127.4z"/>
	<path class="st2" d="M226.8,185.2c-8,6.5-14.9,14.4-22.4,21.9c-1.5,1-1.5,3-1.5,4.5c0,7,0,14.4,0,21.4c0,3.5,1.5,4,4.5,3.5
		c10-1,18.4-4.5,26.4-10c-6,10-15.9,13.5-26.9,14.4c-19.9,2.5-38.4-7-40.9-16.4c8,6.5,15.9,10,25.4,11.5c4.5,0.5,6,0.5,7-5.5
		c2.5-16.4-3-28.9-15.9-38.4c-2.5-2-4.5-5-7-7.5c-2-3-3-5,2-5c16.4,0,32.4,0,48.8,0C232.2,180.7,226.8,183.7,226.8,185.2z"/>
	<path class="st4" d="M142.6,60.6c-12,8.5-22.4,17.4-32.4,28.4c-1.5-14,1-26.9,1-39.4c0-3.5,2.5-2.5,4-1.5
		C123.6,51.6,132.6,56.1,142.6,60.6z"/>
	<path class="st4" d="M290.5,88.5c-9.5-10.5-19.4-19.9-32.4-27.9c10-5,19.4-9,28.4-13.5c3.5-1.5,3.5,1.5,3.5,3.5
		c0,8.5,0.5,16.9,0,25.4C290,80.5,292.5,84,290.5,88.5z"/>
	<path class="st4" d="M228.8,348.1c-13.5,1.5-21.4,6-28.9,15.9c-7-10.5-16.9-14.4-28.4-15.9c0-17.9,0-36.4,0-54.3
		c0-7,5.5-12.5,12.5-12.5c10.5,0,20.9,0,31.4,0c8,0,13.5,5.5,13.5,14C229.2,312.7,229.2,330.2,228.8,348.1z"/>
	<path class="st6" d="M184.9,127.4c0,15.4-13,28.4-28.4,28.9c-16.4,0-29.4-13-29.4-28.9s13-28.9,28.4-28.9
		C171.4,98,184.9,111.4,184.9,127.4z M162,104.4c-4.5,0.5-7.5,2-7.5,7c0,6.5,7.5,14,14.4,14c4.5,0,7.5-2,7.5-7
		C176.9,111.9,169.5,104.9,162,104.4z"/>
	<path class="st6" d="M273.6,127.4c0,15.9-13,28.9-28.9,28.9s-28.9-13.5-28.9-29.4s13.5-28.9,29.4-28.4
		C261.1,98.5,273.6,111.4,273.6,127.4z M251.2,104.4c-4.5,0-8,3-8,7c0,6.5,7.5,14,14.4,14c5,0,7.5-2.5,8-7
		C266.1,112.4,258.1,104.9,251.2,104.4z"/>
	<path class="st5" d="M162,104.4c7.5,0,14.9,7.5,14.9,14c0,5-3,7-7.5,7c-7,0-14.9-7.5-14.4-14C154.5,106.9,157.5,104.9,162,104.4z"
		/>
	<path class="st5" d="M251.2,104.4c7,0,14.9,8,14.4,14c-0.5,5-3,7-8,7c-7,0-14.4-7.5-14.4-14C243.7,107.4,246.7,104.4,251.2,104.4z"
		/>
</g>
</svg>
