<?xml version="1.0" encoding="utf-8"?>
<!-- Generator: Adobe Illustrator 22.1.0, SVG Export Plug-In . SVG Version: 6.00 Build 0)  -->
<svg version="1.1" id="Layer_1" xmlns="http://www.w3.org/2000/svg" xmlns:xlink="http://www.w3.org/1999/xlink" x="0px" y="0px"
	 width="400px" height="400px" viewBox="0 0 400 400" style="enable-background:new 0 0 400 400;" xml:space="preserve">
<style type="text/css">
	.st0{fill:#FFFFFF;}
	.st1{fill:#A96D36;}
	.st2{fill:#7E5733;}
	.st3{fill:#FAF8F6;}
	.st4{fill:#F4B375;}
	.st5{fill:#060606;}
</style>
<circle class="st0" cx="200.5" cy="199.6" r="200"/>
<g>
	<path class="st1" d="M130.7,203c-1.4-1-2.6-2.2-4.1-3c-14.9-8.5-27.3-19.2-31.2-36.9c-2.8-12.4,0.2-24.2,4.9-35.7
		c5.4-13.2,13.4-24.8,23-35.8c-2.2-1.2-4.2-2.3-6.1-3.5c-14.5-8.8-19.5-28-10.8-41.4c10.2-15.9,33.9-17.5,46.9-2.8
		c3.7,4.2,6,9.9,8.2,15.2c1.1,2.6,1.6,3.1,4.2,2c23.3-9.7,46.6-9.8,69.8,0c2.5,1,3.5,1.3,4.3-2.1c4.8-20.1,26.6-31.1,44-22.3
		c9.7,4.9,15,13.2,15.3,24c0.4,11.7-5,20.7-14.7,27.2c-2,1.3-4.1,2.3-5.9,3.3c5.5,8.1,11.4,15.9,16.5,24.2c5.6,9.1,9.4,19,11.2,29.6
		c3.1,18.7-3.7,33.7-17.9,45.4c-5.4,4.5-11.8,7.9-17.8,11.8c-4.2,4.6-10.2,5.9-15.7,7.4c-35.6,10-71.4,10.4-107.1,0.4
		C141.9,208.4,135.9,206.6,130.7,203z"/>
	<path class="st1" d="M273.1,208.8c3.5,10.7,6.9,21.5,10.4,32.2c0.3,1,0.6,2.1,0.9,3.1c2.3,4.7,1.9,9.9,2,14.8
		c0.3,17.1-4.5,32.7-15.8,45.9c-4,4.7-4,5,0.7,8.9c4.1,3.5,8.4,6.7,9.6,12.4c1.2,3.1,2.4,6.2,3.5,9.3c1.4,3.6,0.5,5.1-3.7,4.9
		c-5.8-0.3-11.7-0.1-17.6-0.1c-47.3,0-94.5,0-141.8,0c-5.8,0-6-0.2-4.4-5.8c0.8-2.9,2.2-5.6,3.4-8.4c0.5-4.9,4.6-7.4,7.5-10.5
		c1.2-1.3,2.5-2.4,4-3.4c2.9-1.8,2.4-3.5,0.3-5.6c-6-5.9-9.4-13.3-12.8-20.9c-5.5-12.5-3.6-25.5-3.7-38.4c0-1.1,0.4-2.2,1-3.1
		c3.1-10.4,6.2-20.7,9.4-31c0.5-1.5,1.3-2.8,2-4.2c1.6-0.5,3.1-0.2,4.6,0.4c18.4,7.5,37.6,10.8,57.5,11.8
		c21.3,1.1,42.1-0.8,62.6-6.2c4.9-1.3,9.6-3.4,14.3-5.1C269.1,209.1,271,208.3,273.1,208.8z"/>
	<path class="st2" d="M116.7,244.2c0,7.1-0.1,14.2,0,21.2c0.2,15.9,6.1,29.4,16.9,40.8c2.8,2.9,3.3,4-0.5,6.8
		c-4.9,3.5-8.5,8.7-12.7,13.1c-16.8,0-33.6-0.1-50.4-0.1c-5.3,0-5.4-0.1-3.9-5.3c4.2-14.3,14.2-23,27.8-27.6
		c4.3-1.5,5.2-2.4,3.4-6.9c-5.7-14-2.6-28.3,7.7-36.3C108.3,247.3,112.7,246,116.7,244.2z"/>
	<path class="st2" d="M280.9,326.3c-4.2-4.4-8.1-9.2-12.7-13.2c-3.1-2.7-3.4-4.3-0.4-7.1c9.3-8.5,13.4-20,16.2-31.6
		c1.6-6.4,0.4-13.4,0.5-20.2c0-3.3-0.1-6.7-0.1-10c17.6,4,26.3,20.9,20.6,39.7c-0.8,2.5-2.6,5.5-1.8,7.4c0.6,1.5,4.5,1.6,6.8,2.6
		c12.8,5.4,21.8,14.3,25.7,27.9c0.9,3.3,0.1,4.3-3.4,4.3C315.1,326,298,326.2,280.9,326.3z"/>
	<path class="st2" d="M273.1,208.8c-15.2,6.4-30.7,11.4-47.3,12.5c-9,0.6-18,2-26.9,1.7c-22.9-0.7-45.7-3-67-12.6
		c-1.3-0.6-2.6-1-3.9-1.5c0.9-2,1.7-3.9,2.6-5.9c6.8,2.2,13.5,5.2,20.5,6.6c12.5,2.5,25.1,5.1,37.8,5.7c14.5,0.6,29.1-0.3,43.6-1.9
		c13.2-1.4,25.8-5.8,38-11.1C271.4,204.5,272.2,206.6,273.1,208.8z"/>
	<path class="st3" d="M203.4,123.8c0.1-19.8,16.3-36,36-35.9c19.7,0.1,35.9,16.3,36,36.1c0.1,19.8-16.5,36.3-36.4,36.2
		C219.4,160.1,203.4,143.7,203.4,123.8z"/>
	<path class="st3" d="M197.8,124c0,19.9-16,36.1-35.8,36.2c-20,0.1-36-16.1-36-36.4c0-20,16-35.9,36-35.9
		C181.7,88,197.7,104.1,197.8,124z"/>
	<path class="st4" d="M270.5,41.1c10.7,0,18.3,5.9,21.1,16.3c2.3,8.9-2.8,20.1-11.4,25.1c-6.6,3.8-7.2,3.5-13.2-1.4
		c-5.5-4.5-11.2-8.8-17.2-12.6c-3.2-2-3.9-4.1-3.3-7.4C248.6,49.2,258.4,41.1,270.5,41.1z"/>
	<path class="st4" d="M131.5,41.1c11.9,0,22.8,9.7,23.2,21.3c0.1,1.9-1.3,4.5-2.8,5.7c-6.2,5.1-12.8,9.7-19.1,14.7
		c-2.8,2.2-5.3,2.9-8.7,1.3c-15.2-6.8-19.6-23.8-9.2-36.4C119,42.8,124.6,40.8,131.5,41.1z"/>
	<path class="st2" d="M199.4,185.9c-4.9-1.7-11.1-3-16.3-5.9c-7.1-4-7-10.8-0.3-15.6c5.7-4.1,12.4-4.8,19-4.9
		c3.8,0,7.8,1.1,11.5,2.4c4.9,1.7,9.8,4.4,10,10.2c0.2,6-5.1,8.6-9.7,10.5C209.6,184.3,205,184.7,199.4,185.9z"/>
	<path class="st2" d="M129.3,178.2c3.9,2.3,7.8,4.6,11.8,6.8c13.6,7.9,28.5,12,44,13.3c8,0.7,16.1,1.2,24.2,0.9
		c22.1-0.9,42.7-7,60.7-20.4c1.1-0.8,2.1-2,3.1-2.9c0.9-0.8,1.9-1.5,2.8-2.2c0.4,0.4,0.7,0.8,1.1,1.3c-3.7,3.3-7.2,7-11.3,9.8
		c-15.1,10.6-32.1,15.7-50.4,17.6c-14.5,1.5-28.8,0.8-42.9-2.2c-16.3-3.4-31.5-9.3-43.4-21.7C128.9,178.6,129.3,178.2,129.3,178.2z"
		/>
	<path class="st2" d="M128.9,178.6c-0.4-0.5-0.9-0.9-1.3-1.4c0,0,0.3-0.3,0.3-0.3c0.5,0.4,0.9,0.9,1.4,1.4
		C129.3,178.2,128.9,178.6,128.9,178.6z"/>
	<path class="st4" d="M200.4,329.4c-3.6-4.2-7.2-9.6-11.9-13.8c-11.8-10.5-25.9-12.6-41-9.1c-3,0.7-4.4,0.2-5.2-2.7
		c-4.3-16-5.2-31.6,4.3-46.3c6.9-10.7,16.8-17.5,28.8-21.3c20.3-6.4,40.4-5.9,59.5,3.9c17.1,8.8,26.8,23.1,27.2,42.6
		c0.1,7.1-2.2,14.3-3.3,21.5c-0.4,2.8-1.7,3-4.3,2.4c-14.4-3.3-28.3-2.1-40.1,7.5C209.1,318.5,204.9,324.4,200.4,329.4z"/>
	<path class="st5" d="M236.1,147c-12.7,0.1-23-10.1-23.2-22.7c-0.1-12.6,10.1-23.1,22.7-23.2c13.1-0.1,23.2,9.8,23.3,22.9
		C259,136.7,248.9,146.9,236.1,147z"/>
	<path class="st5" d="M188.2,124.2c0,12.7-10.3,22.8-23,22.7c-12.8-0.1-22.8-10.1-22.8-22.9c0-13,10.1-23,23.3-22.9
		C178.3,101.2,188.2,111.3,188.2,124.2z"/>
	<path class="st3" d="M252.9,117.1c0,3.6-2.9,6.1-6.7,5.7c-4.9-0.4-10.2-5-11.2-9.8c-0.7-3.5,1.2-6.4,4.7-7
		C245.4,105,253,111.3,252.9,117.1z"/>
	<path class="st3" d="M182,116.4c-0.1,4.1-2.1,6-5.6,6.4c-5.5,0.6-12.1-5.4-12.3-10.9c-0.1-3.5,1.7-5.3,4.9-5.9
		C174.6,105.1,181.9,111.4,182,116.4z"/>
</g>
</svg>
