<?xml version="1.0" encoding="utf-8"?>
<!-- Generator: Adobe Illustrator 22.1.0, SVG Export Plug-In . SVG Version: 6.00 Build 0)  -->
<svg version="1.1" id="Layer_1" xmlns="http://www.w3.org/2000/svg" xmlns:xlink="http://www.w3.org/1999/xlink" x="0px" y="0px"
	 width="400px" height="400px" viewBox="0 0 400 400" style="enable-background:new 0 0 400 400;" xml:space="preserve">
<style type="text/css">
	.st0{fill:#FFFFFF;}
	.st1{fill:#5CA943;}
	.st2{fill:#E4DF90;}
	.st3{fill:#3D6431;}
	.st4{fill:#458134;}
	.st5{fill:#FDFEFD;}
	.st6{fill:#060606;}
</style>
<circle class="st0" cx="200.5" cy="199.6" r="200"/>
<g>
	<path class="st1" d="M128.1,222.5c-20.4-17.1-35.9-37.8-44.7-63c-5.9-16.8-7.7-33.8,1.7-49.8c4-6.8,9.6-12.9,15.3-18.5
		c3.4-3.3,4.6-6,4-10.6c-2.1-16.7,3.7-30.5,16.2-41.4c17.2-15,44.7-14.3,59-0.4c4.6,4.5,9.1,9.1,13.8,13.9
		c4.6-7.7,10.9-14.9,19.8-19.2c17.3-8.4,34.2-7.2,49.6,4.1c14,10.3,20.2,24.8,18.4,42.3c-0.5,4.7,0.2,8,4.2,11.4
		c22.1,19.1,26.9,41.5,15.8,70.8c-8.6,22.6-22.3,41.6-40.5,57.5c-1.3,1.1-2.2,2.6-3.3,3.9c-7.1,7.2-15.8,12.1-24.8,16.3
		c-29.4,13.7-58.4,11.7-86.5-3.8C139.5,232.5,132.2,229.4,128.1,222.5z"/>
	<path class="st1" d="M133.3,311.4c-1.5-25.4-3-50.9-4.4-76.3c2.6-2.2,4.5-0.2,6.4,1.1c10.2,6.9,21.2,12.1,33,15.5
		c24.9,7.3,48.3,2.6,70.8-9.1c4.3-2.2,8.3-4.8,12.3-7.5c1.5-1,2.9-2.7,5-1c-0.4,12.1-0.8,24.2-1.3,36.3c1.1,4,0.7,8.1,0.4,12.1
		c-0.5,5.9-0.7,11.8-1.2,17.7c-0.1,0.9-0.3,1.7-0.5,2.6c-0.4,2.9-0.2,5.8-0.3,8.7c0.6,6.4-1,12.6-1.2,18.9c-0.1,4.4-2,5.3-6.2,3.5
		c-1.9-0.8-3.8-1.6-5.4-2.9c-1.9-1.8-2.1-4.2-2.6-6.6c-2.8-15.1-7.7-29.2-17.4-41.4c-5.2-6.6-11.7-11.6-19.8-14.2
		c-12.7-4.1-23,1-31.9,9.3c-10.6,9.8-15.8,22.6-19.7,36.2c-1.6,5.6-1.4,11.6-4.5,16.8c-10.4,5.9-11.7,5.2-12-6.7
		C132.8,320,130.3,315.6,133.3,311.4z"/>
	<path class="st2" d="M144.7,329.8c2.4-14.5,6.2-28.5,14-41.1c5.7-9.1,12.9-16.6,23.1-20.5c13.9-5.3,29.2,0.2,39.9,13.8
		c9.8,12.5,15,26.9,17.8,42.3c0.3,1.9,0.6,3.7,1,5.6c-1.2,1.4-2.7,1.2-4.2,1.1c-15.4-1.2-27.9,3.3-34.7,18.4c-0.2,0.5-0.6,0.8-1,1.2
		c-5.3,0-10.6,0-15.8,0c-2.8-4.4-4.8-9.3-9.3-12.6c-5.5-4.1-11.4-6.7-18.3-7c-2.4-0.6-4.7-1-7,0.1
		C148.1,331.9,146.2,331.9,144.7,329.8z"/>
	<path class="st3" d="M252.1,311.2c0.1-3.1,0.1-6.2,0.2-9.2c0.2-0.4,0.5-0.8,0.8-1.1c0.7-10.2,1.4-20.4,2.1-30.6
		c23.2-13.4,39.5-33.3,52.5-56.2c5.8-10.1,10.4-20.9,15.5-31.2c0,7.1,0.4,14.5-0.1,21.9c-1.6,22.7-5.8,44.9-14.9,66
		c-6.4,14.8-14.7,28.3-25.7,40.1c-0.9,0.9-1.4,2.2-2,3.3c-1.5,0.7-3,0.5-4.5,0.1c-5.6-1.7-11.4-1.6-17.1-1.6
		C256.5,312.8,254.1,313,252.1,311.2z"/>
	<path class="st4" d="M252.1,311.2c9.5,0.3,19.2-1.1,28.3,3.1c15,6.2,24.8,16.6,27.2,33.2c-0.2,0.3-0.5,0.6-0.8,0.8
		c-16.2,0-32.4,0.1-48.6,0.1c-3.1,0.2-4.4-2.4-6.2-4c-13.1-12.2-30.7-12.1-44-0.1c-2.4,2.2-3.2,5.7-6.2,7.2c-0.4-0.3-0.8-0.6-1.3-1
		c2.1-10.2,11.7-18.7,24.2-20.5c5.2-0.7,10.5-0.1,15.8-0.1c1.9,0.8,4,1.2,5.6,2.4c3.7,2.7,4.8,1.9,4.9-2.6
		C251.1,323.5,251.7,317.4,252.1,311.2z"/>
	<path class="st4" d="M144.7,329.8c1.7,0,3.3,0,5,0c2.4-1.4,4.9,1.6,7.3-0.1c14.1,0.9,25.5,9.5,27.7,20.8c-0.3,0.1-0.5,0.1-0.8,0.2
		c-2.4-0.5-3.5-2.7-5-4.3c-12.9-14.2-32-14.9-46-1.6c-1.7,1.6-3,3.9-5.8,3.7c-15.8-0.1-31.7-0.1-47.5-0.2c-0.6-0.3-1.4-0.3-1.9-0.8
		c1.7-18,19.2-34.6,38.6-36.2c5.6-0.5,11.3,0,17,0.1c0.4,6.6,0.8,13.1,1,19.7c0.1,2.5,0.9,3,3.1,1.9
		C139.8,331.8,142.3,330.8,144.7,329.8z"/>
	<path class="st4" d="M256.4,234c-5.3,3.1-10.5,6.2-15.8,9.2c-16.3,9.1-33.7,14.1-52.5,13.3c-14.3-0.6-27.9-4.8-40.5-11.8
		c-5.2-2.9-10.2-6.1-15.4-9.1c-0.9-0.5-2.3-0.4-3.4-0.6c-0.3-4.2-0.5-8.3-0.8-12.5c15.7,12.4,33,21.9,53,24.1
		c10,1.1,20.5,0.1,30.6-1.4c16.5-2.5,30.4-11.2,43.5-21c0.5-0.4,1.3-0.4,1.9-0.6c-0.1,1.7-0.2,3.5-0.3,5.2c-0.3,0.3-0.3,0.6-0.1,0.9
		C256.7,231.1,256.5,232.5,256.4,234z"/>
	<path class="st1" d="M201.9,351.4c3.4-10.8,19.6-19.7,34-17.1c7.6,1.4,13.5,5.3,18.7,10.7c1.2,1.2,2.5,2.3,3.8,3.4
		c0,0.3-0.2,0.7-0.1,1c2.6,9.7,2.6,9.7-7.8,9.7c-14.8,0-29.6,0-44.4,0C198.3,359,198.1,358.6,201.9,351.4z"/>
	<path class="st1" d="M127.1,348.4c5.6-4.6,10.2-10,17.6-12.7c11.9-4.3,28.1-0.2,35.8,10.4c1.1,1.5,2.3,3,3.4,4.4
		c2.4,8.4,2.4,8.4-6.4,8.4c-15.6,0-31.2,0-46.8,0c-6.5,0-6.5,0-4.7-6.2C126.4,351.3,126.8,349.8,127.1,348.4z"/>
	<path class="st1" d="M77.7,347.4c0.6,0.3,1.3,0.5,1.9,0.8C79,348,78.3,347.7,77.7,347.4z"/>
	<path class="st1" d="M256.9,229.6c-0.1-0.2-0.2-0.4-0.2-0.6c0,0,0.2-0.1,0.3-0.2C257.2,229.1,257.1,229.4,256.9,229.6z"/>
	<path class="st1" d="M306.8,348.2c0.3-0.3,0.5-0.5,0.8-0.8C307.3,347.7,307.1,348,306.8,348.2z"/>
	<path class="st5" d="M150.3,114c-21.4-0.1-38.7-17.6-38.7-39.2c0-21.4,17.5-38.7,39.2-38.7c21.4,0,39.1,17.7,39,39
		C189.7,96.7,172,114.1,150.3,114z"/>
	<path class="st5" d="M235,114c-21.8,0-39.1-16.8-39.3-38.4c-0.2-21.9,17.4-39.7,38.9-39.5c21.6,0.2,39.1,17.3,39.1,38.2
		C273.7,96.5,256.7,114,235,114z"/>
	<path class="st3" d="M160.4,177.2c-8.5,0-13.7-4.9-13.7-13.2c0-7.6,5.6-13.7,12.9-13.7c7.8-0.1,14.1,6.2,14,14
		C173.5,171.3,167.6,177.1,160.4,177.2z"/>
	<path class="st3" d="M225.1,177.2c-7.6,0-13.3-5.4-13.3-12.7c0-8,6.2-14.5,13.7-14.3c7.7,0.2,13.3,6.1,13.2,14.1
		C238.6,172,233,177.2,225.1,177.2z"/>
	<path class="st3" d="M127.2,196.6c7.1,5.2,14.1,10.4,21.2,15.6c0.7,0.5,1.5,0.6,2.3,0.9c3.8,0.5,7.1,2.1,10.4,3.9
		c7.4,1.8,14.7,4.5,22.2,5.2c14.2,1.3,28.3,0.2,41.9-4.6c2.7-2.7,6.6-3.2,9.6-5.4c5.7-3.3,11.4-6.5,17-9.8c1.9-1.1,3.5-2.5,5.3-3.8
		l0.2,0.1c-4.7,8-12.1,12.9-19.8,17.4c-18.5,10.6-39,12.7-59.3,10c-18-2.4-35-9.7-47.8-23.8c-1.4-1.6-2.3-3.7-3.4-5.6L127.2,196.6z"
		/>
	<path class="st5" d="M161.1,217.1c-3.5-1.3-6.9-2.6-10.4-3.9c1.7-3.3,3.4-6.6,5.2-9.9c0.4-0.8,1.3-1.3,2-1.9
		c0.4,0.9,1.1,1.7,1.2,2.6C159.9,208.3,160.5,212.7,161.1,217.1z"/>
	<path class="st5" d="M234.8,212.2c-3.2,1.8-6.4,3.6-9.6,5.4c0.3-5.1,0.5-10.2,0.8-15.3c0.5-0.2,1-0.4,1.5-0.7
		C230,205.1,232.4,208.7,234.8,212.2z"/>
	<path class="st3" d="M258.2,196.7c0.5-0.8,0.9-1.5,1.4-2.3c0.2,0.2,0.5,0.6,0.5,0.6c-0.6,0.6-1.2,1.2-1.8,1.8
		C258.3,196.8,258.2,196.7,258.2,196.7z"/>
	<path class="st3" d="M258.3,196.8c-0.3,0.7-0.7,1.4-1,2c0,0-0.2-0.1-0.2-0.1c0.4-0.7,0.7-1.3,1.1-2
		C258.2,196.7,258.3,196.8,258.3,196.8z"/>
	<path class="st3" d="M127.1,196.8c-0.1-0.2-0.3-0.4-0.4-0.5c0.2,0.1,0.4,0.3,0.5,0.4C127.2,196.6,127.1,196.8,127.1,196.8z"/>
	<path class="st4" d="M253,300.9c-0.3,0.4-0.5,0.7-0.8,1.1C252.5,301.6,252.8,301.3,253,300.9z"/>
	<path class="st1" d="M157.1,329.6c-1,0.5-2.1,1.5-3.1,1.5c-1.4,0-2.8-0.8-4.2-1.3C152.2,329.7,154.6,329.7,157.1,329.6z"/>
	<path class="st6" d="M154.2,99.9c-13.8-0.1-24.9-11.2-24.9-24.9c0-13.8,11.6-25.2,25.5-25c13.3,0.2,24.5,11.3,24.7,24.7
		C179.6,88.6,168.2,100,154.2,99.9z"/>
	<path class="st6" d="M230.8,99.9c-14-0.2-24.8-11.1-24.6-25c0.1-14,11.5-25.1,25.4-24.9c13.6,0.3,24.7,11.7,24.5,25.4
		C255.9,89.2,244.6,100.1,230.8,99.9z"/>
	<path class="st5" d="M172.5,67.7c-0.1,3.9-3.1,6.4-7.3,6.1c-5.1-0.4-10.5-5.1-11.8-10.1c-1.1-4,1-7.2,5-8
		C164.5,54.5,172.6,61.4,172.5,67.7z"/>
	<path class="st5" d="M236.5,55.4c5.5-0.1,12,5.6,12.7,10.9c0.5,4.3-1.7,7.1-5.8,7.4c-5.6,0.4-12.5-5.2-13.2-10.8
		C229.6,58.4,232.1,55.5,236.5,55.4z"/>
</g>
</svg>
