<?xml version="1.0" encoding="utf-8"?>
<!-- Generator: Adobe Illustrator 22.1.0, SVG Export Plug-In . SVG Version: 6.00 Build 0)  -->
<svg version="1.1" id="Layer_1" xmlns="http://www.w3.org/2000/svg" xmlns:xlink="http://www.w3.org/1999/xlink" x="0px" y="0px"
	 width="400px" height="400px" viewBox="0 0 400 400" style="enable-background:new 0 0 400 400;" xml:space="preserve">
<style type="text/css">
	.st0{fill:#FFFFFF;}
	.st1{fill:#E97006;}
	.st2{fill:#974803;}
	.st3{fill:#080606;}
	.st4{fill:#FCFBF8;}
	.st5{fill:#F5C69B;}
</style>
<circle class="st0" cx="200.5" cy="199.6" r="200"/>
<g>
	<path class="st1" d="M125.4,248c-8.6-3.5-17.4-6.7-25.8-10.6c-14.7-6.9-28.2-4.4-41.3,4c-1.4,0.9-2.9,1.7-5.5,3.3
		c1.8-7.5,3.1-13.8,4.7-20c7.3-26.8,17.5-52.4,31.1-76.6c0.7-1.2,0.3-3.4-0.3-4.8c-9.3-22.9-15.2-46.6-18-71.1
		c-1.1-9.5,0.7-10.5,9.6-6.6c19.6,8.6,38,19.2,53.8,33.9c1.2,1.1,4.1,1.5,5.6,0.9c15.3-6.9,31.2-9.1,47.8-6.4c1,0.2,2.1-0.3,3.2-0.5
		c5.8,1.8,11.8,3.4,17.3,6c1.8,0.9,3.3,0.9,4.7-0.7c3.3-4,7.7-6.9,11-10.9c5.6-2.7,10.5-6.4,15.8-9.6c8.2-5,16.6-9.2,25.3-13.2
		c10.7-4.9,13.3-3.1,13,8.4c-0.1,5.4-1.6,10.6-2.4,16c-0.4,2.7-0.7,5.3-0.5,8c-3.6,6.3-4,13.6-6.2,20.4c-2.6,8.2-4.9,16.4-8.3,24.3
		c-1.2,2.7-1,5,0.4,7.7c8.9,16.5,16.3,33.7,22.7,51.3c4.5,12.5,8.1,25.4,10.6,38.5c0.3,1.5,0.9,3.3-0.6,4.4c-1.7,1.3-3.3,0-4.8-0.9
		c-8-5.2-16.6-8.5-26.3-8.2c-6.7,0.2-12.7,2.8-18.5,5.6c-16.3,7.8-33.3,12.9-51.3,15c-20.7,2.4-41.1,0.7-61.3-4.5
		C128.7,250.4,126.9,249.6,125.4,248z"/>
	<path class="st2" d="M222.9,89c-1,1.3-2.1,2.6-3.1,4c-5.6,8.3-12.5,9.8-21.1,4.5c-2.6-1.7-5.7-2.6-8.6-3.9c0.4-6,0.3-12.1,1.2-18
		c2.9-18.1,15.7-26.8,31.8-31.5c19-5.4,38.4-4.3,57.5-0.9c16.2,2.9,32.1,7.4,48.1,11.1c0.6,0.1,1.1,0.5,2.3,1
		c-10.1,7.8-16.7,17.6-20.9,29c-6.8,18.3-7.9,37.4-7.7,56.7c0.2,29.3,4.6,58.1,9.2,86.9c4.5,28.3,9.4,56.6,13.4,85
		c1.2,9,0.2,18.3-0.6,27.5c-0.6,6.5-5.2,10-11.7,10.4c-20.3,1.1-40.5,2.1-60.8,3.2c-1.7,0.1-3.4,0.4-5.1,0.6
		c-1.2-0.3-1.7-1.3-2.2-2.3c-2-4.2-5.2-7.1-9.5-8.8c-3.1-1.2-4.3-3.2-3.8-6.6c1.4-10.8,0.4-12.5-9.7-17.6c-0.7-0.4-1.3-0.9-1.6-1.6
		c-0.8-2.3-0.6-4.7-0.6-7.1c0-15.7,0-31.4,0-47.1c0-6.3-0.5-6.6-6.6-5.2c-27.5,6.3-55,6.6-82.4-0.7c-1.7-0.4-3.4-0.7-4.7-2.1
		c-0.1-2.4-0.2-4.9-0.3-7.3c14.7,4.8,29.9,7,45.2,7.2c25.5,0.3,49.9-4.7,72.8-16.4c16-8.2,31.3-7,46,3.5c0.9,0.6,2.2,0.7,3.3,1
		c-0.1-1-0.2-2.1-0.4-3.1c-6.4-32.6-18.9-62.8-34.3-92c-0.7-1.2-0.4-3.3,0-4.7c4-13.1,8.1-26.2,12.4-39.2c0.8-2.5,2.3-4.9,3.5-7.3
		c6.8-1.6,13.7-1.8,20.6-1.9c7.2-0.2,7.2-0.1,9.1-6.8c3-10.6,6.8-20.9,15.3-28.5c2.8-2.5,0.9-3.2-1.4-3.9c-14-4-28.3-7-42.8-9
		c-13.9-1.9-27.8-2.5-41.6,0.3c-9,1.8-17.4,4.9-24.6,10.7c-4.4,3.6-7.8,7.9-9.9,13.1c-1.9,4.9-1.3,6.5,3.4,8.6
		c5.4,2.4,10.9,4.4,16.4,6.5C220,86.7,222,87,222.9,89z"/>
	<path class="st1" d="M125.6,255.3c9.3,1.7,18.5,4.2,27.9,4.9c11.5,0.9,23.1,1.1,34.5,0.3c9.5-0.7,18.9-3.2,28.3-5
		c4-0.8,4.4,1.2,4.4,4.5c-0.1,19.5,0,39,0,58.4c1.2,1.3,1.3,2.8,1.3,4.4c0.1,7.1,0.2,14.2,0,21.3c-0.1,5.6-1.9,6.5-6.6,3.4
		c-2.9-1.9-6.6-2.2-8.8-5.2c-0.9-2.3-0.7-4.7-0.7-7.1c0-14.6,0-29.2,0-43.8c0-12.6-5.7-18.2-18.4-18.3c-9.5-0.1-19.1-0.1-28.6,0
		c-13.3,0.1-18.7,5.6-18.7,19c0,14.5,0,28.9,0,43.4c0,2.2,0.2,4.5-0.6,6.6c-3.4,3.7-8.3,4.8-12.4,7.4c-2,1.3-2.7-0.7-3-2.3
		c-0.5-3.4-0.2-6.9-0.3-10.4c0-4.6,0-9.1,0-13.7c0-1.7,0.2-3.5,1.2-5c0-19.2,0.1-38.5,0.1-57.7C125.4,258.8,125.6,257,125.6,255.3z"
		/>
	<path class="st3" d="M207.3,342.1c4.3,2.2,8.5,4.4,13.5,6.9c0-10.4,0-20.5,0-30.6c9,0.4,14.4,7.9,11.9,17.3c-1,3.9-0.2,5.5,3.5,6.9
		c5.5,2,8.8,6.3,10.5,11.9c1.3,3.1-1.1,2.6-2.7,2.6c-6,0-12,0-17.9,0c-0.2,0.5-0.5,0.8-0.4,1c1.9,7.1,1.6,5.8-4.3,5.8
		c-31.9,0-63.7,0-95.6,0c-6.7,0-6.7,0-5.3-6.8c-6.2,0-12.4-0.1-18.5,0c-2.8,0.1-3.3-0.9-2.4-3.4c2-5.6,5.7-9.6,11.2-11.6
		c3.2-1.2,4-2.2,2.9-5.7c-2.9-9.2,2.1-16.8,11.6-18.3c0,10.3,0,20.5,0,31c4.8-2.5,9.2-4.8,13.6-7c7.2-3.8,20.1-1.3,27.3,5.3
		c2.6,2.3,4.7,5,6.7,8.3c2.1-2.2,3.2-4.5,5-6.3c6.7-6.7,14.8-9.6,24.1-9.2C203.9,340.3,205.8,340.8,207.3,342.1z"/>
	<path class="st4" d="M222.9,89c-7.8-3-15.6-6.1-23.5-8.8c-3.8-1.3-4.2-3.7-3.3-7c3.1-10.9,10.8-17.6,20.6-22.3
		c14.8-7.1,30.6-7.8,46.5-6.7c20,1.4,39.4,5.8,58.6,11.4c0.6,0.2,1.1,0.5,2.8,1.3c-2.4,2.1-4.7,3.8-6.6,5.7
		c-7.4,7.9-11.1,17.7-13.4,27.9c-1,4.5-2.9,6.2-7.5,6.1c-7.8-0.2-15.5,0.3-23.3,0.5c-0.3-1.5-1.1-3-0.9-4.4
		c0.9-8.1,2.1-16.3,3.1-24.4c0.5-4.2-1.5-5.7-5.2-4c-9.3,4.2-18.6,8.5-27.6,13.2c-5.4,2.8-10.3,6.6-15.5,9.9
		C226.3,88.1,224.5,88.4,222.9,89z"/>
	<path class="st4" d="M98.6,169.6c0-20.1,15.9-36.1,35.7-36.1c19.9,0,35.9,16.1,36,35.9c0.1,20.1-16.1,36.4-36.1,36.3
		C114.2,205.7,97.7,188.8,98.6,169.6z"/>
	<path class="st4" d="M247.7,169.8c0.3,20.4-16.7,35.8-35.6,35.9c-20,0.1-36.3-16.2-36.2-36.1c0.1-20,16.3-36.2,36.3-36.1
		C231.9,133.6,247.7,149.8,247.7,169.8z"/>
	<path class="st5" d="M78.3,73.6c3.9,1.6,6.6,2.5,9.1,3.8c13.7,7,26.4,15.5,38.2,25.5c2.8,2.3,3,3.7-0.4,5.9
		c-10.9,7-19.8,16.1-27.8,26.2c-3.3,4.2-3.5,4.3-5.3-0.6c-6.6-18.1-12.3-36.5-15-55.7C77,77.2,77.9,75.5,78.3,73.6z"/>
	<path class="st5" d="M269.9,77.6c-2.6,10.9-4.9,21.9-7.8,32.7c-2.3,8.5-5.6,16.8-8.3,25.1c-1.1,3.5-2.5,3-4.3,0.5
		c-8.1-10.9-17.8-20.1-29.1-27.5c-4-2.6-1.4-4.7,0.6-6.1c7.2-5.4,14.4-10.8,22-15.6c6.8-4.3,14-7.9,21.2-11.6
		C266.4,73.9,269.2,73,269.9,77.6z"/>
	<path class="st2" d="M100.8,216.2c1,0.3,2.2,0.5,3,1.1c17.7,14.1,38.7,18.7,60.5,20.9c6.8,0.7,6.8,0.5,6.9-6.3c0-1.3-0.1-2.6,0-3.8
		c0.6-4.4-0.7-6.6-5.6-7.2c-3.5-0.5-7.1-2.6-7.6-6.9c-0.4-4,2.8-6,5.9-7.2c6.9-2.8,13.9-2.9,20.5,1.1c5.4,3.3,5.4,7.6,0.2,11.1
		c-0.9,0.6-1.9,1.6-2.9,1.6c-6.9,0.1-7.1,4.6-6.6,9.7c0.1,1.3,0.2,2.6,0,3.8c-0.5,3.5,1.2,4.3,4.4,4.1c22.5-1.2,43.8-6.2,62.2-20.1
		c0.6-0.5,1.3-0.9,2-1.2c0.4-0.2,0.9-0.2,1.4-0.2C224,246,138.1,254.9,100.8,216.2z"/>
	<path class="st4" d="M207.3,342.1c-5.2,0.1-10.5-0.5-15.5,0.6c-8.8,1.9-15,7.7-18.6,16.5c-1.5-2.5-2.6-4.9-4.2-6.9
		c-6.5-8.2-15.2-11.5-25.5-10.6c-1.6,0.1-3.1,0.3-4.7,0.5c0-17.5,0-34.9,0-52.4c0-11.3,6.2-17.7,17.5-17.8c11.1-0.1,22.2-0.1,33.3,0
		c11.2,0.1,17.5,6.6,17.5,17.8C207.3,307.2,207.3,324.6,207.3,342.1z"/>
	<path class="st3" d="M114.8,169.7c0-12.8,10.1-23,22.8-22.9c13,0,23.2,10.2,23.1,23.2c-0.1,12.7-10.3,22.7-23.1,22.7
		C124.7,192.6,114.8,182.5,114.8,169.7z"/>
	<path class="st3" d="M231.4,169.8c0,12.8-10.1,22.9-22.9,22.9c-12.8,0-23-10.1-23.1-22.8c-0.1-12.8,10.3-23.1,23.3-23.1
		C221.4,146.7,231.4,156.9,231.4,169.8z"/>
	<path class="st4" d="M142.1,151.6c5.9-0.1,12.3,5.7,12.4,10.9c0.1,3.9-2.3,5.8-5.9,6c-5.4,0.3-11.6-5.6-11.8-10.9
		C136.6,153.5,138.9,152,142.1,151.6z"/>
	<path class="st4" d="M219.4,168.6c-5.7-0.1-12.2-6.2-12-11.2c0.1-3.9,2.6-5.7,6.2-5.7c5.5,0,11.9,6.1,11.7,11.2
		C225.3,166.8,222.6,168.1,219.4,168.6z"/>
</g>
</svg>
