<?xml version="1.0" encoding="utf-8"?>
<!-- Generator: Adobe Illustrator 22.1.0, SVG Export Plug-In . SVG Version: 6.00 Build 0)  -->
<svg version="1.1" id="Layer_1" xmlns="http://www.w3.org/2000/svg" xmlns:xlink="http://www.w3.org/1999/xlink" x="0px" y="0px"
	 width="400px" height="400px" viewBox="0 0 400 400" style="enable-background:new 0 0 400 400;" xml:space="preserve">
<style type="text/css">
	.st0{fill:#FFFFFF;}
	.st1{fill:#839EBE;}
	.st2{fill:#A5C6E8;}
	.st3{fill:#63768F;}
	.st4{fill:#F8FAFA;}
	.st5{fill:#060606;}
</style>
<circle class="st0" cx="200.5" cy="199.6" r="200"/>
<g>
	<path class="st1" d="M57.6,191.8c1-6.9,5.2-11.6,11.2-13.9c11-4.2,22.3-7.6,33.5-10.9c4-1.2,5.1-2.9,5.4-6.9
		c0.8-11.6,1.1-23.4,3.6-34.6c5.1-22.7,19.8-38.2,40.4-48.3c15.1-7.4,31-11.6,47.7-13.1c4.7-3.4,10.4-3,15.6-3.2
		c10.8-0.5,21.7-0.5,32.5,0c6.1,0.3,12.5,0.7,17.5,5.2c22.8,8.6,37,25.4,45.4,47.6c5.7,15,8.4,30.7,8.7,46.8
		c0.2,12.5,0.6,24.9,0.9,37.3c1.6,6.8,0.2,13.6-0.5,20.4c-1.2,12.3-4.1,24.2-9.5,35.4c-0.8,1.7-1.5,3.6-3.3,4.6
		c-24.2,32.7-59.1,47.5-96.9,56.4c-16.5,3.9-33.8,4.7-50.7,7.1c-1.6,0.2-3.6,1.2-4.6,2.5c-22.7,28-66.9,29.9-91.7,3.7
		c-3-3.2-5.3-7-8.7-11.5c12.7-2.2,24.2-4.2,35.7-6.3c11.6-2,23.2-4.1,35.7-6.3c-8.5-7.5-16.4-14.4-24.2-21.3
		c-7.2-6.3-14.4-12.7-21.8-18.9c-2.6-2.2-1.8-3.2,0.7-4.3c11.7-5.1,23.9-7.2,36.5-4.9c10.5,2,20.6,5.2,29,12.3
		c7.5,6.3,12.8,13.9,15.4,23.2c0.9,3.1,1.6,2.8,3.6,1.1c1.9-1.6,4.2-2.9,6.3-4.3c9.8,9.9,21.4,8.5,33.1,5c4.9-1.5,9.5-3.8,13.4-7.2
		c14.5-12.5,27.9-25.9,36-43.7c4.5-9.8,7.6-19.9,4.1-30.6c-3.8-11.8-10.8-17.4-22.4-17.1c-13.3,0.4-26.4,2.3-39.6,3.4
		c-18.8,1.6-37.5,4.1-56.4,4.6c-9.3,0.3-18.5,0.9-27.8,0.7c-15.7-0.3-31.3-2-46.8-4.2c-1.7-0.2-3.4-0.7-5.1-1.4
		C57.7,195.4,56.6,194.1,57.6,191.8z"/>
	<path class="st2" d="M57.6,191.8c-0.2,3.2,2.4,3.5,4.5,3.8c9.4,1.4,18.9,3.2,28.3,3.8c12.7,0.8,25.6,1.4,38.3,0.9
		c15.9-0.6,31.8-2.2,47.6-3.5c11.3-0.9,22.5-2.1,33.8-3c8.7-0.7,17.5-1.3,26.2-1.9c11.8-0.8,18,5.4,22.2,15.9
		c4.4,11,1.9,21.7-2.8,32c-9.1,20.2-23.5,36.2-41.5,48.5c-11.8,8.1-25.6,10.9-39.3,3.4c-1.7-0.9-2.6-3.3-3.8-4.9
		c2.9-3.4,5.6-6.8,8.6-10.1c12-13.5,22.4-28,26.4-46c2.8-12.7,4.2-10.5-8.8-9.5c-8.9,0.7-17.8,1.8-26.7,2.3
		c-13.1,0.8-26.2,2-39.2,1.7c-18.8-0.5-37.9,0.1-55.6-7.5c-5.3-2.3-9.6-6.8-14.3-10.4c1.5-1.5,3.3-0.8,5-0.5
		c26.9,6.2,54.2,6.5,81.6,4.9c9.8-0.6,19.6-0.3,29.4-2.1c-10.3,1.8-20.6,1.8-31,1.9c-21.1,0.2-42.3,0.5-63.2-3
		c-8.6-1.5-17.5-2.2-25.3-6.9C57.9,198.3,57.8,195.1,57.6,191.8z"/>
	<path class="st3" d="M306.7,258.2c3.2-9.4,7.3-18.6,9.4-28.2c2.3-10.5,2.7-21.5,3.9-32.2c13.2,15.8,20.7,34.4,26,53.9
		c2.1,7.9,3.5,16,4.7,24.2C337.2,266.2,322,262.2,306.7,258.2z"/>
	<path class="st3" d="M265,66c-21.7-6.6-43.6-4.2-65.6-2c4.2-3.4,8.2-7.1,12.7-10.1c19.9-13.1,42.1-20.8,65.3-25.4
		c0.4-0.1,0.9,0.1,1.9,0.1C271.7,40.1,267.4,52.7,265,66z"/>
	<path class="st3" d="M58,201.6c8.7,1.9,17.4,4.1,26.1,5.5c22.7,3.6,45.5,3.3,68.4,3.2c8.7,0,17.5,0,25,0c-5.4,0.7-12.1,2-18.9,2.4
		c-27.8,1.8-55.6,2.5-83.1-2.5c-4.7-0.9-9.3-1.9-14-2.9C60.3,205.4,59.1,203.5,58,201.6z"/>
	<path class="st4" d="M208.6,133.7c-0.5-18.3,15.1-36,36.3-35.9c19.8,0.1,36.4,16.6,36.6,36.4c0.1,19.9-16.7,36.6-36.8,36.5
		C224.3,170.5,208.5,154.3,208.6,133.7z"/>
	<path class="st4" d="M202.9,134.5c0,20-16.4,36.2-36.5,36.1c-20,0-36.5-16.7-36.4-36.9c0.1-19.2,17.1-36,36.5-36
		C186.9,97.8,202.9,114,202.9,134.5z"/>
	<path class="st5" d="M241.3,157.4c-12.8,0-23.2-10.3-23.2-23.1c0-12.9,10.2-23.2,23-23.3c13.2-0.1,23.4,10.2,23.4,23.3
		C264.5,147.2,254.3,157.4,241.3,157.4z"/>
	<path class="st5" d="M169.7,111c12.9-0.1,23.4,10.1,23.5,22.8c0.1,13.2-10.1,23.5-23.2,23.5c-13,0-23-10-23.1-23
		C146.8,121.4,156.9,111.1,169.7,111z"/>
	<path class="st4" d="M258.5,126.9c0.1,3.8-2.9,6.5-6.8,6.2c-4.6-0.4-9.9-4.8-11.1-9.3c-1.1-3.9,0.9-7.1,4.9-7.7
		C250.8,115.2,258.3,121.4,258.5,126.9z"/>
	<path class="st4" d="M186.8,127.1c0.1,3.8-2.1,5.6-5.5,5.9c-5.3,0.5-11.9-5.3-12.3-10.6c-0.3-3.7,1.5-5.8,5-6.3
		C179.6,115.2,186.7,121.3,186.8,127.1z"/>
</g>
</svg>
