<?xml version="1.0" encoding="utf-8"?>
<!-- Generator: Adobe Illustrator 22.1.0, SVG Export Plug-In . SVG Version: 6.00 Build 0)  -->
<svg version="1.1" id="Layer_1" xmlns="http://www.w3.org/2000/svg" xmlns:xlink="http://www.w3.org/1999/xlink" x="0px" y="0px"
	 width="400px" height="400px" viewBox="0 0 400 400" style="enable-background:new 0 0 400 400;" xml:space="preserve">
<style type="text/css">
	.st0{fill:#FFFFFF;}
	.st1{fill:#939393;}
	.st2{fill:#CBCBCB;}
	.st3{fill:#686868;}
	.st4{fill:#FAFAFA;}
	.st5{fill:#060606;}
</style>
<circle class="st0" cx="200.5" cy="199.6" r="200"/>
<g>
	<path class="st1" d="M137.8,217.6c-18.8-7-36-16.4-48.4-32.8c-0.2-0.3-0.6-0.6-0.7-1c-3.6-8.2-7.6-13-18.3-8.8
		c-6.5,2.5-13.5-2.1-18.4-7.6c-7.2-8-8.2-21.9-2.5-31.4c5.7-9.4,15.4-13.4,27-10c4.3,1.2,4.7-0.9,5.7-3.6
		c14.4-40.1,39.6-71,78.3-89.5c34.8-16.7,68.6-11.8,100.1,9c29.5,19.6,50.3,46.4,61.8,80.1c1.2,3.4,2,5.3,6.5,3.9
		c10.8-3.2,20,0.7,25.9,9.9c6.3,9.8,5.5,22.4-1.9,31.2c-7,8.4-15.9,10.4-27,6.3c-1.1-0.4-3.7,0.1-4.1,0.9
		c-11.7,22.9-32.1,34.8-55.1,43.5c-3.7,3-7.7,4.7-12.6,3c-1.6-3,0.7-4.9,2.2-6.7c2.8-3.4,5-7.2,6.8-11.2c3.9-8.9,2.1-16.6-5.4-23
		c-6.7-5.8-14.8-8.6-23.2-10.6c-4.1-1-8.1-2-12.1-3.4c-7.9-9.8-17.9-11.5-29.6-8.2c-4.8,1.4-7.6,5-10.8,8.2
		c-2.7,1.5-5.7,1.8-8.6,2.5c-8.4,1.9-16.5,4.6-23.7,9.6c-10.8,7.6-13,16.2-7.1,28c1.8,3.6,4.3,6.7,6.8,9.8c1.4,1.7,3.8,3.3,2.3,6.2
		C146.6,222.4,141.9,221,137.8,217.6z"/>
	<path class="st1" d="M250.3,356.1c-2.5,10.5-9.2,17.2-19.4,19.7c-9.6,2.3-16.4-2.6-21.2-10.7c-5.2-5.2-4.5-11.6-3.6-17.9
		c0.6-4,1.4-7.7-1.6-11.3c-2.1-2.4-0.9-5.3,1-7.7c3.5-4.4,8.2-7,13.6-8.2c3.8-0.9,5.6-3,6.6-6.7c2.8-10.6,5-21.4,8.1-31.9
		c1.5-5,0.1-8.5-4.8-10.7c-18-8-35.8-8.4-53.7,0.5c-4.2,2.1-5.9,4.7-4.6,9.5c3,10.8,5.6,21.6,8.2,32.5c0.9,3.7,2.8,5.9,6.6,6.7
		c4.3,0.9,8.3,2.7,11.7,5.7c4.4,4,5.2,7.6,1.8,12.5c-1.6,2.3-1.3,4.4-0.8,6.8c1.2,5.2,1,10.3-0.2,15.4c-0.5,1.9-0.8,4-3.1,4.7
		c-8.9,14.2-23.5,15.2-34.5,2.2c-2.9-3.4-4.9-7.7-7.3-11.5c-4-6.2-3.1-12.8-1.7-19.5c1.4-5.1-1-9.7-1.9-14.5c-1-5.2-2.5-10.4-4-15.8
		c-3,1.8-2,6.9-6.3,7c-5.5-6.5-6.8-14.3-6.9-22.4c-2.9-19.5-3.4-39,1.4-58.3c0.6-2.5,1.6-4.8,2.4-7.3c7.8-0.8,15,1.5,21,6.1
		c15.5,12.1,32.7,18,52.4,16.2c14.3-1.2,26.2-7.6,37.5-15.9c6.3-4.7,13.5-7.2,21.6-6.5c6.6,18,6.5,36.6,5.1,55.3
		c-0.3,3.5-0.3,7.1-0.5,10.6c-1.6,7.8-2.2,16-8.2,22.2c-3.9-0.6-3.2-4.6-5.6-7.7c-2.1,10.9-7.3,20.3-5.3,31.3
		c0.6,3.5,0.3,7,0.4,10.5C254.6,350.8,253.5,354,250.3,356.1z"/>
	<path class="st2" d="M194.9,365.1c3-7.5,3.1-15,1.2-22.8c-0.3-1.4,0.1-3.7,1.1-4.6c3.4-3.1,3.9-7.2,0-9.9
		c-4.2-2.9-8.9-5.2-13.8-6.6c-3.1-0.9-4.7-1.7-5.4-5c-2.9-12.8-6.4-25.5-9.3-38.3c-0.4-1.8,0.9-5.1,2.4-6
		c19.7-11.8,39.9-11.8,60.4-1.6c4.1,2,5.8,4.6,4.5,9.4c-3.5,12.4-6.4,25.1-9.8,37.5c-0.4,1.5-2.7,2.7-4.4,3.7
		c-5.1,2.9-10.5,5.3-15.2,8.7c-1.1,0.8-1.1,5.8,0.1,6.8c2.6,2.1,2.6,3.7,1.8,6.5c-2.2,7.5-2,14.9,1.1,22.2
		C204.7,365.1,199.8,365.1,194.9,365.1z"/>
	<path class="st3" d="M132.3,290.5c2,6.5,4.1,13.1,6.2,19.6c0.3,0.9,1,1.6,1.6,2.4c4,8,8.4,15.8,13,23.5c0,6.6,0.1,13.2,0.1,19.8
		c-16-0.1-31.9-0.3-47.9-0.1c-4.1,0-4.7-1.4-3.8-4.9c2.4-9.1,7-16.7,15.7-20.7c4.5-2.1,5-4.2,3.6-8.5c-2.2-7.1-2.4-14.5,1.4-20.9
		C124.4,296.6,128.8,293.8,132.3,290.5z"/>
	<path class="st3" d="M250.3,356.1c0.8-6.8,1.7-13.6,2.5-20.3c3.1-8.2,8.1-15.4,11.8-23.3c2-5.3,4-10.6,6-15.9
		c0.8-2,1.7-3.9,2.6-5.8c9.9,5.3,14.4,16.3,11.1,29.4c-1.3,5.3-1.2,8.1,4.5,10.7c8,3.7,12,11.2,14.5,19.6c1.2,4,0.4,5.2-3.9,5.2
		C283,355.6,266.6,355.9,250.3,356.1z"/>
	<path class="st3" d="M268.5,224.8c-13.2,1.6-23.1,10-34,16.3c-13.8,8.1-28.9,9.5-44.4,7c-13.3-2.2-24.3-8.9-35.1-16.8
		c-5.2-3.7-12.5-4.4-18.8-6.5c0.6-2.4,1.1-4.9,1.7-7.3c4.6,1.2,9.2,2.5,13.9,3.7c3.2-0.7,5.2,1.4,7.4,3.1
		c18.8,14.3,39.5,19.7,62.5,12.7c8.6-2.6,16.5-6.9,23.7-12.5c2.5-2,4.6-5.2,8.6-4.5c4.3-0.8,8.6-1.7,12.8-2.5
		C267.4,220,267.9,222.4,268.5,224.8z"/>
	<path class="st2" d="M253.9,220.1c-10.7,8.5-21.6,16.3-35.2,19.6c-22.2,5.4-41.8-0.1-59.8-13.3c-2.4-1.7-4.8-3.4-7.2-5.1
		c-1.8-2.5-3.6-5-5.5-7.5c-13.8-18.5-10.6-32.3,10.2-41.6c8-3.6,17-5,25.6-7.4c8.5,10.2,17.7,12.6,30.2,8.6c4.8-1.5,7-5.6,10.5-8.5
		c10,3.1,20.8,4.6,29.8,9.5c19,10.3,17.5,23.5,6.2,39C257.1,215.6,255.5,217.9,253.9,220.1z"/>
	<path class="st4" d="M251.1,154c-25.1,0.1-45.2-20-45.3-45.3c-0.1-25.3,20.4-45.8,45.7-45.7c24.3,0.2,45.1,20.9,45.2,45.2
		C296.9,133.5,276.5,154,251.1,154z"/>
	<path class="st4" d="M108.4,108.5c0-24.9,19.9-45.2,44.5-45.4c25.2-0.2,45.9,20.3,45.9,45.5c0,25.4-19.9,45.5-44.9,45.5
		C127.9,154,108.4,134.4,108.4,108.5z"/>
	<path class="st5" d="M222.7,164.9c-1,5.1-4.5,7.8-9.1,9.5c-7.8,2.9-15.6,2.8-23.4-0.2c-4.3-1.7-7.5-4.5-8.2-9.4
		c3.2-7.9,10.2-9.3,17.4-10.2C210,153.2,218.5,157.1,222.7,164.9z"/>
	<path class="st2" d="M348.8,149.9c0,11.6-7.5,18.5-18.5,17.4c-3.7-0.4-4.6-2.1-4.5-5.5c0.2-8.3-0.1-16.6,0.4-24.9
		c0.1-1.6,2.4-4,4-4.3C340.6,130.9,348.8,138.7,348.8,149.9z"/>
	<path class="st2" d="M55.7,149.5c0.1-9.8,6.9-17,16.1-17.1c6.2-0.1,7.2,1.3,6.5,7.4c-0.6,5.7-0.1,11.4-0.3,17.1
		c-0.1,3.2,0,9-0.9,9.2c-4,0.8-8.8,1.1-12.5-0.5C58.2,162.9,55.6,157.1,55.7,149.5z"/>
	<path class="st2" d="M153,335.9c-6.7-6.5-11-14.4-13-23.5c1.6-3.3,3.1-6.7,5-10.7c0.8,1.4,1.6,2.2,1.8,3.1
		c2.2,8.6,4.3,17.3,6.3,25.9C153.5,332.4,153.1,334.2,153,335.9z"/>
	<path class="st2" d="M264.6,312.5c-3.9,7.8-7.9,15.5-11.8,23.3c-0.4-2-1.5-4.2-1-6.1c2.1-9.1,4.5-18.1,7.3-29
		C261.4,305.7,263,309.1,264.6,312.5z"/>
	<path class="st5" d="M161.8,210.3c26.6,11.4,53.3,12.4,80.8-0.5C229.7,227.9,180.3,227.8,161.8,210.3z"/>
	<path class="st5" d="M275.9,108.5c0.1,16.1-12.7,29-28.7,29.1c-16.4,0-29.4-12.9-29.4-29.1c0.1-15.8,13.3-28.9,29.1-28.9
		C262.9,79.6,275.8,92.6,275.9,108.5z"/>
	<path class="st5" d="M186.6,108.9c-0.1,16.4-13,28.9-29.5,28.7c-16-0.2-28.3-13-28.2-29.4c0.1-15.8,13.4-28.8,29.2-28.6
		C174,79.8,186.7,92.9,186.6,108.9z"/>
	<path class="st4" d="M253.1,85.9c6-0.1,13.6,6.1,14.9,12c1.2,5.4-2.3,9.4-7.9,9.2c-6.3-0.2-13.3-6.3-14.4-12.5
		C244.8,89.9,248.2,86,253.1,85.9z"/>
	<path class="st4" d="M179,101.9c-1.4,1.2-3.4,4.2-6.1,5c-7,2-16.4-6.3-16.4-13.6c0-4.5,2.5-6.6,6.5-7.2
		C169.7,84.9,178.8,92.9,179,101.9z"/>
</g>
</svg>
