<?xml version="1.0" encoding="utf-8"?>
<!-- Generator: Adobe Illustrator 22.1.0, SVG Export Plug-In . SVG Version: 6.00 Build 0)  -->
<svg version="1.1" id="Layer_1" xmlns="http://www.w3.org/2000/svg" xmlns:xlink="http://www.w3.org/1999/xlink" x="0px" y="0px"
	 width="400px" height="400px" viewBox="0 0 400 400" style="enable-background:new 0 0 400 400;" xml:space="preserve">
<style type="text/css">
	.st0{fill:#FFFFFF;}
	.st1{fill:#7F512C;}
	.st2{fill:#D2D2D2;}
	.st3{fill:#FCAC03;}
	.st4{fill:#8E8D8C;}
	.st5{fill:#FEFEFE;}
	.st6{fill:#060606;}
</style>
<circle class="st0" cx="200.5" cy="199.6" r="200"/>
<g>
	<path class="st1" d="M206.5,371.8c-4.9,0-9.9,0-14.8,0c-5.8,1.3-8.9-0.6-9.5-6.1c-0.5-4.7-0.1-9.5-0.2-14.2
		c-0.1-2.1,0.5-4.3-1.7-6.5c-1.6,5.1-0.7,10-0.8,14.8c-0.2,10.9-1,12.2-11.8,15c-2.9,0.8-5.5,3.4-8.9,1.6c-0.1-12.7-0.1-25.3-0.2-38
		c0-3-7.5-11.1-10.1-10.6c-1.1,0.2-2,1.7-2.9,2.7c-6,6.2-11.7,12.8-18.2,18.6c-4.8,4.3-7,3.6-10.3-2.1c-10.4-17.7-14.8-37-14.8-57.3
		c0-21.4,5.4-41.5,15.8-60.1c3.5-6.3,8.8-11.5,13.2-17.3c2-1.8,4.1-0.9,6.1-0.2c10,3.6,20.3,5.7,30.8,7.2c2.2,0.9,4.5,1.3,6.8,2
		c2.4,2,3.1,5,4,7.8c5.8,17.5,11.6,35,17.5,52.4c0.6,1.7,0.9,3.4,2.3,5.2c2-1.9,2.6-4.4,3.4-6.7c5.7-17.3,11.7-34.5,17.3-51.8
		c0.9-2.7,1.2-6,4.7-7.1c2.2,0.5,3.6-1.3,5.5-1.7c9.9-1.3,19.6-3.5,29.1-6.7c2.1-0.7,4.4-2.1,6.7-0.3c11.9,8.4,17.6,20.9,22.5,33.9
		c11.9,31.9,11,63.4-3.2,94.4c-6.1,13.3-9,13.9-19.7,3.6c-4.4-4.2-8.4-8.9-12.2-13.7c-1.9-2.5-2.9-2.8-6-1.2
		c-5.8,3.1-7.8,7.1-7.4,13.6c0.6,10.8,0.1,21.7,0.1,32.6c-6.8,1.8-12.2-1.8-17.7-4.7c-2-1.1-1.9-3.8-2-6c-0.2-4.7,0-9.5-0.1-14.3
		c-0.1-2,0.5-4.3-1.7-5.9c-2.5,1.6-1.9,3.9-2,6c-0.2,4.9,0.2,9.9-0.2,14.8C215.7,371.6,213,373.3,206.5,371.8z"/>
	<path class="st2" d="M265.5,212.3c-12.3,2.9-24.5,5.8-36.8,8.8c-1.3-1.7-0.5-3.4,0.1-5.1c2.7-7.2,4.6-14.8,7.5-21.9
		c2.9-7,2.5-13.8-0.3-20.8c-3.3-8.1-3.1-8.5,5.4-7.9c13.5,1,25.8-1.6,36.9-10.1c25.9-19.8,25.9-60.3-0.3-79.7
		c-18.8-13.9-43.9-13.6-62.2,0.9c-5.2,4.1-8.9,9.5-12.3,15.1c-3.7,6.1-5.1,6.2-8.6-0.3c-7.9-14.4-20.2-22.4-36.1-25.4
		c-27.5-5.2-55.4,16-57.9,43.9c-2.2,24.8,11.2,45.5,34.4,53.6c7.5,2.6,15.3,1.8,23,1.8c6.5,0.1,7.1,0.6,4.4,6.8
		c-3,6.9-2.9,13.7-0.6,20.8c2.3,7.2,5,14.2,7.2,21.4c0.7,2.2,2,4.4,0.4,6.8c-12.7-3-25.5-5.9-38.2-8.9
		c-13.4-6.4-26.8-12.7-37.3-23.6c-16.2-16.8-22.1-36.5-16.9-59.3c5.1-22.6,16.3-42.1,30.9-59.9c13.6-16.6,29.9-29.7,49.2-39.2
		c11.4-5.5,23.4-7.9,35.8-9.6c24.8-3.5,48.5,0.3,70.9,11c12.1,5.8,23.3,13.5,34.9,20.3c-0.3,0.7-0.6,1.4-1,2.1
		c-9-2.1-18.1-4.2-28.5-6.6c4.6,4.6,8.2,8.2,11.8,11.9c17.3,17.6,30.5,37.8,37.8,61.5c6.6,21.3,5.5,41.8-8.2,60.3
		c-8.7,11.6-20.4,19.7-33.3,26C273.6,209.2,269.5,210.6,265.5,212.3z"/>
	<path class="st3" d="M206.5,371.8c7.6-0.4,8.2-1,8.2-8.2c0-5.5-0.3-11.1,0.2-16.5c0.2-1.8,2.5-3.4,3.9-5.1c0.8,1.6,2.3,3.2,2.4,4.8
		c0.3,6.3-0.2,12.6,0.3,18.9c0.1,1.9,2,4.6,3.8,5.4c4.6,2,9.6,3.1,14.5,4.5c-1.1,3.4-3.4,4.5-7.5,3.2c-2.5-0.8-5-1.7-8.7-2.9
		c1.5,3.2,2.5,5.4,3.5,7.7c-5.3,1.7-7.1-2.1-8.4-5.3c-1.5-3.4-3-3.8-6.3-2.4c-2.7,1.2-5.8,1.4-10.6,2.4
		C204.1,375,205.3,373.4,206.5,371.8z"/>
	<path class="st3" d="M158.7,376.4c5.1-1.8,10.4-3.3,15.3-5.6c1.7-0.8,3.3-3.6,3.5-5.7c0.4-6.3,0-12.7,0.2-19c0-1.4,1.3-2.7,2-4.1
		c1.3,1.4,3.6,2.6,3.7,4.1c0.4,5.7,0.2,11.5,0.2,17.2c0,7.2,0.7,7.9,8.1,8.5c1.2,1.5,2.4,3,4.6,5.8c-4-0.5-7.1-0.2-9.4-1.4
		c-4.1-2.2-5.8-1.2-7.6,2.8c-1.2,2.8-3,6.4-7.7,4.4c0.4-0.9,0.9-1.7,1-2.6c0.2-1.3,0-2.7,0-4c-1.3,0.2-2.5,0.7-3.8,0.7
		c-3.5,0-7-0.1-10.5-0.2c0,0-0.1-0.3-0.1-0.5C158.4,376.6,158.6,376.5,158.7,376.4z"/>
	<path class="st3" d="M225,221.1c-1.2,2-2.7,3.8-3.4,5.9c-6,17.5-11.7,35.2-17.7,52.7c-1.3,3.7-3.4,7.1-5.2,10.7
		c-1.4-3.3-3-6.6-4.2-10c-6-17.8-11.8-35.6-17.7-53.3c-0.7-2-2-3.8-3-5.6c-2.4-7.9-5.4-15.6-8.4-23.4c-4.7-12.5-2.8-23.4,5.5-33.7
		c8.1-10,17.8-15.5,31.2-14.6c8.7,0.6,14.8,5.5,20.7,10.5c13.2,11,16,26.5,8.6,42.2c-2.2,4.7-3.9,9.5-4.6,14.6
		C226.6,218.6,226.6,220.2,225,221.1z"/>
	<path class="st4" d="M225,221.1c1.8-6.9,2.7-14.1,5.4-20.5c6.4-15,3.3-31.7-13.1-43.2c-11.4-8-22.3-8-33.4-2.9
		c-5.4,2.5-9.4,8.5-13.4,13.4c-9.7,11.7-5.5,23.8-1.2,36.3c1.9,5.5,6.7,10.5,4.6,17.2c-1.4-0.1-2.9-0.2-4.3-0.3
		c-2.5-7.7-4.6-15.5-7.6-23.1c-4.2-10.7-5.4-21,2-31.2c-37.7,0.9-59.2-13.5-64.5-42.7c-4.3-23.5,10.3-48.3,32.3-56.7
		c24.5-9.4,53.7,0,67.4,28.7c7-14.1,16.8-24.6,31.7-29.5c15-4.9,29.3-3.7,42.7,4.4c22,13.3,31.3,38.6,22.7,62.1
		c-7.4,20.3-27,38.3-61.2,33.3c1.5,4.5,3.7,8.8,4.2,13.3c0.5,4.5-0.1,9.4-1.4,13.8c-2.7,9.3-6.1,18.3-9.3,27.5
		C227.4,221.1,226.2,221.1,225,221.1z"/>
	<path class="st5" d="M202.7,114.9c0.3-24.8,20.6-44.5,45.6-44.2c24.2,0.3,44.6,20.9,44.5,45c-0.2,24.7-21.3,45.7-45.6,45.2
		C222.2,160.5,202.4,139.9,202.7,114.9z"/>
	<path class="st5" d="M106.1,115.6c-0.1-24.7,19.6-44.7,44.2-44.9c25-0.1,45.1,19.7,45.2,44.5c0.1,25.1-20,45.5-44.9,45.7
		C126.3,161,106.2,140.6,106.1,115.6z"/>
	<path class="st6" d="M272,116.1c-0.3,16.3-13.1,28.6-29.5,28.3c-15.6-0.3-28.4-13.7-28-29.4c0.4-16,13.5-28.2,29.9-27.9
		C260.1,87.5,272.3,100.4,272,116.1z"/>
	<path class="st6" d="M155.4,87.1c16,0.1,28.3,12.7,28.3,28.8c-0.1,15.9-12.8,28.5-28.7,28.4c-16.2,0-28.7-12.8-28.6-29.2
		C126.5,99.3,139.2,87,155.4,87.1z"/>
	<path class="st5" d="M264.4,108.4c-0.2,3.7-3.3,5.7-7.8,5.7c-6.4,0.1-13.7-6.5-14.5-12.8c-0.5-4.2,1.4-6.9,5.4-7.9
		C254.6,91.6,264.6,99.7,264.4,108.4z"/>
	<path class="st5" d="M176.1,109c-1.5,1.2-3.7,4.2-6.5,4.9c-6.9,1.6-15.6-6.2-15.9-13.3c-0.1-4.3,2.1-6.6,6.2-7.2
		C166.9,92.3,175.8,99.8,176.1,109z"/>
</g>
</svg>
