<?xml version="1.0" encoding="utf-8"?>
<!-- Generator: Adobe Illustrator 22.1.0, SVG Export Plug-In . SVG Version: 6.00 Build 0)  -->
<svg version="1.1" id="Layer_1" xmlns="http://www.w3.org/2000/svg" xmlns:xlink="http://www.w3.org/1999/xlink" x="0px" y="0px"
	 width="400px" height="400px" viewBox="0 0 400 400" style="enable-background:new 0 0 400 400;" xml:space="preserve">
<style type="text/css">
	.st0{fill:#FFFFFF;}
	.st1{fill:#7F7F7F;}
	.st2{fill:#050505;}
	.st3{fill:#CDCDCD;}
	.st4{fill:#373737;}
	.st5{fill:#575757;}
	.st6{fill:#FEFEFE;}
</style>
<circle class="st0" cx="200.5" cy="199.6" r="200"/>
<g>
	<path class="st1" d="M130,242.1c-6.2-2.6-12.6-5-18.7-7.9c-14-6.9-27.3-5.9-40.3,2.4c-1.6,1-3.3,2-6,3.7c1.4-6.6,2.5-12.2,3.9-17.7
		c6.9-25.7,16.9-50.2,29.5-73.6c0.6-1.2,0.7-3.2,0.2-4.5c-8.8-20.8-13.6-42.7-17.2-64.9c-0.2-1.3-0.2-2.7-0.2-4.1
		C81,67.8,82,66.8,89,69.8c19.4,8.2,37.6,18.4,52.8,33.3c0.8,0.8,2.5,1.6,3.2,1.2c16-7.8,32.7-9.9,50.1-6.7c5.6,0,10.5,2.5,15.4,4.6
		c2.8,1.2,4.8,0.9,6.8-1.4c3-3.4,6.7-6,9.9-9.2c9.5-5.7,18.5-12.3,28.6-17c4.9-2.3,9.5-5.2,14.8-6.4c5.6-1.3,7.1-0.1,7.3,5.6
		c0.3,8.8-1.9,17.3-3.7,25.8c-3.4,14.5-6.9,29-12.9,42.7c-1.6,3.7-1.2,6.6,1.4,9.5c7.2,15.1,14.5,30.3,20.1,46.1
		c2.3,6.5,4.1,13.1,6.5,19.6c1.1,5.9,3,11.6,3.8,17.6c0.2,1.7,1.4,3.8-0.6,4.9c-1.6,0.9-3.1-0.5-4.5-1.4c-8-5.1-16.6-8.4-26.3-7.5
		c-7.3,0.7-13.7,4.1-20.3,7c-3,1.3-6,2.7-9.1,3.9c-1.6,0.6-3.2,1-4.7-0.3c-0.7-1.3-0.5-2.6-0.2-3.9c2.1-8.9,0.1-17.4-2.8-25.8
		c-0.5-1.4-1.2-2.8-0.8-4.3c1.2-2,3.5-2.1,5.5-2.8c18.2-6.4,29.4-25.5,26.1-44.5c-3.3-19.1-20.7-33.9-40-33.2
		c-13.3,0.5-24.5,5.7-32.3,17c-3.6,5.2-4.3,5.3-7.9,0.2c-13.2-18.9-39.8-23.2-58.1-8.1c-11.4,9.4-16.3,21.8-14.2,36.6
		c2.2,15.4,10.9,25.7,25.1,31.7c2.2,0.9,4.8,0.9,6.4,3.1c0.4,1.4-0.1,2.7-0.6,3.9c-3.1,8.3-4.6,16.8-3.2,25.7
		C130.7,238.6,131.5,240.6,130,242.1z"/>
	<path class="st2" d="M262.1,152.1c-3.3-2.7-3.6-5.4-2.1-9.7c4.5-12.7,8.1-25.6,12-38.5c0.4-1.4,0.8-2.9,1.2-4.3
		c0.6-1.1,1.7-1.3,2.8-1c6.6,1.4,13.2-0.9,19.8-0.5c2.4,0.2,4-0.9,4.6-3.4c2.8-11.8,7.5-22.5,16.9-31c-2.1-1.7-4.4-1.8-6.5-2.4
		c-21.4-6.1-43.2-9.8-65.6-8.5c-14,0.8-27.1,4.4-37.1,15.2c-2.4,2.6-4.2,5.5-5.3,8.8c-1.3,4-0.8,5.4,3.2,7.1
		c5.4,2.3,10.8,4.5,16.5,6.3c1.6,0.5,3.3,0.6,4.5,2c-2.2,2.3-4.7,4.3-6.5,6.9c-4,5.7-8.4,6-14.1,2.5c-3.3-2-7.4-2.8-11.2-4.1
		c0.3-5.1,0.5-10.2,0.9-15.3c1.2-13.2,8.2-22.3,19.8-28.2c13-6.7,27-7.8,41.3-7.4c23.1,0.6,47.8,6.3,71.2,13.5c-0.1,0.4,0,1-0.3,1.2
		c-15.3,11.9-21.3,28.7-24.2,46.9c-3.9,24.3-2.9,48.7,0.6,72.9c5.2,36.4,11.6,72.7,17,109.1c1.6,11,2.2,22.2,2.2,33.3
		c0,13.4-3.7,17.3-17,18.1c-18.9,1.1-37.9,1.5-56.9,2.2c-3.4,0.4-2.9-1.6-2.4-3.7c1-1.1,2.4-1.4,3.7-1.3c7.1,0.3,14.1-1.2,21.2-1
		c10.3,0.3,20.5-0.7,30.7-1.8c11.1-1.2,14.2-4.7,14.8-16c0.4-8.2-0.2-16.3-1.2-24.4c-1-7.8-2.1-15.5-3.5-23.3
		c-0.8-4.7-1.4-5.2-5.9-4.4c-16.5,3-33.1,5-49.8,6.2c-11.1,0.8-22.2,0.7-33.4,0.1c-2.3-4.2-1.1-8.8-1.2-13.3
		c-0.1-10.9-0.3-9.1-9.1-7.2c-25,5.2-49.8,5.4-74.6-0.9c-1.9-0.5-3.9-0.7-5.2-2.5c-0.1-2.1-0.2-4.1-0.4-6.2c2.4-1.9,5-0.6,7.3,0
		c13.3,3.6,27,5,40.6,4.8c14.1-0.3,28.2-2.2,41.8-6.4c1.6-0.5,3.1-1.1,4.8-0.8c5.4-2.2,11.1-3.8,16.2-6.6
		c16.2-8.6,31.5-6.8,46.2,3.5c0.5,0.3,1,0.6,2.5,1.6c-1.8-8.4-3.4-15.8-5.1-23.3c3-2.4,6.7-2.4,10.2-3c3.4-0.5,4.6-2.1,4.1-5.5
		c-1.9-13.4-3.8-26.8-4.8-40.3c-0.3-3.6-0.4-7.2-0.6-10.8c-0.3-5.2-1.5-6.5-6.8-5.7c-6.7,1-13.5,0.4-20.2,1.5
		C267.4,153.5,264.6,153.7,262.1,152.1z"/>
	<path class="st3" d="M228.3,241.7c-8.9,2.3-17.8,5.4-26.8,6.7c-22.1,3.3-44,2-65.5-4.3c-0.7-0.2-1.5,0-2.2-0.1
		c-1.2-0.7-2.5-1.4-3.7-2c-2.5-12-1.2-23.6,3.9-34.8c1.1-1.4,2.5-0.7,3.8-0.6c16,0.9,28.9-4.5,38-18c2.6-3.8,3.9-3.9,6.3-0.4
		c9.5,14,22.7,19.6,39.2,18.3c1-0.1,2.1-0.4,2.9,0.7C229.2,218.4,230.8,229.8,228.3,241.7z"/>
	<path class="st1" d="M134.1,250.3c8.7,1.6,17.3,3.6,26.1,4.7c20.1,2.5,39.9,1,59.5-4.2c3.5-0.9,4.9-0.7,4.7,3.4
		c-0.2,6.5,0.1,12.9,0.2,19.4c0.9,1.5,1.2,3.1,1.2,4.8c0,10.4,0.2,20.7-0.1,31.1c0,8.7,0.1,17.3,0,26c-0.1,5.1-1.3,5.7-5.4,2.9
		c-2.9-2.1-6.7-2.6-9.1-5.6c-1-2.1-0.8-4.4-0.8-6.7c0-13.7,0-27.4,0-41.1c-0.1-12.5-5.4-17.8-18-17.8c-8.9,0-17.8,0-26.6,0
		c-12.3,0.1-17.6,5.3-17.7,17.7c-0.1,13.7,0,27.4,0,41.1c0,2.2,0.2,4.5-0.7,6.7c-3.2,3.3-7.7,4.6-11.4,7.1c-1.3,0.9-2.6,0.1-2.7-1.3
		c-0.4-9.5-1.9-19.1,0.8-28.6c0-18.6,0-37.1,0-55.7C133.8,253,134,251.7,134.1,250.3z"/>
	<path class="st4" d="M211.5,332.7c4.1,2.1,8.2,4.1,12.8,6.4c0-9.5,0-19.2,0-28.9c5.3-1.8,11.8,2.8,12.7,9.1c0.4,2.5,0.4,5.1,0,7.6
		c-0.4,2.5,0.4,3.8,2.7,4.9c3.4,1.8,6.8,3.9,8,8c0.7,1.3,1.4,2.6,2.2,3.9c-0.3,2.4-1.3,3.5-4.1,3.3c-5.5-0.3-11.1-0.1-16.7-0.1
		c1.1,6.4,1.1,6.4-5.5,6.4c-29.8,0-59.7,0-89.5,0c-6.3,0-6.3,0-4.8-6.4c-5.5,0-10.9,0-16.2,0c-4.8,0-4.9-0.3-3-4.8
		c2.1-4.7,5.6-7.9,10.3-9.5c2.8-1,3.3-2.1,2.4-5c-2.8-9.2,1.7-16.3,11-17.8c0,9.7,0,19.5,0,29.3c4.4-2.3,8.6-4.4,12.8-6.6
		c7-3.6,19.1-1.2,26,5c2.4,2.2,4.3,4.9,6.5,7.9c2.1-3,4.1-5.7,6.5-7.9C192.4,331.5,204.5,329.2,211.5,332.7z"/>
	<path class="st5" d="M227,92.2c-8.3-2.9-16.7-5.7-24.9-9c-0.9-0.4-1.3-3.5-1-5.1c2.2-9.2,8.5-15.5,16.6-19.1
		c7.9-3.5,16.4-6.5,24.9-7.2c26.4-2.4,52,2.9,77.4,10.8c-3.1,3.5-6.9,6.5-8.9,10.3c-3.6,7-6.4,14.5-9.1,21.9c-1.1,3-2,4.8-5.8,4.7
		c-7.6-0.2-15.3,0-23,0.1c1.2-8.1,2.3-16.2,3.5-24.4c0.1-0.9-0.1-1.8,0-2.7c0.5-3.7-1.7-4.7-4.6-3.7c-5.1,1.8-10.2,3.6-14.9,6.2
		c-8.9,5-17.4,10.5-26.2,15.8C229.9,91.6,228.4,91.8,227,92.2z"/>
	<path class="st2" d="M224.1,207.3c-19.7,2.9-34.6-4.4-45.1-21.6c-10.5,17.2-25.4,24.5-45.1,21.6c-20.5-5.9-32.7-20.9-32.7-40.2
		c0-18.2,11.8-34.2,28.9-39.5c17.5-5.4,36.3,1.2,46.3,16.6c2.3,3.6,3.2,3.3,5.4-0.1c9.8-15,28.3-21.7,45.5-16.7
		c16.8,4.9,29.1,20.3,29.6,37c0.5,19.4-10,35.2-27.5,41.3C227.6,206.3,225.9,206.8,224.1,207.3z"/>
	<path class="st5" d="M262.1,152.1c10.5-0.7,21-1.3,31.4-2.2c3.2-0.3,4.3,0.9,4.5,3.8c0.6,8.5,1.2,17.1,2.1,25.6
		c1.1,10.6,2.5,21.2,4,31.7c0.3,2.3,0.2,3.3-2.3,3.6c-4.6,0.6-9.2,1.5-13.7,2.2c-6.8-21.2-14.8-42-25.1-61.8
		C262.5,154.2,262.4,153.1,262.1,152.1z"/>
	<path class="st3" d="M93.2,88.7c-0.3-3.5,2-3.4,4.1-2.4c4.1,1.9,8.2,3.8,11.9,6.3c7.2,4.8,14.3,10,21.3,15.1c2.7,1.9,3,3.4-0.1,6.1
		c-7.4,6.3-14.2,13.3-21.2,20.1c-1.1,1.1-2.4,3.4-3.4,0.3c-4.7-15-9.3-30-13.9-45.1C92.3,88.9,92.8,88.8,93.2,88.7z"/>
	<path class="st3" d="M264.8,90.1c-0.9,4.1-1.9,9.7-3.5,15.2c-2.7,9.4-5.9,18.6-8.7,27.9c-0.9,2.8-1.8,2.4-3.6,0.7
		c-7.5-7.1-15.1-14.1-22.5-21.3c-0.7-0.6-0.6-3.2,0-3.8c10.4-9,21.5-16.9,34.1-22.5C262.8,85.3,265.1,85.1,264.8,90.1z"/>
	<path class="st5" d="M247.6,339.9c-3.7-2.7-7.4-5.2-10.9-8.1c-0.8-0.7-1.2-2.4-1.1-3.6c0.3-4.8,1.6-9.6-2.4-13.9
		c-2.5-2.7-5.3-4.3-8.9-4.1c0.1-12.2,0.1-24.4,0.2-36.5c7.2-0.2,14.5,0.1,21.7-0.7c20.8-2.1,41.5-4.4,62.2-6.9
		c3.7-0.4,5.3-0.2,5.9,3.9c2.4,16.5,5.6,32.9,4.9,49.7c-0.1,1.6-0.3,3.3-0.6,4.9c-1.8,9.3-4.6,12-14.2,12.6
		C285.5,338.3,266.6,339.1,247.6,339.9z"/>
	<path class="st2" d="M211.6,227.9c-13,10.1-52,10-65.5-0.2c5.5,1.1,10.4,2.3,15.3,3.1c4.3,0.7,8.7,0.8,13,1.3
		c2.3,0.3,3-0.5,2.8-2.7c-0.1-0.9-0.2-1.8,0-2.7c0.8-4.2-0.5-6.6-5.2-7.1c-1.8-0.2-3.6-1.5-5.1-2.7c-3.1-2.7-3-5.7,0.1-8.5
		c5.3-4.9,18.8-4.8,24,0.1c3.1,2.9,3.2,5.7,0,8.4c-1.3,1.1-3,1.9-4.6,2.7c-1.8,0.8-5,1-5.3,2.2c-0.8,2.8-0.5,6-0.1,8.9
		c0.1,0.6,2.3,1.4,3.5,1.3c8.2-1.2,16.3-2.6,24.4-3.9C209.6,228,210.4,228,211.6,227.9z"/>
	<path class="st3" d="M211.5,332.7c-5.5,0.3-11.2-0.2-16.4,1.2c-7.5,1.9-12.7,7.2-15.8,14.9c-0.6-0.8-1-1.2-1.3-1.6
		c-5.8-11.1-16-16.4-28.4-14.7c-1,0.1-2.1,0.1-3.1,0.2c0-16.3,0-32.5,0-48.8c0-12,6-18,18.1-18c10.1,0,20.2,0,30.3,0
		c10.1,0,16.6,6.5,16.6,16.6C211.5,299.3,211.5,316,211.5,332.7z"/>
	<path class="st6" d="M108.1,166.7c0.3-19.3,15.5-34.1,34.8-33.9c19,0.2,33.7,15.8,33.4,35.3c-0.3,18.3-15.9,33.2-34.4,33
		C122.9,200.8,107.8,185.5,108.1,166.7z"/>
	<path class="st6" d="M215.8,201.1c-18.8,0-34.1-15.3-34.1-34.2c0-18.9,15.2-34,34.2-34.1c18.8,0,34.1,15.3,34.1,34.2
		C250.1,185.8,234.7,201.1,215.8,201.1z"/>
	<path class="st2" d="M123.7,166.8c0-12.1,9.7-21.7,21.8-21.6c12,0,21.7,9.8,21.7,21.8c0,12.2-10,22.1-22.1,21.9
		C133.1,188.7,123.7,179,123.7,166.8z"/>
	<path class="st2" d="M234.4,167.3c-0.1,12-10,21.7-22,21.7c-11.9-0.1-21.8-10.1-21.7-22c0-12,9.9-21.8,21.9-21.8
		C224.9,145.1,234.5,154.9,234.4,167.3z"/>
	<path class="st6" d="M154.9,165.6c-5.6-0.3-10.8-5.8-10.4-10.9c0.3-3.9,2.9-4.9,6.3-4.7c5.5,0.3,11,6.1,10.5,10.9
		C160.9,164.7,158.4,165.9,154.9,165.6z"/>
	<path class="st6" d="M222.5,165.6c-5.5-0.2-11.3-5.8-10.9-10.7c0.3-3.7,2.6-5.1,6.2-5c5.4,0.2,11.2,5.8,10.9,10.7
		C228.4,164.4,226,165.8,222.5,165.6z"/>
</g>
</svg>
