<?xml version="1.0" encoding="utf-8"?>
<!-- Generator: Adobe Illustrator 22.1.0, SVG Export Plug-In . SVG Version: 6.00 Build 0)  -->
<svg version="1.1" id="Layer_1" xmlns="http://www.w3.org/2000/svg" xmlns:xlink="http://www.w3.org/1999/xlink" x="0px" y="0px"
	 width="400px" height="400px" viewBox="0 0 400 400" style="enable-background:new 0 0 400 400;" xml:space="preserve">
<style type="text/css">
	.st0{fill:#FFFFFF;}
	.st1{fill:#D1AE51;}
	.st2{fill:#4E9F53;}
	.st3{fill:#2A692D;}
	.st4{fill:#FAF9F5;}
	.st5{fill:#060606;}
</style>
<circle class="st0" cx="200.5" cy="199.6" r="200"/>
<g>
	<path class="st1" d="M149.5,301.3c-31-0.6-61.5-4.2-89.2-19.2c-27-14.6-38.8-34.3-35.9-68.2c1.9-22.2,8.4-42.9,20.7-61.6
		c1-1.4,2.1-2.7,3.2-4.1c8.8-6.9,19.8-8.5,30-11.6c18.4-5.5,37.6-7.8,56.7-6.7c32.5,1.8,64,8.3,91.3,27.6
		c15.3,10.8,28.3,24,33.6,42.6c4.6,16.2,2.9,32-6,46.5c-11.6,18.9-28.6,31.7-48.5,40.7c-14.8,6.7-30.3,10.7-46.3,13.3
		C155.8,301,152.5,299.9,149.5,301.3z"/>
	<path class="st2" d="M149.5,301.3c1.5-0.6,3-1.5,4.6-1.9c13.2-3.1,26.6-5.3,39.5-9.2c13.8-4.2,26.4-11.3,37.7-20.5
		c13.7-11.2,25-24.2,28.4-42.1c2.9-15.4,0.4-30.1-8.8-43.4c-15-21.6-35.9-34.3-60.3-42.7c-21.7-7.4-43.9-10.7-66.5-10.1
		c-20.6,0.6-41,3.8-60.5,11.4c-5,2-10.1,3.6-15.2,5.4c7.4-10.5,16.3-19.7,26.5-27.5c21.8-16.5,46.5-25.9,73.7-29.2
		c2.6-0.3,5.4-1.6,7.6-3.1c31.2-22.1,66-34.4,103.7-39.1c0.7-0.1,1.4-0.1,2.1,0c0.3,0,0.7,0.2,1.5,0.5c-2.1,5-4.2,10-6.3,15
		c-6.3,15.1-10.5,30.8-11.5,47.2c-0.1,2.1,0.9,5,2.4,6.2c16.1,11.9,29.9,26,41.3,42.5c0.5,0.7,1.2,1.2,1.9,1.8
		c6.6,6.7,10.2,15.3,13.5,23.8c5,13.1,9.3,26.5,5.9,40.8c-3.1,13.3-9.8,24.5-20.6,33c-4.5,3.2-8.9,6.8-13.7,9.6
		c-8.4,5.1-17.1,9.8-25.6,14.6c-1.7,1.9-4.1,2.7-6.4,3.5c-21.5,7.5-43.4,12.6-66.2,14.2c-8.5,0.6-16.9,0.9-25.4,0.7
		C151.5,302.3,150.5,301.8,149.5,301.3z"/>
	<path class="st3" d="M289.9,260.1c4-5.1,8.3-10,11.9-15.4c9.5-14.6,11.1-30.5,5.3-46.6c-4.1-11.2-9.8-21.8-14.7-32.7
		c-0.4-1-0.8-2-1.1-2.9c25.3-25.9,64.8-29.1,89.3-18c-59.8,29-61.4,104.5-0.1,135.1C358.1,290.7,315.1,288.2,289.9,260.1z"/>
	<path class="st3" d="M152.6,302.8c0.7-0.5,1.4-1.4,2.1-1.4c32.2,0.6,63.3-5,93.3-16.6c0.8-0.3,1.7-0.2,2.6-0.4
		c-2.5,18.5,2.9,35.3,12.2,52.7c-8.1-1-15.1-1.6-22.1-2.7c-25.5-4.1-50.1-11.1-73.3-22.5C162.2,309.3,157.5,305.8,152.6,302.8z"/>
	<path class="st4" d="M209.2,197.1c0.9,21.8-18.5,40.2-39.8,40.3c-22.2,0.1-40.9-18.4-40.8-40.2c0.2-22.4,18.2-40.6,40.4-40.6
		C191.4,156.7,209.2,174.7,209.2,197.1z"/>
	<path class="st4" d="M82.4,237.5c-22.3-0.1-40.5-18.4-40.3-40.7c0.2-22.3,18.4-40.2,40.9-40.1c22,0.1,39.8,18.3,39.8,40.6
		C122.7,219.3,104.3,237.6,82.4,237.5z"/>
	<path class="st5" d="M45.3,243.9c6.6,5,12.8,11,20,14.7c19.3,9.8,40.1,13.9,61.7,14.2c23.2,0.4,45.5-2.9,66.3-13.7
		c3.2-1.7,6.3-3.4,9.8-4.5c-11.5,10.6-25.6,15.7-40.4,19.2c-18.1,4.2-36.4,4.1-54.7,1.7c-19.5-2.6-37.7-8.9-53.4-20.9
		C51,251.7,48.4,247.5,45.3,243.9L45.3,243.9z"/>
	<path class="st5" d="M213.5,246.1c-1.7,2.1-3.3,4.3-5.2,6.3c-0.5,0.5-1.8,0.2-2.7,0.3c0.2-0.9,0.1-2.1,0.7-2.6
		c2.1-1.7,4.5-3.2,6.7-4.7C213.1,245.7,213.3,245.9,213.5,246.1z"/>
	<path class="st5" d="M45.4,243.9l-0.2-0.1C45.2,243.8,45.3,243.9,45.4,243.9C45.3,243.9,45.4,243.9,45.4,243.9z"/>
	<path class="st5" d="M139.7,197.1c0-14.4,11.2-25.6,25.5-25.6c14.5,0,25.9,11.5,25.8,25.9c-0.1,14.1-11.6,25.4-25.9,25.3
		C150.8,222.7,139.7,211.4,139.7,197.1z"/>
	<path class="st5" d="M86,222.7c-14.1,0-25.8-11.6-25.7-25.6c0.1-14.2,11.6-25.6,25.7-25.6c14.4,0,26.3,11.8,26,25.9
		C111.9,211.4,100.2,222.7,86,222.7z"/>
	<path class="st4" d="M170.7,176.9c5.7-0.1,12.3,5.4,13.2,11.1c0.7,4.3-1.6,7.3-5.9,7.7c-6.1,0.6-13.7-6.1-13.8-12.2
		C164.2,179.5,166.6,177,170.7,176.9z"/>
	<path class="st4" d="M91.3,176.9c6.9,0.2,13.7,6.7,13.6,12.6c-0.1,4.6-3.1,6.2-7,6.3c-6.1,0.1-13.3-7-13-12.6
		C85.1,178.9,87.8,177.1,91.3,176.9z"/>
</g>
</svg>
