<?xml version="1.0" encoding="utf-8"?>
<!-- Generator: Adobe Illustrator 22.1.0, SVG Export Plug-In . SVG Version: 6.00 Build 0)  -->
<svg version="1.1" id="Layer_1" xmlns="http://www.w3.org/2000/svg" xmlns:xlink="http://www.w3.org/1999/xlink" x="0px" y="0px"
	 width="400px" height="400px" viewBox="0 0 400 400" style="enable-background:new 0 0 400 400;" xml:space="preserve">
<style type="text/css">
	.st0{fill:#FFFFFF;}
	.st1{fill:#6D4B31;}
	.st2{fill:#3A2E25;}
	.st3{fill:#FBAC04;}
	.st4{fill:#F8F8F7;}
	.st5{fill:#060606;}
</style>
<circle class="st0" cx="200.5" cy="199.6" r="200"/>
<g>
	<path class="st1" d="M136.4,215.1c-1.4-1-2.6-2.4-4.2-3c-11.7-4.9-22.5-11.3-31.5-20.4C84.2,175,79.1,155,85.5,132.6
		c12.1-42.2,37.5-74.4,77.7-92c40.5-17.7,80.1-11.2,117.1,12.2c4.6,2.9,8.9,6.2,13.4,9.4c0.2,0.2,0.2,0.7,0.6,1.7
		c-9-2-17.6-4-26.2-6c-0.3,0.4-0.5,0.8-0.8,1.2c6.1,5.9,12.6,11.5,18.1,17.9c12.8,14.7,22.6,31.3,28.4,50.1
		c9.9,32.6-0.1,59.1-29.3,76.6c-6.6,3.9-13.8,6.8-20.7,10.2c-2.1,2.9-5.4,3.3-8.4,4.1c-6.7,1.7-13.5,3.6-20.3,4.8
		c-6.3,1.1-8.2-1.1-6-7c2.3-6.6,4.2-13.3,6.6-19.8c2.3-6.2,2.5-12.3-0.5-18.6c-3.3-7-1.8-8.9,5.8-8c30.2,3.5,56.8-22.5,52.7-52.8
		c-3.3-24.3-21.3-41.2-45.8-42c-18.2-0.6-33.1,7.5-42.9,23.6c-0.3,0.5-0.5,1-0.9,1.4c-1.3,1.7-1.6,4.8-4.3,4.6
		c-2.2-0.2-2.8-2.8-3.7-4.6c-9.7-18.2-30.6-28.3-50.2-24.3c-21.3,4.3-36.4,20.9-38.7,42.2c-3,28.2,18.3,53.3,49.7,52.3
		c1.7-0.1,3.4-0.3,5.1-0.2c3.7,0.2,5,2.1,4,5.6c-0.6,2.2-1.3,4.3-2.1,6.4c-1.4,3.9-1.2,7.6,0.3,11.5c2.8,7.6,4.9,15.4,7.6,23
		c2.1,5.7,0.5,7.8-5.7,6.8c-7.4-1.2-14.7-3.3-21.9-5.4C141.7,217,138.6,217.3,136.4,215.1z"/>
	<path class="st1" d="M249.3,323.6c-3.5,2.2-7,4.5-10.5,6.7c-2.7,2.8-6.2,4.1-9.7,5.3c-4.1,1.3-5.5,3.8-5.3,7.9
		c0.2,4.8,0.1,9.7,0,14.5c0,2.2,0.2,4.5-1.6,6.3c-3.5-1.1-2.5-4.2-2.7-6.6c-0.5-5.7,0.5-11.5-0.8-18.1c-2.1,2.5-1.4,4.7-1.6,6.8
		c-0.3,3.7,0.9,7.5-1.5,10.9c-4-0.5-2.8-3.9-2.9-6.1c-0.6-10.3-0.5-10.2-10.6-10.3c-5.2,0-10.5,0.6-15.6-1.1
		c-2.4-0.5-4.7-1.2-7.1-1.8c-5.9-2.3-12.4-3.3-17.4-7.7c-0.3-0.1-0.4-0.3-0.4-0.7l0.1,0c-3.6-2.1-7.2-4.1-10.8-6.2
		c-9.3-5.7-15-14.4-20.2-23.6c-5.3-9.4-7.6-19.7-8-30.2c-0.7-17.1,4.8-32.5,15.3-46.1c1.8-2.4,4.3-3,7.1-2.1
		c11.1,3.8,22.8,4.8,34,7.7c2.5,1.5,3.1,4.1,4,6.6c5.5,17,11.2,33.8,17,51.3c5.6-15.5,10.3-30.9,15.6-46c1.1-3.2,2.2-6.4,3.1-9.6
		c0.5-1.7,0.8-3.8,3.2-4.1c4.7,1.5,9.3,0,13.8-0.9c6.3-1.2,12.6-2.4,18.6-4.4c3.9-1.3,6.5-0.1,8.8,3c16.7,23.2,19.9,47.9,7.1,73.7
		C265.6,308.5,259.2,317.7,249.3,323.6z"/>
	<path class="st2" d="M179.3,229.9c-4.7-0.6-9.4-1-14-2c-7.1-1.5-14.2-3.5-21.3-5c-1.4-0.3-3.9,0.4-4.7,1.4
		c-12.5,17-18,35.8-13.5,56.9c3.4,16.1,11.4,29.3,23.8,40c0.6,0.6,0.9,1.5,1.4,2.3c-6.5,6.9-12.9,14-19.6,20.7
		c-3.2,3.2-6.3,2.2-8.6-1.8c-11.1-19.1-15.6-39.8-14.2-61.7c1.1-17.2,5.4-33.8,14.1-48.8c3.6-6.2,9-11.3,13.6-16.9
		c8.4,1.9,16.7,3.7,25,5.6c0.9,0.2,1.8,0.8,2.7,0.8c2.4,0.1,4.8,0.1,7.2,0.1c-0.5-2.1-0.8-4.2-1.5-6.2c-2.7-8.2-6.2-16.1-7.9-24.5
		c-0.9-4.4,0.9-9.5,2.2-14.1c1.6-5.9,1.7-6.1-4.3-5.6c-16.9,1.4-31.5-3.5-42.7-16.6c-8.7-10.2-12.6-22-11.5-35.7
		c1-13.5,6.4-24.6,16.5-33.2c16.9-14.4,37.4-16.9,56.3-6c9.8,5.7,11.2,5.8,21.9,24.2c8.8-18.9,23.7-29.1,44.2-30.8
		c10.8-0.9,20.8,2.5,29.5,8.6c9.4,6.6,15.5,15.7,19.3,26.8c7.3,21.1-4.6,50-28.3,59.2c-8.8,3.4-17.6,4.8-26.8,2.9
		c-4.6-1-4.1,1.1-2.7,3.8c3.6,6.8,4.6,13.8,2.2,21.2c-2.3,7.1-5,14.1-7.3,21.1c-0.5,1.5-0.5,3.1-0.8,4.7c1.6,0.1,3.4,0.7,4.9,0.3
		c9.8-2.4,19.5-5.1,29.3-7.7c16.8,14.7,23,34.8,26.8,55.6c4.4,23.6,0.5,46.3-9.9,67.8c-0.8,1.7-1.9,3.3-2.8,4.9
		c-2.3,4.2-5.6,5.2-9,1.8c-6.8-6.7-13.2-13.7-19.7-20.6c2.8-3,5.6-5.9,8.3-8.9c15.7-17.4,22.3-37.6,17.7-60.9
		c-2.1-10.4-6.7-19.7-12.9-28.2c-1.7-2.4-3.3-3.5-7-2.4c-8.4,2.4-17.1,3.8-25.6,5.6c-1.6,0.3-3.2,1.3-4.8,1.2
		c-1-0.1-1.9-1.6-2.8-2.4c-1.6-2-0.4-3.9,0.2-5.8c2.5-8.1,4.6-16.2,7.9-24c2.7-6.3,2.2-12.5-0.4-18.6c-5.2-12.6-14.5-20.5-27.9-22.7
		c-7-1.2-13.2,2.8-18.6,6.8c-12.7,9.2-16.5,22.2-11.7,37.3c2.6,8.2,5.9,16.2,8,24.6c0.2,0.8,0.4,1.6,0.5,2.5
		C180.1,228.4,180,229.2,179.3,229.9z"/>
	<path class="st2" d="M185.9,338.2c8.1,0.2,16.3,0.8,24.4,0.5c3.2-0.1,3.9,0.3,4,3.2c0.1,5.2,0.4,10.3,0.7,15.5c1,0.2,1.1,1,1.1,1.9
		c-0.1,1.1-0.4,2.2-0.7,3.2c-1.2,2.6-2.9,4.2-6,3.1c-5.5,0-10.9-0.1-16.4-0.1c-3.8,1.9-7.4,0.8-7.9-3
		C184,354.4,183,346.2,185.9,338.2z"/>
	<path class="st2" d="M222.2,363.8c0-7.8,0.1-15.7-0.1-23.5c-0.1-3.2,1.1-4.6,4.2-5.5c4.2-1.2,8.3-2.9,12.5-4.5c0,9.8,0,19.6,0,29.4
		c-0.3,0.7-0.3,1.4,0,2c0,2,0,3.9,0,5.9c-0.2,0.9-0.8,1.5-1.7,1.8C231.7,368.9,226.3,368.1,222.2,363.8z"/>
	<path class="st2" d="M162.2,330.4c5.7,2.3,11.5,4.5,17.2,6.8c3.1,8.3,1.4,16.9,1,25.4c-0.1,1.1-0.9,2.1-1.9,2.6
		c-4.9,2.3-9.8,4.5-15.4,4.8c-0.7,0-0.9-0.6-1.2-1C162,356,162.1,343.2,162.2,330.4z"/>
	<path class="st3" d="M161.9,368.9c5.3-1.6,10.7-3,15.9-4.9c0.9-0.3,1.5-2.8,1.5-4.2c0.2-7.5,0.1-15,0.1-22.6
		c2.2,0.4,4.3,0.7,6.5,1.1c0,6.5,0.4,13.1-0.1,19.6c-0.4,5.7,1.8,8,7.3,7.6c1,1.5,2,3,3.4,5c-2.1,0.1-4.2,0.9-5.3,0.1
		c-5.2-3.4-8.2-1.8-10.6,3.5c-0.6,1.4-3.2,1.9-4.9,2.8c-0.2-1.5-0.5-3-0.5-4.5c-0.1-4.8-2.8-1.9-4.2-1.3
		C165.4,373.3,164.2,373.1,161.9,368.9z"/>
	<path class="st3" d="M222.2,363.8c5.3,1.7,10.6,3.5,15.9,5.2c0.2-0.3,0.3-0.6,0.5-0.8c0.1,0.3,0.3,0.6,0.4,0.9
		c-1.7,3.6-3.6,4.3-7.7,2.8c-3.5-1.3-7-3-5.6,3.5c0.1,0.4-0.9,1.3-1.6,1.6c-0.4,0.2-1.4-0.1-1.5-0.4c-3.6-9.3-10.9-7.9-18.5-5.2
		c0-0.5,0-1,0-1.5c1.8-1.4,3.6-2.8,5.4-4.3c1.8-1.1,3.5-2.2,5.3-3.2c-0.1-0.9,0.2-1.8,0.2-2.7c0-0.7,0-1.4,0-2.2
		c0.1-5.4,0-10.8,0.5-16.2c0.1-1.4,2.1-2.7,3.2-4c0.8,1.4,2.1,2.7,2.2,4.1c0.2,5.8,0,11.6,0.2,17.4
		C221.1,360.4,221.8,362.1,222.2,363.8z"/>
	<path class="st1" d="M238.8,361.7c0-0.7,0-1.4,0-2C238.8,360.4,238.8,361.1,238.8,361.7z"/>
	<path class="st3" d="M161.9,329.8c0,0-0.1,0-0.1,0C161.8,329.7,161.9,329.8,161.9,329.8z"/>
	<path class="st1" d="M239,369l-0.5,0.1c0,0-0.4-0.1-0.4-0.1c0.2-0.5,0.5-0.9,0.7-1.4C238.9,368.1,239,368.6,239,369z"/>
	<path class="st3" d="M179.3,229.9c-0.1-0.8-0.2-1.5-0.3-2.3c-0.2-0.5-0.4-0.9-0.6-1.4c-2.8-8.7-5.2-17.6-8.6-26.1
		c-6.7-16.7,3.7-33.2,17.6-41.7c21.8-13.4,48.2,13.8,45.9,31.9c-0.5,4-1.9,7.9-3.2,11.8c-2.6,8.5-5.4,17-8.1,25.4
		c-5.2,15.4-10.4,30.7-15.5,46.1c-1.8,5.4-3.7,10.9-6.1,18.1c-2.8-8.2-5.1-14.9-7.4-21.6C188.4,256.7,183.9,243.3,179.3,229.9z"/>
	<path class="st4" d="M154.4,79.7c23.4,0,42.8,19.2,42.8,42.5c0.1,23.6-19.6,43.3-43,43.1c-23.3-0.2-42.5-19.6-42.6-43
		C111.6,99.1,131,79.7,154.4,79.7z"/>
	<path class="st4" d="M203.7,122.5c0-23.6,19-42.8,42.4-42.8c23.8,0,42.9,19.2,42.8,43c-0.1,23.4-19.6,42.8-42.8,42.6
		C222.8,165.1,203.7,145.9,203.7,122.5z"/>
	<path class="st1" d="M178.4,226.2c0.2,0.5,0.4,0.9,0.6,1.4C178.8,227.1,178.6,226.7,178.4,226.2z"/>
	<path class="st1" d="M215,359.6c-0.1,0.9-0.2,1.8-0.3,2.7C214.8,361.4,214.9,360.5,215,359.6z"/>
	<path class="st5" d="M158.3,149.7c-14.9-0.1-27.3-12.5-27.2-27.3c0.2-15.3,12.3-27.1,27.9-27c15,0.1,27.2,12.6,27,27.4
		C185.6,137.7,173.2,149.7,158.3,149.7z"/>
	<path class="st5" d="M242.2,95.3c15.2,0,27.3,11.8,27.4,26.8c0.1,15.4-12,27.6-27.4,27.5c-15.1,0-27-12-27-27.2
		C215.2,107.1,226.9,95.4,242.2,95.3z"/>
	<path class="st4" d="M164.5,101.1c5.5,0.1,12,5.1,13.5,10.3c1.6,5.9-2,10.2-8.1,9.3c-5.8-0.8-10.9-5.2-12.4-10.8
		C156.2,104.8,159.1,101,164.5,101.1z"/>
	<path class="st4" d="M262.4,116.1c-1.3,1.1-3.3,3.9-5.8,4.5c-7,1.9-16.1-6.3-15.1-13.4c0.3-2.2,2.7-5.1,4.8-5.8
		C252.8,99.3,262.4,107.3,262.4,116.1z"/>
</g>
</svg>
