<?xml version="1.0" encoding="utf-8"?>
<!-- Generator: Adobe Illustrator 22.1.0, SVG Export Plug-In . SVG Version: 6.00 Build 0)  -->
<svg version="1.1" id="Layer_1" xmlns="http://www.w3.org/2000/svg" xmlns:xlink="http://www.w3.org/1999/xlink" x="0px" y="0px"
	 width="400px" height="400px" viewBox="0 0 400 400" style="enable-background:new 0 0 400 400;" xml:space="preserve">
<style type="text/css">
	.st0{fill:#FFFFFF;}
	.st1{fill:#5B4026;}
	.st2{fill:#A86D35;}
	.st3{fill:#7D5632;}
	.st4{fill:#FAF9F6;}
	.st5{fill:#060606;}
</style>
<circle class="st0" cx="200.5" cy="199.6" r="200"/>
<g>
	<path class="st1" d="M104,282c-9.3,4.6-18.7,9.3-28,13.9c1.3-11.7,6.8-22.3,15-33C73.2,267,61,278,47.3,288.9
		c3.7-12.5,8.2-23.4,15.5-32.7c7.2-9.1,15.3-17.4,23.4-26.5c-15,2.2-29.2,6.9-43.9,13.1c12-22.1,31.6-33.4,53.7-43.2
		c-5.6-1.3-10.2-2.6-14.9-3.4c-4.9-0.8-9.9-1-14.8-1.4c-5.1-0.4-10.2-0.6-15.3-0.8c-4.9-0.1-9.8,0-15.9,0
		c20.1-14.7,42.9-16.4,66.3-20.2c-19.5-9.9-38.9-16.4-58.5-22.4c25.5-3.8,50.9-2.1,77.3,0c-9.1-20.4-25.2-33.2-42.8-46.3
		c13.5,1.2,25.4,4.5,36.6,10.2c11.2,5.8,19.8,14.8,28.7,25.3c0.7-30.9-11.3-56.6-24.4-82.1c26.4,18.5,42.1,45.7,59.2,71.9
		c-0.1-29.7,0-59.4-12.6-87.3c0.3-0.3,0.6-0.5,0.9-0.8c1.7,1.6,3.5,3,5,4.8c12.2,14.3,19.5,31.1,24.6,48.9
		c1.6,5.7,2.9,11.6,4.4,17.4c0.3,1.1,1.1,2.2,1.6,3.3c0.6-1.1,1.6-2.2,1.9-3.4c4.4-19.8,10.4-39,21.7-56c3.6-5.5,8.1-10.4,12.9-15.2
		c-12.3,28.7-11.7,59-12.5,89.2c17.1-26.6,33-54,60-74c-6.2,14.2-12.3,27-17.4,40.1c-5.2,13.4-7.9,27.3-7.3,43.1
		c8.8-10.2,17.3-19.2,28.3-25.1c11-5.8,22.8-8.7,35.4-9.6c-0.8,0.7-1.5,1.5-2.3,2.1c-12.2,9-23.5,18.8-32.3,31.2
		c-1.9,2.7-3.4,5.8-5,8.7c-1.6,2.8-0.6,3.3,2.4,3.2c17.5-0.7,35-1.5,52.6-1.8c6.9-0.1,13.8,1,20.8,1.9
		c-19.7,6.1-39.1,12.6-58.6,22.6c23.5,3.7,46.2,5.4,65.8,19.7C357,194,347,194,337,194.8c-9.8,0.8-19.5,2.2-29.3,4.2
		c21.3,10.1,41,21.4,53.2,43.7c-15-6.3-29.5-11-44.9-12.6c19,15.3,32.7,33.9,39.8,58.6c-13.9-10.9-26.1-22.1-43.6-25.8
		c8.2,10.3,13.6,21,15.2,33.2c-9.2-4.7-18.3-9.4-27.4-14.1c-2-0.8-1.9-2.7-2.1-4.4c-0.3-3.3-1-6.6-2.1-9.7c-0.5-1.6-0.2-3.2,0.4-4.7
		c4-11.2,2-22.2-1.9-33c-7.3-20.1-20-36.3-36.4-49.5c-14-11.2-29.9-18.7-48-20.7c-25.3-2.7-46.6,6.6-65.9,21.9
		c-13.4,10.6-23.6,24-31.1,39.1c-4.8,9.6-8.5,19.9-7.5,31.2c0.3,4,0.7,7.8,2.1,11.6c0.6,1.6,1.3,3.3,0.7,5.1
		c-1.6,2.8-2.3,5.9-2.6,9.1C105.2,279.4,105.3,281,104,282z"/>
	<path class="st2" d="M274.4,330c1.5,3.9,3.1,7.8,4.6,11.8c1,2.7-0.2,3.5-2.7,3.2c-0.6-0.1-1.2,0-1.8,0c-48.8,0-97.6,0-146.4,0
		c-4.8,0-5.1-0.3-3.6-4.9c1.1-3.5,2.8-6.7,4.2-10.1c-0.4-2,1.1-3.3,2.3-4.3c2.9-2.6,5.3-5.6,8.6-7.8c7.3-3.5,14.6-6.6,22.9-6.5
		c15.7,0.1,28.2,6.2,37,19.4c0.5,0.7,0.8,1.5,1.5,2.1c0.1,0.1,0.2,0.2,0.4,0.3c1.4-0.2,1.6-1.5,2.2-2.4c12.5-18.5,35-24.6,55.2-15
		c1.6,0.7,3.2,1.4,4.8,2.1C267.5,321.6,272.7,324.2,274.4,330z"/>
	<path class="st3" d="M274.4,330c-3.5-3.7-7.1-7.5-10.6-11.2c-0.6-2.3,1.3-3.3,2.5-4.6c6.8-7.5,11.4-16,11.7-26.4c0-1.8,1-3,2.4-3.9
		c5.4-3.3,9.3-7.8,12.3-13.4c0.7-1.3,1.4-3,3.5-2.7c0.9,3.1,1.9,6.1,2.7,9.2c0.4,1.6,0.7,3.3,1,5c-1.4,4.8-3,9.6-4.2,14.5
		c-0.1,0.5,1.4,1.8,2.3,2.1c10.2,3.3,18.7,8.9,24.1,18.3c1.3,2.2,2.3,4.7,3.1,7.2c2,5.8,1.7,6.1-4.5,5.6l-0.3,0l-0.3,0
		c-13.9,0-27.7,0-41.6,0c-0.5-0.1-0.9-0.1-1.4,0C276.2,329.8,275.3,329.9,274.4,330z"/>
	<path class="st3" d="M139.2,318.7c-3.5,3.7-7,7.5-10.6,11.2c-0.9-0.1-1.9-0.2-2.8-0.3c-0.5-0.1-0.9-0.1-1.4,0
		c-13.9,0-27.7,0-41.6,0l-0.3,0c0,0-0.3,0-0.3,0c-0.7,0-1.3,0-2,0l-0.3-0.1l-0.3,0.1c-3.8,0.7-2.9-1.7-2.4-3.7
		c3.1-11.8,10.7-19.8,21.5-24.9c2.8-1.4,7.1-1.6,8.4-3.8c1.1-1.7-1.5-5.5-2.2-8.4c-0.5-2.2-0.7-4.6-1-6.9c0.4-3.4,0.7-6.8,1.3-10.2
		c0.2-1.2,1.5-2.2,2.2-3.2c2.2-0.6,2.7,1.3,3.4,2.6c2.8,5,6.4,9.2,11.2,12.4c1.6,1.1,2.9,2.4,3.1,4.4c0.3,10.1,4.7,18.4,11.1,25.9
		C137.7,315.2,139.9,316.2,139.2,318.7z"/>
	<path class="st2" d="M124.5,329.7c0.5,0,0.9,0,1.4,0C125.4,329.7,124.9,329.7,124.5,329.7z"/>
	<path class="st2" d="M277.2,329.7c0.5,0,0.9,0,1.4,0C278.1,329.7,277.6,329.7,277.2,329.7z"/>
	<path class="st2" d="M79.6,329.7c0.2,0,0.4,0,0.7,0c0,0-0.3,0.2-0.3,0.2L79.6,329.7z"/>
	<path class="st2" d="M82.3,329.7c0.2,0,0.4,0,0.6,0c0,0-0.3,0.1-0.3,0.1L82.3,329.7z"/>
	<path class="st2" d="M320.1,329.7c0.2,0,0.4,0,0.6,0c0,0-0.3,0.1-0.3,0.1L320.1,329.7z"/>
	<path class="st2" d="M124.3,287.7c-0.6-0.9-1-2.3-1.9-2.7c-6-3.4-10.1-8.5-13.1-14.6c-0.4-0.7-1.2-1.2-1.8-1.8
		c-4.1-10.8-4.9-21.8-1.6-33c4.6-15.6,13-29.1,23.7-41.4c10.3-11.9,22.5-21.2,36.7-27.7c20.5-9.5,41.5-11.1,63.1-3.1
		c24.4,9.1,42.5,25.4,56.4,47c7.7,11.9,12.8,24.8,13.8,39c0.3,4.5-1.4,9.1-2.2,13.7c-0.3,1.6-0.7,3.1-1.1,4.6
		c-3.7,4.7-7.2,9.5-11.1,14.1c-1.9,2.2-4.3,3.9-6.5,5.9c-4.1,5.1-10.2,7.2-15.8,9.7c-16.1,7.2-33.1,10.1-50.6,11.1
		c-24.4,1.5-48.1-1.4-70.8-10.6C135.2,295.4,129,292.8,124.3,287.7z"/>
	<path class="st1" d="M124.3,287.7c13.9,8.4,28.6,14.4,44.6,17.1c17.5,2.9,34.9,3.9,52.6,1.8c16.6-1.9,32.4-5.8,47.2-13.3
		c3.4-1.7,6.6-3.7,9.9-5.6c0.8,7.1-1.7,13.4-5.4,19.1c-2.7,4.3-6.3,8-9.5,11.9c-5.5-1.8-10.8-4.2-16.5-5.4
		c-17.8-3.8-35.6,4.7-44.2,20.6c-0.4,0.7-0.9,1.4-0.8,1.3c-5.1-5.2-9.4-11.4-15.1-15.4c-13.2-9.2-27.6-9.8-42.2-3.2
		c-1.8,0.8-3.8,1.4-5.7,2.1c-1.3-1.5-2.7-3-4-4.5C128.9,306.5,124.1,298.1,124.3,287.7z"/>
	<path class="st4" d="M237.4,189.6c18.2,0.1,33.2,15,33.2,33.2c0,18.1-15.3,33.5-33.1,33.3c-19-0.2-33.4-14.9-33.3-33.9
		C204.3,204.4,219.3,189.6,237.4,189.6z"/>
	<path class="st4" d="M132.9,222.7c0.1-18.4,14.8-33.1,33.2-33c18.2,0.1,32.9,15,32.9,33.5c0,18.4-14.8,33-33.3,33
		C147.5,256.2,132.8,241.2,132.9,222.7z"/>
	<path class="st5" d="M204.6,264.9c2.7,0.9,8.3,2.1,13.2,4.7c6.1,3.2,6.1,9.6,0.7,13.9c-8.3,6.6-25.9,6.5-34.2-0.3
		c-4.5-3.6-4.8-8.5-0.5-12.4C188.8,266.2,195.1,265.2,204.6,264.9z"/>
	<path class="st1" d="M263.1,281.8c-14.1,11.2-30.5,15.8-48,17.6c-15.8,1.6-31.4,0.3-46.7-3.7c-10-2.7-19.4-7-27.8-13.4
		c-1-0.8-1.6-2-2.4-3c0.1-0.1,0.2-0.2,0.3-0.3c5.8,3,11.3,6.8,17.4,8.9c9.6,3.2,19.4,6.1,29.3,7.7c14.6,2.3,29.3,1.7,43.8-1.5
		c11.6-2.6,22.6-6.5,32.3-13.5c0.5-0.3,1.1-0.4,1.6-0.7C263.5,280.5,263.4,281.1,263.1,281.8z"/>
	<path class="st3" d="M263.1,281.8c0-0.6-0.1-1.3-0.1-1.9c2.6-2.3,5.2-4.6,7.8-6.9c0.4,0.5,0.8,0.9,1.2,1.4
		C269,276.8,266,279.3,263.1,281.8z"/>
	<path class="st3" d="M134.1,275.5c1.4,0.9,2.8,1.8,4.3,2.7c-0.3,0.4-0.6,0.7-1,0.9c-1.2-1.1-2.3-2.3-3.5-3.4L134.1,275.5z"/>
	<path class="st3" d="M133.9,275.7c-0.4-0.4-0.8-0.8-1.3-1.2c0.1-0.1,0.2-0.2,0.3-0.3c0.4,0.4,0.8,0.9,1.2,1.3
		C134.1,275.5,133.9,275.7,133.9,275.7z"/>
	<path class="st1" d="M137.3,279.2c0.3-0.3,0.7-0.6,1-0.9c0.1,0.3,0.1,0.5,0.2,0.8c-0.1,0.1-0.2,0.2-0.3,0.3
		C137.9,279.3,137.6,279.2,137.3,279.2z"/>
	<path class="st5" d="M234.1,244c-11.9-0.1-21.3-9.8-21.1-21.6c0.2-11.6,9.8-20.7,21.6-20.6c11.7,0.1,20.9,9.5,20.8,21.3
		C255.2,234.9,245.8,244.1,234.1,244z"/>
	<path class="st5" d="M190.1,223.3c-0.1,11.9-9.6,20.9-21.8,20.7c-11.5-0.1-20.6-9.8-20.4-21.7c0.1-11.7,9.6-20.7,21.6-20.5
		C181.2,201.9,190.2,211.4,190.1,223.3z"/>
	<path class="st4" d="M249.8,216.4c0.1,3.5-2.7,5.8-6.4,5.4c-4.5-0.6-9-4.4-10-8.8c-0.8-3.4,1.1-6.2,4.5-6.7
		C243.1,205.6,249.6,211.2,249.8,216.4z"/>
	<path class="st4" d="M172.8,206.3c5.5-0.2,11.7,5.2,11.7,9.9c0,3.5-2.1,5.4-5.5,5.6c-5,0.3-10.8-5.1-11-10
		C167.9,208.1,170,206.6,172.8,206.3z"/>
</g>
</svg>
