<?xml version="1.0" encoding="utf-8"?>
<!-- Generator: Adobe Illustrator 22.1.0, SVG Export Plug-In . SVG Version: 6.00 Build 0)  -->
<svg version="1.1" id="Layer_1" xmlns="http://www.w3.org/2000/svg" xmlns:xlink="http://www.w3.org/1999/xlink" x="0px" y="0px"
	 width="400px" height="400px" viewBox="0 0 400 400" style="enable-background:new 0 0 400 400;" xml:space="preserve">
<style type="text/css">
	.st0{fill:#FFFFFF;}
	.st1{fill:#A17F58;}
	.st2{fill:#6F5B44;}
	.st3{fill:#4D4336;}
	.st4{fill:#060606;}
	.st5{fill:#FEFEFD;}
	.st6{fill:#DDB68A;}
</style>
<circle class="st0" cx="200.5" cy="199.6" r="200"/>
<g>
	<path class="st1" d="M253.4,74.1c5.5,3.7,10.9,7.5,16.6,11c1.9,1.1,4.3,1.3,6.4,2.1c23.7,8.2,45.1,20.5,64.1,36.7
		c2.6,2.3,4.1,5.9,6.1,8.9c-3.4,1.2-6.7,3-10.2,3.4c-10.6,1.3-21.2,2.3-31.9,2.8c-4.3,0.2-4.5,1.6-4,5.3c1.7,11.4,3.1,22.8,0,34.2
		c-3.2,11.7-10.4,20.7-19.7,28.2c-1.3,1.1-2.3,2.5-3.4,3.8c-2,1.9-4.8,2.7-6.8,4.6c-4.7,1.9-9.1,4.3-13.7,6.2
		c-2.8,1.2-4.3,3.1-5.1,6c-5.6,21.4-26.1,34.8-47.3,35.1c-13.2,0.2-25.8-1.7-36.9-9.8c-8.3-6.1-13.7-14.2-16.7-23.9
		c-1.2-3.9-3.3-6.2-7.1-7.9c-4.4-2-9.1-3.4-13-6.4c-1.8-1.5-3.5-3.2-5.4-4.5c-19.9-13.3-28.3-31.8-25.4-55.4
		c0.4-3.5,0.8-7.1,1.5-10.6c0.6-3.1,0-4.5-3.7-4.7c-12.3-0.9-24.5-2.1-36.7-3.6c-6.8-0.8-7.9-3.8-2.8-8.2
		c8.7-7.5,17.8-14.6,27.4-20.8c13.6-8.8,28.2-15.7,43.9-20.6c6.8-2.1,12.6-7.7,18.9-11.7c3.9-4.4,9.6-5.5,14.7-6.8
		c15.9-4,31.9-6.2,48.4-4.6c12,1.2,23.8,2.7,35,7.2C249,70.9,251.6,71.9,253.4,74.1z"/>
	<path class="st1" d="M129.4,281.6c-2-7.1-5.1-14.1-5.8-21.3c-1.2-12.9,0.4-25.8,4.5-38.2c1.5-0.9,3-1.1,4.6-0.5
		c0.4,0.2,0.9,0.4,1.3,0.6c8.1,2.3,12.7,6.9,16,15.3c7,17.8,22,26.9,40.5,30.2c14.2,2.6,27.8,0.3,40.2-7.1
		c11.4-6.8,19.6-16.3,23.2-29.3c0.4-1.3,0.5-2.9,1.6-3.4c5.7-2.7,10.9-6.8,17.8-6.2c1.5,0.9,2.1,2.4,2.5,4c2.4,9,3.4,18.1,4.1,27.3
		c0.7,9.8-2.1,18.9-6.4,27.6c-3.6,4.6-7.1,9.2-11.6,13c-2.6,2.2-3.5,4.8-3.5,8.1c0.1,9.2,0.1,18.4,0,27.7c0,0.8,0,1.6,0,2.3
		c0,0.5,0,1,0,1.5c0,0.8,0,1.6,0,2.3c0.1,0.5,0.1,1.1,0.1,1.6c-0.3,3.2,0.8,6.6-1.3,9.6c0,1,0.1,1.9,0.1,2.9c-0.5,0.4-1,0.8-1.6,1.1
		c-10.5,1.2-21,0.5-31.5,0.4c-1.2,0-2.2-0.5-3.1-1.3c0-11.5-0.2-23-0.1-34.5c0.1-3.5-0.7-4.6-4.5-4.5c-10.6,0.4-21.3,0.4-32,0
		c-3.9-0.1-4.6,1-4.5,4.5c0.2,11.5,0,23,0,34.5c-1.3,1.2-2.9,1.5-4.5,1.5c-9.1,0.1-18.2,0.1-27.3,0c-1.5,0-2.9-0.2-4.1-1.3
		c-0.1-1.1-0.1-2.1-0.2-3.2c-2.7-5.4-0.9-11.1-1.3-16.6c0.1-8.8-0.1-17.7,0.1-26.5c0.1-4.3-1.1-7.8-4.4-10.7c-2.7-2.3-5-5-7.1-7.8
		C130.3,284.2,129.9,282.9,129.4,281.6z"/>
	<path class="st2" d="M253.4,74.1c-10.6-4.5-21.4-7.8-32.9-9.2c-13.7-1.7-27.2-1.7-40.9,0.3c-10.9,1.6-21.3,4.7-31.4,8.9
		c0.2-0.7,0.4-1.3,0.6-2c-0.1-0.4,0-0.7,0.4-0.8c3.7-7,7.4-13.9,11.1-20.9c0.5-1,0.8-2.2,1.2-3.3c-1.1,0.1-2.2,0.1-3.2,0.3
		c-3.8,0.9-7.7,1.9-11.7,2.4c7.2-8.2,16.6-12.5,27-15.8c-4.7-0.9-9.3-1.8-14-2.7c27.5-8.9,55.1-9.3,82.7,0c-4.7,0.9-9.3,1.8-14,2.6
		c10.9,3.6,20.7,8.4,29.6,17.6c-6.9-1.9-12.6-3.5-18.3-5.1C245.3,55.4,251.1,63.9,253.4,74.1z"/>
	<path class="st3" d="M272.6,280.4c1.7-4.9,3.8-9.6,5-14.6c2.5-11.2,0.5-22.4-1.5-33.5c-0.7-3.6-2-7.1-3-10.6
		c-2-2.1-2.8-4.5-2.2-7.4c2.1-1.3,4.3-2.5,6.4-3.8c5.9,10,7.8,21.2,9.1,32.5c2,18,5.4,35.6,15.7,51c3.2,4.8,6.7,9.4,10.3,14.4
		c-15.7,0.9-28.7-4.2-39.5-15.2C270.2,289,271.2,284.7,272.6,280.4z"/>
	<path class="st2" d="M270.9,214.4c0.7,2.5,1.5,4.9,2.2,7.4c-5.1,1.9-10.3,3.6-15.3,5.7c-1,0.4-2,1.8-2.3,2.9
		c-4.6,18.6-17,30-34.5,36.1c-19.1,6.7-37.6,4.3-54.4-7c-10-6.7-17.3-15.8-20.4-27.9c-0.5-1.8-2.3-3.8-4-4.6c-4.5-2-9.3-3.3-14-4.9
		c0.8-2.6,1.7-5.2,2.5-7.7c6.1,2.5,12.3,4.7,18.2,7.5c1.3,0.6,2,3.2,2.5,5c3,10.2,8.4,18.7,17.2,25c7.6,5.4,16.1,8.2,25.2,8.9
		c17.1,1.5,32.9-1.6,45.4-14.4c5.6-5.8,9.7-12.4,11.3-20.4c0.6-2.9,2.1-4.7,5.1-5.7C260.9,218.7,265.8,216.4,270.9,214.4z"/>
	<path class="st4" d="M221.4,349.7c11.6,0.1,23.2,0.1,34.8,0.2c0.5,0.1,0.9,0.4,1.4,0.7c1.3,4.6,2.7,9.3,3.8,13.9
		c0.1,0.6-1.1,2.3-1.7,2.3c-11.9,0-23.9,0-35.8-0.3c-0.9,0-2.4-1.7-2.4-2.7C221.1,359.1,221.3,354.4,221.4,349.7z"/>
	<path class="st4" d="M144.4,349.9c11.9,0,23.9-0.1,35.8-0.1c0.1,4.5,0,9.1,0.2,13.6c0.1,2.5-0.5,3.4-3.2,3.4
		c-11.5-0.1-23,0.1-34.5,0.3c-2.7,0.1-3-1-2.4-3.2C141.8,359.2,143.1,354.5,144.4,349.9z"/>
	<path class="st2" d="M272.6,280.4c0.1,4.3,0.2,8.5,0.3,12.8c-0.1,12.4-0.2,24.8-0.4,37.1c-4.9,2.4-9.9,1.1-14.9,0.2
		c-0.1-10.7-0.2-21.3-0.2-32c0-1.3,0.6-3,1.5-3.9C263.3,289.8,268,285.2,272.6,280.4z"/>
	<path class="st4" d="M143.9,329.7c0.1,5.6,0.2,11.3,0.3,16.9c-6.3,0-12.6,0-19.4,0c1.7-5.7,3.2-11.1,4.8-16.5
		c0.5-0.3,0.9-0.6,1.5-0.9c2.8-0.7,5.8-0.6,8.7-1.1C141.3,328,143.1,327.8,143.9,329.7z"/>
	<path class="st4" d="M257.6,330.6c5-0.1,9.9-0.2,14.9-0.2c1.1,4.3,2,8.8,3.5,13c1.1,3.2,0,3.5-2.7,3.4c-5.3-0.1-10.6,0-15.9,0
		c0.1-3.4,0.1-6.9,0.2-10.3c0.1-0.5,0.1-1,0-1.6c0-0.4,0-0.9,0-1.3c0-0.5,0.1-1.1,0-1.6C257.6,331.5,257.6,331,257.6,330.6z"/>
	<path class="st3" d="M130.8,330c-0.4,0.1-0.8,0.2-1.2,0.2c0-0.6-0.1-1.2-0.1-1.8c-0.2-0.3-0.2-0.7-0.1-1.1c0-15.2,0-30.5,0-45.7
		c0.4,0.6,0.9,1.2,1.3,1.8c1.3,1.6,1.5,3.6,1.5,5.5c0,11.8,0.1,23.7,0,35.5C132.2,326.4,132.3,328.4,130.8,330z"/>
	<path class="st1" d="M149.2,71.3c-0.1,0.3-0.2,0.6-0.4,0.8C149,71.9,149.1,71.6,149.2,71.3z"/>
	<path class="st1" d="M129.4,327.3c0.1,0.2,0.2,0.5,0.3,0.7c0,0.1-0.1,0.2-0.2,0.3c-0.1-0.2-0.3-0.5-0.4-0.7
		C129.1,327.6,129.3,327.4,129.4,327.3z"/>
	<path class="st2" d="M257.5,350.6c-0.4-0.2-0.9-0.4-1.3-0.7c0.5-0.1,0.9-0.2,1.4-0.3C257.5,349.9,257.5,350.2,257.5,350.6z"/>
	<path class="st5" d="M203.8,135.2c0.1-20.3,16.7-36.8,37-36.6c20.2,0.2,36.9,17.1,36.7,37.1c-0.2,20.2-17.1,36.9-37.2,36.7
		C220,172.2,203.6,155.5,203.8,135.2z"/>
	<path class="st5" d="M124.6,135.5c-0.1-20.4,16.4-36.9,36.6-36.9c20.3,0,36.6,16.5,36.7,36.9c0,20.3-16.5,36.9-36.7,36.9
		C140.9,172.4,124.7,156.1,124.6,135.5z"/>
	<path class="st6" d="M118.1,98.8c-3.9,8-7.2,14.7-10.5,21.4c-0.3,0.6-0.6,1.2-0.8,1.8c-3.4,9.6-3.4,9.7-13.8,9.5
		c-6.3-0.1-12.6-0.6-18.9-1c-1.2-0.1-2.3-0.8-3.5-1.2c0.6-1.2,0.9-2.9,1.8-3.6c8.9-6.1,17.8-12.3,27-17.9
		C105.1,104.5,111.3,102.1,118.1,98.8z"/>
	<path class="st6" d="M310.7,132c-12.8-0.4-12.5-0.5-16.6-12.3c-2-5.7-5.5-10.9-8.2-16.3c-0.5-0.9-0.7-2-1-3c1,0.1,2.2,0,3,0.4
		c12.9,7.3,25.7,14.7,38.6,22.2c0.8,0.5,1.7,1.1,2.2,1.8c0.9,1.4,1.6,3,2.3,4.6c-1.5,0.5-2.9,1.2-4.4,1.4
		C321.3,131.2,316,131.5,310.7,132z"/>
	<path class="st3" d="M229.1,194.8c-1.3,4-1.8,7.6-3.5,10.6c-3.2,5.6-9.1,5.7-13.1,0.6c-4.1-5.2-3.8-16.9,0.6-21.9
		c4.1-4.7,8.4-4.8,11.9,0.4C226.9,187.5,227.7,191.4,229.1,194.8z"/>
	<path class="st3" d="M192.9,194.7c-1.1,3.9-1.5,7.2-3,10c-3.3,6.4-9.8,6.5-13.8,0.6c-3.8-5.7-3.7-14.9,0.2-20.6
		c3.6-5.2,8.5-5.7,12.1-0.5C190.7,187.3,191.6,191.4,192.9,194.7z"/>
	<path class="st2" d="M232.5,235.7c-9.7,11-22.8,12.5-36.3,11.6c-11.3-0.7-21.9-3.9-29.2-13.5C188.5,247.3,210.2,247.1,232.5,235.7z
		"/>
	<path class="st2" d="M234.6,233.8c-0.1,0.1-0.1,0.2-0.2,0.4c-0.1-0.2-0.2-0.3-0.4-0.5c0.1-0.1,0.2-0.2,0.3-0.2
		C234.5,233.6,234.6,233.7,234.6,233.8z"/>
	<path class="st2" d="M130.8,330c0-15.5,0-31,0-46.5c6.3,6.5,15.3,11,13.7,22.7c-1.1,7.7-0.4,15.7-0.5,23.6
		C139.6,329.8,135.2,329.9,130.8,330z"/>
	<path class="st2" d="M257.6,331.9c0,0.5,0,1.1,0,1.6C257.6,333,257.6,332.4,257.6,331.9z"/>
	<path class="st2" d="M257.6,334.8c0,0.5,0,1,0,1.6C257.6,335.9,257.6,335.3,257.6,334.8z"/>
	<path class="st4" d="M236.9,158.9c-13-0.1-23.4-10.5-23.4-23.5c0-13.1,10.7-23.6,24-23.4c12.8,0.1,23.1,10.4,23.1,23.2
		C260.6,148.6,250.2,159,236.9,158.9z"/>
	<path class="st4" d="M141.3,135.2c0.1-13.1,10.4-23.2,23.6-23.2c13.2,0,23.4,10.5,23.3,24c-0.1,12.9-10.7,23-23.9,22.9
		C151.3,158.8,141.2,148.3,141.3,135.2z"/>
	<path class="st5" d="M254.3,128.1c0.1,3.9-3,6.6-7,6.2c-4.8-0.5-10-5-11.1-9.7c-0.9-3.7,1.2-6.9,4.9-7.5
		C246.6,116.1,254.1,122.4,254.3,128.1z"/>
	<path class="st5" d="M181.9,130.3c-1.3,0.9-3.2,3.3-5.6,3.8c-5.4,1.2-12.5-5.3-12.7-10.9c-0.1-3.3,1.4-5.2,4.5-6
		C173.8,115.8,182.2,122.7,181.9,130.3z"/>
</g>
</svg>
