<?xml version="1.0" encoding="utf-8"?>
<!-- Generator: Adobe Illustrator 22.1.0, SVG Export Plug-In . SVG Version: 6.00 Build 0)  -->
<svg version="1.1" id="Layer_1" xmlns="http://www.w3.org/2000/svg" xmlns:xlink="http://www.w3.org/1999/xlink" x="0px" y="0px"
	 width="400px" height="400px" viewBox="0 0 400 400" style="enable-background:new 0 0 400 400;" xml:space="preserve">
<style type="text/css">
	.st0{fill:#FFFFFF;}
	.st1{fill:#595959;}
	.st2{fill:#353535;}
	.st3{fill:#060606;}
	.st4{fill:#989898;}
	.st5{fill:#F9F9F9;}
</style>
<circle class="st0" cx="200.5" cy="199.6" r="200"/>
<g>
	<path class="st1" d="M157.9,229.8c-17.7-3.4-34.2-9.3-48.9-20c-21.8-16-30.3-38.6-22.1-64.5c3.9-12.4,10.9-23.8,16.3-35.8
		c1.4-3.1,2.7-6.4,2.9-9.7c0.7-18.1,1-36.2,1.5-55c10.6,5,21,9.3,30.8,14.7c7.8,4.3,14.1,4.7,22.8,0.9c24.2-10.9,48.7-8.9,72.3,2.8
		c2.8,1.4,4.9,1.5,7.8,0.1c11.5-5.7,23.2-10.9,34.7-16.6c3.5-1.7,4.4-1.2,4.4,2.7c0.3,16.9,0.7,33.8,1.3,50.7
		c0.1,3.3,1.2,6.9,2.9,9.7c8.5,13.7,15.5,27.9,18.2,44c3.8,22.4-4.2,40.1-21.4,54c-15.1,12.3-32.9,18.6-51.8,22.3
		c-0.8,0.1-1.5,0.6-2.4,0.3c-2.1-2.6,0.3-4.2,1.5-5.8c3-4.2,5.2-8.7,6.8-13.5c3.2-9.8,0.7-17.4-7.6-23.5c-2.4-1.8-5.1-3.1-7.8-4.4
		c-1.5-0.7-3.4-1.2-3.6-3.4c0.3-2.5-0.8-3.3-3.3-3.3c-12.6-0.1-25.1-0.2-37.7-0.1c-2.4,0-5.2-0.5-5.1,3.4c-0.5,2.4-2.6,3.2-4.4,4.2
		c-2.3,1.3-4.8,2.3-6.8,4c-9.5,7.9-11,16-4.6,29.8c1.2,2.7,3.1,5.1,4.7,7.7c0.9,1.4,2.3,2.9,0.8,4.8
		C159.4,230.5,158.6,230.4,157.9,229.8z"/>
	<path class="st1" d="M158.1,296c0.1-20,0.1-39.9,0.2-59.9c3.7-2.1,5.9,0.7,8.2,2.7c8.4,7.3,17.9,11.2,29.3,10.8
		c8.5-0.3,15.6-3.5,22.2-8.4c2.2-1.7,4.4-3.5,6.6-5.2c1.5-1.1,3.1-2.6,5.1-1.1c0.1,13.5,0.2,27.1,0.3,40.6c2.6,3,1.5,6.6,1.6,10
		c0.2,3.6,0.1,7.3-0.1,11c0.3,6.4,0.1,12.9,0.1,19.3c0,9.3-2.9,11.3-12,8.5c-2.2-2.1-1.8-4.8-1.8-7.4c-0.1-12.3,0-24.6-0.1-36.9
		c-0.1-10.6-3.4-13.8-14-13.8c-7,0-14.1-0.1-21.1,0c-8.6,0.1-12.3,3.7-12.4,12.2c-0.1,12.6,0,25.3-0.1,37.9c0,2.7,0.5,5.7-1.8,8
		c-2.5,1.3-5.1,1.2-7.7,0.8c-1.9-0.3-3.6-1.2-3.8-3.2C156.5,313.3,154.9,304.6,158.1,296z"/>
	<path class="st2" d="M158.1,296c0,7.1,0.4,14.3-0.1,21.4c-0.4,5.5,1.5,7.3,6.7,6.5c1.4-0.2,2.8-0.1,4.2-0.1c1.5-1.3,3.3-1.2,5-0.7
		c6.3,1.8,12.4,3.8,16.9,8.9c2.2,2.5,3.7,2.9,6.2,0.2c4.5-4.8,10.2-7.9,16.8-9c1.9-0.3,3.8-0.8,5.5,0.6c13.4,0.2,10.4,1.3,10.7-10
		c0.1-5.8,0.1-11.5,0.1-17.3c3-1.9,5.9-2.1,8.9,0.1c11.2,3.8,15.3,11.7,11.6,22.9c-1.1,3.3-0.3,4,2.6,5.1
		c6.9,2.5,11.9,7.1,14.5,14.3c1,2.9,0.7,4.2-2.8,4.1c-5.8-0.2-11.6-0.2-17.3-0.2c-2.7,0.3-4.2-1.8-5.5-3.5
		c-9.4-12.3-35.4-12.3-44.4,4.3c-3.1,5.8-4,5.7-7.4,0.1c-10.3-17.2-34-16.2-44.2-4.9c-1.6,1.7-2.7,4.3-5.7,4.1
		c-5.8,0-11.6-0.1-17.4,0.1c-3.2,0.1-3.5-1.2-2.7-3.8c2.5-7.6,8-12.1,15.2-15c1-0.4,2.4-2.4,2.2-3.3c-3.9-16.7,1.9-24.3,19-24.5
		C157,296.2,157.6,296.1,158.1,296z"/>
	<path class="st3" d="M238.9,296.4c-3,0-5.9-0.1-8.9-0.1c0-6.9,0-13.8,0-20.7c3.6-4.3,7-8.8,10.7-12.9c7.2-8.1,16.1-10.2,26.3-7.1
		c5.4,1.6,10.7,3.5,16.1,5c9.1,2.4,15.7-0.3,20.7-8.3c3.7-6,6.9-12.2,10.7-18.2c1.8-2.8,4-5.4,6.5-7.5c4.7-3.9,10.4-1.5,10.4,4.5
		c0,5.1-0.6,10.9-3.1,15.2c-5.4,9.5-11.6,18.7-18.5,27.3c-6.6,8.4-15.8,9.6-25.8,6.2c-5.1-1.8-10.4-3.3-15.6-4.8
		c-7.8-2.3-14.5,0.2-19.4,6.1C245.2,285.8,242.3,291.3,238.9,296.4z"/>
	<path class="st1" d="M140.2,342.6c4.7-5.1,9.3-10.7,16.5-12.4c13.8-3.1,26.9-2,36.6,15.7c3.9-4.2,7.4-9.3,12.2-12.7
		c11.2-8,28.1-5.4,37.3,4.9c1.4,1.6,3,2.9,4.6,4.4c1.9,9,1.9,9-7.9,9c-31.7,0-63.4,0-95,0c-6.7,0-6.6,0-4.6-6.3
		C140.1,344.4,140.1,343.5,140.2,342.6z"/>
	<path class="st2" d="M229.7,235c-3,1.9-6.3,3.6-9,5.9c-16.9,14.2-39,13.8-55.2-1c-1.9-1.8-4.8-2.5-7.2-3.7
		c-0.1-2.1-0.3-4.2-0.4-6.2c0.8-0.1,1.7-0.1,2.5-0.2c3.3-1.3,4.7,1.6,6.5,3.2c8.4,7.6,18,12,29.6,11.4c9.8-0.6,17.6-5.4,24.8-11.4
		c1.7-1.4,2.9-3.7,5.6-3c1,0,1.9,0.1,2.9,0.1C229.8,231.6,229.7,233.3,229.7,235z"/>
	<path class="st4" d="M226.9,229.8c-6,4.2-11.5,9.4-18,12.5c-15,7.1-28.7,3.2-41.2-6.7c-2.5-2-4.9-4-7.3-5.9
		c-2.9-5.3-6.5-10.4-8.7-16.1c-5.2-13.4-1.1-23.2,11.6-29.8c2.3-1.2,4.4-2.7,6.5-4.1c2.8-0.4,4.6,1.6,6.3,3.2c4.6,4.4,9,9,13.5,13.4
		c2.5,2.5,3.8,5.3,3.8,8.9c-0.1,5.1,0.1,10.2-0.1,15.3c-0.1,5.5-1.7,6.8-7.3,5.9c-6.8-1.1-13.2-3-18.8-7.3
		c12.8,11.7,38.7,12.6,52.2,1c-5.7,3.9-11.7,5.7-18,6.5c-4.9,0.7-5.8-0.9-6.8-5.6c-4-18.7,7-29.9,19.7-40.3c0.8-0.7,1.8-1.2,2.9-0.8
		c3.9,2.2,8.1,4.1,11.8,6.6c8.3,5.7,11.6,14.6,8,23.9C234.6,217.2,230.4,223.4,226.9,229.8z"/>
	<path class="st5" d="M151.2,168.5c-22.1,0.1-40.2-17.6-40.4-39.5c-0.2-21.9,17.9-40.1,39.8-40.3c22-0.2,40.2,17.8,40.3,39.7
		C191,150.5,173.3,168.4,151.2,168.5z"/>
	<path class="st5" d="M238,88.7c23.3,1.1,39.9,19.4,38.7,42.6c-1.1,22-19.8,38.1-43,37.1c-21.3-0.9-37.6-20-36.6-43
		C198,105.1,217.3,87.7,238,88.7z"/>
	<path class="st3" d="M217.3,180c-6.7,6.5-13.4,12.9-20,19.4c-0.9,0.9-1.3,2.5-1.3,3.8c-0.1,6.3,0.1,12.7-0.1,19
		c-0.1,3,1.4,3.9,3.8,3.2c6.3-1.9,12.6-4,18.8-6.2c1.5-0.5,2.8-1.6,5.4-3.1c-9.6,16.3-45.4,19.2-61.1,0c2.8,1.3,4.2,2,5.7,2.6
		c6.2,2.3,12.4,4.6,18.7,6.6c3,0.9,5.2,0,4.6-3.9c0-0.2,0-0.4,0-0.5c4.5-20.1-8.6-30.8-22.1-41.2c-0.6-1.2-1.2-2.4-2-4.2
		c1.7-0.1,3.1-0.4,4.5-0.4c14.2,0,28.3-0.1,42.5,0c1.5,0,3,0.5,4.5,0.8C218.6,177.3,218,178.6,217.3,180z"/>
	<path class="st4" d="M114.8,92.9c0-10.5-0.1-21.7,0.1-32.9c0-0.6,2.5-2,3.2-1.7c7.1,3.1,14,6.4,21,9.7c2,1,2.7,2.1,0.6,3.8
		C131.2,79,122.7,86.2,114.8,92.9z"/>
	<path class="st4" d="M273.3,93.1c-8.1-6.9-16.7-14.2-25.3-21.7c-0.4-0.4-0.1-2.8,0.5-3.1c7.1-3.6,14.2-7,21.4-10.2
		c0.7-0.3,3.1,1.2,3.2,1.9C273.4,71.3,273.3,82.6,273.3,93.1z"/>
	<path class="st4" d="M219.3,323.7c-10.2,1-19,4.7-25.2,14.1c-6.1-9-14.9-12.9-25.2-14.1c-0.1-16.2-0.3-32.4-0.2-48.5
		c0-5.9,5-10.5,11-10.6c9.3-0.1,18.6-0.1,28,0c6.9,0.1,11.6,4.6,11.7,11.6C219.5,292,219.3,307.8,219.3,323.7z"/>
	<path class="st3" d="M129.2,128.9c-0.1-14.3,11.4-26,25.5-25.9c13.9,0.1,25.4,11.6,25.5,25.6c0.1,14-11.6,25.7-25.4,25.6
		C140.5,154,129.3,143,129.2,128.9z"/>
	<path class="st3" d="M258.6,128.9c-0.1,14-11.7,25.5-25.6,25.4c-14.2-0.1-25.5-11.8-25.3-26.2c0.1-13.9,12-25.4,25.9-25.1
		C247.6,103.3,258.7,114.8,258.6,128.9z"/>
	<path class="st5" d="M167.6,127.2c-7.2,0.1-14.1-6.1-14.2-12c-0.1-4.4,2.5-6.4,6.6-6.6c6.2-0.2,13,6.2,13.1,12.1
		C173.2,125.1,170.7,127,167.6,127.2z"/>
	<path class="st5" d="M238.7,108.5c6.3,0.2,13.6,7,13.3,12.5c-0.3,4.2-2.8,6.2-7,6.2c-6.3-0.1-13-6.5-12.9-12.4
		C232.1,110.2,235.2,109,238.7,108.5z"/>
</g>
</svg>
