<?xml version="1.0" encoding="utf-8"?>
<!-- Generator: Adobe Illustrator 22.1.0, SVG Export Plug-In . SVG Version: 6.00 Build 0)  -->
<svg version="1.1" id="Layer_1" xmlns="http://www.w3.org/2000/svg" xmlns:xlink="http://www.w3.org/1999/xlink" x="0px" y="0px"
	 width="400px" height="400px" viewBox="0 0 400 400" style="enable-background:new 0 0 400 400;" xml:space="preserve">
<style type="text/css">
	.st0{fill:#FFFFFF;}
	.st1{fill:#E1B507;}
	.st2{fill:#7A5913;}
	.st3{fill:#060606;}
	.st4{fill:#AD7D15;}
	.st5{fill:#FAF9F4;}
</style>
<circle class="st0" cx="200.5" cy="199.6" r="200"/>
<g>
	<path class="st1" d="M169.1,57.2c16.7-3.9,33.6-4.1,50.5-2.5c4.4,0.4,8.7,1.6,13.1,2.4c3.6-0.2,6.6,1.6,9.6,3.2
		c9,5.9,19,9.2,29.3,12c6.9,1.9,13.4,5.1,20,8c6.8,3.1,13.6,6.2,20,10.1c3.1,1.8,5.1,5.3,7.7,8c-3.3,1.4-6.5,3.3-9.9,4
		c-7.3,1.3-14.7,2.4-22.1,2.8c-4.4,0.3-4.2,2.2-3.8,5.4c1.5,11,3.6,22,4,33.1c1.2,31-14.5,51.7-41.7,64.5
		c-7.1,3.4-13.3,7.5-17.2,14.5c-4.4,7.9-3.7,15.9-0.1,23.8c0.4,0.9,0.7,1.9,1.1,2.9c-0.2,0.6-0.6,1-1.1,1.4
		c-5.2,3.7-5.5,4.7-1.2,9.5c3.5,4,4.9,8.3,4,13.5c-1.1,6.6,1.3,9.5,8.1,10.4c2.7,0.3,5.7-0.9,8.1,1.4c1.2,7.3,0.6,14.4-3.6,20.7
		c-1.3,3.5-4.1,5.9-7.2,7.7c-3.1,1.8-4.1,4.3-4.1,7.8c0.1,6.2,0.1,12.5,0.1,18.7c-0.2,5,0.8,10-0.7,14.9c-0.2,1.1-0.5,2.1-0.7,3.2
		c-7.3,1.1-14.5,1.8-21.8-0.5c0-10.1-0.2-20.2,0-30.3c0.1-4.1-0.8-5.9-5.4-5.7c-11.4,0.4-11.4,0.2-11.4,11.7c0,8.2,0,16.3,0,24.5
		c-4,2.1-8.4,0.9-12.6,1c-3.1,0.1-6.5,1.4-9.5-0.6c-0.1-1.1-0.3-2.2-0.4-3.2c-2.2-4.7-0.8-9.7-1.1-14.6c0.1-6.5,0-13.1,0.1-19.6
		c0-3.1-1-5.3-3.7-7c-3.1-2-6.1-4.3-7.5-8c-1.2-3.3-2.4-6.6-3.6-10c1.2-1.4,2.9-1.3,4.5-1.3c3.4,0,6.4-1.2,9.2-3
		c6.4-4.1,6.4-11.4,0.1-15.6c-1.9-1.2-3.9-2-6.1-2.6c-1.5-0.4-3.3-0.4-4.2-2.1c1.9-3.7,3.5-7.7,5.8-11.2c3-4.5,6.5-8.6,9.8-12.9
		c0.1-0.3,0.3-0.6,0.5-0.8l-0.1,0c1.6-1.4,3.6-1.1,5.5-1.1c2.7-0.1,5.3-0.5,7.7-2c1.7-1.1,2.7-2.7,2.5-4.9c-0.2-2-1.7-3-3.4-3.7
		c-3.1-1.2-6.4-1.1-9.6-1.6c-1.5-14.4-11.3-21.3-23.3-26.7c-17.3-7.8-29.7-20.8-35.6-38.6c-2.9-8.6-3.3-18.4-3-27.7
		c0.3-10.2,2.4-20.3,4-30.4c0.5-3.3-0.5-4.4-3.8-4.8c-9.4-1.2-18.8-2.7-28.2-4.3c-4.7-0.8-5.6-3.2-1.9-6c5.4-4.2,11.2-8.4,17.4-11.3
		c9.8-4.6,20.2-8.2,30.3-12.2c0.5-0.2,1.1-0.6,1.7-0.6c9.8-0.4,17.3-6.3,25.6-10.3C162.5,58.4,165.5,56.9,169.1,57.2z"/>
	<path class="st2" d="M247.4,285.6c-2.8-0.1-5.7,0-8.5-0.2c-7.2-0.4-10.3-4.2-9-11.2c1-5,0-9.2-3.5-13.1c-5.9-6.6-5.2-8.8,3.1-11.7
		c6,8.5,14.2,15.7,16.3,26.6C246.4,279.2,246.9,282.4,247.4,285.6z"/>
	<path class="st3" d="M169.1,57.2c-3.1,1.1-6.3,2.2-9.4,3.3c-0.5-1.2-1.2-2.4-1.4-3.7c-0.8-4.1-2.9-5.8-7.4-5.3
		c-1.9,0.2-5.2-1.1-5.9-2.6c-0.7-1.4,0.7-4.6,2.2-6c5.7-5.5,12.7-8.3,20.7-7.4c5,0.5,6.8,4.7,3,7.5c-5.4,4-4.8,7.8-2.2,12.6
		C168.9,56,168.9,56.6,169.1,57.2z"/>
	<path class="st3" d="M242.3,60.3c-3.2-1.1-6.4-2.2-9.6-3.2c0.3-0.8,0.5-1.7,0.9-2.5c2.3-4.2,3.4-7.9-1.9-11
		c-1.3-0.8-2.4-3.8-1.9-5.3c0.4-1.4,3.1-2.8,4.8-2.9c8.3-0.5,15.5,2.3,21.2,8.3c3.4,3.6,1.8,8.3-2.8,7.7
		C245,50.2,244,55.2,242.3,60.3z"/>
	<path class="st3" d="M209.4,358.1c7.3,0.2,14.5,0.3,21.8,0.5c0.9,4.3,1.8,8.7,2.5,13.1c0.1,0.7-1.2,2.2-1.9,2.2
		c-6.8,0.1-13.6,0.1-20.4-0.1c-0.8,0-2.1-1.5-2.1-2.4C209.1,367,209.3,362.6,209.4,358.1z"/>
	<path class="st2" d="M157.9,271.7c3.9,1.4,8.1,2.1,11.5,4.2c6.6,4,6.4,12,0.2,16.6c-4.6,3.4-9.8,3.9-15.2,3.7
		C153.6,287.8,154,279.5,157.9,271.7z"/>
	<path class="st3" d="M170.6,358.6c7.4-0.1,14.7-0.3,22.1-0.4c0,4.3,0.2,8.6,0,12.9c-0.1,1-1.7,2.7-2.7,2.7
		c-6.7,0.3-13.3,0.2-20,0.1c-0.6,0-1.8-1.5-1.7-2.2C168.9,367.3,169.8,363,170.6,358.6z"/>
	<path class="st2" d="M158,306.3c3.4,2.8,7,5.4,10.3,8.4c1.1,1,1.9,2.7,2,4.1c0.2,7.2,0,14.3,0,21.5c-4.1,1.8-8.1,1.9-12.2,0
		C158,328.9,158,317.6,158,306.3z"/>
	<path class="st2" d="M231.6,340.3c0-7.2-0.2-14.3,0-21.5c0-1.4,0.9-3.2,1.9-4.1c3.3-3,6.8-5.6,10.3-8.4c0,11.3,0,22.6-0.1,33.9
		C239.6,342.1,235.6,342,231.6,340.3z"/>
	<path class="st3" d="M231.6,340.3c4,0,8.1,0,12.1-0.1c0.8,4.3,1.8,8.6,2.4,13c0.1,0.6-1.2,2.1-1.8,2.2c-4.1,0.2-8.3,0.1-12.4,0.1
		C231.8,350.4,231.7,345.3,231.6,340.3z"/>
	<path class="st3" d="M158.1,340.2c4.1,0,8.1,0,12.2,0c0,5.1,0,10.1,0,15.2c-4.9,0-9.8,0-14.8,0
		C156.3,350.1,157.2,345.1,158.1,340.2z"/>
	<path class="st2" d="M176.5,233.5c4.9-2,9.4-0.5,13.2,2.4c2.9,2.2,1.8,7.7-2.4,9.1c-4.2,1.4-9,1.4-13.5,2
		C174.8,242.4,175.6,237.9,176.5,233.5z"/>
	<path class="st2" d="M174,246.9c-0.2,0.3-0.3,0.5-0.5,0.8C173.7,247.4,173.8,247.2,174,246.9z"/>
	<path class="st4" d="M200.9,221c-21.6,1.4-34.1-17.2-32.2-35.5c0.8-7.1,5.6-12.2,11.6-16.1c11.3-7.3,30.7-7.4,41.6,0.1
		c13.5,9.3,14.2,23.2,7.1,36.2C223.1,216.7,213.4,221.7,200.9,221z"/>
	<path class="st5" d="M271,126.2c0.6,18.7-15.5,34.3-33.7,33.8c-19.5-0.6-33.7-14.5-33.8-34.5c-0.1-18.2,15.5-33.3,33.6-33.4
		C256.2,92,271.8,108.1,271,126.2z"/>
	<path class="st5" d="M130.9,126c-1-18.2,15.3-34.4,34-33.9c19.1,0.5,33.7,15,33.4,34c-0.3,19.6-13.9,33.3-34,33.8
		C146.5,160.5,129.8,144.3,130.9,126z"/>
	<path class="st4" d="M134.9,76.1c-4.6,8-8.6,15.1-12.8,22.1c-0.6,1-2.3,1.9-3.3,1.9c-6.5-0.5-13-1.2-19.5-2c-1.1-0.1-2-1-3-1.6
		c0.6-1.1,1-2.6,1.9-3.2c4.4-2.8,8.7-5.8,13.4-7.9C119.1,81.9,126.7,79.3,134.9,76.1z"/>
	<path class="st4" d="M266.9,76.6c13.1,3.7,25.4,8.3,36.2,16.2c1.1,0.8,1.6,2.3,2.4,3.5c-1.3,0.6-2.5,1.6-3.8,1.8
		c-4.5,0.8-9.1,1.3-13.7,1.9c-5,0.7-8.3-0.3-10.6-5.7C274.9,88.3,270.7,82.9,266.9,76.6z"/>
	<path class="st2" d="M222.4,301.4c-0.9,4.4-2.8,7.6-6.3,8.3c-2.5,0.5-6-0.4-7.9-2.1c-2.5-2.1-4.2-5.3-5.5-8.4
		c-1.8-4.3-0.3-7.8,3.7-10.2c4.4-2.6,7.5-2.5,10.5,1.6C219.3,293.8,220.6,297.8,222.4,301.4z"/>
	<path class="st2" d="M193.2,273.9c-4.8,0-8.1-2.9-8.3-7c-0.1-4,4.1-7.5,9-7.4c4.7,0.1,8,3.2,7.9,7.3
		C201.7,271.1,198.3,273.9,193.2,273.9z"/>
	<path class="st2" d="M182.9,308.9c-3.4,0-5.4-1.4-5.4-4.7c0-3.3,1.9-5.3,5.2-5.3c3.3-0.1,5.5,1.8,5.4,5.1
		C188.1,307.1,186.2,309.1,182.9,308.9z"/>
	<path class="st2" d="M216.5,244.1c-2,1.5-3.8,3.7-5.9,4.2c-3.1,0.6-5.9-1.9-5.6-4.8c0.2-1.8,3.2-4.4,5.2-4.7
		c1.9-0.2,4.1,2.1,6.2,3.4C216.4,242.8,216.4,243.4,216.5,244.1z"/>
	<path class="st2" d="M180.6,204.2c5.9,1.8,11.6,4.5,17.4,4.9c5.7,0.4,11.5-1.6,17.3-2.5c1-0.1,2-0.1,2.9-0.2
		c-0.5,1.1-0.7,2.7-1.6,3.1c-6,3.2-12.4,5.4-19.2,4C190.9,212.2,183.9,210.9,180.6,204.2z"/>
	<path class="st2" d="M190.8,172.5c3.7,0,6.2,1.3,6.4,4.9c0.1,3-3,5.3-6.6,5c-3.2-0.3-5.9-1.4-5.9-5.2
		C184.7,173,187.7,172.4,190.8,172.5z"/>
	<path class="st2" d="M217.1,175.9c-0.1,4.5-2.7,6.6-6.4,6.6c-3.1,0-6.5-2.7-6.1-5.3c0.6-3.8,3.2-4.9,6.9-4.8
		C214.7,172.6,217.1,173.4,217.1,175.9z"/>
	<path class="st3" d="M234.4,104.5c12,0.1,21.5,9.7,21.4,21.7c-0.1,12.2-9.7,21.6-22,21.5c-11.6-0.1-21.2-9.8-21.2-21.4
		C212.5,114,222.2,104.4,234.4,104.5z"/>
	<path class="st3" d="M167.7,104.4c12.3,0,21.6,9.5,21.5,21.9c-0.1,11.9-9.7,21.3-21.8,21.2c-12-0.1-21.4-9.6-21.3-21.7
		C146.1,113.9,155.6,104.4,167.7,104.4z"/>
	<path class="st5" d="M250.1,119.6c-0.1,3.4-2.8,5.7-6.3,5.3c-4.6-0.4-9.5-4.8-10.4-9.2c-0.7-3.2,1.2-6,4.4-6.6
		C243.1,108.2,250.2,114.2,250.1,119.6z"/>
	<path class="st5" d="M183.5,119.2c-0.2,3.7-2.2,5.4-5.4,5.7c-5,0.5-11-5-11.4-10c-0.2-3.5,1.6-5.3,4.8-5.8
		C176.6,108.3,183.5,114.3,183.5,119.2z"/>
</g>
</svg>
