<?xml version="1.0" encoding="utf-8"?>
<!-- Generator: Adobe Illustrator 22.1.0, SVG Export Plug-In . SVG Version: 6.00 Build 0)  -->
<svg version="1.1" id="Layer_1" xmlns="http://www.w3.org/2000/svg" xmlns:xlink="http://www.w3.org/1999/xlink" x="0px" y="0px"
	 width="400px" height="400px" viewBox="0 0 400 400" style="enable-background:new 0 0 400 400;" xml:space="preserve">
<style type="text/css">
	.st0{fill:#FFFFFF;}
	.st1{fill:#B05FB4;}
	.st2{fill:#733F76;}
	.st3{fill:#E3B7E4;}
	.st4{fill:#FAF7F9;}
	.st5{fill:#060606;}
</style>
<circle class="st0" cx="200.5" cy="199.6" r="200"/>
<g>
	<path class="st1" d="M310.4,297.7c-4,4.3-8,8.6-11.9,12.9c-5.2,6.6-12.7,9.7-19.7,13.7c-2.6,1.5-3.8,3.1-4.1,6.1
		c-0.8,6.4-0.5,12.8-0.6,19.3c0.1,2,0.1,4.1,0,6.1c0,1.8-0.7,3.5-1.4,5.2c0.7,8.1-1.8,11-9.7,11c-11.8,0-23.7,0-35.5,0
		c-7.6,0-9.8-2.3-9.8-10c0-6.1-0.1-12.2,0-18.3c0.1-3-0.9-4.1-4-4c-8.1,0.2-16.1,0.3-24.2,0c-3.6-0.1-4.2,1.4-4.1,4.4
		c0.2,6.5,0.1,12.9,0,19.4c-0.1,6-2.5,8.5-8.5,8.5c-11.5,0.1-23,0-34.4,0c-11.2,0-12.7-1.6-12.1-12.9c-1.2-1.3-1.5-2.9-2-4.5
		c-0.3-1.4-0.3-2.8,0-4.2c1.2-6.7,0.4-13.5,0.5-20.3c0-3-2-4.2-4.3-5.5c-7-4.1-14.8-7.2-20-13.9c-3.4-3.9-7-7.6-10.3-11.6
		c-10.9-13.7-15.5-29.2-15-46.8c0.6-18.2,3.1-35.9,8.8-53.2c0.5-1.7,1.4-3.2,2.1-4.8c2.1-0.7,2.9,1.1,3.8,2.2
		c8.1,9.1,17.5,16.4,28.5,21.8c2.8,1.4,4.3,3.6,5.2,6.5c9.9,31.5,37.1,46.2,65.6,47c14.5,0.4,28.7,0.2,42.3-5.1
		c10.4-4.1,19.3-9.8,26.7-19c6.1-7.7,10.3-15.8,13.7-24.6c0.8-2.1,2.1-3.6,4.2-4.6c10.8-4.9,19.9-12,27.6-21c1.2-1.4,2.1-4,4.9-3.2
		c6.2,13.7,9.1,28.4,10,43.2c0.8,11.7-0.3,23.5-1,35.3c-0.1,2.7-1.9,5.2-3,7.8c-0.7,4.7-2.2,9.1-4.7,13.2
		C313.3,295.3,312.5,297.1,310.4,297.7z"/>
	<path class="st1" d="M95,182.5c-1.5-5.1-3.5-10.2-4.4-15.4c-2.9-17.1-0.3-33.9,4.4-50.4c1.5-5.3-0.6-5.7-4.8-6.5
		c-6.5-1.1-12.9-2.5-19.2-4.5C65.6,104,63.9,99.3,65,94c3.4-17.6,11-33.4,23.4-46.4c9-9.3,16.6-9,25,0.9c3.6,4.2,6.5,9,9.2,13.9
		c2,3.7,3.5,4.5,7.2,1.7c10.2-7.9,21.9-13,34.4-15.9c22.6-5.2,45.4-6.4,68.2-1.4c15,3.2,29.6,8,41.8,17.8c3,2.4,4.2,1.7,6.1-1.3
		c3.3-5.5,6.7-11,10.8-16c6.4-7.9,13.9-8.5,21.4-1.6c14,13,22.1,29.4,25.7,48c1.4,7.2-0.9,10.8-7.9,13.2c-5.5,1.9-11.4,2.8-17.2,3.6
		c-4.2,0.6-6.1,1.2-4.6,6.4c4.8,16.8,7.1,34,4.1,51.5c-0.8,4.9-2.8,9.5-4.3,14.3c-6.9,13-18.1,21.8-30.3,29.2
		c-2.2,1.3-4.7,1.8-6.8-0.4c-1.2-4.3,0.3-8.5,0.3-12.8c0.2-13.5-5.8-23.4-16.6-30.8c-12.6-8.7-27-12.4-42-13.6
		c-16.6-1.3-33-0.1-48.8,5.7c-7.1,2.6-13.8,6-19.5,11.1c-10.1,8.9-14,20.1-12.1,33.3c0.3,2.3,0.9,4.6-0.1,6.9
		c-1.6,2.1-3.9,2.1-5.8,1C113.7,204.7,102.1,196,95,182.5z"/>
	<path class="st2" d="M95,182.5c2,2.3,4.3,4.4,6.1,6.9c6.6,9.4,16.1,15.3,25.5,21.3c1.2,0.8,3.1,0.6,4.6,0.9c3.3,1.7,3,5.1,3.7,7.9
		c4,15.2,12.3,27.3,25.6,35.8c9.3,6,19.9,8.3,30.5,9.3c10.7,1,21.4,0.6,32-1.8c24.9-5.6,39.3-21.3,45.7-45.4
		c0.6-2.2,0.4-4.8,3.1-5.8c7.7-0.1,12.5-5.7,17.7-9.9c6.1-5,10.8-11.6,16.2-17.5c0.7-0.7,1.6-1.2,2.4-1.8c1.6,3.9,3.2,7.8,4.8,11.7
		c-9.5,10.8-19.8,20.5-33.4,26.1c-1.1,0.5-1.8,2.5-2.4,3.9c-2.5,5.5-4.4,11.4-7.6,16.5c-10.4,17-25.9,27.2-45.2,30.7
		c-19,3.4-38.1,3.4-56.6-3.1c-19.6-6.9-33-20.3-39.9-39.9c-1.9-5.3-4.6-8.4-9.6-11c-11-5.5-19.9-13.9-27.9-23.2
		C91.9,190.3,93.5,186.4,95,182.5z"/>
	<path class="st2" d="M129.6,354.8c0.3,1.4,0.5,2.8,0.8,4.2c-5.4-0.1-10.7-0.1-16.1-0.2c-7.2-0.1-9.8-2.6-9.8-9.6
		c0-12.9,0.1-25.7,0.1-38.6c6.1,3.8,11.9,8.5,18.5,11.3c6.5,2.8,8.1,6.9,7.3,13.2c-0.6,5-0.7,10.2-1,15.2c-1.7,0.9-1.9,3.5-4.1,3.9
		c-2.1,0-2.9-1.8-4.3-2.8c-1.5-1.1-3.1-1.8-4.9-1.2c-1.4,0.4-2.9,1.1-2.7,2.8c0.2,1.6,1.8,1.3,3,1.4c2.8,0.2,5.7-0.1,8.5,0.3
		C126.5,354.7,128,354.3,129.6,354.8z"/>
	<path class="st2" d="M272.6,361c0-1.8,0-3.5-0.1-5.3c4.8-2.1,2.8-4.2,0-6.3c0.2-7.3,0.3-14.5,0.6-21.8c0-0.9,0.5-2.2,1.2-2.6
		c8-4.9,16.1-9.6,24.1-14.4c0.1,13.3,0.2,26.5,0.1,39.8c0,5.3-4.1,8.8-9.8,8.7c-3.9-0.1-7.9-0.4-11.8-0.1
		C275.5,359.1,274.1,360.3,272.6,361z"/>
	<path class="st2" d="M310.4,297.7c2.9-5.7,5.7-11.5,8.6-17.2c0.2,1.9,0.1,3.9,0.6,5.7c3,11.2,2.8,22.5,2.1,33.9
		C317.9,312.6,314.1,305.1,310.4,297.7z"/>
	<path class="st3" d="M160.7,363.4c2.6,1,4.8,2.6,7.9-0.3c1.5-1.4,6,0.1,8.8,1c1.1,0.4,1.4,3,2,4.6c-1.3,0.4-2.5,1-3.8,1
		c-12,0.1-23.9,0.1-35.9,0c-1.3,0-2.5-0.8-3.7-1.2c0.6-1.4,0.8-3.2,1.7-4.2c2.9-3,6.3-2.8,9.8-0.9c1.2,0.7,2.3,1.6,3.4,2.4
		c-0.8,2.8-3.2,1.4-4.8,1.9c4.8,0.1,9.7-0.6,14.8-0.2c-0.8-2.1-5-1.6-3.6-5c0.8,0,1.6,0.1,2.4,0.1
		C160,362.9,160.4,363.1,160.7,363.4z"/>
	<path class="st4" d="M227.3,369.4c-0.7,0-1.4,0-2,0c-0.5-0.1-0.8-0.3-1.1-0.7c1.4-2,2.4-5.3,4.2-5.8c2.2-0.6,5.6,0.4,7.4,2
		c2.2,1.9,2.6,1.4,4.4-0.3c4.9-4.7,10.4-2.7,11.9,4.2C243.9,370,235.6,368.6,227.3,369.4z"/>
	<path class="st4" d="M157.3,362.5c2.2,1.6,4.3,3.3,7.2,5.5c-7.9,0-15.3,0-22.7,0c0-0.3-0.1-0.7-0.1-1c3.1-0.4,6.2-0.7,9.3-1.1
		c0,0,0.3-0.1,0.3-0.1c0.6-0.8,1.3-1.5,1.9-2.3C154.5,363.1,155.9,362.8,157.3,362.5z"/>
	<path class="st3" d="M266.8,368.6c-4.1,0.4-8.2,0.7-12.3,1.1c-0.1-1.4-0.2-2.8-0.3-4.2c0.5,0,1-0.1,1.5-0.4
		C261.4,362.2,261.9,362.4,266.8,368.6z"/>
	<path class="st4" d="M266.8,368.6c-3.4-4.4-7.9-3.9-12.6-3.1C259.3,360.1,264.6,361.3,266.8,368.6z"/>
	<path class="st3" d="M272.6,349.5c0.7,0.1,1.7-0.1,2,0.2c1.2,1.7,2.3,3.6,3.4,5.5c-1.8,0.2-3.6,0.4-5.4,0.6
		C272.6,353.6,272.6,351.6,272.6,349.5z"/>
	<path class="st3" d="M227.3,369.4c8.3-0.2,16.5-0.4,24.8-0.6C243.8,369,235.6,369.2,227.3,369.4z"/>
	<path class="st4" d="M125.8,353.6c1.2-1.1,2.4-2.2,3.6-3.2c0,1.5,0.1,3,0.1,4.5c-1.5,0.3-2.9,0.5-4.4,0.8
		C124.5,354.6,126.1,354.4,125.8,353.6z"/>
	<path class="st3" d="M153.1,363.4c-0.6,0.8-1.3,1.5-1.9,2.3C151.8,364.9,152.4,364.2,153.1,363.4z"/>
	<path class="st4" d="M160.7,363.4c-0.3-0.3-0.7-0.5-1-0.8C160,362.8,160.4,363.1,160.7,363.4z"/>
	<path class="st3" d="M224.2,368.7c0.4,0.2,0.7,0.5,1.1,0.7C224.9,369.2,224.5,368.9,224.2,368.7z"/>
	<path class="st3" d="M271.9,211.7c-3.7,9.4-6.3,19.5-11.4,28.1c-8.8,14.7-23.2,22-39.7,25c-15.7,2.8-31.4,2.7-46.8-2.1
		c-22.9-7-35.9-23.2-41.3-46c-0.4-1.7-1-3.4-1.5-5.1c-0.3-3.9-0.5-7.8-0.8-11.7c-0.9-14.9,5.9-25.7,17.7-33.9
		c12.3-8.5,26.3-12.2,40.8-13.4c20.5-1.7,40.8-0.1,59.6,9.6c19.7,10.1,26.8,24.2,23.2,46.2C271.6,209.5,271.8,210.6,271.9,211.7z"/>
	<path class="st4" d="M204.8,110.4c0-22.7,18.4-41.1,41-41c22.1,0.1,40.8,19.1,40.6,41c-0.2,22.1-18.6,40.6-40.4,40.7
		C223.2,151.2,204.8,133,204.8,110.4z"/>
	<path class="st4" d="M117.3,110.7c-0.1-23,17.9-41.4,40.5-41.2c22.4,0.1,40.5,18.3,40.6,40.8c0,22.7-18.1,40.9-40.9,40.9
		C135.5,151.1,117.4,132.9,117.3,110.7z"/>
	<path class="st3" d="M306.9,104.6c-1.5-1.5-3.7-3-5-5c-5.6-8.2-11.1-16.6-16.4-25c-0.8-1.3-1.3-3.9-0.6-4.9
		c3.6-5.3,7.5-10.5,11.7-15.3c3.2-3.6,7.1-4.1,11.5-1c10.4,7.4,15,18.4,19.4,29.6c0.6,1.5,1,3.1,1.4,4.6c2,7.4,0.1,11.3-7.1,13.5
		C317.5,102.5,312.9,103.3,306.9,104.6z"/>
	<path class="st3" d="M93.7,104.5c-5.1-1.5-10.3-2.8-15.3-4.6c-4.3-1.6-5.7-5-4.7-9.6c2.6-12.4,8.1-23.3,16.4-32.7
		c7.3-8.3,12-8.3,19.4-0.1c3.3,3.7,6.2,7.9,8.7,12.2c0.7,1.2,0.2,3.9-0.7,5.3c-5.3,8.3-11.1,16.2-16.1,24.6
		C99.5,102.9,97.6,104.5,93.7,104.5z"/>
	<path class="st3" d="M125.8,353.6c-0.2,0.7-0.4,1.3-0.7,2c-3.9,0.1-7.8,0.3-11.8,0.4c-3.3,0.1-3-1.8-1.9-3.9
		c2.1-4.1,7.4-4.8,11-1.5C123.6,351.7,124.7,352.6,125.8,353.6z"/>
	<path class="st3" d="M287,356c-0.7,0-1.5,0.2-2.1,0c-2-0.9-3.9-2-5.8-3c2.6-1.5,5.2-4.2,7.6-4c2.1,0.2,3.9,3.6,5.9,5.6
		c-1.8,0.6-3.6,1.3-5.5,1.9C287.1,356.4,287.1,356.2,287,356z"/>
	<path class="st4" d="M166.4,366.3c2.8-0.4,5.7-0.9,8.5-1.2c0.1,0,0.3,1.5,0.4,2.3c-2.9,0.5-5.8,1-8.6,1.5
		C166.6,368.1,166.5,367.2,166.4,366.3z"/>
	<path class="st2" d="M173.8,191.8c-0.6,2.7-0.8,4.2-1.2,5.8c-1.9,6.4-5.5,9.7-10.6,9.7c-5.1,0-9.7-3.7-10.6-10.2
		c-0.6-4.5-0.2-9.8,1.6-13.9c3.8-8.3,13-8.4,17.6-0.5C172.4,185.7,173,189.3,173.8,191.8z"/>
	<path class="st2" d="M252.3,191.5c0.1,9.7-5.1,16.3-12,15.7c-6.5-0.5-11.8-9.2-10.5-17.3c0.1-0.7,0.4-1.4,0.5-2.1
		c1.6-6.9,6-11.1,11.3-10.8c5.4,0.3,9.9,5.5,10.5,12.3C252.3,190.2,252.3,191.1,252.3,191.5z"/>
	<path class="st2" d="M248.5,238c-8,8.9-18.5,12.6-29.8,14.7c-18.4,3.4-36.4,1.8-53.4-6.7c-3.8-1.9-7.1-4.7-10.2-7.6
		c31.2,15.4,61.9,17.2,92.5-1.3C248.3,237,248.6,237.3,248.5,238z"/>
	<path class="st2" d="M247.6,237.1c0.7-0.2,1.4-0.3,2.1-0.5c-0.4,0.5-0.8,0.9-1.2,1.4C248.2,237.7,247.9,237.4,247.6,237.1z"/>
	<path class="st5" d="M241.6,136.2c-14.4,0-26-11.5-26.1-25.8c-0.1-14.2,11.6-26.1,25.8-26.1c14.8,0,26.4,11.5,26.3,26.1
		C267.4,125,256.1,136.2,241.6,136.2z"/>
	<path class="st5" d="M135.7,110.2c0-14.4,11.5-25.9,25.9-25.9c14.5,0,25.9,11.4,26,25.8c0,14.8-11.3,26.2-26.2,26.1
		C146.9,136.2,135.6,124.7,135.7,110.2z"/>
	<path class="st4" d="M260.7,102.2c0.1,4.3-3.2,7.3-7.7,6.8c-5.3-0.6-11-5.5-12.3-10.7c-1-4.1,1.3-7.6,5.4-8.3
		C252.2,88.9,260.5,95.9,260.7,102.2z"/>
	<path class="st4" d="M180.6,104.4c-1.3,1-3.4,3.8-5.9,4.4c-6.1,1.5-14.2-6-14.3-12.3c-0.1-4,2.1-5.9,5.7-6.5
		C172.3,89,180.6,96.3,180.6,104.4z"/>
</g>
</svg>
