<?xml version="1.0" encoding="utf-8"?>
<!-- Generator: Adobe Illustrator 22.1.0, SVG Export Plug-In . SVG Version: 6.00 Build 0)  -->
<svg version="1.1" id="Layer_1" xmlns="http://www.w3.org/2000/svg" xmlns:xlink="http://www.w3.org/1999/xlink" x="0px" y="0px"
	 width="400px" height="400px" viewBox="0 0 400 400" style="enable-background:new 0 0 400 400;" xml:space="preserve">
<style type="text/css">
	.st0{fill:#FFFFFF;}
	.st1{fill:#936AB2;}
	.st2{fill:#6A4983;}
	.st3{fill:#C9A2E5;}
	.st4{fill:#F9F8FA;}
	.st5{fill:#060606;}
</style>
<circle class="st0" cx="200.5" cy="199.6" r="200"/>
<g>
	<path class="st1" d="M205.6,223.1c-3.3-2-6.6-2.2-9.9,0c-1.9,2.8-3.9,5.4-7,6.8c-1.6,1-3.2,2-4.8,3c-8,1.6-11.2-3.8-14-9.8
		c-2.4-4.8-5.3-9.1-11.1-10.3c-3.1,0.2-5.7,2.8-9,2.2c-3.4,1.7-6.8,3.4-10.2,5.1c-4.7,3.2-8.4,3.2-12.7,0c-1.7-2.7-3.4-5.3-5.1-8
		c-2.4-2.6-2.1-6.1-3.5-9c-0.9-1.8-1-4.2-3.2-5.3c-2.6-0.8-5,0.2-7.3,1.2c-1.5,0.4-2.9,0.8-4.4,1.2c-4.2,0.4-8.5,3.1-12.4-1
		c-1.4-4.6-3.8-9.1-3.9-13.7c-0.8-43,10.5-82.2,38.9-115.2c18-20.9,41.3-31.7,69-32.9c48.7-2,80.8,22.5,101.3,64.4
		c13,26.5,19.6,54.6,17.9,84.3c-0.3,4.4-2.5,8.7-3.9,13.1c-3.5,3.8-7.5,1.8-11.4,1c-1.5-0.4-2.9-0.8-4.4-1.2
		c-2.5-0.8-4.9-1.8-7.6-1.4c-2.4,0.3-2.4,2.5-3.1,4c-1.5,3.5-1.8,7.4-4.3,10.5c-1.6,2.3-3.2,4.7-4.8,7c-3.7,4.2-7.6,4.5-12.8,1.1
		c-3.4-1.7-6.9-3.4-10.3-5.1c-2.6,0.3-5-0.3-7.1-1.9c-7.2-0.5-9.9,4.9-12.9,9.9c-1.5,2.5-2.2,5.4-4.6,7.5c-3.9,3.3-5.7,3.5-9.9,0.5
		c-0.8-0.1-1.6-0.2-2.4-0.4C210.1,230,207.8,226.5,205.6,223.1z"/>
	<path class="st2" d="M298.2,199.1c4,0,8,0,12.1,0c-1.2,5.8-2.4,11.6-3.5,17.5c-0.7,3.7-1.3,7.5-1.6,11.3
		c-0.4,5.7,1.8,10.3,6.5,13.8c2.8,2.1,5.5,4.2,8.3,6.3c9.6,7.1,12.8,16.6,9.9,28c-0.9,3.5-1.8,7.1-3.2,10.4
		c-5,11.9-2.8,23.1,3.1,33.8c2.5,4.6,5.7,8.8,8.6,13.2c0.3,0.5,0.2,1.4,0.3,2c-0.6-0.3-1.2-0.6-1.8-0.9c-2.5-0.3-3.8-1.9-4.4-4.2
		c-2.7-3.2-5.4-6.4-8.1-9.6c-1.5-1-2.9-2-2.5-4.2c0-0.3-0.2-0.6-0.5-0.8c-0.6-0.5-0.4-1.5-1-2c-0.7-1.7-1.4-3.3-2.1-5
		c-1.6-1.5-1.2-3.6-1.8-5.4c-0.1-0.5-0.2-1.1-0.2-1.6c-0.2-0.3-0.3-0.6-0.1-1c0.1-3.6,0.2-7.2,0.3-10.7c0.6-1,0.2-2.2,0.7-3.2
		c0.1-0.7,0.2-1.3,0.3-2c-0.1-1.5-0.5-3,1-4l0.1-0.2l-0.1-0.2c0.5-1.2,0-2.5,0.9-3.6c1.4-5.6,2.6-11.2-2.1-16
		c-0.3-0.3-0.6-0.7-0.9-1l-0.3-0.3c-2.2-0.8-4.4-1.4-5.2-4c-0.4-0.3-0.8-0.6-1.3-0.8c-12.6-5-20.2-18.2-18.2-31.6
		c1-6.9,2.9-13.7,4.6-20.4C296.5,201.4,296.9,200,298.2,199.1z"/>
	<path class="st2" d="M90.9,199.1c4.2,0,8.3,0,12.5,0c4,6.9,4.9,14.7,6.4,22.3c0.5,2.6,0.9,5.2-1,7.5c-0.2,1.3-0.4,2.6-0.6,3.9
		c1.2,2.4,0.4,4.4-1.5,6.1c-1.3,2.2-2.6,4.4-3.9,6.6c0.1,1.1-0.4,1.6-1.5,1.6c-0.4,0-0.6,0.3-0.6,0.6c-0.3,0.5-0.7,0.8-1.2,1.1
		c-1.5,1.2-3.1,2.5-4.6,3.7c0.2,1.4-1,0.9-1.6,1.1c-0.6,0.4-1.1,0.8-1.7,1.1c-1.5,2.2-3.4,3.9-6.1,4.4c-0.3,0.3-0.5,0.5-0.8,0.8
		c-0.4,0.2-0.6,0.5-0.8,0.9c-4.6,4.8-3.5,10.4-2.1,15.9c0.7,1,0.2,2.3,0.8,3.3c0.5,2.2,0.9,4.4,1.4,6.7c0.3,0.7,0.3,1.5,0.6,2.2
		c0.2,1.9,0.4,3.8,0.6,5.7c0.8,2.4,1,4.8-0.3,7.1c-0.1,0.6-0.1,1.1-0.2,1.7c-0.9,1.6,0,3.9-1.8,5.2c-0.8,1.9-1.5,3.7-2.3,5.6
		c-0.6,1.9-0.6,4.2-2.9,5.2c-2.7,3.3-5.3,6.6-8,9.8c-0.3,0.9-1.4,0.7-2,1.3c-0.3,0.3-0.6,0.6-1,1c-0.6,0.7-0.8,1.9-2,2
		c-0.4-0.5-1.2-1.3-1.1-1.5c2.2-3.5,4.8-6.7,6.8-10.3c6.9-11.9,9.3-24.3,3.4-37.5c-1.5-3.3-2.3-6.9-3-10.4
		c-2-10.6,1.2-19.3,9.9-25.9c2.8-2.1,5.5-4.3,8.3-6.3c6-4.2,7.9-10.2,6.8-17c-1.2-7.3-3.1-14.6-4.6-21.8
		C91.1,201.8,91.1,200.5,90.9,199.1z"/>
	<path class="st2" d="M126.8,220.1c4.2,0,8.5,0,12.7,0c1.1,6.8,2.7,13.7,3,20.5c0.4,8.8-3.4,16.1-10.5,21.5
		c-3.8,2.9-7.8,5.6-11.7,8.5c-4.7,3.6-6.3,8.4-5.2,14.1c0.7,3.6,1.2,7.2,2.3,10.7c5,16.3-0.1,30-10.5,42.4c-2.9,3.4-6.2,6.4-9.4,9.6
		c-0.3-0.3-0.6-0.6-0.9-0.9c3-4.7,6.3-9.2,9-14.1c5.8-10.7,8.2-21.8,3.3-33.8c-2-5-3.4-10.5-4.1-15.8c-1.7-13.3,6.8-20.8,16.5-27.2
		c7.9-5.2,10.7-12.3,8.6-21.4c-0.6-2.4-1-4.9-1.6-7.3C127.9,224.6,127.3,222.3,126.8,220.1z"/>
	<path class="st2" d="M261.8,220.1c4.4,0.6,8.8,2.3,12.8-1.1c-1.1,5.5-2.4,11-3.4,16.5c-1.6,8.2,1.2,14.4,7.9,19.4
		c19.1,14.1,21.5,20.3,13.4,42.7c-5.9,16.4-0.8,29.8,8.2,42.9c1.4,2,2.8,3.9,3.8,6.1c-13.1-8.8-27.2-29.6-21.3-48.2
		c1.2-3.8,1.8-7.8,2.6-11.6c1.6-7.4-0.3-13.5-6.8-17.8c-1.5-1-3-2.1-4.5-3.1c-14.5-9.8-18.7-20.5-14.8-37.6
		C260.5,225.6,261.1,222.9,261.8,220.1z"/>
	<path class="st2" d="M169.8,223.1c1,1.2,2.2,2.3,3.1,3.7c2.3,3.4,4.8,6.3,9.6,5c0.3-0.1,0.9,0.7,1.3,1.1
		c4.7,18.7-1.3,31.6-19.4,40.8c-7.7,4-10.6,9.3-9.3,17.7c0.8,5.2,1.8,10.4,2.4,15.6c1.7,13.8-4.4,24.8-13.3,34.6
		c-3.3,3.6-7.2,6.6-11.1,9.2c4.2-6.6,8.8-13,12.6-19.8c4.7-8.5,5.2-17.5,2.4-27c-1.8-5.8-2.9-12-3.3-18c-0.5-7.6,2.9-13.9,8.9-18.5
		c2.8-2.1,5.7-4,8.6-6c9.7-6.5,12.2-12.5,10-24.1C171.4,232.5,170.6,227.8,169.8,223.1z"/>
	<path class="st2" d="M217,231.1c6,1.9,8.4,0.8,11.6-4.7c0.7-1.2,1.9-2.2,2.8-3.3c-0.7,4.4-1.8,8.8-2,13.2
		c-0.3,5.9,0.1,11.8,0.4,17.7c0.1,1,1.1,2.2,2.1,2.9c4.2,2.9,8.6,5.6,12.9,8.4c10.2,6.6,13.2,16.1,11.1,27.6
		c-0.5,2.9-1.1,5.9-2.1,8.7c-5.7,15.5-0.6,28.6,8.5,40.9c1.3,1.7,2.6,3.4,3.8,5.2c0.1,0.1,0,0.3-0.1,1.1c-1.1-0.4-2.1-0.6-2.8-1.2
		c-9.3-7.7-16.6-17-19.1-28.9c-1.2-5.6,0.2-11.8,0.5-17.7c0.1-1.8,0.6-3.6,0.9-5.4c2-13.8,0.8-16.1-11.3-23.4
		c-15.4-9.3-20.1-16.6-17.4-37.1C217.2,233.7,217,232.4,217,231.1z"/>
	<path class="st3" d="M286.3,196.2c2.7,0.4,5.5,0.9,8.2,1.3c-1.5,9.5-4,18.7-5.8,28.1c-1.9,9.8-0.9,18.4,7.7,24.9
		c1.9,1.5,4,3.1,4.8,5.5c2.1,3.6,4.2,7.2,6.3,10.8c0.8,0.9,0,2.2,0.9,3c0,0.3,0.1,0.6,0.2,0.9c1,1.2,1.1,2.6,0.8,4
		c0,1.3,0,2.6,0,3.9c-0.2,2.7,1.1,5.5-0.9,8c-0.3,1.3-0.6,2.7-1,4c-0.7,5.6,1.3,11.2,0,16.9c-0.4,1.6,0,4-3,3
		c-0.3-10.4-1-20.8-0.9-31.2c0.1-8.8-3.4-16-10-20.6c-13-9.2-16.7-21.1-13.2-35.9c0.2-1,0.1-2,0.1-3c0.8-0.9,0.1-2.1,0.9-3
		c0.3-1.7,0.6-3.3,0.9-5C282.1,206.4,283.4,201.1,286.3,196.2z"/>
	<path class="st3" d="M107.8,197.6c2.7-0.4,5.5-0.9,8.2-1.3c1.8,5.5,3.8,11,3.7,16.9c0.7,7,1.5,14,2.2,21c1.2,11.5-6,18.2-14.1,24.2
		c-5.6,4.1-9.4,9.4-9.7,16.3c-0.4,8.6,0,17.2-0.1,25.8c-0.1,3.4-0.7,6.9-1,10.3c-0.6,0.5-0.4,1.4-0.9,2l-0.1,0.1
		c-0.7,0.5-1.4,0.4-2-0.1c0-0.7,0-1.3-0.1-2c-1.1-5.3,0.4-10.7,0.1-16c-0.1-1-0.1-2-0.2-3c-1-1.5,0.3-3.5-0.9-5l0,0
		c-3-5.3-1.5-10.6-0.1-15.9c0-0.3,0.1-0.7,0.1-1c0.6-0.5,0.4-1.4,0.8-1.9c0.4-1.1,0.8-2.1,1.1-3.2c0.7-0.4,0.5-1.3,0.9-1.9
		c0.4-0.6,0.7-1.3,1.1-1.9c0.3-0.3,0.6-0.7,0.9-1c0.4-0.6,0.7-1.2,1.1-1.9c0.3-0.4,0.6-0.8,1-1.2c1.7-1.6,3.3-3.3,5-4.9
		c0.4-0.4,0.6-0.8,1.1-1.1c2.3-2.6,4.6-5.3,6.9-7.9c2.5-7.9,0-15.6-1.4-23.3C110.1,212.4,107.8,205.2,107.8,197.6z"/>
	<path class="st3" d="M149.7,215c3-0.7,6-1.5,9-2.2c0.2,3.5,0.2,7,0.6,10.4c0.7,6.1,2.2,12.1,2.2,18.2c0,9.1-5.1,15.9-12.2,21.2
		c-10,7.5-13.6,17.1-12,29.6c1.5,10.9,0.6,21.9-4.1,32.2c-0.6,1.4-1.5,2.7-2.8,3.9c5.6-12.9,3.2-26,1.4-39.1
		c-1.5-10.9,1.2-20.7,9.5-28.4c1.3-1.2,2.5-2.8,3.9-3.8c9-6.3,9.5-15.4,8.1-25C152.6,226.3,151,220.7,149.7,215z"/>
	<path class="st3" d="M244.4,213.1c2.4,0.6,4.7,1.2,7.1,1.9c-1.3,8.8-3.4,17.6-3.7,26.4c-0.2,3.9,2.4,8.5,4.8,11.9
		c3.5,4.9,8.4,8.8,12.3,13.6c5.3,6.6,5.4,14.6,4.4,22.4c-1.5,11.7-3.2,23.2-0.3,34.9c-4.6-6.4-5-13.8-5.3-21.1
		c-0.2-5.6,0.6-11.2,0.8-16.9c0.3-9.3-3.5-17.2-10.9-22.3c-12.6-8.8-15.8-20.5-12.8-34.8C241.9,223.8,243.2,218.5,244.4,213.1z"/>
	<path class="st3" d="M205.6,223.1c3,2.5,6.1,5.1,9.1,7.6c-3.7,7.7-1.8,15.9-1.7,23.9c0.1,9.4,6,15.8,11.9,22.2
		c8.6,9.2,11.9,19.8,9.9,32.4c-1.3,8.5-1.2,17.1-2.3,25.9c-0.7-4.8-1.5-9.6-1.9-14.5c-0.3-3.5-0.4-7,0-10.5
		c1.5-13.3-4.1-23.6-13.5-32.1c-8.4-7.6-11.7-17-11.5-28C205.7,241.1,205.6,232.1,205.6,223.1z"/>
	<path class="st3" d="M188.6,229.9c2.3-2.3,4.7-4.5,7-6.8c0,9.8,0,19.6,0,29.4c0,9.4-3,17.7-10.1,24c-11.1,9.8-16.2,21.7-15.1,36.6
		c0.5,7.4-0.8,14.9-2.2,22.1c-0.8-10.8-2-21.5-2.4-32.3c-0.3-9.8,2.8-18.9,10.1-25.6c9.9-9.1,13.7-19.9,12.7-33
		C188.3,239.6,188.6,234.7,188.6,229.9z"/>
	<path class="st4" d="M241.4,80.2c20.8,0,37.7,16.7,37.9,37.5c0.2,20.4-17.2,37.6-37.7,37.7c-21.3,0-37.4-16.4-38-37.6
		C202.9,95.8,223.4,78.8,241.4,80.2z"/>
	<path class="st4" d="M160.1,80c21.3,0.1,37.7,16.7,37.6,38c-0.1,21.1-16.8,37.3-38.4,37.2c-20.2-0.1-37.1-17.1-37-37.3
		C122.4,96.6,139,79.9,160.1,80z"/>
	<path class="st5" d="M123.5,162.3c21.9,18.4,48,24.2,75.7,24.7c27.8,0.5,54-5.1,76.6-22.9C247.4,200.1,154,200.2,123.5,162.3z"/>
	<path class="st5" d="M261.8,117.5c0.1,13.4-10.4,24.1-23.7,24.4c-13.2,0.3-24.5-11-24.5-24.3c0-13.1,11-24,24.1-24.1
		C250.7,93.3,261.7,104.3,261.8,117.5z"/>
	<path class="st5" d="M187.6,117.9c-0.1,13.2-11,24.1-24.1,24c-13.4-0.1-24-11-23.9-24.7c0.1-12.9,10.9-23.6,23.9-23.7
		C176.8,93.4,187.7,104.4,187.6,117.9z"/>
	<path class="st4" d="M243.2,98.8c5.9,0,12.4,6.2,12.2,11.6c-0.1,4.2-2.6,5.8-6.5,5.8c-5.9,0-12.3-6-12.3-11.5
		C236.6,101.2,239.3,98.8,243.2,98.8z"/>
	<path class="st4" d="M174.9,116.3c-6,0.1-12.3-5.7-12.4-11.3c-0.1-3.6,1.6-5.6,5.2-6c6-0.7,12.8,4.7,13.4,10.7
		C181.5,113.6,179,116.2,174.9,116.3z"/>
</g>
</svg>
