<?xml version="1.0" encoding="utf-8"?>
<!-- Generator: Adobe Illustrator 22.1.0, SVG Export Plug-In . SVG Version: 6.00 Build 0)  -->
<svg version="1.1" id="Layer_1" xmlns="http://www.w3.org/2000/svg" xmlns:xlink="http://www.w3.org/1999/xlink" x="0px" y="0px"
	 width="400px" height="400px" viewBox="0 0 400 400" style="enable-background:new 0 0 400 400;" xml:space="preserve">
<style type="text/css">
	.st0{fill:#FFFFFF;}
	.st1{fill:#B97D42;}
	.st2{fill:#735C43;}
	.st3{fill:#8A5E32;}
	.st4{fill:#FAF9F6;}
	.st5{fill:#060606;}
</style>
<circle class="st0" cx="200.5" cy="199.6" r="200"/>
<g>
	<path class="st1" d="M232.2,54.8c7.4,4.8,15.4,8.8,22,14.4c18,15.5,30.8,34.6,36.1,58c4.5,19.9-2.7,35.9-18.6,48.1
		c-10.6,8.2-22.9,12.9-35.8,16.1c-1.1,0.3-2.2,0.7-3.3,1c-5.4,3.3-11.7,3.4-17.6,3.6c-13.4,0.5-26.9,1.2-40.2-1.6
		c-2-0.4-4.1-0.5-5.6-2c-9.6-3.5-19.6-6.2-28.8-10.7c-14.2-7-25.1-17.7-29-33.8c-2.9-11.6-0.3-22.8,4-33.5
		c10.2-25.3,26.9-45.1,50.9-58.4c1-0.6,2.1-0.9,3.2-1.3c1.4-1.8,3-3.3,5.4-3.5c2.8-0.6,5.6-1,8.3-1.8c13.8-3.8,27.3-3.1,40.7,1.6
		c0.6,0.2,1.4,0.1,2.1,0.2C228.7,51.4,230.6,52.7,232.2,54.8z"/>
	<path class="st1" d="M228,317.3c-4.5,8.9-10,17-18.5,22.5c-5.8,3.7-11.7,3.7-17.5-0.2c-7.9-5.3-13.4-12.5-17.4-21
		c-1.8-2.9-5.3-5-4.5-9.2c-6.6-13.8-10.5-28.2-7.6-43.6c1.5-8.1,6-14.6,13-19.2c2.4,1.4,3.9,3.9,5.9,5.7c14,12.2,27.4,10.6,40.2-1.4
		c1.5-1.5,2.6-3.6,5.2-3.5c8.4,5.5,12.1,13.7,13,23.3c1.1,12.4-2.2,24-6.6,35.4c-0.6,1.6-0.9,3.3-1.4,5c-0.5,2.1-1.6,3.8-3.3,5.2
		C228.4,316.6,228.2,317,228,317.3L228,317.3z"/>
	<path class="st1" d="M229.7,232.9c-2.3,3.9-4.6,7.8-6.9,11.7c-12.8,16.3-30.7,16.8-44,0c-2.4-4-4.7-8-7.1-12
		c-3.1-1.4-2.7-4.3-3-6.9c-1-3.3-1.9-6.7-2.9-10c-1.6-2.9-2.8-5.7-0.6-8.9c0.5-0.8,0.3-2-0.1-2.9c0.8-2.7,1.6-5.4,2.3-8
		c12.1,2.4,24.3,3.4,36.7,3.1c8.1-0.2,16.2-0.7,24.2-1.9c2.1-0.3,4.3-1.1,6.2,0.5c0.9,3.7,1.8,7.4,2.7,11.1c2.1,3.1-1.6,4.9-1.7,7.5
		c-1,3.7-2,7.5-2.9,11.2C233.1,230.1,232,231.9,229.7,232.9z"/>
	<path class="st1" d="M298.2,187.9c1.4-14.9,9.6-25.4,21.6-33.3c4-2.6,9-5.1,13.7-1.3c4.4,3.6,3.3,8.5,1.8,13.2
		c-3.4,10.8-10.2,19-19.4,25.2c-5,3.3-10.2,4.7-15.9,1.7C298.6,191.8,297.5,190.1,298.2,187.9z"/>
	<path class="st1" d="M101.6,193.2c-4.8,2.8-9.4,2.2-14-0.5c-11.7-7.1-19.7-16.9-22.1-30.7c-1.4-7.8,3.4-11.8,11.1-9.8
		c10.5,2.7,26.6,19.8,26.8,35.6C104,190.1,103.3,191.8,101.6,193.2z"/>
	<path class="st1" d="M298.5,228.1c8.1-8.6,18.2-7.6,28.4-5.9c6.8,1.1,13.1,3.6,18.5,8.2c6.3,5.4,5.3,11.8-2.3,15.2
		c-11.1,4.9-36.4,1-43.5-10.4c-0.3-0.4-0.9-0.7-1.4-1c-1.5-1.9-1.4-3.8,0.1-5.7l0.1-0.2L298.5,228.1L298.5,228.1z"/>
	<path class="st1" d="M103.3,234c-11.4,12.8-25.9,15.2-41.9,12.3c-1.8-0.3-3.6-1.1-5.3-2c-3.6-1.9-5.4-6.7-3-10
		c2.3-3.1,5.4-6.1,8.8-7.9c9.6-5.1,20-7.1,30.7-4.4c3.8,1,7.1,4,10.6,6.1C104.6,230.2,104.8,232.1,103.3,234z"/>
	<path class="st2" d="M232.2,54.8c-2.1-1.2-4.1-2.3-6.2-3.5c3-4.7,5.3-10,9-14c8.8-9.5,22.3-9.4,32.8-0.2c8.3,7.3,13.4,17,19.2,26.2
		c8.6,13.6,17.4,27,26.4,40.2c2.5,3.7,6.2,6.6,9.1,10.1c-10.1-6.2-18.3-14.6-25-24.2c-8-11.6-15.4-23.5-23.3-35.1
		c-2.7-3.9-5.7-7.7-9.2-11c-10.2-9.9-21.9-8.4-29.5,3.7C234.1,49.3,233.3,52.1,232.2,54.8z"/>
	<path class="st2" d="M174.8,51.3c-1.8,1.2-3.6,2.3-5.4,3.5c-1.4-6.7-5.2-11.9-10.8-15.7c-5.8-3.9-13.1-3.7-18.9,1.7
		c-5.8,5.4-10.8,11.7-15.4,18.1c-9.6,13.2-18.5,26.9-28.1,40.1c-2.8,3.9-7,6.9-10.6,10.2c-0.9,0.8-2.3,1.1-3.7,1.3
		c14-13.1,22.6-29.7,32.2-45.8c5-8.3,10.2-16.7,16.4-24c3.8-4.4,9.4-8,14.9-9.8C157.5,27.1,173,38.2,174.8,51.3z"/>
	<path class="st1" d="M174.2,352.6c0.3,0.1,0.6,0.2,0.7,0.4c1.3,2.7,2.5,5.4,3.8,8c-2.5,0.3-5,0.8-7.5,0.8
		c-13.2,0.1-26.3,0.1-39.5,0.1c-4.5,0-5.2-1-3.2-5c2.8-5.7,7.6-9,13.4-10.9c7.7-2.6,15.3-2.5,22.9,0.4
		C169.7,345.8,171.7,349.5,174.2,352.6z"/>
	<path class="st1" d="M236.7,346.4c10.3-3.7,20.4-3.3,29.5,2.9c3.1,2.2,5.3,5.9,7.5,9.2c1.2,1.9,0.5,3.5-2.4,3.5
		c-15.2-0.1-30.4-0.1-45.7,0c-2.3,0-3.5-0.8-2.3-3c1.2-2.2,2.8-4.2,4.2-6.3c0.8-0.3,0.6-1.2,1-1.7l-0.1,0.1
		C230.7,348.4,233,346.2,236.7,346.4z"/>
	<path class="st2" d="M103.3,234c0-1.9,0-3.8,0-5.8c10.4,3.7,20.8,7.6,31.3,11.1c1.8,0.6,4.3,0.6,6.1-0.1
		c8.3-3.2,16.6-6.7,24.8-10.3c1.3-0.6,2.2-2.1,3.3-3.2c1,2.3,2,4.6,3,6.9c-10,4.1-20,8.3-30.1,12.2c-2.2,0.8-5.1,1-7.3,0.3
		C123.9,241.6,113.6,237.8,103.3,234z"/>
	<path class="st2" d="M101.6,193.2c0.6-1.8,1.2-3.6,1.8-5.4c8.4,6.8,16.7,13.7,25.3,20.3c1.7,1.3,4.4,2,6.5,2
		c8.2-0.2,16.4-1,24.7-1.1c3.8-0.1,5.7-1.1,5.4-5.1c0.2,3.9,0.4,7.9,0.7,11.8c-1.5-0.5-3-1.5-4.5-1.4c-9.2,0.4-18.4,1.2-27.7,1.4
		c-2.5,0.1-5.4-0.9-7.3-2.4C117.9,206.9,109.8,200,101.6,193.2z"/>
	<path class="st2" d="M298.3,228.3c0,1.9,0,3.8-0.1,5.7c-10.5,3.8-20.9,7.7-31.4,11.3c-1.8,0.6-4.3,0.5-6.1-0.2
		c-8.4-3.2-16.6-6.9-24.9-10.3c-2-0.8-4.1-1.3-6.2-2c1-1.8,2.1-3.6,3.1-5.4c9.6,4,19.2,8.2,28.8,12c1.5,0.6,3.7,0.5,5.3-0.1
		C277.4,235.9,287.8,232,298.3,228.3z"/>
	<path class="st2" d="M298.2,187.9c0.6,1.8,1.2,3.6,1.8,5.4c-8.2,6.7-16.2,13.6-24.6,20.1c-2,1.5-4.9,2.5-7.4,2.4
		c-9.3-0.2-18.5-1.1-27.8-1.4c-1.5-0.1-3,1.3-4.5,1.9c0.6-2.5,1.1-5,1.7-7.5c10.1,0.5,20.2,1.2,30.3,1.5c1.6,0.1,3.6-0.8,4.9-1.8
		C281.2,201.8,289.7,194.8,298.2,187.9z"/>
	<path class="st3" d="M234.7,197.7c-14.9,2.5-29.9,3.3-44.9,2.6c-7-0.4-14-1.7-21-2.7c-0.5-0.1-0.8-1-1.3-1.6c0.5-1.1,1-2.3,1.5-3.4
		c13.9,2.6,28,3.1,42.1,2.4c7.1-0.3,14.2-1.6,21.3-2.5C233.3,194.2,234,196,234.7,197.7z"/>
	<path class="st3" d="M178.8,244.6c4.7,3.2,9.1,7.1,14.2,9.6c8.3,4.1,15.9,1.3,22.8-4c2.4-1.8,4.7-3.7,7.1-5.6
		c1.4,0.9,2.7,1.9,4.1,2.8c-5.2,4.7-9.9,9.7-16.8,12.5c-10.9,4.5-19.7,0.9-27.9-5.6c-2.6-2-4.5-5.1-6.7-7.7
		C176.6,246,177.7,245.3,178.8,244.6z"/>
	<path class="st2" d="M174.2,352.6c-3.1-2.1-6.2-4.1-9.4-6.2c-1.6-3.5-2.9-7.3-4.9-10.5c-3.1-4.9-3.1-8.9,1.1-13.5
		c3.6-3.9,6.2-8.6,9.2-13c1.5,3.1,3,6.1,4.5,9.2c-1-1.2-1.9-2.9-3.4-0.4c-0.1,0.2-0.3,0.5-0.5,0.7c-7.2,6.5-8.5,13.4-2.4,21.7
		C170.9,344.1,172.2,348.5,174.2,352.6z"/>
	<path class="st2" d="M236.7,346.4c-2.8,1.5-5.5,3-8.3,4.5c3-6.2,6.1-12.4,8.8-18.8c0.6-1.5,0.5-4-0.4-5.3
		c-2.4-3.7-5.4-7.1-8.2-10.6c1.1-1.7,2.2-3.5,3.3-5.2c3.8,5,7.7,10,11.3,15.2c0.9,1.3,1,3.8,0.4,5.3
		C241.6,336.6,239.1,341.5,236.7,346.4z"/>
	<path class="st2" d="M228.6,350.9c-0.3,0.6-0.7,1.2-1,1.7C227.9,352,228.2,351.4,228.6,350.9z"/>
	<path class="st2" d="M298.5,228.1C298.5,228.1,298.6,228.1,298.5,228.1C298.6,228.1,298.5,228.1,298.5,228.1z"/>
	<path class="st2" d="M228,317.3C228,317.3,228,317.4,228,317.3C228,317.4,228,317.3,228,317.3z"/>
	<path class="st4" d="M203.4,117.2c0-18.2,14.6-32.7,32.9-32.8c17.9,0,33,15,33,32.9c0,17.9-15.2,33.1-32.9,33.1
		C218.1,150.5,203.4,135.7,203.4,117.2z"/>
	<path class="st4" d="M132.6,117.3c0-18.3,14.6-32.9,32.8-32.8c18.3,0,32.9,14.7,32.8,32.8c-0.1,18.5-14.7,33.1-33,33.2
		C147.3,150.5,132.6,135.6,132.6,117.3z"/>
	<path class="st2" d="M235.7,178.7c-6.6,1.4-13.1,3.3-19.7,4.1c-16.7,2-33.3,0.6-49.5-4.1c-2-0.6-3.9-1.7-5.9-2.5
		c0.2-2.3,1.7-1.4,2.9-1.2c6.5,1.2,13,2.5,19.5,3.7c15.3,2.8,30.5,1.5,45.6-1.4c1.4-0.3,2.9-0.4,4.3-0.6
		C234.4,176.4,236.4,175.6,235.7,178.7z"/>
	<path class="st3" d="M235.7,178.7c-0.9-0.6-1.9-1.3-2.8-1.9c8.1-3.6,16.4-7,24.4-10.8c2.9-1.4,5.4-3.6,8.3-5.6
		C264,166.1,247.2,176.3,235.7,178.7z"/>
	<path class="st3" d="M163.5,174.9c-1,0.4-1.9,0.8-2.9,1.2c-9.7-2.2-17.4-7.9-24.5-14.7C145.2,165.9,154.3,170.4,163.5,174.9z"/>
	<path class="st3" d="M269.6,157.7c-0.3,0.2-0.6,0.5-0.8,0.7c-0.1-0.2-0.2-0.3-0.3-0.5C268.8,157.8,269.1,157.7,269.6,157.7
		L269.6,157.7z"/>
	<path class="st3" d="M269.5,157.6c0.1-0.4,0.3-0.8,0.4-1.1c0.1,0.1,0.3,0.2,0.3,0.2C270,157,269.8,157.4,269.5,157.6
		C269.6,157.7,269.5,157.6,269.5,157.6z"/>
	<path class="st5" d="M233.2,96.5c12,0,21,9.3,20.9,21.3c-0.1,11.4-9.5,20.6-20.8,20.7c-11.8,0-21.4-9.6-21.3-21.2
		C212.2,105.7,221.5,96.5,233.2,96.5z"/>
	<path class="st5" d="M168.3,96.5c11.8-0.1,21.1,8.9,21.2,20.6c0.1,11.9-9.2,21.3-21,21.3c-11.6,0-20.9-9.3-20.9-21
		C147.5,105.7,156.5,96.6,168.3,96.5z"/>
	<path class="st4" d="M237.8,101c4.6,0,9.8,4.3,10.7,8.7c0.8,3.9-1.8,6.7-5.9,6.5c-4.4-0.2-9.3-4.4-10.2-8.8
		C231.5,103.8,233.9,101,237.8,101z"/>
	<path class="st4" d="M172.9,101c5,0,11,5.2,10.9,9.9c0,3.5-2.1,5.2-5.6,5.3c-5.2,0.1-10.7-5-10.7-10
		C167.5,102.9,169.5,101,172.9,101z"/>
</g>
</svg>
