<?xml version="1.0" encoding="utf-8"?>
<!-- Generator: Adobe Illustrator 22.1.0, SVG Export Plug-In . SVG Version: 6.00 Build 0)  -->
<svg version="1.1" id="Layer_1" xmlns="http://www.w3.org/2000/svg" xmlns:xlink="http://www.w3.org/1999/xlink" x="0px" y="0px"
	 width="400px" height="400px" viewBox="0 0 400 400" style="enable-background:new 0 0 400 400;" xml:space="preserve">
<style type="text/css">
	.st0{fill:#FFFFFF;}
	.st1{fill:#5FB516;}
	.st2{fill:#3F6B18;}
	.st3{fill:#4D9112;}
	.st4{fill:#F7FAF5;}
	.st5{fill:#060606;}
</style>
<circle class="st0" cx="200.5" cy="199.6" r="200"/>
<g>
	<path class="st1" d="M119.7,212.1c-7.5-2.6-15.2-5-22.6-8c-9.4-3.8-17.7-9.4-24.6-17c-12.7-13.9-14.7-30.1-9.2-47.4
		c8.2-25.8,23.9-46.1,46.3-61.3c1.8-1.2,3.8-2.3,5.7-3.5c1.6-1.4,3-1.4,4.1,0.7c0.8,1.4,1.7,3.6,3.8,2.5c2.1-1.1,0.8-3,0.4-4.6
		c-0.2-0.9-0.4-1.7,0.2-2.5c17.4-7.9,35.1-7.9,53-1.7c0.7,0.2,1.2,0.8,1.8,1.2c1.3,1.4,0.6,3,0.2,4.5c-0.3,1.2-0.2,2.3,1,3
		c1.5,0.8,2.4-0.2,3.2-1.3c0.9-1.2,1.3-3,3.4-2.8c18.6,9.3,32.3,23.7,43.2,41.1c6.3,10,11,20.7,13.2,32.3
		c3.7,19.9-3.7,35.5-19.4,47.5c-10.3,7.9-22.1,12.5-34.5,15.7c-1.5,0.4-2.9,1.1-4.4,1.6c-4.2,3-9.2,2.4-13.9,3
		c-14.7,1.9-29.4,1.3-44-0.8C124.2,213.9,121.6,214,119.7,212.1z"/>
	<path class="st1" d="M331.6,277c-4.4,8.9-11.6,14-21.1,16.4c-2.1-1.7-2.5-4.2-3.6-6.4c-7.1-14-19.4-19.1-34.2-19.9
		c-0.5,0-1.2,0-1.6,0.9c7.8,0.2,15.1,1.5,21.8,5.6c6.8,4.2,11.3,10,14.2,17.3c0.4,1.1,0.8,2.2,0,3.3c1.6,9,0.7,17.4-5.7,24.4
		c-1.9,1.5-3.6,0.2-5.3-0.4c-1.4-0.6-2.6-2-4.7-1.5c0.2,1.8,1.9,1.9,2.9,2.7c1.3,1,3.4,1.4,3.1,3.7c-9.5,8.5-20.3,11.4-32.7,7.9
		c-1.4-1.8-1.1-3.9-1.1-5.9c-0.1-14.2-7.1-24-19.2-30.7c-1.2-0.6-3.1-0.7-2.6-2.9c2.2-9.3,8.4-15.6,16.8-18.7
		c6.4-2.4,9.2-4.9,9.1-12.5c-0.2-13.3,10.6-24,25.5-28.1c2.6-2.8,5.9-2.2,9.1-2c13.2,0.6,23.4,6.4,30.2,17.9
		c0.9,5.7,1.9,11.5,2.5,17.3c0.2,1.8-0.8,3.8-1.3,5.7c-1.8,1.4-3.6-0.8-5.5-0.2C328.6,273.6,332.1,274.2,331.6,277z"/>
	<path class="st1" d="M260.4,330c-2.7,5-5.5,10.1-8.2,15.1c-2.6,2.2-4.7-1.4-7.2-0.6c-0.3,2.2,3.3,2.6,2.3,5
		c-8.9,7.4-19.2,8.2-30,5.9c-1.5-1.6-1.4-3.8-2-5.7c-1.4-4.4-3.6-8.2-6.8-11.6c-1.3-1.3-2.8-2.7-2-4.9c3.8-4.7,7.2-9.5,8.6-15.6
		c1.2-5.3,1.4-10.4,0-15.6c-0.5-2-1.8-4.1-0.4-6.3c7.2-3.2,14.6-2.5,22-0.9c1.3,0.3,2.8-0.6,4.2-0.9c3.9,3.7,8.6,6.3,12.4,10.2
		c6,6.2,8.5,13.7,8.2,22.2C261.5,327.7,261.5,329,260.4,330z"/>
	<path class="st1" d="M129.4,253.5c-3.2-4-6.5-8-9.6-12c-0.6-0.7-0.7-1.8-1-2.8c-0.4-2.3,1.8-2.7,2.9-3.7c1.4-1.3,3.6-1.8,4.2-4.3
		c-3.4-1-5.5,4-8.9,1.7c-1.9-5.4-1.1-10.7,0.9-15.9c3-2,6-0.4,8.9,0.1c16.6,2.9,33.2,2.7,49.9,0.2c3-0.4,5.9-1.9,9.1-1.3
		c2.3,5.1,3,10.4,1.5,15.9c-2.2,1.9-3.9-1.5-6-0.6c-0.1,2,1.7,2.4,2.8,3.5c1.1,1.1,2.8,1.9,1.5,3.8c-1.4,2.7-2.8,5.5-4.2,8.2
		c-0.6,1.2-1.2,2.4-1.9,3.6c-12.7,12.4-30.8,15.1-46,6.8C132,255.8,130.3,255.1,129.4,253.5z"/>
	<path class="st1" d="M145.5,304.5c-0.8-0.9-1.4-2.2-2.4-2.6c-9-3.6-15.2-9.8-18.9-18.7c-0.1-0.3-0.1-0.7,0.1-0.8
		c3.5-2.6,1.9-3.9-1.2-4.9c-2-7.8,0-14.7,4.5-21.1c10.3,6.5,21.3,9.1,33.4,6.7c6.2-1.3,11.8-4.1,16.9-7.9c1.3-1,2.3-2.8,4.4-2.4
		c3.7,3.7,6.3,7.9,7,13.2c0.9,4,0.3,8,0.3,12c0.2,0.7,0.4,1.4,0.5,2c-0.5,3-0.4,6.3-4,7.7c-4.3-1.1-6.3-5.5-10.3-7.1
		c-1.2-0.4-2-1.7-3.7-1.5c-0.2,2.1,1.6,2.5,2.7,3.5c3.2,3,8.1,4.4,9,9.5c-4.2,7.5-11.5,10.4-19.1,12.7
		C158.2,306.6,151.8,305.3,145.5,304.5z"/>
	<path class="st1" d="M194.5,337.8c-16.7,8.4-37.4,2.1-45.9-14c-3.4-1.4-1.8-4.5-2.3-6.9c-0.3-3-0.7-5.9-1-8.9
		c1.3-1.1,2.8-0.5,4.2-0.3c13.2,2.1,24.5-1.5,34.3-10.5c1.2-1.1,2.3-2.2,4.1-2.2c5.8,3.2,7.9,8.6,8.8,14.7c0.9-5.3-1.4-9.6-4.3-13.8
		c-0.9-1.3-2.1-2.4-2.4-4.1c-0.1-0.6-0.1-1.2,0.1-1.7c1.8-7,3-7.6,9.3-5c3,3,6,6,9.1,8.9c1,1,2.3,1.7,3.5,2.6
		c3.2,10.3,3.3,20.4-2.7,29.9c-1.5,2.3-2.9,4.8-6,5.3c-3-0.3-4.7-2.7-7-4.1c-1.7-1-2.9-2.8-5.5-3c1.6,4.8,7.5,5.2,8.5,9.8
		C198.8,337.3,196.3,337,194.5,337.8z"/>
	<path class="st1" d="M291.2,221.1c0.4-9.1,4.4-16.3,11.3-22c1.1-0.9,2.1-1.9,3.1-2.9c7.9-6.1,16.8-5.4,25.8-3.6
		c5.1,1.1,9.5,3.4,12.5,8c5.2,5.3,9,11.3,9,19.1l0-0.1c0,0.7-0.1,1.4-0.1,2.2c-2.9,0.9-3.7,2.3-1.1,4.6c0.5,0.5,0.7,1.2,0.2,1.9
		c-2.2,9.3-8,15.4-16.7,18.8c-3.7-1.9-5.5-5.8-8.5-8.5c-7.4-6.6-16-9.1-25.6-9.5c-2.9-0.1-5.8,0.7-8.5-1.1c-0.5-0.9-0.9-1.8-1.4-2.7
		C290,223.9,290.1,222.5,291.2,221.1z"/>
	<path class="st1" d="M304.2,193.8c-1.1-2.3-2.2-4.7-3.3-7c-1.3-1.4-1.5-2.9-0.9-4.6c-0.2-7.2,3.7-12.8,7.3-18.5
		c6.7-6.7,14.7-9.3,24-7.7c3.7,0.7,7.3,2,10.8,3.3c0.4,1,0.6,2.3,1.3,2.8c4.7,3.5,7.5,8.3,9.4,13.7c1.9,2.7,0.3,5.4-0.1,8.2
		c-0.4,5.4-1.8,10.3-6.8,13.4c-1.5-0.1-2.7-1.1-3.9-1.8c-10.9-6-22.2-7.3-34-2.5C306.8,193.6,305.6,194,304.2,193.8z"/>
	<path class="st1" d="M346.4,144.2c0.9,4.6,0,8.8-2.8,12.6c-1.8,1-3.4,0.1-5.1-0.4c-10.3-3.3-20.2-2.9-29.4,3.5
		c-1.2,0.9-2.6,1.3-4.1,1.5c-2.3-3.3-4.5-6.6-6.8-9.8c-1.2-1.6-1.1-3.2-0.2-4.9c0.7-11.7,7.5-19.9,18.5-22.6
		c10-2.4,22.4,1.9,27.4,11.5C347.7,137.7,345.6,141.4,346.4,144.2z"/>
	<path class="st2" d="M123.8,71.1c0.5,1.2,1.3,2.4,1.3,3.6c-0.1,1.7-0.8,3.3-1.3,4.9c-1.5-0.7-3.7-0.9-4.5-2.1
		c-1.1-1.7-2-2.9-4.1-2.5c0.1-1,0.5-2.2,0.2-3.1c-0.7-2-1.5-4.1-2.7-5.9c-12.5-19.5-19.1-16.5-29.9-2.9c-7.5,9.4-14,19.5-20.9,29.3
		c-2.3,3.2-4.4,6.5-6.6,9.8c-0.4-0.2-0.7-0.4-1.1-0.6c2.1-4.4,3.8-9,6.3-13.1c6.7-11,13-22.3,20.8-32.5c11-14.2,22.2-13.7,33.2,0.7
		C118,61.3,120.8,66.3,123.8,71.1z"/>
	<path class="st2" d="M186.4,73.9c-1,1.4-1.7,3-3,4.1c-1,0.9-3.3,1.9-3.7,1.5c-1.1-1.1-1.8-2.8-2-4.4c-0.2-1.5,0.6-3,0.9-4.5
		c1.2-1.3,2.4-2.6,3.5-4.1c3.9-5.1,7.1-10.9,11.7-15.3c7.9-7.6,15.7-7.4,23.7,0.2c9.8,9.3,16.5,20.9,22.7,32.7
		c3,5.7,5.7,11.5,8.5,17.2c-0.4,0.2-0.8,0.5-1.2,0.7c-1.1-1.5-2.1-3-3.2-4.5c-7.8-11.2-15.4-22.5-23.4-33.5c-2.5-3.5-6-6.5-9.2-9.4
		c-3.5-3.2-7.5-3.1-11.3-0.4C193.6,59.3,189.2,66,186.4,73.9z"/>
	<path class="st3" d="M185.8,215.5c-5,1.2-10,3-15,3.6c-17.1,1.9-34.2,1.4-51.1-2.5c-0.6-0.1-1.2,0-1.7-0.1c0.6-1.5,1.1-3,1.7-4.4
		c10.7,0.9,21.5,2.5,32.2,2.5c10.9,0,21.7-1.6,32.6-2.4C184.9,213.2,185.4,214.4,185.8,215.5z"/>
	<path class="st3" d="M182.2,252.6c-10.2,11.3-30.5,15.9-44.6,9.7c-3.5-1.5-6.7-4-10-6.1c0.6-0.9,1.2-1.8,1.9-2.7
		c4.2,1.8,8.4,4,12.8,5.2c13,3.6,24.6,0.7,35-7.8c0.6-0.5,1.6-0.7,2.4-1C180.4,250.8,181.3,251.7,182.2,252.6z"/>
	<path class="st3" d="M188.3,295.7c-1.2,0.8-2.5,1.4-3.5,2.3c-11.3,10.5-24.5,13.8-39.5,10c0.1-1.2,0.1-2.3,0.2-3.5
		c2.4-0.1,4.8-0.7,7.1-0.2c10.3,2,26.1-4.6,30.6-13C186.3,291,187.9,292.7,188.3,295.7z"/>
	<path class="st3" d="M260.4,330c1.3-14.3-4.5-24.7-16.6-32.2c-1.3-0.8-1.9-2.6-2.9-3.9c0.3-0.7,0.6-1.5,0.9-2.2
		c4.6,3.3,9.8,6.1,13.8,10c6.8,6.6,9.6,15.1,9.2,24.6c-0.1,1.6,0,3.2-0.1,4.8C263.3,330.8,261.9,330.4,260.4,330z"/>
	<path class="st2" d="M117.1,232.4c2-0.9,3.9-1.9,5.9-2.5c1.3-0.4,2.9-0.2,4.3-0.3c-0.6,1.4-1,3.2-2,4.2c-1.9,1.9-4.3,3.3-6.5,4.9
		c-9.7,5.2-18.4,11.4-20.4,23.3c-0.1,0.7-0.8,1.3-1.2,2c-0.4-0.7-1.3-1.5-1.2-2c0.8-3.8,0.8-8.3,3-11.1c4.2-5.5,9.7-9.9,14.6-14.9
		C114.8,234.8,115.9,233.6,117.1,232.4z"/>
	<path class="st2" d="M185.6,238.1c-1.4-1.5-3-2.8-4.2-4.4c-0.9-1.1-1.2-2.6-1.8-4c1.4,0.1,2.8,0,4.1,0.2c1.2,0.3,2.4,0.9,3.6,1.4
		c1,0.9,1.9,1.9,3,2.7c8.6,5.9,17.2,11.8,20.2,22.7c0.2,0.7,0.6,1.5,0.4,2.1c-0.3,1.7-0.8,3.4-1.3,5.1c-0.5-1.4-0.8-2.8-1.4-4.1
		c-1.9-3.6-3.3-7.7-6-10.5c-4-4.2-8.9-7.5-13.6-11.1C188,237.9,186.7,238.2,185.6,238.1z"/>
	<path class="st2" d="M123,277.4c1.7,0.4,3.4,0.8,5,1.2c-1.3,1.5-2.6,3-4,4.5c-8.4,3.6-16,8.2-21.7,15.5c-1.8,2.3-2.6,5.4-3.9,8.2
		c-0.4,0.8-0.9,1.5-1.3,2.3c-0.3-0.9-1.1-1.9-0.9-2.7c0.9-3.3,1.6-6.9,3.4-9.8c4.2-7,11.1-11.1,17.8-15.2
		C119.4,280.3,121.2,278.8,123,277.4z"/>
	<path class="st3" d="M307.1,294.3c-4.7-15.3-17.6-24.9-33.6-25c-1.7,0-3.3-0.9-4.9-1.3c1.7-0.7,3.5-2.1,5.2-2
		c18.1,1.3,31.3,8.9,36.8,27.4C309.4,293.7,308.3,294,307.1,294.3z"/>
	<path class="st3" d="M292.6,228c7.5-0.1,15-0.2,22.3,2.4c9,3.1,15.4,9,20.3,16.8c-0.9,0.4-1.8,0.7-2.6,1.1
		c-2.8-2.6-5.5-5.3-8.3-7.9c-8.9-8.3-19.4-10.2-31-7.9C293,230.9,292.8,229.5,292.6,228z"/>
	<path class="st2" d="M198.8,334.5c-2.3-1.9-4.8-3.7-6.9-5.9c-1.2-1.3-1.7-3.2-2.4-4.9c1.6,0.4,3.5,0.5,4.8,1.3
		c2.8,1.8,5.4,3.9,8,5.9c1.5,0.9,3.5,0.8,4.4,2.6c1.1,1.5,2,3.1,3.2,4.5c4.4,5,7.2,10.6,7.3,17.3c0,0-0.2,0.1-0.2,0.1
		c-0.2,0.6-0.7,0.4-1.1,0.3c-0.5-0.1-1-0.3-1.4-0.4c0-0.2-0.1-0.4-0.1-0.6c-0.2-0.3-0.5-0.6-0.7-0.9c-2.1-5.9-6-10.6-10.3-15
		C202.1,337.3,200,336.3,198.8,334.5z"/>
	<path class="st3" d="M206.7,333.6c-1.5-0.9-2.9-1.8-4.4-2.6c5.9-1.4,6.9-6.9,8.8-11.3c2.7-6.1,2-12.5,0.7-18.9
		c-0.3-1.3,0.1-2.8,0.1-4.1c0.9-0.3,1.8-0.6,2.7-0.9c3.6,10.5,4,20.9-1.8,30.8C211.2,329.1,208.8,331.2,206.7,333.6z"/>
	<path class="st2" d="M247.3,349.5c-1.2-1.1-2.5-2-3.4-3.2c-0.5-0.7-0.9-2-0.6-2.6c0.3-0.5,1.7-0.9,2.5-0.7c2.2,0.5,4.3,1.4,6.5,2.1
		c1.2,1.2,2.2,2.5,3.5,3.5c7.1,5,13.5,10.5,14.6,19.8c0.1,1.2-0.3,2.4-0.5,3.6c-0.6-1-1.3-1.8-1.7-2.9
		C264.4,359.1,257.1,353,247.3,349.5z"/>
	<path class="st3" d="M304.2,193.8c12.1-8.3,33.5-5,41.7,3.6c-0.7,1.1-1.3,2.2-2,3.2c-7.6-6.4-16.5-9-26.3-7.8
		c-4.1,0.5-8,2.2-12,3.4C305.2,195.4,304.7,194.6,304.2,193.8z"/>
	<path class="st2" d="M297.5,323.3c-2-1.4-4.2-2.6-6.1-4.2c-0.9-0.7-1.2-2-1.8-3c1.3-0.2,2.7-0.9,3.8-0.6c2.7,0.8,5.3,2.1,8,3.2
		c0.9,1.2,1.7,2.6,2.8,3.5c4.9,3.9,9.3,8.1,10.9,14.4c0.5,2,0.5,4.1,0,6.4C312.1,333.7,306.5,327,297.5,323.3z"/>
	<path class="st3" d="M305.1,161.3c10.9-9.1,23-10.4,36-5.2c0.8,0.3,1.7,0.5,2.5,0.7c-0.5,0.8-1,1.7-1.5,2.6
		c-3.4-0.6-6.9-1.1-10.2-1.9c-8.3-2.2-15.3,0.5-22,5.1c-0.8,0.5-1.7,0.8-2.6,1.2C306.6,162.9,305.8,162.1,305.1,161.3z"/>
	<path class="st2" d="M331.6,277c-1.3-1.3-2.8-2.5-3.9-4c-0.6-0.8-0.7-1.9-1-2.9c1-0.1,2.1-0.5,3.1-0.3c1.4,0.3,2.7,1,4,1.5
		c1.2,1.4,2.1,3.1,3.5,4.3c5.4,4.9,9.3,10.5,9.9,18c0.1,1.2-0.5,2.4-0.7,3.6c-0.6-1-1.3-2-1.6-3C342.5,286.7,338.7,280.6,331.6,277z
		"/>
	<path class="st2" d="M351.9,228.3c-0.4-0.6-0.8-1.1-1.1-1.7c-0.8-1.4-1.5-2.7-2.2-4.1c1.4-0.2,2.8-0.5,4.2-0.7
		c1.4,1.4,2.7,3,4.3,4.3c6.1,5,11,10.9,12,19.1c0.2,1.3-0.6,2.8-0.9,4.1c-0.5-1.1-1.1-2.1-1.4-3.2
		C364.1,238.2,359.7,231.8,351.9,228.3z"/>
	<path class="st2" d="M146.2,317c0.8,2.3,1.6,4.6,2.3,6.9c-10.6,3.6-21.1,7.4-25.2,19.6c-0.5-0.2-0.9-0.4-1.4-0.6
		c0.6-2.3,0.8-4.7,1.8-6.7c4-8,11.6-11.6,19.3-14.9C145,320.3,146.8,319.6,146.2,317z"/>
	<path class="st1" d="M204,338c2.5,3,5.3,5.8,7.5,9c1.3,1.9,1.5,4.5,2.2,6.8c-3-1.6-6.1-3.1-9.1-4.7c-1.4-0.7-2.6-1.7-4-2.5
		c-1.4-0.7-1.9-2.1-2.4-3.4c-0.1-0.6-0.3-1.2-0.4-1.8C198.8,338.4,200.5,336.7,204,338z"/>
	<path class="st2" d="M198.3,343.3c0.8,1.1,1.6,2.3,2.4,3.4c-4.7,4-8.9,8.4-10,14.8c-0.1,0.6-0.9,1.1-1.4,1.7
		c-0.3-0.7-1.1-1.6-0.8-2.2c1.9-4.6,3.7-9.3,6-13.7C195.2,345.8,196.9,344.7,198.3,343.3z"/>
	<path class="st2" d="M352.8,184c0-2.7,0-5.4,0.1-8.2c5.4,2.1,9.4,5.6,12.1,10.7c0.4,0.9,0.3,2,0.4,3.1c-0.7-0.5-1.5-1-2.2-1.6
		c-2.1-1.9-4.2-3.9-6.3-5.9C353.9,179.6,353,181,352.8,184z"/>
	<path class="st2" d="M291.2,221.1c0,1.4,0,2.8,0,4.2c-3.5,2.8-7,5.5-10.5,8.3c-0.7,0.5-1.5,0.9-2.3,1.4c0.2-0.9,0.1-1.9,0.5-2.7
		C281.5,226.9,285.8,223.4,291.2,221.1z"/>
	<path class="st2" d="M300,182.2c0.3,1.5,0.6,3.1,0.9,4.6c-3.1,4.2-6.2,8.3-9.7,13C291.2,192.2,294.5,186.7,300,182.2z"/>
	<path class="st2" d="M346.4,144.2c-0.8-2.9-1.6-5.8-2.4-8.7c6.4,0.9,11.9,3.3,15.2,9.7c-2.7-1.4-5.3-3-8.1-4.2
		C346.7,139.2,346.4,139.5,346.4,144.2z"/>
	<path class="st3" d="M199.4,285.1c-1.8-0.3-4.9-1.5-5.3-0.9c-1.5,2.4-2.2,5.3-3.2,8c-2.9-0.6-4.9-2.1-5.3-5.2
		c1.4-2.3,2.9-4.7,4.3-7c2.4,1.2,4.7,2.4,7.1,3.6c0.4,0.3,0.7,0.6,1.1,0.7C198.5,284.5,199,284.8,199.4,285.1z"/>
	<path class="st2" d="M298.1,146.6c0.1,1.6,0.1,3.3,0.2,4.9c-2.4,3.9-4.8,7.7-7.2,11.6C289.6,158.2,292.4,151.8,298.1,146.6z"/>
	<path class="st3" d="M204,338c-2,1.2-4.1,2.3-6.1,3.5c-1.1-1.3-2.3-2.5-3.4-3.8c1.4-1.1,2.9-2.2,4.3-3.3
		C200.5,335.7,202.3,336.9,204,338z"/>
	<path class="st3" d="M189.4,277.9c-0.1-4-0.2-8-0.3-12C189.2,269.8,189.3,273.8,189.4,277.9z"/>
	<polygon class="st2" points="248.9,104.2 248.9,104.5 249.3,104.3 	"/>
	<path class="st1" d="M216,355.8c0.4-0.1,0.7-0.2,1.1-0.3C216.7,355.6,216.3,355.7,216,355.8z"/>
	<path class="st2" d="M352.9,219.6C352.9,219.6,352.9,219.7,352.9,219.6C352.9,219.7,352.9,219.6,352.9,219.6z"/>
	<path class="st1" d="M214.4,354.8c0.2,0.2,0.2,0.4,0.1,0.6C214.3,355.3,214.2,355.1,214.4,354.8z"/>
	<path class="st1" d="M198.1,284.2c-0.4-0.2-0.7-0.5-1.1-0.7C197.4,283.7,197.8,284,198.1,284.2z"/>
	<path class="st4" d="M116.9,169.1c-16.9,1-34-13.7-33.9-33.3c0.1-17.8,14.8-33,32.8-33.2c18.1-0.1,33.4,14.4,33.6,31.9
		C149.8,153.9,135.7,168.8,116.9,169.1z"/>
	<path class="st4" d="M220.9,136.1c0.9,17.8-15.7,33.4-33.1,33c-19.1-0.4-33.4-14.9-33.2-34.5c0.2-17.4,15.7-32.3,33.5-32.1
		C206.6,102.8,221.1,117.6,220.9,136.1z"/>
	<path class="st5" d="M88,180.2c16.8,12.6,36,17.7,56.6,18.7c15,0.8,29.9,0,44.2-4.7c10.2-3.3,20.1-7.3,27.8-15.2
		c0.5-0.5,1.2-0.8,1.7-1.2c0.3,0.3,0.6,0.5,0.9,0.8c-1.1,1.3-2,2.8-3.2,3.8c-10.3,9-22.4,14.1-35.6,17.3c-19.4,4.6-38.7,3.7-58-0.5
		c-13.3-2.9-25.3-8.6-35.5-17.8C86.8,180.5,87.2,180.1,88,180.2z"/>
	<path class="st2" d="M88,180.2c-0.4,0.4-0.7,0.8-1.1,1.1c-1.5-1.7-3-3.4-4.5-5.1l0.1-0.4l0.4-0.1C84.6,177.3,86.3,178.8,88,180.2z"
		/>
	<path class="st2" d="M82.4,176.3c-0.1-0.3-0.1-0.6-0.2-0.9c0.2,0.1,0.4,0.3,0.6,0.4C82.7,176,82.6,176.1,82.4,176.3z"/>
	<path class="st2" d="M185.6,286.9c1.8,1.7,3.5,3.5,5.3,5.2c4.5,5.2,8.1,10.8,7.1,18.1c-0.1,0.9-0.7,1.7-1,2.6
		c-0.5-0.8-1.5-1.5-1.5-2.2c0.3-6.3-3.4-10.7-7.2-15c-1.7-1.5-3.4-2.9-5.2-4.4c-3.2-2.7-6.5-5.3-9.6-8.2c-1.4-1.3-2.1-3.3-3.1-4.9
		c1.8,0.4,3.9,0.3,5.3,1.2C179.2,281.6,182.3,284.4,185.6,286.9z"/>
	<path class="st5" d="M140.7,135.8c0,11.6-9.4,21.3-21,21.5c-11.7,0.2-21.4-9.5-21.4-21.5c0-11.7,9.6-21.3,21.1-21.3
		C131,114.7,140.6,124.3,140.7,135.8z"/>
	<path class="st5" d="M205.9,136c0,11.7-9.5,21.3-21.1,21.3c-11.7,0.1-21.4-9.8-21.3-21.7c0.1-11.6,9.8-21.2,21.4-21.1
		C196.6,114.7,206,124.3,205.9,136z"/>
	<path class="st4" d="M134.8,131.2c-0.9,0.7-2.5,2.4-4.4,3.3c-1.1,0.5-2.9,0-4.2-0.4c-4.9-1.6-8.5-6.8-7.5-10.9
		c0.8-3.5,3.5-4,6.4-3.7C130,120,134.8,125,134.8,131.2z"/>
	<path class="st4" d="M189.6,119.4c5.2,0.1,11.1,5.5,10.9,10.2c-0.2,3.5-2.3,5.2-5.8,5.1c-5.2-0.1-10.9-5.4-10.8-10.2
		C183.9,120.8,186.2,119.5,189.6,119.4z"/>
</g>
</svg>
