<?xml version="1.0" encoding="utf-8"?>
<!-- Generator: Adobe Illustrator 22.1.0, SVG Export Plug-In . SVG Version: 6.00 Build 0)  -->
<svg version="1.1" id="Layer_1" xmlns="http://www.w3.org/2000/svg" xmlns:xlink="http://www.w3.org/1999/xlink" x="0px" y="0px"
	 width="400px" height="400px" viewBox="0 0 400 400" style="enable-background:new 0 0 400 400;" xml:space="preserve">
<style type="text/css">
	.st0{fill:#FFFFFF;}
	.st1{fill:#BCBCBC;}
	.st2{fill:#BBBBBB;}
	.st3{fill:#060606;}
	.st4{fill:#676767;}
	.st5{fill:#030303;}
	.st6{fill:#FEFEFE;}
</style>
<circle class="st0" cx="199.9" cy="201.3" r="200"/>
<g>
	<path class="st1" d="M264.1,74.2c5.9-2.5,9.2-8.2,14.2-11.8c5.9-4.2,11.1-9.2,18.1-11.5c4.8-1.6,5.6-1.1,5.6,3.8
		c-0.1,15.2-4.2,29.7-8.2,44.2c-0.6,2.1-0.7,4.4-1.9,6.1c-4.9,6.9-2.5,13.3,0.3,20.2c5.3,12.9,6.9,26.6,7.5,40.3
		c0.5,11.1-1.8,21.8-8.6,31.1c-0.5,0.6-0.6,1.5-0.9,2.2c-2.7,1.8-4.4,4.5-6.2,7c-1.5,1.2-3.1,2.4-4.5,3.6
		c-9.1,7.6-19.4,12.9-30.8,16.3c0.4-20.4-6-31.1-24.3-38.8c-18.1-7.7-36.5-7.8-54.6-0.2c-18.8,7.9-25.5,18.8-24.6,39
		c-11.8-3.4-22.3-9.2-31.7-17.1c-1.4-1.1-2.4-2.8-4.6-2.4c-0.7-3.6-3.6-5.8-5.5-8.6c-7.2-10.6-9.7-22-8.9-34.9
		c1-16.1,3.8-31.5,10.5-46.1c0.9-2,0.1-3.4-0.5-5.1c-6.8-18-11.9-36.4-12.6-55.8c-0.2-6,1.3-7.1,6.9-4.5c8.4,3.9,15.5,9.7,22.4,15.9
		c3.9,3.5,7,7.8,11.4,10.7c0.5,3.7,2.1,4.1,5.3,2.2c3.9-2.3,8.2-4.1,12.3-6.2c2.7-1.4,4.4-1.2,6.3,1.7c4.1,6.3,8.7,12.2,14,17.7
		c1.2-1.8,0.3-3.2-0.4-4.6c-1.8-3.9-3.6-7.7-5.5-11.6c-3.7-7.4-3.7-7.3,4.5-8.7c2.4-0.4,3.2,0.2,3.8,2.3c0.8,2.8,1.7,5.6,2.9,8.4
		c2.9,6.8,4.9,14,9.9,20.9c0.4-9-1.9-16.3-3.9-23.7c-2.7-10.1-2.8-10,7.8-10.3c0.2,0,0.3,0,0.5,0c2.6-0.4,3.5,0.6,3.4,3.2
		c-0.1,4.4-0.2,8.9,0.1,13.3c0.6,8.5,0.8,17.1,3.5,26.6c2.4-11.2,3.2-21.3,3.3-31.5c0.2-12.9,0.2-12.9,13.2-10.6
		c0.2,0,0.3,0.1,0.6,0.3c-2.8,11-6.2,22-6.5,33.5c1.6-2.2,2.9-4.4,3.9-6.8c2.8-6.7,5.5-13.3,8.1-20.1c2.4-6.4,2.2-6.2,9.2-4.8
		c3.9,0.8,3.5,2.2,2,4.8c-3.6,6.2-6.6,12.7-8.9,19.6c3.8-2.6,6.3-6.4,9.4-9.7c3.3-3.6,4.4-10.4,9.6-10.6c4.7-0.2,9.4,3.5,13.8,6
		C259.6,81.9,262.9,80.2,264.1,74.2z M156.7,108.3c-20.4,0-37.1,16.5-37.3,36.6c-0.1,21.7,16.4,37.9,36.4,38.1
		c21.9,0.2,38.3-15.7,38.3-37.7C194.3,123.8,176.2,107.9,156.7,108.3z M274.4,145.1c0-20.1-16.9-36.8-37.1-36.8
		c-21.5,0-37.8,16.7-37.6,37.3c0.2,21.8,16.2,36.9,36.7,37.3C258.6,183.4,274.8,165.9,274.4,145.1z M102,67.6
		c1.4,12.5,4.6,23.2,8.7,33.8c1,2.7,2.3,1.6,3.4,0.1c3.3-4.7,7.5-8.6,11.6-12.6c1-1,2.5-2,1.1-3.7c-6.2-7.5-12.8-14.4-21.7-18.7
		C102.7,65.4,102,66.8,102,67.6z M291.7,68.9c0.3-4.1-2.3-3.1-4.2-1.9c-7.7,4.5-14,10.7-19.8,17.5c-1.6,1.9-0.8,3.1,0.7,4.5
		c4.1,3.8,8.2,7.6,11.3,12.3c1.7,2.7,2.9,2.2,3.8-0.4C287.3,90.6,290.7,80.1,291.7,68.9z"/>
	<path class="st2" d="M254.7,352.3c0,1.3-0.1,2.6-0.1,3.9c-12.4-0.2-24.7-0.9-37.1,0.1c-0.1-11.8-0.3-23.6-0.1-35.5
		c0.1-4.1-1.6-4.6-5-4.2c-10.1,1.2-20.3,1.4-30.4,0c-3.8-0.5-5.6,0.3-5.5,4.8c0.3,11.6,0,23.3-0.1,35c-12.3-1.1-24.7-0.3-37.1-0.2
		c0-1.3-0.1-2.7-0.1-4c-0.1-5.6-0.1-11.2-0.2-16.8c0-7.3-0.1-14.7,0.2-22c0.1-3.1-1-4.7-4-5.7c-5.9-1.9-11.5-4.4-16.7-7.8
		c12.1-2,23.6-5.7,34.4-12.4c-1.9-1.1-3.3-0.4-4.6-0.1c-12.8,2.5-25.5,6-38.7,5.4c-4.5-0.6-6.6-4.2-9-7.4c-2.4-3.2-5.3-6.1-6-10.3
		c0.8,0.1,1.6,0.2,2.4,0.3c14.2,3.4,28.5,4.4,42.9,1.4c1.7-0.4,3.8-0.2,5.6-2.5c-8.1-0.6-15.5-1.3-22.9-1.8
		c-10.3-0.8-20.2-4-30.4-5.4c-0.9-5.4-0.4-10.7-0.2-16.1c2.3-0.3,4.1,0.9,6.1,1.7c14.2,5.6,29,7.6,44.3,5.6
		c-16.6-4.1-33.1-8.4-48.8-15.1c0.1-4.8,1.1-9.4,3.7-13.5c6.4,3.9,12.3,8.7,19.5,11.1c5.7,1.9,11.4,4,17.7,3.2
		c-1.7-1.4-3.5-2.4-5.4-3.3c-10.2-5.2-20.2-10.7-28.5-18.8c0.2-4.1,2.5-7.1,5.2-10c0.8,0.6,1.6,1.2,2.3,1.8
		c11.4,9.7,24.3,16.5,38.8,19.9c8,19.7,22.7,30.4,43.7,32.1c17.4,1.4,33.3-2.2,45.8-15.4c4.6-4.8,7.3-10.8,10.2-16.7
		c3.1-0.3,6-1.4,8.9-2.5c12-4.6,22.8-11,32.6-19.2c1,1.5,1.8,3.1,2.9,4.6c2.7,3.7,2.3,6.1-1.7,9.1c-9.8,7.4-20.5,13.1-31.7,18.6
		c0.8,0.4,1.2,0.8,1.6,0.8c10.7-1.3,20.8-4.3,29.9-10.4c8.1-5.5,8.1-5.4,10.5,4.5c0.7,2.9,0.2,4.3-2.8,5.5c-9.2,3.5-18.4,7-28,9.2
		c-6.4,1.4-12.8,3-19.2,4.6c0.8,0.9,1.4,1,2,1c16,1,31.4-1.1,46.3-7.3c1.1-0.5,2.3-1.6,3.6-0.2c0.7,0.7,0.8,14,0,14.6
		c-0.6,0.5-1.4,0.7-2.2,0.9c-11.5,2.9-23,5.3-34.9,5.9c-6,0.3-12,0.9-19.1,1.4c12.1,4.6,31.2,5.3,46.3,2c1.3-0.3,2.6-0.6,3.9-0.6
		c2.4-0.1,3.5,0.8,1.9,3.2c-2.1,3.3-4.2,6.5-6.4,9.8c-2.8,0.4-3.8,4.2-7,4c-14.9,0.6-29.1-4-43.7-5.8c10.8,6.7,22.4,10.8,34.8,12.9
		c-5.4,3.5-11.2,5.9-17.3,8c-2.2,0.7-3.5,1.7-3.4,4.4c0.2,7.7,0.1,15.4,0.2,23C254.7,341,254.7,346.7,254.7,352.3z"/>
	<path class="st3" d="M264.1,74.2c-1.2,6-4.5,7.8-9.3,5.1c-4.4-2.5-9.1-6.2-13.8-6c-5.2,0.2-6.3,7.1-9.6,10.6
		c-3.1,3.3-5.5,7.1-9.4,9.7c2.3-6.9,5.3-13.4,8.9-19.6c1.5-2.6,1.9-4-2-4.8c-6.9-1.4-6.8-1.6-9.2,4.8c-2.5,6.7-5.3,13.4-8.1,20.1
		c-1,2.4-2.3,4.6-3.9,6.8c0.3-11.6,3.7-22.5,6.5-33.5c-0.4-0.2-0.5-0.3-0.6-0.3c-13-2.3-13-2.3-13.2,10.6
		c-0.1,10.2-0.9,20.3-3.3,31.5c-2.7-9.5-2.9-18.1-3.5-26.6c-0.3-4.4-0.3-8.9-0.1-13.3c0.1-2.6-0.8-3.7-3.4-3.2c-0.2,0-0.3,0-0.5,0
		c-10.5,0.3-10.4,0.2-7.8,10.3c2,7.4,4.3,14.8,3.9,23.7c-5-7-7-14.2-9.9-20.9c-1.1-2.7-2.1-5.5-2.9-8.4c-0.6-2.2-1.4-2.7-3.8-2.3
		c-8.1,1.5-8.1,1.3-4.5,8.7c1.9,3.8,3.7,7.7,5.5,11.6c0.6,1.4,1.6,2.9,0.4,4.6c-5.3-5.5-9.9-11.4-14-17.7c-1.9-2.9-3.6-3.1-6.3-1.7
		c-4.1,2.1-8.4,3.8-12.3,6.2c-3.2,1.9-4.7,1.5-5.3-2.2c6.1-10.1,7.4-20.8,3.8-32c0.3-0.3,0.5-0.6,0.7-0.6
		c34.1-0.7,67.8,2.4,100.2,13.8C247.1,62.5,256.2,67.2,264.1,74.2z"/>
	<path class="st3" d="M291.2,288.9c2.1-3.3,4.2-6.5,6.4-9.8c1.5-2.4,0.5-3.3-1.9-3.2c-1.3,0.1-2.6,0.4-3.9,0.6
		c-15.1,3.2-34.1,2.6-46.3-2c7.1-0.5,13.1-1.1,19.1-1.4c11.9-0.6,23.4-3.1,34.9-5.9c0.8-0.2,1.6-0.4,2.2-0.9
		c0.7-0.7,0.6-13.9,0-14.6c-1.2-1.3-2.4-0.2-3.6,0.2c-14.8,6.2-30.3,8.3-46.3,7.3c-0.6,0-1.2-0.1-2-1c6.4-1.5,12.8-3.1,19.2-4.6
		c9.7-2.1,18.8-5.7,28-9.2c3-1.1,3.5-2.6,2.8-5.5c-2.4-9.8-2.4-9.9-10.5-4.5c-9.1,6.1-19.2,9.1-29.9,10.4c-0.4,0-0.8-0.4-1.6-0.8
		c11.3-5.5,22-11.3,31.7-18.6c4-3,4.4-5.4,1.7-9.1c-1.1-1.4-1.9-3-2.9-4.6c-0.9-2.4-2.6-4.2-4.2-6c1.8-2.6,3.6-5.2,6.2-7
		c12.7,9.3,17.5,22.9,20.6,37.4c1.1,5.3,2.2,10.6,3.5,15.8c5.2,20.8,18.8,35.3,35.2,47.7c1.2,0.9,2.4,1.7,4.7,3.3
		C331.2,303.7,310.2,300.8,291.2,288.9z"/>
	<path class="st4" d="M254.8,335.4c0-7.7,0-15.4-0.2-23c-0.1-2.7,1.2-3.7,3.4-4.4c6.1-2,11.9-4.5,17.3-8c2-0.4,3.3-2.6,5.6-2.3
		c0.7,12.6,0.4,25.2,0.1,37.9C272.3,335.4,263.5,335.4,254.8,335.4z"/>
	<path class="st4" d="M118.6,299.9c5.2,3.4,10.8,6,16.7,7.8c3,0.9,4.1,2.5,4,5.7c-0.2,7.3-0.1,14.7-0.2,22c-8.8,0-17.5,0-26.3,0
		c-0.4-12.6-0.6-25.2,0.2-37.8C114.8,298.4,116.7,299.2,118.6,299.9z"/>
	<path class="st3" d="M139.4,356.2c12.4-0.2,24.7-0.9,37.1,0.2c0,1.6,0,3.3,0,4.9c0,11.5,0,11.5-11.3,11.6c-8.9,0-17.7,0-26.6,0.1
		c-2.9,0.1-3.7-0.5-2.7-3.5C137.3,365.2,138.2,360.6,139.4,356.2z"/>
	<path class="st5" d="M217.5,356.4c12.3-1,24.7-0.4,37.1-0.1c1.2,4.6,2.3,9.2,3.7,13.7c0.8,2.6,0,3.1-2.4,3
		c-11.6-0.1-23.2-0.2-34.9-0.1c-3,0-3.6-1.1-3.5-3.7C217.6,364.9,217.5,360.6,217.5,356.4z"/>
	<path class="st5" d="M112.8,335.4c8.8,0,17.5,0,26.3,0c0.1,5.6,0.1,11.2,0.2,16.8c-9.3,0.1-18.6,0.2-27.9,0.4
		c-2.5,0.1-3.1-0.6-2.4-3.1C110.4,344.9,111.5,340.1,112.8,335.4z"/>
	<path class="st5" d="M254.8,335.4c8.8,0,17.5,0.1,26.3,0.1c1.2,4.4,2.1,8.9,3.6,13.3c1,3.1,0.6,4-2.8,3.9c-9-0.3-18.1-0.3-27.1-0.4
		C254.7,346.7,254.7,341,254.8,335.4z"/>
	<path class="st4" d="M147.1,233.7c-14.6-3.5-27.5-10.2-38.8-19.9c-0.7-0.6-1.5-1.2-2.3-1.8c1-1.9,2-3.8,3-5.7
		c2.1-0.4,3.2,1.3,4.6,2.4c9.4,7.9,19.9,13.8,31.7,17.1C146.3,228.3,146.9,231,147.1,233.7z"/>
	<path class="st3" d="M92.3,267.2c10.2,1.5,20.1,4.6,30.4,5.4c7.4,0.6,14.8,1.2,22.9,1.8c-1.8,2.3-3.8,2.1-5.6,2.5
		c-14.4,3-28.7,2-42.9-1.4c-0.8-0.2-1.6-0.2-2.4-0.3C93,272.8,92.8,270,92.3,267.2z"/>
	<path class="st3" d="M93.7,243.2c15.7,6.7,32.2,11,48.8,15.1c-15.4,2-30.1,0-44.3-5.6c-2-0.8-3.8-2-6.1-1.7
		C91.1,248.2,92.7,245.7,93.7,243.2z"/>
	<path class="st3" d="M100.8,221.9c8.2,8.2,18.3,13.6,28.5,18.8c1.8,0.9,3.7,1.9,5.4,3.3c-6.2,0.8-12-1.3-17.7-3.2
		c-7.2-2.4-13.1-7.2-19.5-11.1C97.6,226.7,98.4,224,100.8,221.9z"/>
	<path class="st3" d="M118.6,299.9c-1.9-0.8-3.8-1.5-5.6-2.3c0-2.3-3.8-2-3.2-4.7c13.2,0.5,25.9-2.9,38.7-5.4c1.4-0.3,2.7-1,4.6,0.1
		C142.2,294.2,130.7,297.9,118.6,299.9z"/>
	<path class="st3" d="M280.9,297.6c-2.3-0.2-3.6,2-5.6,2.3c-12.4-2.1-24-6.1-34.8-12.9c14.6,1.7,28.8,6.4,43.7,5.8
		C284.7,295.6,281,295.4,280.9,297.6z"/>
	<path class="st5" d="M147.1,233.7c-0.2-2.7-0.8-5.4-1.9-7.9c-0.9-20.2,5.8-31.1,24.6-39c18.1-7.6,36.6-7.5,54.6,0.2
		c18.3,7.8,24.7,18.4,24.3,38.8c-1.1,2.5-1.7,5.2-1.9,7.9c-2.9,5.9-5.6,11.8-10.2,16.7c-12.6,13.2-28.5,16.8-45.8,15.4
		C169.8,264.1,155,253.4,147.1,233.7z"/>
	<path class="st6" d="M156.7,108.3c19.5-0.4,37.6,15.5,37.5,37c-0.1,21.9-16.4,37.9-38.3,37.7c-20-0.2-36.5-16.4-36.4-38.1
		C119.6,124.8,136.4,108.3,156.7,108.3z M160.4,121.8c-13.5,0-24.2,10.6-24.1,24c0.1,13,10.9,23.6,24,23.6c13,0,23.8-10.8,23.8-23.8
		C184.2,132.5,173.6,121.8,160.4,121.8z"/>
	<path class="st6" d="M274.4,145.1c0.4,20.8-15.8,38.3-38,37.8c-20.4-0.4-36.5-15.6-36.7-37.3c-0.2-20.6,16.1-37.4,37.6-37.3
		C257.5,108.3,274.4,125,274.4,145.1z M233.6,169.4c13.1,0,23.9-10.7,24-23.7c0.1-13.1-10.5-23.8-23.7-23.9
		c-13.6-0.1-24.2,10.4-24.2,23.8C209.8,158.7,220.5,169.4,233.6,169.4z"/>
	<path class="st4" d="M102,67.6c0-0.8,0.7-2.2,2.9-1.2c8.9,4.3,15.6,11.3,21.7,18.7c1.4,1.7,0,2.7-1.1,3.7c-4.1,4-8.3,7.9-11.6,12.6
		c-1.1,1.5-2.3,2.6-3.4-0.1C106.6,90.8,103.3,80.1,102,67.6z"/>
	<path class="st4" d="M291.7,68.9c-1,11.2-4.5,21.6-8.2,32c-1,2.6-2.1,3.1-3.8,0.4c-3-4.7-7.2-8.5-11.3-12.3
		c-1.5-1.4-2.4-2.6-0.7-4.5c5.8-6.8,12.1-12.9,19.8-17.5C289.5,65.9,292,64.9,291.7,68.9z"/>
	<path class="st4" d="M246.8,233.7c0.2-2.7,0.8-5.4,1.9-7.9c11.4-3.3,21.7-8.6,30.8-16.3c1.5-1.2,3-2.4,4.5-3.6
		c1.6,1.8,3.3,3.6,4.2,6c-9.8,8.3-20.6,14.7-32.6,19.2C252.8,232.2,249.9,233.3,246.8,233.7z"/>
	<path class="st4" d="M220.3,216c-5.4,0.1-9.7-3.7-9.8-8.8c-0.1-5,4.1-9.1,9.4-9.1c5.5,0,9.1,3.3,9.3,8.5
		C229.4,212.2,225.9,215.9,220.3,216z"/>
	<path class="st4" d="M173.9,216c-5.7,0-9.2-3.5-9.1-9.1c0.1-5.3,3.5-8.7,9-8.8c5.3-0.1,9.7,4,9.7,8.9
		C183.5,212,179.3,215.9,173.9,216z"/>
	<path class="st4" d="M225.1,239c-7.6,13.6-47.1,14.5-57.9-0.9c9.8,5.5,19,7.8,28.9,7.8C206.1,246,215.6,244.5,225.1,239z"/>
	<path class="st3" d="M160.4,121.8c13.2,0,23.8,10.6,23.8,23.8c0,13.1-10.8,23.8-23.8,23.8c-13.2,0-23.9-10.6-24-23.6
		C136.2,132.5,146.9,121.8,160.4,121.8z M171.3,144.2c3.8-0.1,6.3-1.8,6.3-5.9c0-5.3-6.5-11.4-12.2-11.4c-3.9,0-6.3,1.9-6.4,5.9
		C158.9,138.2,165.5,144.2,171.3,144.2z"/>
	<path class="st3" d="M233.6,169.4c-13.1,0-23.8-10.7-23.9-23.8c-0.1-13.4,10.6-23.9,24.2-23.8c13.1,0.1,23.7,10.8,23.7,23.9
		C257.5,158.7,246.6,169.4,233.6,169.4z M250.9,138.1c-0.1-5.6-6.4-11.3-12.2-11.1c-4.3,0.1-6.6,2.7-5.9,7
		c0.8,5.5,7.1,10.6,12.7,10.1C249.1,143.9,251.1,142,250.9,138.1z"/>
	<path class="st6" d="M171.3,144.2c-5.8,0-12.4-6-12.3-11.3c0.1-4,2.5-5.9,6.4-5.9c5.7-0.1,12.3,6,12.2,11.4
		C177.6,142.4,175.1,144.1,171.3,144.2z"/>
	<path class="st6" d="M250.9,138.1c0.2,3.9-1.9,5.7-5.5,6c-5.5,0.5-11.9-4.6-12.7-10.1c-0.6-4.3,1.6-6.9,5.9-7
		C244.6,126.9,250.8,132.6,250.9,138.1z"/>
</g>
</svg>
