<?xml version="1.0" encoding="utf-8"?>
<!-- Generator: Adobe Illustrator 22.1.0, SVG Export Plug-In . SVG Version: 6.00 Build 0)  -->
<svg version="1.1" id="Layer_1" xmlns="http://www.w3.org/2000/svg" xmlns:xlink="http://www.w3.org/1999/xlink" x="0px" y="0px"
	 width="400px" height="400px" viewBox="0 0 400 400" style="enable-background:new 0 0 400 400;" xml:space="preserve">
<style type="text/css">
	.st0{fill:#FFFFFF;}
	.st1{fill:#8E5725;}
	.st2{fill:#E98425;}
	.st3{fill:#583719;}
	.st4{fill:#F1CDA6;}
	.st5{fill:#FDFDFD;}
	.st6{fill:#060606;}
</style>
<circle class="st0" cx="200.5" cy="199.6" r="200"/>
<g>
	<path class="st1" d="M276.6,92.7c6.8-2.7,13.5-5.3,20.3-8c0.2,0.4,0.4,0.8,0.6,1.1c-2.9,4.9-6,9.8-8.5,14.9c-1.5,3.1-2.1,6.6-3,9.9
		c3.2,0,6.4,0.1,9.5-0.1c9.2-0.5,18.3-0.7,28,3.8c-10.7,3.3-20.1,7.1-26.4,17.1c14.5,0.8,26.2,5.4,34.6,18.5
		c-8.8-1.7-16.7-3.2-25.5,1c12.2,5.8,22.8,12.7,25.7,27.3c-7.8-3.1-15.2-4.5-23.7-2.9c9.8,12,20.6,22.9,18.7,39
		c-7.2-4.7-14.2-9.2-21.3-13.8c-0.5,0.4-0.9,0.7-1.4,1.1c5.4,14.9,9,30,6.4,46c-5.1-6-9.9-11.8-15.3-18.2
		c-1.6,13.2-3.1,24.8-4.6,36.5c-0.5,0.1-1.1,0.2-1.6,0.3c-5.1-6-10.2-12.1-15.4-18.3c-0.9,7.3-1.6,14.3-2.8,21.1
		c-0.6,3.5-2.5,6.8-3.7,10.1c-2.6-2.4-5.4-4.6-7.7-7.3c-2.9-3.3-5.3-7.1-7.9-10.6c-2.3,7.4-4.6,14.7-7.2,23c-4.7-6.1-8.3-11-12-15.8
		c-2.6-1-3.7,0.4-4.1,2.7c-0.6,3.5-1.7,6.8-3.1,10.1c-1.7,4.2-3.8,4.4-6.6,0.7c-2.1-2.8-4.1-5.8-5.9-8.8c-1.6-2.7-2.8-2.2-4.2,0
		c-1.8,2.8-3.6,5.7-5.5,8.5c-2.5,3.7-4.3,3.7-6.7-0.1c-1.5-2.3-2.4-5-3.9-7.3c-2.2-3.2-2.9-3.2-5.3-0.2c-1.6,2.1-2.8,4.4-4.3,6.5
		c-1.2,1.7-2.4,4-4.9,3.7c-2.5-0.3-2.9-2.9-3.6-4.9c-0.9-2.8-1.6-5.6-2.3-8.4c-0.6-2.5-1.9-3.3-4.2-2.4c-3.6,4.7-7.3,9.4-11.9,15.5
		c-2.6-8.1-4.9-15.4-7.2-22.7c-3.2,4.3-6.6,8.7-10,13.2c-0.8,1.1-1.9,2-2.8,3.1c-2,2.4-3.8,2.1-4.4-0.9c-2-9.4-3.8-18.8-5.6-28.1
		c-4.4,5.2-9.5,11.2-15.1,17.8c-4-11.8-5.3-23.5-4.7-36.2c-7.8,4.1-11.8,10.7-15.9,18.1c-2.8-8.6-1.5-16.4-0.3-24.1
		c0.8-5.9,2.5-11.6,3.8-17.5c0.2-1.1,0.2-2.3,0.3-3.5c-1.5,0.1-3.2-0.3-4.3,0.4c-5.4,3.3-10.6,6.9-16,10.5c-1.4-5-0.5-10.8,2.4-15.8
		c4-7,9.1-13.4,13.6-20c0.6-0.9,1.1-2,1.6-3c-1-0.2-2-0.7-3-0.6c-6.5,0.6-12.9,1.4-19.5,2.1c2.7-13,12.9-20.1,24.7-25.6
		c0-0.4,0-0.9,0-1.3c-4-0.6-8-1.8-12.1-1.8c-4,0-8.1,1-12.8,1.6c8.2-12.6,19.9-17.7,34.8-18.2c-6.4-9.7-15.3-13.9-25.2-16.7
		c0-0.6,0.1-1.2,0.1-1.8c5.1-0.9,10.2-2.3,15.4-2.6c5.6-0.3,11.3,0.1,17,0.7c4.1,0.4,4.6-1.5,3.2-4.4c-3.1-6.3-6.6-12.4-9.9-18.6
		c-0.4-0.8-0.8-1.5-1.2-2.3c0.2-0.4,0.4-0.8,0.6-1.2c6.8,2.7,13.5,5.3,20.3,8c2.5,1.2,2.4,3.6,2.1,5.6c-1.3,11.1-0.7,22.3-0.9,33.5
		c-0.1,2.6-1.3,4.7-2.6,6.8c-6,10-11.6,20-14.5,31.5c-5.6,21.9,0.8,40.9,19.1,54.1c13,9.4,27.6,15,43.5,17.4
		c2.3,0.3,3.8,1.8,5.4,3.2c15.7,14,32,14.1,48.1,0.4c2-1.7,4-3.3,6.7-3.7c17.1-3.2,33.1-9.1,46.5-20.6c15-12.8,20.3-28.9,16-48.2
		c-2.8-12.3-8.3-23.3-15-33.8c-2-3.1-2.9-6.3-2.9-9.9c-0.1-9.6,0.5-19.3-0.7-28.9C274.2,97.6,273.6,94.5,276.6,92.7z"/>
	<path class="st2" d="M276.6,92.7c-0.3,3-0.8,6-0.8,9c0.1,6.6,1.1,13.2,0.6,19.7c-0.8,9.1,2.1,16.5,6.9,23.9
		c7,10.7,11.3,22.7,12.4,35.5c1.5,18.5-6.3,32.8-20.8,43.9c-12.4,9.4-26.6,14.5-41.6,17.9c-1,0.2-2.1-0.2-3.1-0.3
		c-0.9-2,0.2-3.6,1.3-5.1c1.8-2.7,3.1-5.7,4.3-8.6c4.2-9.8,1.2-18.4-7.8-24.1c-2.5-1.6-6-1.8-7.3-5.2c0.1-1.7-0.1-2.8-2.4-2.7
		c-11.6,0.8-23.2,0.5-34.8,0.2c-2,0-3.2,0.6-3.6,2.6c-0.7,1.9-2.4,2.6-4,3.5c-14.4,7.9-16.9,18.8-7.6,32.9c1.3,2,4,3.6,2.9,6.7
		c-8.2-2.1-16.7-3.4-24.6-6.4c-13.9-5.2-26.1-13.1-34.5-25.9c-7.7-11.7-8.9-24.3-6-37.7c2.8-13.1,9-24.5,16-35.7
		c0.9-1.5,1.7-3.3,1.8-5c0.4-11.1,0.7-22.3,0.9-33.4c0-1.9-0.5-3.9-0.8-5.8c0.4-6.5,0.8-13,1.2-19.6c0.1-1.2,0.4-2.3,0.6-3.5
		c1.2,0.5,2.5,0.8,3.5,1.6c4.4,3.1,8.7,6.4,13.1,9.6c4.8,1.2,7.9,5.1,11.2,8.1c6.7,6.1,12.5,7.3,21.5,3.7
		c18.8-7.6,38.1-6.5,56.6,2.2c3.6,1.7,6.1,1.3,9.1-1.1c5.5-4.3,10.8-9,17-12.3c4.3-3.1,8.6-6.2,12.9-9.3c1.2-0.8,2.6-1.4,3.9-2.1
		c0.3,1.4,0.9,2.8,0.9,4.2c0.2,4.9,0.2,9.8,0.4,14.7C275.8,90.1,276.3,91.4,276.6,92.7z"/>
	<path class="st1" d="M257.7,81.4c-6.7,5.3-13.3,10.6-20.1,15.7c-0.8,0.6-2.6,0.5-3.7,0c-22.6-11.3-45.2-10.3-67.9,0
		c-1,0.4-2.7,0.4-3.5-0.2c-6.9-5.3-13.6-10.7-20.3-16.1c-1.4-5-2.8-10.1-4.4-15.8c9.7,2.8,16.3,9.2,22.9,17.6
		c-0.1-10.7-3.7-19-8.4-27.9c9.7,3.6,16.8,9.3,22.9,16.4c0.9,1.1,2.1,2,3.1,3c0.5-1.5,1.4-3.1,1.3-4.6c-0.3-6-1-12-1.6-18.8
		c3.2,2,6.8,3.8,9.7,6.4c3.3,2.9,6.1,6.5,8.6,10.1c3.7,5.1,3.2,5,7.3-0.1c3.8-4.7,8.3-8.9,12.7-13.1c1.6-1.5,3.9-2.2,5.5-3
		c-0.5,8-1.1,16-1.6,23.9c0.5,0.2,0.9,0.3,1.4,0.5c6.3-9,14.2-15.9,24.5-20.1c-2.7,8.7-5.2,17.1-7.7,25.4c0.6,0.3,1.2,0.6,1.8,0.9
		c1-1.1,1.8-2.5,3-3.4c4.8-3.9,9.7-7.8,14.7-11.6c0.8-0.6,2.3-0.4,3.5-0.5c-0.1,1.1,0.1,2.3-0.2,3.4
		C260.2,73.5,258.9,77.4,257.7,81.4z"/>
	<path class="st1" d="M250.9,315.8c0,0.2,0,0.3-0.1,0.5c-0.6,2.3-2.3,5.1-1.5,6.9c0.6,1.7,4.2,1.9,5.8,3.5c3.3,3.2,6.2,6.9,9,10.5
		c0.5,0.6-0.4,2.3-0.7,3.5c-4.1,0-8.2,0-12.4,0c-0.8,0-1.7-0.1-2.5-0.1c-2.7,0.9-4.2-0.8-5.8-2.5c-7.3-7.3-15.9-10-26-7.1
		c-5.9,1.7-10.2,5.2-13.4,10.4c-2.5,4-3.9,3.9-6.5-0.2c-8.6-13.5-27.3-15.5-38.2-3.8c-2.5,2.6-4.8,3.7-8.3,3.4
		c-4.4-0.4-8.9-0.1-13.3-0.1c-0.2-1.2-1-2.6-0.6-3.7c2.1-6,6.5-9.9,12.3-12c2.2-0.8,3.2-1.3,2.4-4c-3.8-13.3,2.9-21.2,17-20.3
		c2.2,1.1,2.1,3.2,2.2,5.2c0.1,3.5,0,7,0.1,10.5c0,6.8,0,6.8,6.9,7c8.1,0.4,15.4,2.7,21,8.9c1.7,1.9,2.9,1.6,4.4-0.1
		c5.6-5.8,12.6-8.6,20.6-8.8c6.9-0.2,6.9-0.2,7-6.9c0-4-0.2-8,0.1-11.9c0.1-1.6-0.3-3.9,2.6-3.8c3.9,0.4,7.7,0.7,11.6,1.1
		C250.4,305.7,252.7,310.8,250.9,315.8z"/>
	<path class="st3" d="M250.9,315.8c0.1-4.8-1.7-8.6-5.3-11.8c-0.6-0.5-0.9-1.5-1.3-2.2c4.8-2.9,9.5-6.2,14.5-8.8
		c7.5-3.9,14.9-2.6,21.6,2.3c3.5,2.5,6.7,5.3,10.1,7.9c9,6.8,15.2,6.6,23.9-0.7c4.8-4,9.6-8.1,14.7-11.7c3.1-2.2,7.1-5,10.8-1.3
		c3.6,3.7,1.5,7.9-0.9,11.3c-8.5,12-19.9,20.1-33.9,24.7c-4.8,1.6-9.2,0.5-13.1-2.1c-3.8-2.5-7.4-5.3-11-8.2
		c-10.2-8.2-17.1-8.5-27.8-1C252.5,314.8,251.7,315.3,250.9,315.8z"/>
	<path class="st2" d="M178.3,324.4c-9.4,0.5-9.3,0.5-9.4-8.8c-0.1-5-0.5-10-0.8-15c0.3-6,0.7-12,0.8-18c0-4.6-0.5-9.2-0.8-13.9
		c3.4-3.5,3.5-3.5,4.8,1.1c1,3.5,2,7.1,3.2,10.5c0.4,1.2,1.4,2.3,2.1,3.4c1-0.8,2.2-1.5,3-2.5c2.3-3.2,4.6-6.4,6.6-9.8
		c1.3-2.2,2.4-2.2,3.7-0.4c2.2,3.3,4.2,6.7,6.2,10.2c1.7,3,2.9,3.6,4.8,0.1c2.1-3.7,4.7-7.1,7.1-10.7c1.2-1.9,1.9-2.5,3.3,0.1
		c2.2,4,4.9,7.7,7.5,11.5c1.4,2.1,2.9,2.3,3.8-0.4c1.4-4.2,2.7-8.4,3.9-12.6c1.1-4.1,2.7-4,4.7-0.6c-0.3,2.2-0.8,4.4-0.9,6.6
		c-0.1,7-0.1,14,0,21c0,1.5,0.8,3,1.2,4.6c-0.4,1.3-1.2,2.7-1.3,4c-0.1,5-0.3,10.1,0,15.1c0.2,3.8-0.9,5.4-4.8,4.8
		c-1.5-0.2-3-0.1-4.6-0.1c-1.5-1.6-1.2-3.7-1.3-5.7c-0.1-5.5,0.1-11-0.1-16.5c-0.2-6.7-3.7-10.1-10.4-10.3c-6.9-0.2-13.8-0.2-20.6,0
		c-6.9,0.2-10,3.3-10.3,10.2c-0.2,5.5,0,11-0.1,16.5C179.5,320.7,179.8,322.7,178.3,324.4z"/>
	<path class="st2" d="M137,340.7c4.7-0.1,9.5,0,14.2-0.5c1.7-0.1,3.9-1,5-2.3c11.6-14.7,35.8-11.1,42.2,3.5c0.3,0.8,1,1.4,1.1,1.6
		c4.2-3.8,7.7-8.4,12.3-11.1c10.9-6.3,24-3.5,32.5,5.9c1.1,1.2,2.9,1.9,4.3,2.8c-0.2,1.4-1,3-0.6,4.2c1.2,3.2,0.2,3.9-3,3.9
		c-19-0.1-37.9-0.1-56.9-0.1c-10.7,0-21.4-0.1-32.1,0.1c-3.4,0-5.1-0.5-3.2-4.3c1.3-2.6,0.1-3.5-2.6-3.4
		C145.8,341.1,141.4,340.8,137,340.7z"/>
	<path class="st2" d="M251.1,340.8c4.1,0,8.3,0,12.4,0C259.3,340.7,255.2,340.7,251.1,340.8z"/>
	<path class="st4" d="M221.4,199.2c2.5,1.5,5.1,3,7.6,4.6c9.3,5.5,12.4,15.7,7.7,25.6c-2.1,4.4-4.4,8.6-6.6,12.9
		c-2.6,2-5.3,4-7.9,6.1c-15.1,11.8-33,10.9-46.9-2.4c-1.3-1.2-2.8-2.3-4.2-3.4c-2.4-4.2-5.2-8.2-7.1-12.6c-5.3-11.7-2.2-20.7,9-27
		c2.1-1.2,4.1-2.5,6.1-3.7c2-0.9,3.2,0.5,4.4,1.7c4.6,4.5,9.2,9,13.7,13.7c1.2,1.2,2.2,2.7,2.3,4.4c0.3,5.8,0.3,11.6,0,17.5
		c-0.2,3.4-2.5,3.9-5.2,3.5c-5.9-0.9-11.6-2.7-16-5.6c12,9.5,29.7,10.1,43.4,0.5c-4.9,2.7-9.6,4.4-14.6,5.1c-4.7,0.6-6-0.4-6.2-4.9
		c-0.2-4.7-0.1-9.5,0-14.3c0-2.4,0.8-4.5,2.5-6.2c4.5-4.6,9-9.2,13.7-13.6C218.2,199.7,219.4,198.4,221.4,199.2z"/>
	<path class="st5" d="M197.5,154.9c-0.1,19.4-15.6,34.5-35.3,34.4c-18.7-0.1-34.2-15.9-34.2-34.8c0-19,16-34.9,34.9-34.6
		C182.7,120.1,197.6,135.2,197.5,154.9z"/>
	<path class="st5" d="M203,154.4c0.1-19.3,15.7-34.7,34.6-34.6c19.5,0.1,34.8,15.2,35,34.9c0.2,19.1-15.9,34.6-35.3,34.5
		C218.2,189.2,202.8,173.6,203,154.4z"/>
	<path class="st1" d="M221.4,199.2c-3.6,3.2-7.1,6.7-11,9.6c-7.1,5.2-9.9,12-8.4,20.6c0.1,0.3,0,0.6,0,0.9c0,10.1,0.2,10.3,10.2,7.4
		c2.2-0.6,4.4-1.5,6.4-2.5c2-1,3.9-2.3,6-3.5c-0.7,4.8-8.9,9.5-18.9,10.8c-13.9,1.7-28.9-4-31.3-10.7c6,2.1,12.7,4.7,19.5,7
		c3.2,1.1,4.1-0.1,4.6-3.7c1.6-12.6-1.7-22.7-12.4-30.1c-2.5-1.7-4.7-3.8-7.1-5.7c-1.6-3.1,0.1-4.1,2.8-4.1c12.6,0,25.3,0.4,37.9,0
		C225.5,195,221.1,197.8,221.4,199.2z"/>
	<path class="st4" d="M269.4,82.3c0,13.9,0,27.9,0,41.8c-0.3,0.4-0.5,0.8-0.8,1.2c-1.9-2.3-3.5-5-5.6-6.9
		c-5.4-4.9-11.2-9.4-16.7-14.2c-0.7-0.6-1.2-2.9-0.8-3.2c7.4-6.5,15-12.8,22.5-19.2C268.5,81.9,269,82.1,269.4,82.3z"/>
	<path class="st4" d="M131,123.8c0-13.4,0-27.6,0-43.2c8.8,7.4,16.5,13.8,24.1,20.3c0.4,0.3,0.1,2.2-0.4,2.7
		C146.7,110.6,138.6,117.4,131,123.8z"/>
	<path class="st4" d="M178.3,324.4c-0.1-7.8-0.3-15.6-0.1-23.4c0.1-6.4,3.9-10.2,10.3-10.4c7.8-0.2,15.6-0.2,23.4,0
		c5.9,0.1,10.2,4.2,10.4,10c0.2,7.9,0,15.9,0,23.9c-8.9,0.9-16.5,4.2-22,12.4C195,328.7,187.3,325.4,178.3,324.4z"/>
	<path class="st6" d="M143.9,154.2c0.1-12.2,10.1-22,22.4-21.9c12.4,0.1,22.1,10.2,22,22.9c-0.1,12-10,21.6-22.2,21.6
		C153.4,176.7,143.8,166.9,143.9,154.2z"/>
	<path class="st6" d="M256.6,154.6c0,12.3-9.8,22.1-22.2,22.1c-12.4,0-22.2-9.7-22.3-22.1c-0.1-12.1,9.9-22.3,22-22.4
		C246.6,132.1,256.6,142.1,256.6,154.6z"/>
	<path class="st5" d="M182.3,149.5c-1.1,0.9-2.9,3.2-5,3.7c-5.4,1.2-12-4.9-12.2-10.4c-0.1-3.5,1.8-5.1,4.9-5.5
		C175.2,136.3,182.2,142.4,182.3,149.5z"/>
	<path class="st5" d="M239.2,137.1c5.6,0.1,11.7,6,11.5,10.9c-0.2,3.8-2.5,5.5-6,5.4c-5.4,0-11.5-5.9-11.3-10.8
		C233.6,138.8,236.1,137.4,239.2,137.1z"/>
</g>
</svg>
